<?xml version="1.0" encoding="utf-8"?>
<!-- Generator: Adobe Illustrator 18.1.0, SVG Export Plug-In . SVG Version: 6.00 Build 0)  -->
<svg version="1.1" id="Layer_1" xmlns="http://www.w3.org/2000/svg" xmlns:xlink="http://www.w3.org/1999/xlink" x="0px" y="0px"
	 viewBox="0 0 1000 706.7" enable-background="new 0 0 1000 706.7" xml:space="preserve">
<g>
	<defs>
		<rect id="SVGID_1_" x="55.4" y="20" width="810.1" height="631.4"/>
	</defs>
	<clipPath id="SVGID_2_">
		<use xlink:href="#SVGID_1_"  overflow="visible"/>
	</clipPath>
	<rect x="55.4" y="20" clip-path="url(#SVGID_2_)" fill="#E5E5E5" width="810.1" height="631.4"/>
	
		<line clip-path="url(#SVGID_2_)" fill="none" stroke="#F2F2F2" stroke-width="0.53" stroke-linejoin="round" stroke-miterlimit="10" x1="55.4" y1="547" x2="865.5" y2="547"/>
	
		<line clip-path="url(#SVGID_2_)" fill="none" stroke="#F2F2F2" stroke-width="0.53" stroke-linejoin="round" stroke-miterlimit="10" x1="55.4" y1="395.8" x2="865.5" y2="395.8"/>
	
		<line clip-path="url(#SVGID_2_)" fill="none" stroke="#F2F2F2" stroke-width="0.53" stroke-linejoin="round" stroke-miterlimit="10" x1="55.4" y1="244.5" x2="865.5" y2="244.5"/>
	
		<line clip-path="url(#SVGID_2_)" fill="none" stroke="#F2F2F2" stroke-width="0.53" stroke-linejoin="round" stroke-miterlimit="10" x1="55.4" y1="93.2" x2="865.5" y2="93.2"/>
	
		<line clip-path="url(#SVGID_2_)" fill="none" stroke="#F2F2F2" stroke-width="0.53" stroke-linejoin="round" stroke-miterlimit="10" x1="190.4" y1="651.4" x2="190.4" y2="20"/>
	
		<line clip-path="url(#SVGID_2_)" fill="none" stroke="#F2F2F2" stroke-width="0.53" stroke-linejoin="round" stroke-miterlimit="10" x1="435.9" y1="651.4" x2="435.9" y2="20"/>
	
		<line clip-path="url(#SVGID_2_)" fill="none" stroke="#F2F2F2" stroke-width="0.53" stroke-linejoin="round" stroke-miterlimit="10" x1="681.4" y1="651.4" x2="681.4" y2="20"/>
	
		<line clip-path="url(#SVGID_2_)" fill="none" stroke="#FFFFFF" stroke-width="1.06" stroke-linejoin="round" stroke-miterlimit="10" x1="55.4" y1="622.7" x2="865.5" y2="622.7"/>
	
		<line clip-path="url(#SVGID_2_)" fill="none" stroke="#FFFFFF" stroke-width="1.06" stroke-linejoin="round" stroke-miterlimit="10" x1="55.4" y1="471.4" x2="865.5" y2="471.4"/>
	
		<line clip-path="url(#SVGID_2_)" fill="none" stroke="#FFFFFF" stroke-width="1.06" stroke-linejoin="round" stroke-miterlimit="10" x1="55.4" y1="320.1" x2="865.5" y2="320.1"/>
	
		<line clip-path="url(#SVGID_2_)" fill="none" stroke="#FFFFFF" stroke-width="1.06" stroke-linejoin="round" stroke-miterlimit="10" x1="55.4" y1="168.9" x2="865.5" y2="168.9"/>
	
		<line clip-path="url(#SVGID_2_)" fill="none" stroke="#FFFFFF" stroke-width="1.06" stroke-linejoin="round" stroke-miterlimit="10" x1="67.7" y1="651.4" x2="67.7" y2="20"/>
	
		<line clip-path="url(#SVGID_2_)" fill="none" stroke="#FFFFFF" stroke-width="1.06" stroke-linejoin="round" stroke-miterlimit="10" x1="313.2" y1="651.4" x2="313.2" y2="20"/>
	
		<line clip-path="url(#SVGID_2_)" fill="none" stroke="#FFFFFF" stroke-width="1.06" stroke-linejoin="round" stroke-miterlimit="10" x1="558.7" y1="651.4" x2="558.7" y2="20"/>
	
		<line clip-path="url(#SVGID_2_)" fill="none" stroke="#FFFFFF" stroke-width="1.06" stroke-linejoin="round" stroke-miterlimit="10" x1="804.2" y1="651.4" x2="804.2" y2="20"/>
	<g clip-path="url(#SVGID_2_)">
		<polygon opacity="0.6" fill="#F8766D" points="92.2,622.6 93.7,622.6 95.1,622.6 96.5,622.6 98,622.5 99.4,622.5 100.9,622.5 
			102.3,622.5 103.8,622.4 105.2,622.4 106.6,622.3 108.1,622.3 109.5,622.2 111,622.1 112.4,622 113.8,621.9 115.3,621.8 
			116.7,621.7 118.2,621.6 119.6,621.4 121,621.2 122.5,621 123.9,620.8 125.4,620.5 126.8,620.2 128.3,619.9 129.7,619.5 
			131.1,619.1 132.6,618.7 134,618.2 135.5,617.7 136.9,617.1 138.3,616.4 139.8,615.7 141.2,614.9 142.7,614.1 144.1,613.2 
			145.6,612.2 147,611.1 148.4,609.9 149.9,608.6 151.3,607.3 152.8,605.8 154.2,604.2 155.6,602.5 157.1,600.7 158.5,598.7 
			160,596.6 161.4,594.4 162.8,592 164.3,589.5 165.7,586.8 167.2,583.9 168.6,580.9 170.1,577.7 171.5,574.3 172.9,570.7 
			174.4,566.8 175.8,562.9 177.3,558.6 178.7,554.2 180.1,549.6 181.6,544.7 183,539.6 184.5,534.2 185.9,528.6 187.3,522.7 
			188.8,516.6 190.2,510.3 191.7,503.7 193.1,496.8 194.6,489.7 196,482.3 197.4,474.7 198.9,466.8 200.3,458.6 201.8,450.3 
			203.2,441.7 204.6,432.8 206.1,423.7 207.5,414.4 209,405 210.4,395.3 211.9,385.4 213.3,375.5 214.7,365.3 216.2,355.1 
			217.6,344.7 219.1,334.3 220.5,323.8 221.9,313.2 223.4,302.6 224.8,292 226.3,281.5 227.7,271 229.1,260.6 230.6,250.2 232,240 
			233.5,229.9 234.9,220 236.3,210.2 237.8,200.7 239.2,191.3 240.7,182.2 242.1,173.3 243.6,164.7 245,156.4 246.4,148.3 
			247.9,140.6 249.3,133.2 250.8,126 252.2,119.2 253.7,112.8 255.1,106.6 256.5,100.8 258,95.3 259.4,90.2 260.9,85.4 262.3,80.9 
			263.7,76.6 265.2,72.8 266.6,69.3 268.1,66 269.5,63.1 270.9,60.4 272.4,58.1 273.8,56 275.3,54.2 276.7,52.6 278.1,51.4 
			279.6,50.4 281,49.6 282.5,49 283.9,48.8 285.4,48.7 286.8,48.8 288.2,49.2 289.7,49.8 291.1,50.6 292.6,51.6 294,52.9 
			295.4,54.3 296.9,56 298.3,57.9 299.8,59.9 301.2,62.2 302.6,64.8 304.1,67.5 305.5,70.5 307,73.7 308.4,77.2 309.9,80.9 
			311.3,84.8 312.7,88.9 314.2,93.3 315.6,98 317.1,102.9 318.5,108 319.9,113.4 321.4,119.1 322.8,125 324.3,131.1 325.7,137.4 
			327.2,144 328.6,150.8 330,157.7 331.5,164.9 332.9,172.2 334.4,179.7 335.8,187.3 337.2,195 338.7,202.8 340.1,210.7 
			341.6,218.6 343,226.5 344.4,234.3 345.9,242.1 347.3,249.9 348.8,257.5 350.2,265 351.6,272.2 353.1,279.2 354.5,286.1 
			356,292.6 357.4,298.8 358.9,304.7 360.3,310.2 361.7,315.3 363.2,320 364.6,324.2 366.1,328 367.5,331.4 369,334.3 370.4,336.5 
			371.8,338.3 373.3,339.7 374.7,340.5 376.2,340.7 377.6,340.4 379,339.7 380.5,338.5 381.9,336.7 383.4,334.5 384.8,331.8 
			386.2,328.7 387.7,325.2 389.1,321.2 390.6,317 392,312.4 393.4,307.5 394.9,302.2 396.3,296.8 397.8,291.1 399.2,285.3 
			400.7,279.2 402.1,273.1 403.5,266.8 405,260.5 406.4,254.1 407.9,247.7 409.3,241.4 410.7,235 412.2,228.7 413.6,222.5 
			415.1,216.4 416.5,210.4 417.9,204.6 419.4,198.9 420.8,193.3 422.3,188 423.7,182.7 425.2,177.7 426.6,172.9 428,168.3 
			429.5,163.8 430.9,159.6 432.4,155.6 433.8,151.7 435.2,148 436.7,144.6 438.1,141.3 439.6,138.2 441,135.3 442.5,132.5 
			443.9,129.9 445.3,127.5 446.8,125.2 448.2,123 449.7,121.1 451.1,119.2 452.5,117.5 454,115.9 455.4,114.5 456.9,113.2 
			458.3,112 459.7,110.9 461.2,110 462.6,109.2 464.1,108.6 465.5,108.1 467,107.8 468.4,107.7 469.8,107.8 471.3,108 472.7,108.4 
			474.2,109.2 475.6,110.1 477,111.2 478.5,112.7 479.9,114.4 481.4,116.5 482.8,118.8 484.3,121.4 485.7,124.5 487.1,127.9 
			488.6,131.7 490,135.8 491.5,140.3 492.9,145.4 494.3,150.8 495.8,156.6 497.2,162.8 498.7,169.6 500.1,176.7 501.5,184.2 
			503,192.2 504.4,200.6 505.9,209.4 507.3,218.6 508.8,228.1 510.2,238 511.6,248.2 513.1,258.8 514.5,269.5 516,280.5 
			517.4,291.8 518.8,303.3 520.3,314.8 521.7,326.5 523.2,338.2 524.6,350 526,361.8 527.5,373.6 528.9,385.3 530.4,396.9 
			531.8,408.3 533.2,419.6 534.7,430.7 536.1,441.5 537.6,452.1 539,462.4 540.5,472.4 541.9,482 543.3,491.4 544.8,500.4 
			546.2,509 547.7,517.2 549.1,525.1 550.6,532.6 552,539.7 553.4,546.4 554.9,552.7 556.3,558.6 557.8,564.2 559.2,569.5 
			560.6,574.3 562.1,578.8 563.5,583 565,586.9 566.4,590.5 567.8,593.8 569.3,596.8 570.7,599.6 572.2,602 573.6,604.3 575,606.4 
			576.5,608.3 577.9,610 579.4,611.5 580.8,612.8 582.3,614.1 583.7,615.1 585.1,616.1 586.6,616.9 588,617.7 589.5,618.4 
			590.9,619 592.4,619.5 593.8,619.9 595.2,620.3 596.7,620.7 598.1,621 599.6,621.2 601,621.4 602.4,621.6 603.9,621.8 
			605.3,621.9 606.8,622 608.2,622.1 609.6,622.2 611.1,622.3 612.5,622.4 614,622.4 615.4,622.5 616.8,622.5 618.3,622.5 
			619.7,622.6 621.2,622.6 622.6,622.6 624.1,622.6 625.5,622.6 626.9,622.6 628.4,622.6 629.8,622.6 631.3,622.7 632.7,622.7 
			634.1,622.7 635.6,622.7 637,622.7 638.5,622.7 639.9,622.7 641.3,622.7 642.8,622.7 644.2,622.7 645.7,622.7 647.1,622.7 
			648.5,622.7 650,622.7 651.4,622.7 652.9,622.7 654.3,622.7 655.8,622.7 657.2,622.7 658.6,622.7 660.1,622.7 661.5,622.7 
			663,622.7 664.4,622.7 665.9,622.7 667.3,622.7 668.7,622.7 670.2,622.7 671.6,622.7 673.1,622.7 674.5,622.7 675.9,622.7 
			677.4,622.7 678.8,622.7 680.3,622.7 681.7,622.7 683.1,622.7 684.6,622.7 686,622.7 687.5,622.7 688.9,622.7 690.3,622.7 
			691.8,622.7 693.2,622.7 694.7,622.7 696.1,622.7 697.6,622.7 699,622.7 700.4,622.7 701.9,622.7 703.3,622.7 704.8,622.7 
			706.2,622.7 707.7,622.7 709.1,622.7 710.5,622.7 712,622.7 713.4,622.7 714.9,622.7 716.3,622.7 717.7,622.7 719.2,622.7 
			720.6,622.7 722.1,622.7 723.5,622.7 724.9,622.7 726.4,622.7 727.8,622.7 729.3,622.7 730.7,622.7 732.1,622.7 733.6,622.7 
			735,622.7 736.5,622.7 737.9,622.7 739.4,622.7 740.8,622.7 742.2,622.7 743.7,622.7 745.1,622.7 746.6,622.7 748,622.7 
			749.4,622.7 750.9,622.7 752.3,622.7 753.8,622.7 755.2,622.7 756.6,622.7 758.1,622.7 759.5,622.7 761,622.7 762.4,622.7 
			763.9,622.7 765.3,622.7 766.7,622.7 768.2,622.7 769.6,622.7 771.1,622.7 772.5,622.7 773.9,622.7 775.4,622.7 776.8,622.7 
			778.3,622.7 779.7,622.7 781.2,622.7 782.6,622.7 784,622.7 785.5,622.7 786.9,622.7 788.4,622.7 789.8,622.7 791.2,622.7 
			792.7,622.7 794.1,622.7 795.6,622.7 797,622.7 798.4,622.7 799.9,622.7 801.3,622.7 802.8,622.7 804.2,622.7 805.7,622.7 
			807.1,622.7 808.5,622.7 810,622.7 811.4,622.7 812.9,622.7 814.3,622.7 815.7,622.7 817.2,622.7 818.6,622.7 820.1,622.7 
			821.5,622.7 823,622.7 824.4,622.7 825.8,622.7 827.3,622.7 828.7,622.7 827.3,622.7 825.8,622.7 824.4,622.7 823,622.7 
			821.5,622.7 820.1,622.7 818.6,622.7 817.2,622.7 815.7,622.7 814.3,622.7 812.9,622.7 811.4,622.7 810,622.7 808.5,622.7 
			807.1,622.7 805.7,622.7 804.2,622.7 802.8,622.7 801.3,622.7 799.9,622.7 798.4,622.7 797,622.7 795.6,622.7 794.1,622.7 
			792.7,622.7 791.2,622.7 789.8,622.7 788.4,622.7 786.9,622.7 785.5,622.7 784,622.7 782.6,622.7 781.2,622.7 779.7,622.7 
			778.3,622.7 776.8,622.7 775.4,622.7 773.9,622.7 772.5,622.7 771.1,622.7 769.6,622.7 768.2,622.7 766.7,622.7 765.3,622.7 
			763.9,622.7 762.4,622.7 761,622.7 759.5,622.7 758.1,622.7 756.6,622.7 755.2,622.7 753.8,622.7 752.3,622.7 750.9,622.7 
			749.4,622.7 748,622.7 746.6,622.7 745.1,622.7 743.7,622.7 742.2,622.7 740.8,622.7 739.4,622.7 737.9,622.7 736.5,622.7 
			735,622.7 733.6,622.7 732.1,622.7 730.7,622.7 729.3,622.7 727.8,622.7 726.4,622.7 724.9,622.7 723.5,622.7 722.1,622.7 
			720.6,622.7 719.2,622.7 717.7,622.7 716.3,622.7 714.9,622.7 713.4,622.7 712,622.7 710.5,622.7 709.1,622.7 707.7,622.7 
			706.2,622.7 704.8,622.7 703.3,622.7 701.9,622.7 700.4,622.7 699,622.7 697.6,622.7 696.1,622.7 694.7,622.7 693.2,622.7 
			691.8,622.7 690.3,622.7 688.9,622.7 687.5,622.7 686,622.7 684.6,622.7 683.1,622.7 681.7,622.7 680.3,622.7 678.8,622.7 
			677.4,622.7 675.9,622.7 674.5,622.7 673.1,622.7 671.6,622.7 670.2,622.7 668.7,622.7 667.3,622.7 665.9,622.7 664.4,622.7 
			663,622.7 661.5,622.7 660.1,622.7 658.6,622.7 657.2,622.7 655.8,622.7 654.3,622.7 652.9,622.7 651.4,622.7 650,622.7 
			648.5,622.7 647.1,622.7 645.7,622.7 644.2,622.7 642.8,622.7 641.3,622.7 639.9,622.7 638.5,622.7 637,622.7 635.6,622.7 
			634.1,622.7 632.7,622.7 631.3,622.7 629.8,622.7 628.4,622.7 626.9,622.7 625.5,622.7 624.1,622.7 622.6,622.7 621.2,622.7 
			619.7,622.7 618.3,622.7 616.8,622.7 615.4,622.7 614,622.7 612.5,622.7 611.1,622.7 609.6,622.7 608.2,622.7 606.8,622.7 
			605.3,622.7 603.9,622.7 602.4,622.7 601,622.7 599.6,622.7 598.1,622.7 596.7,622.7 595.2,622.7 593.8,622.7 592.4,622.7 
			590.9,622.7 589.5,622.7 588,622.7 586.6,622.7 585.1,622.7 583.7,622.7 582.3,622.7 580.8,622.7 579.4,622.7 577.9,622.7 
			576.5,622.7 575,622.7 573.6,622.7 572.2,622.7 570.7,622.7 569.3,622.7 567.8,622.7 566.4,622.7 565,622.7 563.5,622.7 
			562.1,622.7 560.6,622.7 559.2,622.7 557.8,622.7 556.3,622.7 554.9,622.7 553.4,622.7 552,622.7 550.6,622.7 549.1,622.7 
			547.7,622.7 546.2,622.7 544.8,622.7 543.3,622.7 541.9,622.7 540.5,622.7 539,622.7 537.6,622.7 536.1,622.7 534.7,622.7 
			533.2,622.7 531.8,622.7 530.4,622.7 528.9,622.7 527.5,622.7 526,622.7 524.6,622.7 523.2,622.7 521.7,622.7 520.3,622.7 
			518.8,622.7 517.4,622.7 516,622.7 514.5,622.7 513.1,622.7 511.6,622.7 510.2,622.7 508.8,622.7 507.3,622.7 505.9,622.7 
			504.4,622.7 503,622.7 501.5,622.7 500.1,622.7 498.7,622.7 497.2,622.7 495.8,622.7 494.3,622.7 492.9,622.7 491.5,622.7 
			490,622.7 488.6,622.7 487.1,622.7 485.7,622.7 484.3,622.7 482.8,622.7 481.4,622.7 479.9,622.7 478.5,622.7 477,622.7 
			475.6,622.7 474.2,622.7 472.7,622.7 471.3,622.7 469.8,622.7 468.4,622.7 467,622.7 465.5,622.7 464.1,622.7 462.6,622.7 
			461.2,622.7 459.7,622.7 458.3,622.7 456.9,622.7 455.4,622.7 454,622.7 452.5,622.7 451.1,622.7 449.7,622.7 448.2,622.7 
			446.8,622.7 445.3,622.7 443.9,622.7 442.5,622.7 441,622.7 439.6,622.7 438.1,622.7 436.7,622.7 435.2,622.7 433.8,622.7 
			432.4,622.7 430.9,622.7 429.5,622.7 428,622.7 426.6,622.7 425.2,622.7 423.7,622.7 422.3,622.7 420.8,622.7 419.4,622.7 
			417.9,622.7 416.5,622.7 415.1,622.7 413.6,622.7 412.2,622.7 410.7,622.7 409.3,622.7 407.9,622.7 406.4,622.7 405,622.7 
			403.5,622.7 402.1,622.7 400.7,622.7 399.2,622.7 397.8,622.7 396.3,622.7 394.9,622.7 393.4,622.7 392,622.7 390.6,622.7 
			389.1,622.7 387.7,622.7 386.2,622.7 384.8,622.7 383.4,622.7 381.9,622.7 380.5,622.7 379,622.7 377.6,622.7 376.2,622.7 
			374.7,622.7 373.3,622.7 371.8,622.7 370.4,622.7 369,622.7 367.5,622.7 366.1,622.7 364.6,622.7 363.2,622.7 361.7,622.7 
			360.3,622.7 358.9,622.7 357.4,622.7 356,622.7 354.5,622.7 353.1,622.7 351.6,622.7 350.2,622.7 348.8,622.7 347.3,622.7 
			345.9,622.7 344.4,622.7 343,622.7 341.6,622.7 340.1,622.7 338.7,622.7 337.2,622.7 335.8,622.7 334.4,622.7 332.9,622.7 
			331.5,622.7 330,622.7 328.6,622.7 327.2,622.7 325.7,622.7 324.3,622.7 322.8,622.7 321.4,622.7 319.9,622.7 318.5,622.7 
			317.1,622.7 315.6,622.7 314.2,622.7 312.7,622.7 311.3,622.7 309.9,622.7 308.4,622.7 307,622.7 305.5,622.7 304.1,622.7 
			302.6,622.7 301.2,622.7 299.8,622.7 298.3,622.7 296.9,622.7 295.4,622.7 294,622.7 292.6,622.7 291.1,622.7 289.7,622.7 
			288.2,622.7 286.8,622.7 285.4,622.7 283.9,622.7 282.5,622.7 281,622.7 279.6,622.7 278.1,622.7 276.7,622.7 275.3,622.7 
			273.8,622.7 272.4,622.7 270.9,622.7 269.5,622.7 268.1,622.7 266.6,622.7 265.2,622.7 263.7,622.7 262.3,622.7 260.9,622.7 
			259.4,622.7 258,622.7 256.5,622.7 255.1,622.7 253.7,622.7 252.2,622.7 250.8,622.7 249.3,622.7 247.9,622.7 246.4,622.7 
			245,622.7 243.6,622.7 242.1,622.7 240.7,622.7 239.2,622.7 237.8,622.7 236.3,622.7 234.9,622.7 233.5,622.7 232,622.7 
			230.6,622.7 229.1,622.7 227.7,622.7 226.3,622.7 224.8,622.7 223.4,622.7 221.9,622.7 220.5,622.7 219.1,622.7 217.6,622.7 
			216.2,622.7 214.7,622.7 213.3,622.7 211.9,622.7 210.4,622.7 209,622.7 207.5,622.7 206.1,622.7 204.6,622.7 203.2,622.7 
			201.8,622.7 200.3,622.7 198.9,622.7 197.4,622.7 196,622.7 194.6,622.7 193.1,622.7 191.7,622.7 190.2,622.7 188.8,622.7 
			187.3,622.7 185.9,622.7 184.5,622.7 183,622.7 181.6,622.7 180.1,622.7 178.7,622.7 177.3,622.7 175.8,622.7 174.4,622.7 
			172.9,622.7 171.5,622.7 170.1,622.7 168.6,622.7 167.2,622.7 165.7,622.7 164.3,622.7 162.8,622.7 161.4,622.7 160,622.7 
			158.5,622.7 157.1,622.7 155.6,622.7 154.2,622.7 152.8,622.7 151.3,622.7 149.9,622.7 148.4,622.7 147,622.7 145.6,622.7 
			144.1,622.7 142.7,622.7 141.2,622.7 139.8,622.7 138.3,622.7 136.9,622.7 135.5,622.7 134,622.7 132.6,622.7 131.1,622.7 
			129.7,622.7 128.3,622.7 126.8,622.7 125.4,622.7 123.9,622.7 122.5,622.7 121,622.7 119.6,622.7 118.2,622.7 116.7,622.7 
			115.3,622.7 113.8,622.7 112.4,622.7 111,622.7 109.5,622.7 108.1,622.7 106.6,622.7 105.2,622.7 103.8,622.7 102.3,622.7 
			100.9,622.7 99.4,622.7 98,622.7 96.5,622.7 95.1,622.7 93.7,622.7 92.2,622.7 		"/>
		
			<polygon fill="none" stroke="#000000" stroke-width="1.000000e-02" stroke-linecap="round" stroke-linejoin="round" stroke-miterlimit="10" points="
			92.2,622.6 93.7,622.6 95.1,622.6 96.5,622.6 98,622.5 99.4,622.5 100.9,622.5 102.3,622.5 103.8,622.4 105.2,622.4 106.6,622.3 
			108.1,622.3 109.5,622.2 111,622.1 112.4,622 113.8,621.9 115.3,621.8 116.7,621.7 118.2,621.6 119.6,621.4 121,621.2 122.5,621 
			123.9,620.8 125.4,620.5 126.8,620.2 128.3,619.9 129.7,619.5 131.1,619.1 132.6,618.7 134,618.2 135.5,617.7 136.9,617.1 
			138.3,616.4 139.8,615.7 141.2,614.9 142.7,614.1 144.1,613.2 145.6,612.2 147,611.1 148.4,609.9 149.9,608.6 151.3,607.3 
			152.8,605.8 154.2,604.2 155.6,602.5 157.1,600.7 158.5,598.7 160,596.6 161.4,594.4 162.8,592 164.3,589.5 165.7,586.8 
			167.2,583.9 168.6,580.9 170.1,577.7 171.5,574.3 172.9,570.7 174.4,566.8 175.8,562.9 177.3,558.6 178.7,554.2 180.1,549.6 
			181.6,544.7 183,539.6 184.5,534.2 185.9,528.6 187.3,522.7 188.8,516.6 190.2,510.3 191.7,503.7 193.1,496.8 194.6,489.7 
			196,482.3 197.4,474.7 198.9,466.8 200.3,458.6 201.8,450.3 203.2,441.7 204.6,432.8 206.1,423.7 207.5,414.4 209,405 
			210.4,395.3 211.9,385.4 213.3,375.5 214.7,365.3 216.2,355.1 217.6,344.7 219.1,334.3 220.5,323.8 221.9,313.2 223.4,302.6 
			224.8,292 226.3,281.5 227.7,271 229.1,260.6 230.6,250.2 232,240 233.5,229.9 234.9,220 236.3,210.2 237.8,200.7 239.2,191.3 
			240.7,182.2 242.1,173.3 243.6,164.7 245,156.4 246.4,148.3 247.9,140.6 249.3,133.2 250.8,126 252.2,119.2 253.7,112.8 
			255.1,106.6 256.5,100.8 258,95.3 259.4,90.2 260.9,85.4 262.3,80.9 263.7,76.6 265.2,72.8 266.6,69.3 268.1,66 269.5,63.1 
			270.9,60.4 272.4,58.1 273.8,56 275.3,54.2 276.7,52.6 278.1,51.4 279.6,50.4 281,49.6 282.5,49 283.9,48.8 285.4,48.7 
			286.8,48.8 288.2,49.2 289.7,49.8 291.1,50.6 292.6,51.6 294,52.9 295.4,54.3 296.9,56 298.3,57.9 299.8,59.9 301.2,62.2 
			302.6,64.8 304.1,67.5 305.5,70.5 307,73.7 308.4,77.2 309.9,80.9 311.3,84.8 312.7,88.9 314.2,93.3 315.6,98 317.1,102.9 
			318.5,108 319.9,113.4 321.4,119.1 322.8,125 324.3,131.1 325.7,137.4 327.2,144 328.6,150.8 330,157.7 331.5,164.9 332.9,172.2 
			334.4,179.7 335.8,187.3 337.2,195 338.7,202.8 340.1,210.7 341.6,218.6 343,226.5 344.4,234.3 345.9,242.1 347.3,249.9 
			348.8,257.5 350.2,265 351.6,272.2 353.1,279.2 354.5,286.1 356,292.6 357.4,298.8 358.9,304.7 360.3,310.2 361.7,315.3 
			363.2,320 364.6,324.2 366.1,328 367.5,331.4 369,334.3 370.4,336.5 371.8,338.3 373.3,339.7 374.7,340.5 376.2,340.7 
			377.6,340.4 379,339.7 380.5,338.5 381.9,336.7 383.4,334.5 384.8,331.8 386.2,328.7 387.7,325.2 389.1,321.2 390.6,317 
			392,312.4 393.4,307.5 394.9,302.2 396.3,296.8 397.8,291.1 399.2,285.3 400.7,279.2 402.1,273.1 403.5,266.8 405,260.5 
			406.4,254.1 407.9,247.7 409.3,241.4 410.7,235 412.2,228.7 413.6,222.5 415.1,216.4 416.5,210.4 417.9,204.6 419.4,198.9 
			420.8,193.3 422.3,188 423.7,182.7 425.2,177.7 426.6,172.9 428,168.3 429.5,163.8 430.9,159.6 432.4,155.6 433.8,151.7 
			435.2,148 436.7,144.6 438.1,141.3 439.6,138.2 441,135.3 442.5,132.5 443.9,129.9 445.3,127.5 446.8,125.2 448.2,123 
			449.7,121.1 451.1,119.2 452.5,117.5 454,115.9 455.4,114.5 456.9,113.2 458.3,112 459.7,110.9 461.2,110 462.6,109.2 
			464.1,108.6 465.5,108.1 467,107.8 468.4,107.7 469.8,107.8 471.3,108 472.7,108.4 474.2,109.2 475.6,110.1 477,111.2 
			478.5,112.7 479.9,114.4 481.4,116.5 482.8,118.8 484.3,121.4 485.7,124.5 487.1,127.9 488.6,131.7 490,135.8 491.5,140.3 
			492.9,145.4 494.3,150.8 495.8,156.6 497.2,162.8 498.7,169.6 500.1,176.7 501.5,184.2 503,192.2 504.4,200.6 505.9,209.4 
			507.3,218.6 508.8,228.1 510.2,238 511.6,248.2 513.1,258.8 514.5,269.5 516,280.5 517.4,291.8 518.8,303.3 520.3,314.8 
			521.7,326.5 523.2,338.2 524.6,350 526,361.8 527.5,373.6 528.9,385.3 530.4,396.9 531.8,408.3 533.2,419.6 534.7,430.7 
			536.1,441.5 537.6,452.1 539,462.4 540.5,472.4 541.9,482 543.3,491.4 544.8,500.4 546.2,509 547.7,517.2 549.1,525.1 
			550.6,532.6 552,539.7 553.4,546.4 554.9,552.7 556.3,558.6 557.8,564.2 559.2,569.5 560.6,574.3 562.1,578.8 563.5,583 
			565,586.9 566.4,590.5 567.8,593.8 569.3,596.8 570.7,599.6 572.2,602 573.6,604.3 575,606.4 576.5,608.3 577.9,610 579.4,611.5 
			580.8,612.8 582.3,614.1 583.7,615.1 585.1,616.1 586.6,616.9 588,617.7 589.5,618.4 590.9,619 592.4,619.5 593.8,619.9 
			595.2,620.3 596.7,620.7 598.1,621 599.6,621.2 601,621.4 602.4,621.6 603.9,621.8 605.3,621.9 606.8,622 608.2,622.1 
			609.6,622.2 611.1,622.3 612.5,622.4 614,622.4 615.4,622.5 616.8,622.5 618.3,622.5 619.7,622.6 621.2,622.6 622.6,622.6 
			624.1,622.6 625.5,622.6 626.9,622.6 628.4,622.6 629.8,622.6 631.3,622.7 632.7,622.7 634.1,622.7 635.6,622.7 637,622.7 
			638.5,622.7 639.9,622.7 641.3,622.7 642.8,622.7 644.2,622.7 645.7,622.7 647.1,622.7 648.5,622.7 650,622.7 651.4,622.7 
			652.9,622.7 654.3,622.7 655.8,622.7 657.2,622.7 658.6,622.7 660.1,622.7 661.5,622.7 663,622.7 664.4,622.7 665.9,622.7 
			667.3,622.7 668.7,622.7 670.2,622.7 671.6,622.7 673.1,622.7 674.5,622.7 675.9,622.7 677.4,622.7 678.8,622.7 680.3,622.7 
			681.7,622.7 683.1,622.7 684.6,622.7 686,622.7 687.5,622.7 688.9,622.7 690.3,622.7 691.8,622.7 693.2,622.7 694.7,622.7 
			696.1,622.7 697.6,622.7 699,622.7 700.4,622.7 701.9,622.7 703.3,622.7 704.8,622.7 706.2,622.7 707.7,622.7 709.1,622.7 
			710.5,622.7 712,622.7 713.4,622.7 714.9,622.7 716.3,622.7 717.7,622.7 719.2,622.7 720.6,622.7 722.1,622.7 723.5,622.7 
			724.9,622.7 726.4,622.7 727.8,622.7 729.3,622.7 730.7,622.7 732.1,622.7 733.6,622.7 735,622.7 736.5,622.7 737.9,622.7 
			739.4,622.7 740.8,622.7 742.2,622.7 743.7,622.7 745.1,622.7 746.6,622.7 748,622.7 749.4,622.7 750.9,622.7 752.3,622.7 
			753.8,622.7 755.2,622.7 756.6,622.7 758.1,622.7 759.5,622.7 761,622.7 762.4,622.7 763.9,622.7 765.3,622.7 766.7,622.7 
			768.2,622.7 769.6,622.7 771.1,622.7 772.5,622.7 773.9,622.7 775.4,622.7 776.8,622.7 778.3,622.7 779.7,622.7 781.2,622.7 
			782.6,622.7 784,622.7 785.5,622.7 786.9,622.7 788.4,622.7 789.8,622.7 791.2,622.7 792.7,622.7 794.1,622.7 795.6,622.7 
			797,622.7 798.4,622.7 799.9,622.7 801.3,622.7 802.8,622.7 804.2,622.7 805.7,622.7 807.1,622.7 808.5,622.7 810,622.7 
			811.4,622.7 812.9,622.7 814.3,622.7 815.7,622.7 817.2,622.7 818.6,622.7 820.1,622.7 821.5,622.7 823,622.7 824.4,622.7 
			825.8,622.7 827.3,622.7 828.7,622.7 827.3,622.7 825.8,622.7 824.4,622.7 823,622.7 821.5,622.7 820.1,622.7 818.6,622.7 
			817.2,622.7 815.7,622.7 814.3,622.7 812.9,622.7 811.4,622.7 810,622.7 808.5,622.7 807.1,622.7 805.7,622.7 804.2,622.7 
			802.8,622.7 801.3,622.7 799.9,622.7 798.4,622.7 797,622.7 795.6,622.7 794.1,622.7 792.7,622.7 791.2,622.7 789.8,622.7 
			788.4,622.7 786.9,622.7 785.5,622.7 784,622.7 782.6,622.7 781.2,622.7 779.7,622.7 778.3,622.7 776.8,622.7 775.4,622.7 
			773.9,622.7 772.5,622.7 771.1,622.7 769.6,622.7 768.2,622.7 766.7,622.7 765.3,622.7 763.9,622.7 762.4,622.7 761,622.7 
			759.5,622.7 758.1,622.7 756.6,622.7 755.2,622.7 753.8,622.7 752.3,622.7 750.9,622.7 749.4,622.7 748,622.7 746.6,622.7 
			745.1,622.7 743.7,622.7 742.2,622.7 740.8,622.7 739.4,622.7 737.9,622.7 736.5,622.7 735,622.7 733.6,622.7 732.1,622.7 
			730.7,622.7 729.3,622.7 727.8,622.7 726.4,622.7 724.9,622.7 723.5,622.7 722.1,622.7 720.6,622.7 719.2,622.7 717.7,622.7 
			716.3,622.7 714.9,622.7 713.4,622.7 712,622.7 710.5,622.7 709.1,622.7 707.7,622.7 706.2,622.7 704.8,622.7 703.3,622.7 
			701.9,622.7 700.4,622.7 699,622.7 697.6,622.7 696.1,622.7 694.7,622.7 693.2,622.7 691.8,622.7 690.3,622.7 688.9,622.7 
			687.5,622.7 686,622.7 684.6,622.7 683.1,622.7 681.7,622.7 680.3,622.7 678.8,622.7 677.4,622.7 675.9,622.7 674.5,622.7 
			673.1,622.7 671.6,622.7 670.2,622.7 668.7,622.7 667.3,622.7 665.9,622.7 664.4,622.7 663,622.7 661.5,622.7 660.1,622.7 
			658.6,622.7 657.2,622.7 655.8,622.7 654.3,622.7 652.9,622.7 651.4,622.7 650,622.7 648.5,622.7 647.1,622.7 645.7,622.7 
			644.2,622.7 642.8,622.7 641.3,622.7 639.9,622.7 638.5,622.7 637,622.7 635.6,622.7 634.1,622.7 632.7,622.7 631.3,622.7 
			629.8,622.7 628.4,622.7 626.9,622.7 625.5,622.7 624.1,622.7 622.6,622.7 621.2,622.7 619.7,622.7 618.3,622.7 616.8,622.7 
			615.4,622.7 614,622.7 612.5,622.7 611.1,622.7 609.6,622.7 608.2,622.7 606.8,622.7 605.3,622.7 603.9,622.7 602.4,622.7 
			601,622.7 599.6,622.7 598.1,622.7 596.7,622.7 595.2,622.7 593.8,622.7 592.4,622.7 590.9,622.7 589.5,622.7 588,622.7 
			586.6,622.7 585.1,622.7 583.7,622.7 582.3,622.7 580.8,622.7 579.4,622.7 577.9,622.7 576.5,622.7 575,622.7 573.6,622.7 
			572.2,622.7 570.7,622.7 569.3,622.7 567.8,622.7 566.4,622.7 565,622.7 563.5,622.7 562.1,622.7 560.6,622.7 559.2,622.7 
			557.8,622.7 556.3,622.7 554.9,622.7 553.4,622.7 552,622.7 550.6,622.7 549.1,622.7 547.7,622.7 546.2,622.7 544.8,622.7 
			543.3,622.7 541.9,622.7 540.5,622.7 539,622.7 537.6,622.7 536.1,622.7 534.7,622.7 533.2,622.7 531.8,622.7 530.4,622.7 
			528.9,622.7 527.5,622.7 526,622.7 524.6,622.7 523.2,622.7 521.7,622.7 520.3,622.7 518.8,622.7 517.4,622.7 516,622.7 
			514.5,622.7 513.1,622.7 511.6,622.7 510.2,622.7 508.8,622.7 507.3,622.7 505.9,622.7 504.4,622.7 503,622.7 501.5,622.7 
			500.1,622.7 498.7,622.7 497.2,622.7 495.8,622.7 494.3,622.7 492.9,622.7 491.5,622.7 490,622.7 488.6,622.7 487.1,622.7 
			485.7,622.7 484.3,622.7 482.8,622.7 481.4,622.7 479.9,622.7 478.5,622.7 477,622.7 475.6,622.7 474.2,622.7 472.7,622.7 
			471.3,622.7 469.8,622.7 468.4,622.7 467,622.7 465.5,622.7 464.1,622.7 462.6,622.7 461.2,622.7 459.7,622.7 458.3,622.7 
			456.9,622.7 455.4,622.7 454,622.7 452.5,622.7 451.1,622.7 449.7,622.7 448.2,622.7 446.8,622.7 445.3,622.7 443.9,622.7 
			442.5,622.7 441,622.7 439.6,622.7 438.1,622.7 436.7,622.7 435.2,622.7 433.8,622.7 432.4,622.7 430.9,622.7 429.5,622.7 
			428,622.7 426.6,622.7 425.2,622.7 423.7,622.7 422.3,622.7 420.8,622.7 419.4,622.7 417.9,622.7 416.5,622.7 415.1,622.7 
			413.6,622.7 412.2,622.7 410.7,622.7 409.3,622.7 407.9,622.7 406.4,622.7 405,622.7 403.5,622.7 402.1,622.7 400.7,622.7 
			399.2,622.7 397.8,622.7 396.3,622.7 394.9,622.7 393.4,622.7 392,622.7 390.6,622.7 389.1,622.7 387.7,622.7 386.2,622.7 
			384.8,622.7 383.4,622.7 381.9,622.7 380.5,622.7 379,622.7 377.6,622.7 376.2,622.7 374.7,622.7 373.3,622.7 371.8,622.7 
			370.4,622.7 369,622.7 367.5,622.7 366.1,622.7 364.6,622.7 363.2,622.7 361.7,622.7 360.3,622.7 358.9,622.7 357.4,622.7 
			356,622.7 354.5,622.7 353.1,622.7 351.6,622.7 350.2,622.7 348.8,622.7 347.3,622.7 345.9,622.7 344.4,622.7 343,622.7 
			341.6,622.7 340.1,622.7 338.7,622.7 337.2,622.7 335.8,622.7 334.4,622.7 332.9,622.7 331.5,622.7 330,622.7 328.6,622.7 
			327.2,622.7 325.7,622.7 324.3,622.7 322.8,622.7 321.4,622.7 319.9,622.7 318.5,622.7 317.1,622.7 315.6,622.7 314.2,622.7 
			312.7,622.7 311.3,622.7 309.9,622.7 308.4,622.7 307,622.7 305.5,622.7 304.1,622.7 302.6,622.7 301.2,622.7 299.8,622.7 
			298.3,622.7 296.9,622.7 295.4,622.7 294,622.7 292.6,622.7 291.1,622.7 289.7,622.7 288.2,622.7 286.8,622.7 285.4,622.7 
			283.9,622.7 282.5,622.7 281,622.7 279.6,622.7 278.1,622.7 276.7,622.7 275.3,622.7 273.8,622.7 272.4,622.7 270.9,622.7 
			269.5,622.7 268.1,622.7 266.6,622.7 265.2,622.7 263.7,622.7 262.3,622.7 260.9,622.7 259.4,622.7 258,622.7 256.5,622.7 
			255.1,622.7 253.7,622.7 252.2,622.7 250.8,622.7 249.3,622.7 247.9,622.7 246.4,622.7 245,622.7 243.6,622.7 242.1,622.7 
			240.7,622.7 239.2,622.7 237.8,622.7 236.3,622.7 234.9,622.7 233.5,622.7 232,622.7 230.6,622.7 229.1,622.7 227.7,622.7 
			226.3,622.7 224.8,622.7 223.4,622.7 221.9,622.7 220.5,622.7 219.1,622.7 217.6,622.7 216.2,622.7 214.7,622.7 213.3,622.7 
			211.9,622.7 210.4,622.7 209,622.7 207.5,622.7 206.1,622.7 204.6,622.7 203.2,622.7 201.8,622.7 200.3,622.7 198.9,622.7 
			197.4,622.7 196,622.7 194.6,622.7 193.1,622.7 191.7,622.7 190.2,622.7 188.8,622.7 187.3,622.7 185.9,622.7 184.5,622.7 
			183,622.7 181.6,622.7 180.1,622.7 178.7,622.7 177.3,622.7 175.8,622.7 174.4,622.7 172.9,622.7 171.5,622.7 170.1,622.7 
			168.6,622.7 167.2,622.7 165.7,622.7 164.3,622.7 162.8,622.7 161.4,622.7 160,622.7 158.5,622.7 157.1,622.7 155.6,622.7 
			154.2,622.7 152.8,622.7 151.3,622.7 149.9,622.7 148.4,622.7 147,622.7 145.6,622.7 144.1,622.7 142.7,622.7 141.2,622.7 
			139.8,622.7 138.3,622.7 136.9,622.7 135.5,622.7 134,622.7 132.6,622.7 131.1,622.7 129.7,622.7 128.3,622.7 126.8,622.7 
			125.4,622.7 123.9,622.7 122.5,622.7 121,622.7 119.6,622.7 118.2,622.7 116.7,622.7 115.3,622.7 113.8,622.7 112.4,622.7 
			111,622.7 109.5,622.7 108.1,622.7 106.6,622.7 105.2,622.7 103.8,622.7 102.3,622.7 100.9,622.7 99.4,622.7 98,622.7 96.5,622.7 
			95.1,622.7 93.7,622.7 92.2,622.7 		"/>
	</g>
	<g clip-path="url(#SVGID_2_)">
		<polygon opacity="0.6" fill="#00BFC4" points="92.2,622.7 93.7,622.7 95.1,622.7 96.5,622.7 98,622.7 99.4,622.7 100.9,622.7 
			102.3,622.7 103.8,622.7 105.2,622.7 106.6,622.7 108.1,622.7 109.5,622.7 111,622.7 112.4,622.7 113.8,622.6 115.3,622.6 
			116.7,622.6 118.2,622.6 119.6,622.6 121,622.6 122.5,622.6 123.9,622.6 125.4,622.6 126.8,622.6 128.3,622.6 129.7,622.6 
			131.1,622.6 132.6,622.5 134,622.5 135.5,622.5 136.9,622.5 138.3,622.5 139.8,622.4 141.2,622.4 142.7,622.4 144.1,622.3 
			145.6,622.3 147,622.2 148.4,622.2 149.9,622.1 151.3,622.1 152.8,622 154.2,621.9 155.6,621.8 157.1,621.8 158.5,621.7 
			160,621.6 161.4,621.4 162.8,621.3 164.3,621.2 165.7,621 167.2,620.8 168.6,620.7 170.1,620.5 171.5,620.2 172.9,620 
			174.4,619.7 175.8,619.5 177.3,619.2 178.7,618.8 180.1,618.5 181.6,618.1 183,617.7 184.5,617.3 185.9,616.8 187.3,616.3 
			188.8,615.8 190.2,615.2 191.7,614.6 193.1,613.9 194.6,613.2 196,612.5 197.4,611.7 198.9,610.8 200.3,609.9 201.8,609 
			203.2,608 204.6,606.9 206.1,605.8 207.5,604.6 209,603.3 210.4,602 211.9,600.5 213.3,599 214.7,597.5 216.2,595.9 217.6,594.1 
			219.1,592.3 220.5,590.5 221.9,588.5 223.4,586.4 224.8,584.3 226.3,582 227.7,579.7 229.1,577.3 230.6,574.8 232,572.2 
			233.5,569.5 234.9,566.7 236.3,563.8 237.8,560.8 239.2,557.7 240.7,554.6 242.1,551.3 243.6,548 245,544.5 246.4,541 
			247.9,537.4 249.3,533.7 250.8,529.9 252.2,526 253.7,522.1 255.1,518.1 256.5,514 258,509.9 259.4,505.7 260.9,501.4 
			262.3,497.1 263.7,492.8 265.2,488.4 266.6,484 268.1,479.6 269.5,475.2 270.9,470.7 272.4,466.3 273.8,461.8 275.3,457.4 
			276.7,452.9 278.1,448.5 279.6,444.2 281,439.8 282.5,435.6 283.9,431.4 285.4,427.2 286.8,423.1 288.2,419.1 289.7,415.2 
			291.1,411.4 292.6,407.7 294,404.1 295.4,400.6 296.9,397.2 298.3,394 299.8,390.9 301.2,387.9 302.6,385.1 304.1,382.4 
			305.5,379.9 307,377.5 308.4,375.3 309.9,373.3 311.3,371.4 312.7,369.7 314.2,368.1 315.6,366.8 317.1,365.5 318.5,364.5 
			319.9,363.6 321.4,362.8 322.8,362.2 324.3,361.8 325.7,361.5 327.2,361.4 328.6,361.4 330,361.5 331.5,361.8 332.9,362.2 
			334.4,362.7 335.8,363.2 337.2,363.9 338.7,364.7 340.1,365.6 341.6,366.5 343,367.4 344.4,368.5 345.9,369.5 347.3,370.6 
			348.8,371.8 350.2,372.9 351.6,374 353.1,375.2 354.5,376.3 356,377.4 357.4,378.4 358.9,379.4 360.3,380.4 361.7,381.3 
			363.2,382.1 364.6,382.9 366.1,383.6 367.5,384.2 369,384.7 370.4,385.1 371.8,385.5 373.3,385.7 374.7,385.8 376.2,385.8 
			377.6,385.8 379,385.6 380.5,385.3 381.9,384.9 383.4,384.4 384.8,383.8 386.2,383.1 387.7,382.2 389.1,381.4 390.6,380.4 
			392,379.3 393.4,378.1 394.9,376.9 396.3,375.6 397.8,374.2 399.2,372.8 400.7,371.3 402.1,369.7 403.5,368.1 405,366.5 
			406.4,364.8 407.9,363.2 409.3,361.5 410.7,359.8 412.2,358.1 413.6,356.4 415.1,354.7 416.5,353 417.9,351.4 419.4,349.8 
			420.8,348.2 422.3,346.6 423.7,345.1 425.2,343.7 426.6,342.3 428,340.9 429.5,339.7 430.9,338.5 432.4,337.3 433.8,336.2 
			435.2,335.3 436.7,334.3 438.1,333.5 439.6,332.8 441,332.1 442.5,331.6 443.9,331.1 445.3,330.7 446.8,330.4 448.2,330.3 
			449.7,330.2 451.1,330.2 452.5,330.3 454,330.5 455.4,330.8 456.9,331.2 458.3,331.7 459.7,332.3 461.2,333 462.6,333.8 
			464.1,334.7 465.5,335.7 467,336.9 468.4,338 469.8,339.3 471.3,340.7 472.7,342.2 474.2,343.8 475.6,345.5 477,347.2 
			478.5,349.1 479.9,351 481.4,353 482.8,355.1 484.3,357.3 485.7,359.6 487.1,361.9 488.6,364.3 490,366.7 491.5,369.3 
			492.9,371.8 494.3,374.5 495.8,377.2 497.2,379.9 498.7,382.6 500.1,385.5 501.5,388.3 503,391.1 504.4,394 505.9,396.9 
			507.3,399.7 508.8,402.6 510.2,405.5 511.6,408.3 513.1,411.1 514.5,413.9 516,416.7 517.4,419.4 518.8,422 520.3,424.6 
			521.7,427.2 523.2,429.6 524.6,432 526,434.3 527.5,436.4 528.9,438.5 530.4,440.5 531.8,442.4 533.2,444.1 534.7,445.7 
			536.1,447.2 537.6,448.6 539,449.8 540.5,450.9 541.9,451.8 543.3,452.5 544.8,453.2 546.2,453.6 547.7,453.9 549.1,454.1 
			550.6,454.1 552,453.9 553.4,453.5 554.9,453.1 556.3,452.4 557.8,451.6 559.2,450.7 560.6,449.6 562.1,448.3 563.5,446.9 
			565,445.4 566.4,443.7 567.8,441.9 569.3,440 570.7,437.9 572.2,435.8 573.6,433.5 575,431.2 576.5,428.7 577.9,426.2 
			579.4,423.5 580.8,420.8 582.3,418.1 583.7,415.2 585.1,412.4 586.6,409.5 588,406.5 589.5,403.5 590.9,400.5 592.4,397.5 
			593.8,394.5 595.2,391.5 596.7,388.5 598.1,385.5 599.6,382.5 601,379.6 602.4,376.7 603.9,373.8 605.3,371.1 606.8,368.3 
			608.2,365.6 609.6,363 611.1,360.5 612.5,358.1 614,355.7 615.4,353.4 616.8,351.3 618.3,349.2 619.7,347.3 621.2,345.4 
			622.6,343.7 624.1,342 625.5,340.5 626.9,339.1 628.4,337.9 629.8,336.7 631.3,335.7 632.7,334.9 634.1,334.1 635.6,333.5 
			637,333 638.5,332.6 639.9,332.4 641.3,332.3 642.8,332.4 644.2,332.5 645.7,332.9 647.1,333.3 648.5,333.9 650,334.5 
			651.4,335.4 652.9,336.3 654.3,337.3 655.8,338.5 657.2,339.7 658.6,341.1 660.1,342.5 661.5,344.1 663,345.7 664.4,347.5 
			665.9,349.3 667.3,351.2 668.7,353.1 670.2,355.1 671.6,357.2 673.1,359.3 674.5,361.4 675.9,363.6 677.4,365.8 678.8,368 
			680.3,370.2 681.7,372.4 683.1,374.6 684.6,376.8 686,378.9 687.5,381.1 688.9,383.2 690.3,385.2 691.8,387.2 693.2,389.1 
			694.7,390.9 696.1,392.7 697.6,394.4 699,396 700.4,397.5 701.9,398.9 703.3,400.1 704.8,401.3 706.2,402.3 707.7,403.2 
			709.1,404 710.5,404.7 712,405.2 713.4,405.6 714.9,405.8 716.3,405.9 717.7,405.9 719.2,405.7 720.6,405.4 722.1,404.9 
			723.5,404.4 724.9,403.7 726.4,402.8 727.8,401.8 729.3,400.7 730.7,399.5 732.1,398.1 733.6,396.7 735,395.1 736.5,393.5 
			737.9,391.7 739.4,389.9 740.8,388 742.2,386.1 743.7,384.1 745.1,382 746.6,379.9 748,377.7 749.4,375.6 750.9,373.4 
			752.3,371.2 753.8,369 755.2,366.8 756.6,364.7 758.1,362.5 759.5,360.4 761,358.4 762.4,356.4 763.9,354.5 765.3,352.7 
			766.7,350.9 768.2,349.3 769.6,347.7 771.1,346.3 772.5,344.9 773.9,343.8 775.4,342.7 776.8,341.7 778.3,340.9 779.7,340.2 
			781.2,339.7 782.6,339.4 784,339.2 785.5,339.1 786.9,339.2 788.4,339.6 789.8,340 791.2,340.7 792.7,341.5 794.1,342.5 
			795.6,343.7 797,345 798.4,346.6 799.9,348.3 801.3,350.2 802.8,352.2 804.2,354.4 805.7,356.8 807.1,359.4 808.5,362.1 810,365 
			811.4,368.1 812.9,371.3 814.3,374.6 815.7,378.1 817.2,381.7 818.6,385.4 820.1,389.3 821.5,393.3 823,397.4 824.4,401.5 
			825.8,405.9 827.3,410.2 828.7,414.7 828.7,622.7 827.3,622.7 825.8,622.7 824.4,622.7 823,622.7 821.5,622.7 820.1,622.7 
			818.6,622.7 817.2,622.7 815.7,622.7 814.3,622.7 812.9,622.7 811.4,622.7 810,622.7 808.5,622.7 807.1,622.7 805.7,622.7 
			804.2,622.7 802.8,622.7 801.3,622.7 799.9,622.7 798.4,622.7 797,622.7 795.6,622.7 794.1,622.7 792.7,622.7 791.2,622.7 
			789.8,622.7 788.4,622.7 786.9,622.7 785.5,622.7 784,622.7 782.6,622.7 781.2,622.7 779.7,622.7 778.3,622.7 776.8,622.7 
			775.4,622.7 773.9,622.7 772.5,622.7 771.1,622.7 769.6,622.7 768.2,622.7 766.7,622.7 765.3,622.7 763.9,622.7 762.4,622.7 
			761,622.7 759.5,622.7 758.1,622.7 756.6,622.7 755.2,622.7 753.8,622.7 752.3,622.7 750.9,622.7 749.4,622.7 748,622.7 
			746.6,622.7 745.1,622.7 743.7,622.7 742.2,622.7 740.8,622.7 739.4,622.7 737.9,622.7 736.5,622.7 735,622.7 733.6,622.7 
			732.1,622.7 730.7,622.7 729.3,622.7 727.8,622.7 726.4,622.7 724.9,622.7 723.5,622.7 722.1,622.7 720.6,622.7 719.2,622.7 
			717.7,622.7 716.3,622.7 714.9,622.7 713.4,622.7 712,622.7 710.5,622.7 709.1,622.7 707.7,622.7 706.2,622.7 704.8,622.7 
			703.3,622.7 701.9,622.7 700.4,622.7 699,622.7 697.6,622.7 696.1,622.7 694.7,622.7 693.2,622.7 691.8,622.7 690.3,622.7 
			688.9,622.7 687.5,622.7 686,622.7 684.6,622.7 683.1,622.7 681.7,622.7 680.3,622.7 678.8,622.7 677.4,622.7 675.9,622.7 
			674.5,622.7 673.1,622.7 671.6,622.7 670.2,622.7 668.7,622.7 667.3,622.7 665.9,622.7 664.4,622.7 663,622.7 661.5,622.7 
			660.1,622.7 658.6,622.7 657.2,622.7 655.8,622.7 654.3,622.7 652.9,622.7 651.4,622.7 650,622.7 648.5,622.7 647.1,622.7 
			645.7,622.7 644.2,622.7 642.8,622.7 641.3,622.7 639.9,622.7 638.5,622.7 637,622.7 635.6,622.7 634.1,622.7 632.7,622.7 
			631.3,622.7 629.8,622.7 628.4,622.7 626.9,622.7 625.5,622.7 624.1,622.7 622.6,622.7 621.2,622.7 619.7,622.7 618.3,622.7 
			616.8,622.7 615.4,622.7 614,622.7 612.5,622.7 611.1,622.7 609.6,622.7 608.2,622.7 606.8,622.7 605.3,622.7 603.9,622.7 
			602.4,622.7 601,622.7 599.6,622.7 598.1,622.7 596.7,622.7 595.2,622.7 593.8,622.7 592.4,622.7 590.9,622.7 589.5,622.7 
			588,622.7 586.6,622.7 585.1,622.7 583.7,622.7 582.3,622.7 580.8,622.7 579.4,622.7 577.9,622.7 576.5,622.7 575,622.7 
			573.6,622.7 572.2,622.7 570.7,622.7 569.3,622.7 567.8,622.7 566.4,622.7 565,622.7 563.5,622.7 562.1,622.7 560.6,622.7 
			559.2,622.7 557.8,622.7 556.3,622.7 554.9,622.7 553.4,622.7 552,622.7 550.6,622.7 549.1,622.7 547.7,622.7 546.2,622.7 
			544.8,622.7 543.3,622.7 541.9,622.7 540.5,622.7 539,622.7 537.6,622.7 536.1,622.7 534.7,622.7 533.2,622.7 531.8,622.7 
			530.4,622.7 528.9,622.7 527.5,622.7 526,622.7 524.6,622.7 523.2,622.7 521.7,622.7 520.3,622.7 518.8,622.7 517.4,622.7 
			516,622.7 514.5,622.7 513.1,622.7 511.6,622.7 510.2,622.7 508.8,622.7 507.3,622.7 505.9,622.7 504.4,622.7 503,622.7 
			501.5,622.7 500.1,622.7 498.7,622.7 497.2,622.7 495.8,622.7 494.3,622.7 492.9,622.7 491.5,622.7 490,622.7 488.6,622.7 
			487.1,622.7 485.7,622.7 484.3,622.7 482.8,622.7 481.4,622.7 479.9,622.7 478.5,622.7 477,622.7 475.6,622.7 474.2,622.7 
			472.7,622.7 471.3,622.7 469.8,622.7 468.4,622.7 467,622.7 465.5,622.7 464.1,622.7 462.6,622.7 461.2,622.7 459.7,622.7 
			458.3,622.7 456.9,622.7 455.4,622.7 454,622.7 452.5,622.7 451.1,622.7 449.7,622.7 448.2,622.7 446.8,622.7 445.3,622.7 
			443.9,622.7 442.5,622.7 441,622.7 439.6,622.7 438.1,622.7 436.7,622.7 435.2,622.7 433.8,622.7 432.4,622.7 430.9,622.7 
			429.5,622.7 428,622.7 426.6,622.7 425.2,622.7 423.7,622.7 422.3,622.7 420.8,622.7 419.4,622.7 417.9,622.7 416.5,622.7 
			415.1,622.7 413.6,622.7 412.2,622.7 410.7,622.7 409.3,622.7 407.9,622.7 406.4,622.7 405,622.7 403.5,622.7 402.1,622.7 
			400.7,622.7 399.2,622.7 397.8,622.7 396.3,622.7 394.9,622.7 393.4,622.7 392,622.7 390.6,622.7 389.1,622.7 387.7,622.7 
			386.2,622.7 384.8,622.7 383.4,622.7 381.9,622.7 380.5,622.7 379,622.7 377.6,622.7 376.2,622.7 374.7,622.7 373.3,622.7 
			371.8,622.7 370.4,622.7 369,622.7 367.5,622.7 366.1,622.7 364.6,622.7 363.2,622.7 361.7,622.7 360.3,622.7 358.9,622.7 
			357.4,622.7 356,622.7 354.5,622.7 353.1,622.7 351.6,622.7 350.2,622.7 348.8,622.7 347.3,622.7 345.9,622.7 344.4,622.7 
			343,622.7 341.6,622.7 340.1,622.7 338.7,622.7 337.2,622.7 335.8,622.7 334.4,622.7 332.9,622.7 331.5,622.7 330,622.7 
			328.6,622.7 327.2,622.7 325.7,622.7 324.3,622.7 322.8,622.7 321.4,622.7 319.9,622.7 318.5,622.7 317.1,622.7 315.6,622.7 
			314.2,622.7 312.7,622.7 311.3,622.7 309.9,622.7 308.4,622.7 307,622.7 305.5,622.7 304.1,622.7 302.6,622.7 301.2,622.7 
			299.8,622.7 298.3,622.7 296.9,622.7 295.4,622.7 294,622.7 292.6,622.7 291.1,622.7 289.7,622.7 288.2,622.7 286.8,622.7 
			285.4,622.7 283.9,622.7 282.5,622.7 281,622.7 279.6,622.7 278.1,622.7 276.7,622.7 275.3,622.7 273.8,622.7 272.4,622.7 
			270.9,622.7 269.5,622.7 268.1,622.7 266.6,622.7 265.2,622.7 263.7,622.7 262.3,622.7 260.9,622.7 259.4,622.7 258,622.7 
			256.5,622.7 255.1,622.7 253.7,622.7 252.2,622.7 250.8,622.7 249.3,622.7 247.9,622.7 246.4,622.7 245,622.7 243.6,622.7 
			242.1,622.7 240.7,622.7 239.2,622.7 237.8,622.7 236.3,622.7 234.9,622.7 233.5,622.7 232,622.7 230.6,622.7 229.1,622.7 
			227.7,622.7 226.3,622.7 224.8,622.7 223.4,622.7 221.9,622.7 220.5,622.7 219.1,622.7 217.6,622.7 216.2,622.7 214.7,622.7 
			213.3,622.7 211.9,622.7 210.4,622.7 209,622.7 207.5,622.7 206.1,622.7 204.6,622.7 203.2,622.7 201.8,622.7 200.3,622.7 
			198.9,622.7 197.4,622.7 196,622.7 194.6,622.7 193.1,622.7 191.7,622.7 190.2,622.7 188.8,622.7 187.3,622.7 185.9,622.7 
			184.5,622.7 183,622.7 181.6,622.7 180.1,622.7 178.7,622.7 177.3,622.7 175.8,622.7 174.4,622.7 172.9,622.7 171.5,622.7 
			170.1,622.7 168.6,622.7 167.2,622.7 165.7,622.7 164.3,622.7 162.8,622.7 161.4,622.7 160,622.7 158.5,622.7 157.1,622.7 
			155.6,622.7 154.2,622.7 152.8,622.7 151.3,622.7 149.9,622.7 148.4,622.7 147,622.7 145.6,622.7 144.1,622.7 142.7,622.7 
			141.2,622.7 139.8,622.7 138.3,622.7 136.9,622.7 135.5,622.7 134,622.7 132.6,622.7 131.1,622.7 129.7,622.7 128.3,622.7 
			126.8,622.7 125.4,622.7 123.9,622.7 122.5,622.7 121,622.7 119.6,622.7 118.2,622.7 116.7,622.7 115.3,622.7 113.8,622.7 
			112.4,622.7 111,622.7 109.5,622.7 108.1,622.7 106.6,622.7 105.2,622.7 103.8,622.7 102.3,622.7 100.9,622.7 99.4,622.7 
			98,622.7 96.5,622.7 95.1,622.7 93.7,622.7 		"/>
		
			<polygon fill="none" stroke="#000000" stroke-width="1.000000e-02" stroke-linecap="round" stroke-linejoin="round" stroke-miterlimit="10" points="
			92.2,622.7 93.7,622.7 95.1,622.7 96.5,622.7 98,622.7 99.4,622.7 100.9,622.7 102.3,622.7 103.8,622.7 105.2,622.7 106.6,622.7 
			108.1,622.7 109.5,622.7 111,622.7 112.4,622.7 113.8,622.6 115.3,622.6 116.7,622.6 118.2,622.6 119.6,622.6 121,622.6 
			122.5,622.6 123.9,622.6 125.4,622.6 126.8,622.6 128.3,622.6 129.7,622.6 131.1,622.6 132.6,622.5 134,622.5 135.5,622.5 
			136.9,622.5 138.3,622.5 139.8,622.4 141.2,622.4 142.7,622.4 144.1,622.3 145.6,622.3 147,622.2 148.4,622.2 149.9,622.1 
			151.3,622.1 152.8,622 154.2,621.9 155.6,621.8 157.1,621.8 158.5,621.7 160,621.6 161.4,621.4 162.8,621.3 164.3,621.2 
			165.7,621 167.2,620.8 168.6,620.7 170.1,620.5 171.5,620.2 172.9,620 174.4,619.7 175.8,619.5 177.3,619.2 178.7,618.8 
			180.1,618.5 181.6,618.1 183,617.7 184.5,617.3 185.9,616.8 187.3,616.3 188.8,615.8 190.2,615.2 191.7,614.6 193.1,613.9 
			194.6,613.2 196,612.5 197.4,611.7 198.9,610.8 200.3,609.9 201.8,609 203.2,608 204.6,606.9 206.1,605.8 207.5,604.6 209,603.3 
			210.4,602 211.9,600.5 213.3,599 214.7,597.5 216.2,595.9 217.6,594.1 219.1,592.3 220.5,590.5 221.9,588.5 223.4,586.4 
			224.8,584.3 226.3,582 227.7,579.7 229.1,577.3 230.6,574.8 232,572.2 233.5,569.5 234.9,566.7 236.3,563.8 237.8,560.8 
			239.2,557.7 240.7,554.6 242.1,551.3 243.6,548 245,544.5 246.4,541 247.9,537.4 249.3,533.7 250.8,529.9 252.2,526 253.7,522.1 
			255.1,518.1 256.5,514 258,509.9 259.4,505.7 260.9,501.4 262.3,497.1 263.7,492.8 265.2,488.4 266.6,484 268.1,479.6 
			269.5,475.2 270.9,470.7 272.4,466.3 273.8,461.8 275.3,457.4 276.7,452.9 278.1,448.5 279.6,444.2 281,439.8 282.5,435.6 
			283.9,431.4 285.4,427.2 286.8,423.1 288.2,419.1 289.7,415.2 291.1,411.4 292.6,407.7 294,404.1 295.4,400.6 296.9,397.2 
			298.3,394 299.8,390.9 301.2,387.9 302.6,385.1 304.1,382.4 305.5,379.9 307,377.5 308.4,375.3 309.9,373.3 311.3,371.4 
			312.7,369.7 314.2,368.1 315.6,366.8 317.1,365.5 318.5,364.5 319.9,363.6 321.4,362.8 322.8,362.2 324.3,361.8 325.7,361.5 
			327.2,361.4 328.6,361.4 330,361.5 331.5,361.8 332.9,362.2 334.4,362.7 335.8,363.2 337.2,363.9 338.7,364.7 340.1,365.6 
			341.6,366.5 343,367.4 344.4,368.5 345.9,369.5 347.3,370.6 348.8,371.8 350.2,372.9 351.6,374 353.1,375.2 354.5,376.3 
			356,377.4 357.4,378.4 358.9,379.4 360.3,380.4 361.7,381.3 363.2,382.1 364.6,382.9 366.1,383.6 367.5,384.2 369,384.7 
			370.4,385.1 371.8,385.5 373.3,385.7 374.7,385.8 376.2,385.8 377.6,385.8 379,385.6 380.5,385.3 381.9,384.9 383.4,384.4 
			384.8,383.8 386.2,383.1 387.7,382.2 389.1,381.4 390.6,380.4 392,379.3 393.4,378.1 394.9,376.9 396.3,375.6 397.8,374.2 
			399.2,372.8 400.7,371.3 402.1,369.7 403.5,368.1 405,366.5 406.4,364.8 407.9,363.2 409.3,361.5 410.7,359.8 412.2,358.1 
			413.6,356.4 415.1,354.7 416.5,353 417.9,351.4 419.4,349.8 420.8,348.2 422.3,346.6 423.7,345.1 425.2,343.7 426.6,342.3 
			428,340.9 429.5,339.7 430.9,338.5 432.4,337.3 433.8,336.2 435.2,335.3 436.7,334.3 438.1,333.5 439.6,332.8 441,332.1 
			442.5,331.6 443.9,331.1 445.3,330.7 446.8,330.4 448.2,330.3 449.7,330.2 451.1,330.2 452.5,330.3 454,330.5 455.4,330.8 
			456.9,331.2 458.3,331.7 459.7,332.3 461.2,333 462.6,333.8 464.1,334.7 465.5,335.7 467,336.9 468.4,338 469.8,339.3 
			471.3,340.7 472.7,342.2 474.2,343.8 475.6,345.5 477,347.2 478.5,349.1 479.9,351 481.4,353 482.8,355.1 484.3,357.3 
			485.7,359.6 487.1,361.9 488.6,364.3 490,366.7 491.5,369.3 492.9,371.8 494.3,374.5 495.8,377.2 497.2,379.9 498.7,382.6 
			500.1,385.5 501.5,388.3 503,391.1 504.4,394 505.9,396.9 507.3,399.7 508.8,402.6 510.2,405.5 511.6,408.3 513.1,411.1 
			514.5,413.9 516,416.7 517.4,419.4 518.8,422 520.3,424.6 521.7,427.2 523.2,429.6 524.6,432 526,434.3 527.5,436.4 528.9,438.5 
			530.4,440.5 531.8,442.4 533.2,444.1 534.7,445.7 536.1,447.2 537.6,448.6 539,449.8 540.5,450.9 541.9,451.8 543.3,452.5 
			544.8,453.2 546.2,453.6 547.7,453.9 549.1,454.1 550.6,454.1 552,453.9 553.4,453.5 554.9,453.1 556.3,452.4 557.8,451.6 
			559.2,450.7 560.6,449.6 562.1,448.3 563.5,446.9 565,445.4 566.4,443.7 567.8,441.9 569.3,440 570.7,437.9 572.2,435.8 
			573.6,433.5 575,431.2 576.5,428.7 577.9,426.2 579.4,423.5 580.8,420.8 582.3,418.1 583.7,415.2 585.1,412.4 586.6,409.5 
			588,406.5 589.5,403.5 590.9,400.5 592.4,397.5 593.8,394.5 595.2,391.5 596.7,388.5 598.1,385.5 599.6,382.5 601,379.6 
			602.4,376.7 603.9,373.8 605.3,371.1 606.8,368.3 608.2,365.6 609.6,363 611.1,360.5 612.5,358.1 614,355.7 615.4,353.4 
			616.8,351.3 618.3,349.2 619.7,347.3 621.2,345.4 622.6,343.7 624.1,342 625.5,340.5 626.9,339.1 628.4,337.9 629.8,336.7 
			631.3,335.7 632.7,334.9 634.1,334.1 635.6,333.5 637,333 638.5,332.6 639.9,332.4 641.3,332.3 642.8,332.4 644.2,332.5 
			645.7,332.9 647.1,333.3 648.5,333.9 650,334.5 651.4,335.4 652.9,336.3 654.3,337.3 655.8,338.5 657.2,339.7 658.6,341.1 
			660.1,342.5 661.5,344.1 663,345.7 664.4,347.5 665.9,349.3 667.3,351.2 668.7,353.1 670.2,355.1 671.6,357.2 673.1,359.3 
			674.5,361.4 675.9,363.6 677.4,365.8 678.8,368 680.3,370.2 681.7,372.4 683.1,374.6 684.6,376.8 686,378.9 687.5,381.1 
			688.9,383.2 690.3,385.2 691.8,387.2 693.2,389.1 694.7,390.9 696.1,392.7 697.6,394.4 699,396 700.4,397.5 701.9,398.9 
			703.3,400.1 704.8,401.3 706.2,402.3 707.7,403.2 709.1,404 710.5,404.7 712,405.2 713.4,405.6 714.9,405.8 716.3,405.9 
			717.7,405.9 719.2,405.7 720.6,405.4 722.1,404.9 723.5,404.4 724.9,403.7 726.4,402.8 727.8,401.8 729.3,400.7 730.7,399.5 
			732.1,398.1 733.6,396.7 735,395.1 736.5,393.5 737.9,391.7 739.4,389.9 740.8,388 742.2,386.1 743.7,384.1 745.1,382 
			746.6,379.9 748,377.7 749.4,375.6 750.9,373.4 752.3,371.2 753.8,369 755.2,366.8 756.6,364.7 758.1,362.5 759.5,360.4 
			761,358.4 762.4,356.4 763.9,354.5 765.3,352.7 766.7,350.9 768.2,349.3 769.6,347.7 771.1,346.3 772.5,344.9 773.9,343.8 
			775.4,342.7 776.8,341.7 778.3,340.9 779.7,340.2 781.2,339.7 782.6,339.4 784,339.2 785.5,339.1 786.9,339.2 788.4,339.6 
			789.8,340 791.2,340.7 792.7,341.5 794.1,342.5 795.6,343.7 797,345 798.4,346.6 799.9,348.3 801.3,350.2 802.8,352.2 
			804.2,354.4 805.7,356.8 807.1,359.4 808.5,362.1 810,365 811.4,368.1 812.9,371.3 814.3,374.6 815.7,378.1 817.2,381.7 
			818.6,385.4 820.1,389.3 821.5,393.3 823,397.4 824.4,401.5 825.8,405.9 827.3,410.2 828.7,414.7 828.7,622.7 827.3,622.7 
			825.8,622.7 824.4,622.7 823,622.7 821.5,622.7 820.1,622.7 818.6,622.7 817.2,622.7 815.7,622.7 814.3,622.7 812.9,622.7 
			811.4,622.7 810,622.7 808.5,622.7 807.1,622.7 805.7,622.7 804.2,622.7 802.8,622.7 801.3,622.7 799.9,622.7 798.4,622.7 
			797,622.7 795.6,622.7 794.1,622.7 792.7,622.7 791.2,622.7 789.8,622.7 788.4,622.7 786.9,622.7 785.5,622.7 784,622.7 
			782.6,622.7 781.2,622.7 779.7,622.7 778.3,622.7 776.8,622.7 775.4,622.7 773.9,622.7 772.5,622.7 771.1,622.7 769.6,622.7 
			768.2,622.7 766.7,622.7 765.3,622.7 763.9,622.7 762.4,622.7 761,622.7 759.5,622.7 758.1,622.7 756.6,622.7 755.2,622.7 
			753.8,622.7 752.3,622.7 750.9,622.7 749.4,622.7 748,622.7 746.6,622.7 745.1,622.7 743.7,622.7 742.2,622.7 740.8,622.7 
			739.4,622.7 737.9,622.7 736.5,622.7 735,622.7 733.6,622.7 732.1,622.7 730.7,622.7 729.3,622.7 727.8,622.7 726.4,622.7 
			724.9,622.7 723.5,622.7 722.1,622.7 720.6,622.7 719.2,622.7 717.7,622.7 716.3,622.7 714.9,622.7 713.4,622.7 712,622.7 
			710.5,622.7 709.1,622.7 707.7,622.7 706.2,622.7 704.8,622.7 703.3,622.7 701.9,622.7 700.4,622.7 699,622.7 697.6,622.7 
			696.1,622.7 694.7,622.7 693.2,622.7 691.8,622.7 690.3,622.7 688.9,622.7 687.5,622.7 686,622.7 684.6,622.7 683.1,622.7 
			681.7,622.7 680.3,622.7 678.8,622.7 677.4,622.7 675.9,622.7 674.5,622.7 673.1,622.7 671.6,622.7 670.2,622.7 668.7,622.7 
			667.3,622.7 665.9,622.7 664.4,622.7 663,622.7 661.5,622.7 660.1,622.7 658.6,622.7 657.2,622.7 655.8,622.7 654.3,622.7 
			652.9,622.7 651.4,622.7 650,622.7 648.5,622.7 647.1,622.7 645.7,622.7 644.2,622.7 642.8,622.7 641.3,622.7 639.9,622.7 
			638.5,622.7 637,622.7 635.6,622.7 634.1,622.7 632.7,622.7 631.3,622.7 629.8,622.7 628.4,622.7 626.9,622.7 625.5,622.7 
			624.1,622.7 622.6,622.7 621.2,622.7 619.7,622.7 618.3,622.7 616.8,622.7 615.4,622.7 614,622.7 612.5,622.7 611.1,622.7 
			609.6,622.7 608.2,622.7 606.8,622.7 605.3,622.7 603.9,622.7 602.4,622.7 601,622.7 599.6,622.7 598.1,622.7 596.7,622.7 
			595.2,622.7 593.8,622.7 592.4,622.7 590.9,622.7 589.5,622.7 588,622.7 586.6,622.7 585.1,622.7 583.7,622.7 582.3,622.7 
			580.8,622.7 579.4,622.7 577.9,622.7 576.5,622.7 575,622.7 573.6,622.7 572.2,622.7 570.7,622.7 569.3,622.7 567.8,622.7 
			566.4,622.7 565,622.7 563.5,622.7 562.1,622.7 560.6,622.7 559.2,622.7 557.8,622.7 556.3,622.7 554.9,622.7 553.4,622.7 
			552,622.7 550.6,622.7 549.1,622.7 547.7,622.7 546.2,622.7 544.8,622.7 543.3,622.7 541.9,622.7 540.5,622.7 539,622.7 
			537.6,622.7 536.1,622.7 534.7,622.7 533.2,622.7 531.8,622.7 530.4,622.7 528.9,622.7 527.5,622.7 526,622.7 524.6,622.7 
			523.2,622.7 521.7,622.7 520.3,622.7 518.8,622.7 517.4,622.7 516,622.7 514.5,622.7 513.1,622.7 511.6,622.7 510.2,622.7 
			508.8,622.7 507.3,622.7 505.9,622.7 504.4,622.7 503,622.7 501.5,622.7 500.1,622.7 498.7,622.7 497.2,622.7 495.8,622.7 
			494.3,622.7 492.9,622.7 491.5,622.7 490,622.7 488.6,622.7 487.1,622.7 485.7,622.7 484.3,622.7 482.8,622.7 481.4,622.7 
			479.9,622.7 478.5,622.7 477,622.7 475.6,622.7 474.2,622.7 472.7,622.7 471.3,622.7 469.8,622.7 468.4,622.7 467,622.7 
			465.5,622.7 464.1,622.7 462.6,622.7 461.2,622.7 459.7,622.7 458.3,622.7 456.9,622.7 455.4,622.7 454,622.7 452.5,622.7 
			451.1,622.7 449.7,622.7 448.2,622.7 446.8,622.7 445.3,622.7 443.9,622.7 442.5,622.7 441,622.7 439.6,622.7 438.1,622.7 
			436.7,622.7 435.2,622.7 433.8,622.7 432.4,622.7 430.9,622.7 429.5,622.7 428,622.7 426.6,622.7 425.2,622.7 423.7,622.7 
			422.3,622.7 420.8,622.7 419.4,622.7 417.9,622.7 416.5,622.7 415.1,622.7 413.6,622.7 412.2,622.7 410.7,622.7 409.3,622.7 
			407.9,622.7 406.4,622.7 405,622.7 403.5,622.7 402.1,622.7 400.7,622.7 399.2,622.7 397.8,622.7 396.3,622.7 394.9,622.7 
			393.4,622.7 392,622.7 390.6,622.7 389.1,622.7 387.7,622.7 386.2,622.7 384.8,622.7 383.4,622.7 381.9,622.7 380.5,622.7 
			379,622.7 377.6,622.7 376.2,622.7 374.7,622.7 373.3,622.7 371.8,622.7 370.4,622.7 369,622.7 367.5,622.7 366.1,622.7 
			364.6,622.7 363.2,622.7 361.7,622.7 360.3,622.7 358.9,622.7 357.4,622.7 356,622.7 354.5,622.7 353.1,622.7 351.6,622.7 
			350.2,622.7 348.8,622.7 347.3,622.7 345.9,622.7 344.4,622.7 343,622.7 341.6,622.7 340.1,622.7 338.7,622.7 337.2,622.7 
			335.8,622.7 334.4,622.7 332.9,622.7 331.5,622.7 330,622.7 328.6,622.7 327.2,622.7 325.7,622.7 324.3,622.7 322.8,622.7 
			321.4,622.7 319.9,622.7 318.5,622.7 317.1,622.7 315.6,622.7 314.2,622.7 312.7,622.7 311.3,622.7 309.9,622.7 308.4,622.7 
			307,622.7 305.5,622.7 304.1,622.7 302.6,622.7 301.2,622.7 299.8,622.7 298.3,622.7 296.9,622.7 295.4,622.7 294,622.7 
			292.6,622.7 291.1,622.7 289.7,622.7 288.2,622.7 286.8,622.7 285.4,622.7 283.9,622.7 282.5,622.7 281,622.7 279.6,622.7 
			278.1,622.7 276.7,622.7 275.3,622.7 273.8,622.7 272.4,622.7 270.9,622.7 269.5,622.7 268.1,622.7 266.6,622.7 265.2,622.7 
			263.7,622.7 262.3,622.7 260.9,622.7 259.4,622.7 258,622.7 256.5,622.7 255.1,622.7 253.7,622.7 252.2,622.7 250.8,622.7 
			249.3,622.7 247.9,622.7 246.4,622.7 245,622.7 243.6,622.7 242.1,622.7 240.7,622.7 239.2,622.7 237.8,622.7 236.3,622.7 
			234.9,622.7 233.5,622.7 232,622.7 230.6,622.7 229.1,622.7 227.7,622.7 226.3,622.7 224.8,622.7 223.4,622.7 221.9,622.7 
			220.5,622.7 219.1,622.7 217.6,622.7 216.2,622.7 214.7,622.7 213.3,622.7 211.9,622.7 210.4,622.7 209,622.7 207.5,622.7 
			206.1,622.7 204.6,622.7 203.2,622.7 201.8,622.7 200.3,622.7 198.9,622.7 197.4,622.7 196,622.7 194.6,622.7 193.1,622.7 
			191.7,622.7 190.2,622.7 188.8,622.7 187.3,622.7 185.9,622.7 184.5,622.7 183,622.7 181.6,622.7 180.1,622.7 178.7,622.7 
			177.3,622.7 175.8,622.7 174.4,622.7 172.9,622.7 171.5,622.7 170.1,622.7 168.6,622.7 167.2,622.7 165.7,622.7 164.3,622.7 
			162.8,622.7 161.4,622.7 160,622.7 158.5,622.7 157.1,622.7 155.6,622.7 154.2,622.7 152.8,622.7 151.3,622.7 149.9,622.7 
			148.4,622.7 147,622.7 145.6,622.7 144.1,622.7 142.7,622.7 141.2,622.7 139.8,622.7 138.3,622.7 136.9,622.7 135.5,622.7 
			134,622.7 132.6,622.7 131.1,622.7 129.7,622.7 128.3,622.7 126.8,622.7 125.4,622.7 123.9,622.7 122.5,622.7 121,622.7 
			119.6,622.7 118.2,622.7 116.7,622.7 115.3,622.7 113.8,622.7 112.4,622.7 111,622.7 109.5,622.7 108.1,622.7 106.6,622.7 
			105.2,622.7 103.8,622.7 102.3,622.7 100.9,622.7 99.4,622.7 98,622.7 96.5,622.7 95.1,622.7 93.7,622.7 		"/>
	</g>
</g>
<text transform="matrix(1 0 0 1 16.7421 626.9858)" fill="#7F7F7F" font-family="'Helvetica'" font-size="12.0418">0.000</text>
<text transform="matrix(1 0 0 1 16.7421 475.73)" fill="#7F7F7F" font-family="'Helvetica'" font-size="12.0418">0.025</text>
<text transform="matrix(1 0 0 1 16.7421 324.4614)" fill="#7F7F7F" font-family="'Helvetica'" font-size="12.0418">0.050</text>
<text transform="matrix(1 0 0 1 16.7421 173.1919)" fill="#7F7F7F" font-family="'Helvetica'" font-size="12.0418">0.075</text>
<line fill="none" stroke="#7F7F7F" stroke-width="1.06" stroke-linejoin="round" stroke-miterlimit="10" x1="50.3" y1="622.7" x2="55.4" y2="622.7"/>
<line fill="none" stroke="#7F7F7F" stroke-width="1.06" stroke-linejoin="round" stroke-miterlimit="10" x1="50.3" y1="471.4" x2="55.4" y2="471.4"/>
<line fill="none" stroke="#7F7F7F" stroke-width="1.06" stroke-linejoin="round" stroke-miterlimit="10" x1="50.3" y1="320.1" x2="55.4" y2="320.1"/>
<line fill="none" stroke="#7F7F7F" stroke-width="1.06" stroke-linejoin="round" stroke-miterlimit="10" x1="50.3" y1="168.9" x2="55.4" y2="168.9"/>
<line fill="none" stroke="#7F7F7F" stroke-width="1.06" stroke-linejoin="round" stroke-miterlimit="10" x1="67.7" y1="656.5" x2="67.7" y2="651.4"/>
<line fill="none" stroke="#7F7F7F" stroke-width="1.06" stroke-linejoin="round" stroke-miterlimit="10" x1="313.2" y1="656.5" x2="313.2" y2="651.4"/>
<line fill="none" stroke="#7F7F7F" stroke-width="1.06" stroke-linejoin="round" stroke-miterlimit="10" x1="558.7" y1="656.5" x2="558.7" y2="651.4"/>
<line fill="none" stroke="#7F7F7F" stroke-width="1.06" stroke-linejoin="round" stroke-miterlimit="10" x1="804.2" y1="656.5" x2="804.2" y2="651.4"/>
<text transform="matrix(1 0 0 1 40.8984 668.5425)" fill="#7F7F7F" font-family="'Helvetica'" font-size="12.0418">20131000</text>
<text transform="matrix(1 0 0 1 286.3935 668.5425)" fill="#7F7F7F" font-family="'Helvetica'" font-size="12.0418">20131010</text>
<text transform="matrix(1 0 0 1 531.8896 668.5425)" fill="#7F7F7F" font-family="'Helvetica'" font-size="12.0418">20131020</text>
<text transform="matrix(1 0 0 1 777.3847 668.5425)" fill="#7F7F7F" font-family="'Helvetica'" font-size="12.0418">20131030</text>
<text transform="matrix(1 0 0 1 430.3173 683.2573)"><tspan x="0" y="0" font-family="'Helvetica'" font-size="14.4501">AIR</tspan><tspan x="24.1" y="0" font-family="'Helvetica'" font-size="14.4501">D</tspan><tspan x="33.9" y="0" font-family="'Helvetica'" font-size="14.4501" letter-spacing="-1">A</tspan><tspan x="41.8" y="0" font-family="'Helvetica'" font-size="14.4501">TE</tspan></text>
<text transform="matrix(-6.123234e-17 -1 1 -6.123234e-17 12.4081 358.5741)" font-family="'Helvetica'" font-size="14.4501">density</text>
<rect x="877.6" y="295.2" fill="#FFFFFF" width="122.4" height="80.9"/>
<text transform="matrix(1 0 0 1 882.7372 308.7944)" font-family="'Helvetica-Bold'" font-size="12.0418">SPONSOR</text>
<rect x="882.7" y="315.5" fill="#F2F2F2" width="27.7" height="27.7"/>
<rect x="882.7" y="315.5" fill="none" stroke="#FFFFFF" stroke-width="1.06" stroke-linecap="round" stroke-linejoin="round" stroke-miterlimit="10" width="27.7" height="27.7"/>
<g>
	<rect x="882.7" y="315.5" opacity="0.6" fill="#F8766D" width="27.7" height="27.7"/>
	
		<rect x="882.7" y="315.5" fill="none" stroke="#000000" stroke-width="0.75" stroke-linecap="round" stroke-linejoin="round" stroke-miterlimit="10" width="27.7" height="27.7"/>
</g>
<rect x="882.7" y="343.3" fill="#F2F2F2" width="27.7" height="27.7"/>
<rect x="882.7" y="343.3" fill="none" stroke="#FFFFFF" stroke-width="1.06" stroke-linecap="round" stroke-linejoin="round" stroke-miterlimit="10" width="27.7" height="27.7"/>
<g>
	<rect x="882.7" y="343.3" opacity="0.6" fill="#00BFC4" width="27.7" height="27.7"/>
	
		<rect x="882.7" y="343.3" fill="none" stroke="#000000" stroke-width="0.75" stroke-linecap="round" stroke-linejoin="round" stroke-miterlimit="10" width="27.7" height="27.7"/>
</g>
<text transform="matrix(1 0 0 1 913.9501 333.7329)"><tspan x="0" y="0" font-family="'Helvetica'" font-size="12.0418">C</tspan><tspan x="8.7" y="0" font-family="'Helvetica'" font-size="12.0418">O</tspan><tspan x="17.6" y="0" font-family="'Helvetica'" font-size="12.0418">T</tspan><tspan x="24.9" y="0" font-family="'Helvetica'" font-size="12.0418">T</tspan><tspan x="31.8" y="0" font-family="'Helvetica'" font-size="12.0418">ON, </tspan><tspan x="56.6" y="0" font-family="'Helvetica'" font-size="12.0418">T</tspan><tspan x="63.5" y="0" font-family="'Helvetica'" font-size="12.0418">OM</tspan></text>
<text transform="matrix(1 0 0 1 913.9501 361.478)"><tspan x="0" y="0" font-family="'Helvetica'" font-size="12.0418">P</tspan><tspan x="8" y="0" font-family="'Helvetica'" font-size="12.0418">R</tspan><tspan x="16.1" y="0" font-family="'Helvetica'" font-size="12.0418" letter-spacing="-1">Y</tspan><tspan x="23.1" y="0" font-family="'Helvetica'" font-size="12.0418">OR, MARK</tspan></text>
</svg>
