<?xml version="1.0" encoding="utf-8"?>
<!-- Generator: Adobe Illustrator 18.1.0, SVG Export Plug-In . SVG Version: 6.00 Build 0)  -->
<svg version="1.1" id="Layer_1" xmlns="http://www.w3.org/2000/svg" xmlns:xlink="http://www.w3.org/1999/xlink" x="0px" y="0px"
	 viewBox="0 0 1000 530.9" enable-background="new 0 0 1000 530.9" xml:space="preserve">
<g>
	<defs>
		<rect id="SVGID_1_" x="68.8" y="17.9" width="796.7" height="463.2"/>
	</defs>
	<clipPath id="SVGID_2_">
		<use xlink:href="#SVGID_1_"  overflow="visible"/>
	</clipPath>
	<rect x="68.8" y="17.9" clip-path="url(#SVGID_2_)" fill="#E5E5E5" width="796.7" height="463.2"/>
	
		<line clip-path="url(#SVGID_2_)" fill="none" stroke="#F2F2F2" stroke-width="0.53" stroke-linejoin="round" stroke-miterlimit="10" x1="68.8" y1="406.2" x2="865.5" y2="406.2"/>
	
		<line clip-path="url(#SVGID_2_)" fill="none" stroke="#F2F2F2" stroke-width="0.53" stroke-linejoin="round" stroke-miterlimit="10" x1="68.8" y1="298.4" x2="865.5" y2="298.4"/>
	
		<line clip-path="url(#SVGID_2_)" fill="none" stroke="#F2F2F2" stroke-width="0.53" stroke-linejoin="round" stroke-miterlimit="10" x1="68.8" y1="190.7" x2="865.5" y2="190.7"/>
	
		<line clip-path="url(#SVGID_2_)" fill="none" stroke="#F2F2F2" stroke-width="0.53" stroke-linejoin="round" stroke-miterlimit="10" x1="68.8" y1="82.9" x2="865.5" y2="82.9"/>
	
		<line clip-path="url(#SVGID_2_)" fill="none" stroke="#F2F2F2" stroke-width="0.53" stroke-linejoin="round" stroke-miterlimit="10" x1="181.2" y1="481.1" x2="181.2" y2="17.9"/>
	
		<line clip-path="url(#SVGID_2_)" fill="none" stroke="#F2F2F2" stroke-width="0.53" stroke-linejoin="round" stroke-miterlimit="10" x1="334.9" y1="481.1" x2="334.9" y2="17.9"/>
	
		<line clip-path="url(#SVGID_2_)" fill="none" stroke="#F2F2F2" stroke-width="0.53" stroke-linejoin="round" stroke-miterlimit="10" x1="488.5" y1="481.1" x2="488.5" y2="17.9"/>
	
		<line clip-path="url(#SVGID_2_)" fill="none" stroke="#F2F2F2" stroke-width="0.53" stroke-linejoin="round" stroke-miterlimit="10" x1="642.2" y1="481.1" x2="642.2" y2="17.9"/>
	
		<line clip-path="url(#SVGID_2_)" fill="none" stroke="#F2F2F2" stroke-width="0.53" stroke-linejoin="round" stroke-miterlimit="10" x1="795.8" y1="481.1" x2="795.8" y2="17.9"/>
	
		<line clip-path="url(#SVGID_2_)" fill="none" stroke="#FFFFFF" stroke-width="1.06" stroke-linejoin="round" stroke-miterlimit="10" x1="68.8" y1="460.1" x2="865.5" y2="460.1"/>
	
		<line clip-path="url(#SVGID_2_)" fill="none" stroke="#FFFFFF" stroke-width="1.06" stroke-linejoin="round" stroke-miterlimit="10" x1="68.8" y1="352.3" x2="865.5" y2="352.3"/>
	
		<line clip-path="url(#SVGID_2_)" fill="none" stroke="#FFFFFF" stroke-width="1.06" stroke-linejoin="round" stroke-miterlimit="10" x1="68.8" y1="244.6" x2="865.5" y2="244.6"/>
	
		<line clip-path="url(#SVGID_2_)" fill="none" stroke="#FFFFFF" stroke-width="1.06" stroke-linejoin="round" stroke-miterlimit="10" x1="68.8" y1="136.8" x2="865.5" y2="136.8"/>
	
		<line clip-path="url(#SVGID_2_)" fill="none" stroke="#FFFFFF" stroke-width="1.06" stroke-linejoin="round" stroke-miterlimit="10" x1="68.8" y1="29.1" x2="865.5" y2="29.1"/>
	
		<line clip-path="url(#SVGID_2_)" fill="none" stroke="#FFFFFF" stroke-width="1.06" stroke-linejoin="round" stroke-miterlimit="10" x1="104.4" y1="481.1" x2="104.4" y2="17.9"/>
	
		<line clip-path="url(#SVGID_2_)" fill="none" stroke="#FFFFFF" stroke-width="1.06" stroke-linejoin="round" stroke-miterlimit="10" x1="258.1" y1="481.1" x2="258.1" y2="17.9"/>
	
		<line clip-path="url(#SVGID_2_)" fill="none" stroke="#FFFFFF" stroke-width="1.06" stroke-linejoin="round" stroke-miterlimit="10" x1="411.7" y1="481.1" x2="411.7" y2="17.9"/>
	
		<line clip-path="url(#SVGID_2_)" fill="none" stroke="#FFFFFF" stroke-width="1.06" stroke-linejoin="round" stroke-miterlimit="10" x1="565.4" y1="481.1" x2="565.4" y2="17.9"/>
	
		<line clip-path="url(#SVGID_2_)" fill="none" stroke="#FFFFFF" stroke-width="1.06" stroke-linejoin="round" stroke-miterlimit="10" x1="719" y1="481.1" x2="719" y2="17.9"/>
	<g clip-path="url(#SVGID_2_)">
		<polygon opacity="0.6" fill="#F8766D" points="105,452.7 106.4,452.7 107.8,452.7 109.3,452.7 110.7,452.6 112.1,452.6 
			113.5,452.6 114.9,452.6 116.3,452.6 117.8,452.6 119.2,452.6 120.6,452.6 122,452.7 123.4,452.7 124.9,452.7 126.3,452.7 
			127.7,452.7 129.1,452.7 130.5,452.8 131.9,452.8 133.4,452.8 134.8,452.8 136.2,452.8 137.6,452.8 139,452.8 140.5,452.8 
			141.9,452.8 143.3,452.8 144.7,452.8 146.1,452.7 147.5,452.7 149,452.6 150.4,452.6 151.8,452.5 153.2,452.4 154.6,452.3 
			156,452.2 157.5,452 158.9,451.9 160.3,451.7 161.7,451.5 163.1,451.3 164.5,451 166,450.8 167.4,450.5 168.8,450.1 170.2,449.8 
			171.6,449.4 173,449 174.5,448.5 175.9,448.1 177.3,447.5 178.7,447 180.1,446.4 181.6,445.7 183,445.1 184.4,444.4 185.8,443.6 
			187.2,442.8 188.6,441.9 190.1,441 191.5,440 192.9,439 194.3,437.9 195.7,436.8 197.1,435.6 198.6,434.4 200,433.1 201.4,431.8 
			202.8,430.4 204.2,428.9 205.6,427.3 207.1,425.7 208.5,424.1 209.9,422.3 211.3,420.6 212.7,418.7 214.2,416.8 215.6,414.8 
			217,412.7 218.4,410.6 219.8,408.4 221.2,406.2 222.7,403.9 224.1,401.5 225.5,399 226.9,396.5 228.3,394 229.7,391.4 
			231.2,388.7 232.6,385.9 234,383.2 235.4,380.3 236.8,377.4 238.3,374.5 239.7,371.5 241.1,368.5 242.5,365.4 243.9,362.3 
			245.3,359.2 246.8,356 248.2,352.8 249.6,349.6 251,346.4 252.4,343.1 253.8,339.8 255.3,336.6 256.7,333.3 258.1,330 
			259.5,326.7 260.9,323.5 262.4,320.2 263.8,317 265.2,313.7 266.6,310.6 268,307.4 269.4,304.3 270.9,301.2 272.3,298.1 
			273.7,295.1 275.1,292.2 276.5,289.2 277.9,286.4 279.4,283.7 280.8,280.9 282.2,278.3 283.6,275.7 285,273.2 286.4,270.9 
			287.9,268.5 289.3,266.3 290.7,264.2 292.1,262.1 293.5,260.2 294.9,258.3 296.4,256.6 297.8,254.9 299.2,253.4 300.6,251.9 
			302,250.6 303.4,249.4 304.9,248.3 306.3,247.3 307.7,246.4 309.1,245.6 310.5,244.9 312,244.4 313.4,243.9 314.8,243.6 
			316.2,243.4 317.6,243.2 319,243.2 320.5,243.3 321.9,243.5 323.3,243.8 324.7,244.2 326.1,244.7 327.5,245.3 329,246 
			330.4,246.8 331.8,247.7 333.2,248.7 334.6,249.7 336.1,250.9 337.5,252.1 338.9,253.4 340.3,254.7 341.7,256.2 343.1,257.7 
			344.6,259.2 346,260.9 347.4,262.6 348.8,264.3 350.2,266.1 351.7,267.9 353.1,269.8 354.5,271.7 355.9,273.7 357.3,275.7 
			358.7,277.7 360.2,279.8 361.6,281.8 363,283.9 364.4,286 365.8,288.2 367.2,290.3 368.7,292.5 370.1,294.6 371.5,296.8 
			372.9,298.9 374.3,301.1 375.7,303.2 377.2,305.3 378.6,307.5 380,309.6 381.4,311.7 382.8,313.7 384.2,315.8 385.7,317.8 
			387.1,319.8 388.5,321.8 389.9,323.8 391.3,325.7 392.7,327.6 394.2,329.5 395.6,331.3 397,333.1 398.4,334.9 399.8,336.6 
			401.3,338.3 402.7,340 404.1,341.6 405.5,343.2 406.9,344.8 408.3,346.3 409.8,347.8 411.2,349.2 412.6,350.6 414,352 
			415.4,353.4 416.8,354.7 418.3,356 419.7,357.2 421.1,358.4 422.5,359.6 423.9,360.8 425.4,361.9 426.8,363 428.2,364.1 
			429.6,365.2 431,366.2 432.4,367.2 433.9,368.2 435.3,369.2 436.7,370.1 438.1,371.1 439.5,372 440.9,372.9 442.4,373.8 
			443.8,374.7 445.2,375.5 446.6,376.4 448,377.3 449.5,378.1 450.9,378.9 452.3,379.8 453.7,380.6 455.1,381.4 456.5,382.2 
			458,383 459.4,383.8 460.8,384.6 462.2,385.4 463.6,386.2 465,387 466.5,387.8 467.9,388.6 469.3,389.4 470.7,390.1 472.1,390.9 
			473.5,391.7 475,392.4 476.4,393.2 477.8,393.9 479.2,394.7 480.6,395.4 482.1,396.1 483.5,396.8 484.9,397.5 486.3,398.2 
			487.7,398.8 489.1,399.5 490.6,400.1 492,400.7 493.4,401.3 494.8,401.8 496.2,402.4 497.6,402.9 499.1,403.3 500.5,403.8 
			501.9,404.2 503.3,404.5 504.7,404.9 506.1,405.2 507.6,405.4 509,405.6 510.4,405.8 511.8,405.9 513.2,405.9 514.6,405.9 
			516.1,405.9 517.5,405.7 518.9,405.5 520.3,405.3 521.7,405 523.2,404.6 524.6,404.1 526,403.6 527.4,403 528.8,402.3 
			530.2,401.5 531.7,400.7 533.1,399.7 534.5,398.7 535.9,397.6 537.3,396.4 538.7,395.1 540.2,393.7 541.6,392.1 543,390.5 
			544.4,388.8 545.8,387 547.3,385 548.7,383 550.1,380.8 551.5,378.5 552.9,376.1 554.3,373.6 555.8,371 557.2,368.2 558.6,365.3 
			560,362.3 561.4,359.2 562.9,356 564.3,352.6 565.7,349.1 567.1,345.5 568.5,341.7 569.9,337.9 571.4,333.9 572.8,329.8 
			574.2,325.5 575.6,321.2 577,316.7 578.4,312.1 579.9,307.4 581.3,302.6 582.7,297.7 584.1,292.7 585.5,287.6 586.9,282.4 
			588.4,277.1 589.8,271.7 591.2,266.3 592.6,260.8 594,255.1 595.4,249.5 596.9,243.8 598.3,238 599.7,232.2 601.1,226.3 
			602.5,220.4 603.9,214.5 605.4,208.6 606.8,202.7 608.2,196.7 609.6,190.8 611,184.9 612.5,179 613.9,173.2 615.3,167.4 
			616.7,161.7 618.1,156 619.5,150.4 621,144.9 622.4,139.5 623.8,134.2 625.2,128.9 626.6,123.8 628,118.8 629.5,113.9 
			630.9,109.3 632.3,104.7 633.7,100.3 635.1,96.1 636.5,92 638,88.1 639.4,84.4 640.8,80.8 642.2,77.5 643.6,74.4 645.1,71.4 
			646.5,68.7 647.9,66.2 649.3,63.9 650.7,61.8 652.1,60 653.6,58.2 655,56.8 656.4,55.6 657.8,54.6 659.2,53.8 660.7,53.3 
			662.1,52.9 663.5,52.8 664.9,52.8 666.3,53.1 667.7,53.5 669.2,54.2 670.6,55 672,56 673.4,57.2 674.8,58.5 676.2,60.1 
			677.7,61.7 679.1,63.5 680.5,65.4 681.9,67.5 683.3,69.6 684.7,71.9 686.2,74.3 687.6,76.7 689,79.3 690.4,81.8 691.8,84.5 
			693.3,87.2 694.7,89.9 696.1,92.6 697.5,95.4 698.9,98.2 700.3,100.9 701.8,103.7 703.2,106.4 704.6,109.1 706,111.7 707.4,114.3 
			708.8,116.9 710.3,119.3 711.7,121.7 713.1,124 714.5,126.3 715.9,128.4 717.3,130.5 718.8,132.5 720.2,134.3 721.6,136 
			723,137.7 724.4,139.2 725.8,140.6 727.3,141.9 728.7,143.1 730.1,144.2 731.5,145.2 732.9,146 734.4,146.8 735.8,147.4 
			737.2,148 738.6,148.4 740,148.8 741.4,149 742.9,149.2 744.3,149.3 745.7,149.4 747.1,149.4 748.5,149.3 749.9,149.1 751.4,149 
			752.8,148.8 754.2,148.5 755.6,148.3 757,148 758.5,147.8 759.9,147.5 761.3,147.2 762.7,147 764.1,146.8 765.5,146.7 767,146.6 
			768.4,146.5 769.8,146.5 771.2,146.6 772.6,146.8 774,147 775.5,147.4 776.9,147.8 778.3,148.4 779.7,149 781.1,149.8 
			782.6,150.7 784,151.7 785.4,152.9 786.8,154.1 788.2,155.5 789.6,157.1 791.1,158.8 792.5,160.6 793.9,162.6 795.3,164.7 
			796.7,167 798.1,169.4 799.6,171.9 801,174.7 802.4,177.5 803.8,180.4 805.2,183.6 806.6,186.8 808.1,190.1 809.5,193.7 
			810.9,197.3 812.3,201 813.7,204.9 815.1,208.8 816.6,212.8 818,217 819.4,221.2 820.8,225.5 822.2,229.9 823.6,234.4 
			825.1,238.9 826.5,243.5 827.9,248.1 829.3,252.8 829.3,460.1 827.9,460.1 826.5,460.1 825.1,460.1 823.6,460.1 822.2,460.1 
			820.8,460.1 819.4,460.1 818,460.1 816.6,460.1 815.1,460.1 813.7,460.1 812.3,460.1 810.9,460.1 809.5,460.1 808.1,460.1 
			806.6,460.1 805.2,460.1 803.8,460.1 802.4,460.1 801,460.1 799.6,460.1 798.1,460.1 796.7,460.1 795.3,460.1 793.9,460.1 
			792.5,460.1 791.1,460.1 789.6,460.1 788.2,460.1 786.8,460.1 785.4,460.1 784,460.1 782.6,460.1 781.1,460.1 779.7,460.1 
			778.3,460.1 776.9,460.1 775.5,460.1 774,460.1 772.6,460.1 771.2,460.1 769.8,460.1 768.4,460.1 767,460.1 765.5,460.1 
			764.1,460.1 762.7,460.1 761.3,460.1 759.9,460.1 758.5,460.1 757,460.1 755.6,460.1 754.2,460.1 752.8,460.1 751.4,460.1 
			749.9,460.1 748.5,460.1 747.1,460.1 745.7,460.1 744.3,460.1 742.9,460.1 741.4,460.1 740,460.1 738.6,460.1 737.2,460.1 
			735.8,460.1 734.4,460.1 732.9,460.1 731.5,460.1 730.1,460.1 728.7,460.1 727.3,460.1 725.8,460.1 724.4,460.1 723,460.1 
			721.6,460.1 720.2,460.1 718.8,460.1 717.3,460.1 715.9,460.1 714.5,460.1 713.1,460.1 711.7,460.1 710.3,460.1 708.8,460.1 
			707.4,460.1 706,460.1 704.6,460.1 703.2,460.1 701.8,460.1 700.3,460.1 698.9,460.1 697.5,460.1 696.1,460.1 694.7,460.1 
			693.3,460.1 691.8,460.1 690.4,460.1 689,460.1 687.6,460.1 686.2,460.1 684.7,460.1 683.3,460.1 681.9,460.1 680.5,460.1 
			679.1,460.1 677.7,460.1 676.2,460.1 674.8,460.1 673.4,460.1 672,460.1 670.6,460.1 669.2,460.1 667.7,460.1 666.3,460.1 
			664.9,460.1 663.5,460.1 662.1,460.1 660.7,460.1 659.2,460.1 657.8,460.1 656.4,460.1 655,460.1 653.6,460.1 652.1,460.1 
			650.7,460.1 649.3,460.1 647.9,460.1 646.5,460.1 645.1,460.1 643.6,460.1 642.2,460.1 640.8,460.1 639.4,460.1 638,460.1 
			636.5,460.1 635.1,460.1 633.7,460.1 632.3,460.1 630.9,460.1 629.5,460.1 628,460.1 626.6,460.1 625.2,460.1 623.8,460.1 
			622.4,460.1 621,460.1 619.5,460.1 618.1,460.1 616.7,460.1 615.3,460.1 613.9,460.1 612.5,460.1 611,460.1 609.6,460.1 
			608.2,460.1 606.8,460.1 605.4,460.1 603.9,460.1 602.5,460.1 601.1,460.1 599.7,460.1 598.3,460.1 596.9,460.1 595.4,460.1 
			594,460.1 592.6,460.1 591.2,460.1 589.8,460.1 588.4,460.1 586.9,460.1 585.5,460.1 584.1,460.1 582.7,460.1 581.3,460.1 
			579.9,460.1 578.4,460.1 577,460.1 575.6,460.1 574.2,460.1 572.8,460.1 571.4,460.1 569.9,460.1 568.5,460.1 567.1,460.1 
			565.7,460.1 564.3,460.1 562.9,460.1 561.4,460.1 560,460.1 558.6,460.1 557.2,460.1 555.8,460.1 554.3,460.1 552.9,460.1 
			551.5,460.1 550.1,460.1 548.7,460.1 547.3,460.1 545.8,460.1 544.4,460.1 543,460.1 541.6,460.1 540.2,460.1 538.7,460.1 
			537.3,460.1 535.9,460.1 534.5,460.1 533.1,460.1 531.7,460.1 530.2,460.1 528.8,460.1 527.4,460.1 526,460.1 524.6,460.1 
			523.2,460.1 521.7,460.1 520.3,460.1 518.9,460.1 517.5,460.1 516.1,460.1 514.6,460.1 513.2,460.1 511.8,460.1 510.4,460.1 
			509,460.1 507.6,460.1 506.1,460.1 504.7,460.1 503.3,460.1 501.9,460.1 500.5,460.1 499.1,460.1 497.6,460.1 496.2,460.1 
			494.8,460.1 493.4,460.1 492,460.1 490.6,460.1 489.1,460.1 487.7,460.1 486.3,460.1 484.9,460.1 483.5,460.1 482.1,460.1 
			480.6,460.1 479.2,460.1 477.8,460.1 476.4,460.1 475,460.1 473.5,460.1 472.1,460.1 470.7,460.1 469.3,460.1 467.9,460.1 
			466.5,460.1 465,460.1 463.6,460.1 462.2,460.1 460.8,460.1 459.4,460.1 458,460.1 456.5,460.1 455.1,460.1 453.7,460.1 
			452.3,460.1 450.9,460.1 449.5,460.1 448,460.1 446.6,460.1 445.2,460.1 443.8,460.1 442.4,460.1 440.9,460.1 439.5,460.1 
			438.1,460.1 436.7,460.1 435.3,460.1 433.9,460.1 432.4,460.1 431,460.1 429.6,460.1 428.2,460.1 426.8,460.1 425.4,460.1 
			423.9,460.1 422.5,460.1 421.1,460.1 419.7,460.1 418.3,460.1 416.8,460.1 415.4,460.1 414,460.1 412.6,460.1 411.2,460.1 
			409.8,460.1 408.3,460.1 406.9,460.1 405.5,460.1 404.1,460.1 402.7,460.1 401.3,460.1 399.8,460.1 398.4,460.1 397,460.1 
			395.6,460.1 394.2,460.1 392.7,460.1 391.3,460.1 389.9,460.1 388.5,460.1 387.1,460.1 385.7,460.1 384.2,460.1 382.8,460.1 
			381.4,460.1 380,460.1 378.6,460.1 377.2,460.1 375.7,460.1 374.3,460.1 372.9,460.1 371.5,460.1 370.1,460.1 368.7,460.1 
			367.2,460.1 365.8,460.1 364.4,460.1 363,460.1 361.6,460.1 360.2,460.1 358.7,460.1 357.3,460.1 355.9,460.1 354.5,460.1 
			353.1,460.1 351.7,460.1 350.2,460.1 348.8,460.1 347.4,460.1 346,460.1 344.6,460.1 343.1,460.1 341.7,460.1 340.3,460.1 
			338.9,460.1 337.5,460.1 336.1,460.1 334.6,460.1 333.2,460.1 331.8,460.1 330.4,460.1 329,460.1 327.5,460.1 326.1,460.1 
			324.7,460.1 323.3,460.1 321.9,460.1 320.5,460.1 319,460.1 317.6,460.1 316.2,460.1 314.8,460.1 313.4,460.1 312,460.1 
			310.5,460.1 309.1,460.1 307.7,460.1 306.3,460.1 304.9,460.1 303.4,460.1 302,460.1 300.6,460.1 299.2,460.1 297.8,460.1 
			296.4,460.1 294.9,460.1 293.5,460.1 292.1,460.1 290.7,460.1 289.3,460.1 287.9,460.1 286.4,460.1 285,460.1 283.6,460.1 
			282.2,460.1 280.8,460.1 279.4,460.1 277.9,460.1 276.5,460.1 275.1,460.1 273.7,460.1 272.3,460.1 270.9,460.1 269.4,460.1 
			268,460.1 266.6,460.1 265.2,460.1 263.8,460.1 262.4,460.1 260.9,460.1 259.5,460.1 258.1,460.1 256.7,460.1 255.3,460.1 
			253.8,460.1 252.4,460.1 251,460.1 249.6,460.1 248.2,460.1 246.8,460.1 245.3,460.1 243.9,460.1 242.5,460.1 241.1,460.1 
			239.7,460.1 238.3,460.1 236.8,460.1 235.4,460.1 234,460.1 232.6,460.1 231.2,460.1 229.7,460.1 228.3,460.1 226.9,460.1 
			225.5,460.1 224.1,460.1 222.7,460.1 221.2,460.1 219.8,460.1 218.4,460.1 217,460.1 215.6,460.1 214.2,460.1 212.7,460.1 
			211.3,460.1 209.9,460.1 208.5,460.1 207.1,460.1 205.6,460.1 204.2,460.1 202.8,460.1 201.4,460.1 200,460.1 198.6,460.1 
			197.1,460.1 195.7,460.1 194.3,460.1 192.9,460.1 191.5,460.1 190.1,460.1 188.6,460.1 187.2,460.1 185.8,460.1 184.4,460.1 
			183,460.1 181.6,460.1 180.1,460.1 178.7,460.1 177.3,460.1 175.9,460.1 174.5,460.1 173,460.1 171.6,460.1 170.2,460.1 
			168.8,460.1 167.4,460.1 166,460.1 164.5,460.1 163.1,460.1 161.7,460.1 160.3,460.1 158.9,460.1 157.5,460.1 156,460.1 
			154.6,460.1 153.2,460.1 151.8,460.1 150.4,460.1 149,460.1 147.5,460.1 146.1,460.1 144.7,460.1 143.3,460.1 141.9,460.1 
			140.5,460.1 139,460.1 137.6,460.1 136.2,460.1 134.8,460.1 133.4,460.1 131.9,460.1 130.5,460.1 129.1,460.1 127.7,460.1 
			126.3,460.1 124.9,460.1 123.4,460.1 122,460.1 120.6,460.1 119.2,460.1 117.8,460.1 116.3,460.1 114.9,460.1 113.5,460.1 
			112.1,460.1 110.7,460.1 109.3,460.1 107.8,460.1 106.4,460.1 105,460.1 		"/>
		
			<polygon fill="none" stroke="#000000" stroke-width="1.000000e-02" stroke-linecap="round" stroke-linejoin="round" stroke-miterlimit="10" points="
			105,452.7 106.4,452.7 107.8,452.7 109.3,452.7 110.7,452.6 112.1,452.6 113.5,452.6 114.9,452.6 116.3,452.6 117.8,452.6 
			119.2,452.6 120.6,452.6 122,452.7 123.4,452.7 124.9,452.7 126.3,452.7 127.7,452.7 129.1,452.7 130.5,452.8 131.9,452.8 
			133.4,452.8 134.8,452.8 136.2,452.8 137.6,452.8 139,452.8 140.5,452.8 141.9,452.8 143.3,452.8 144.7,452.8 146.1,452.7 
			147.5,452.7 149,452.6 150.4,452.6 151.8,452.5 153.2,452.4 154.6,452.3 156,452.2 157.5,452 158.9,451.9 160.3,451.7 
			161.7,451.5 163.1,451.3 164.5,451 166,450.8 167.4,450.5 168.8,450.1 170.2,449.8 171.6,449.4 173,449 174.5,448.5 175.9,448.1 
			177.3,447.5 178.7,447 180.1,446.4 181.6,445.7 183,445.1 184.4,444.4 185.8,443.6 187.2,442.8 188.6,441.9 190.1,441 191.5,440 
			192.9,439 194.3,437.9 195.7,436.8 197.1,435.6 198.6,434.4 200,433.1 201.4,431.8 202.8,430.4 204.2,428.9 205.6,427.3 
			207.1,425.7 208.5,424.1 209.9,422.3 211.3,420.6 212.7,418.7 214.2,416.8 215.6,414.8 217,412.7 218.4,410.6 219.8,408.4 
			221.2,406.2 222.7,403.9 224.1,401.5 225.5,399 226.9,396.5 228.3,394 229.7,391.4 231.2,388.7 232.6,385.9 234,383.2 
			235.4,380.3 236.8,377.4 238.3,374.5 239.7,371.5 241.1,368.5 242.5,365.4 243.9,362.3 245.3,359.2 246.8,356 248.2,352.8 
			249.6,349.6 251,346.4 252.4,343.1 253.8,339.8 255.3,336.6 256.7,333.3 258.1,330 259.5,326.7 260.9,323.5 262.4,320.2 
			263.8,317 265.2,313.7 266.6,310.6 268,307.4 269.4,304.3 270.9,301.2 272.3,298.1 273.7,295.1 275.1,292.2 276.5,289.2 
			277.9,286.4 279.4,283.7 280.8,280.9 282.2,278.3 283.6,275.7 285,273.2 286.4,270.9 287.9,268.5 289.3,266.3 290.7,264.2 
			292.1,262.1 293.5,260.2 294.9,258.3 296.4,256.6 297.8,254.9 299.2,253.4 300.6,251.9 302,250.6 303.4,249.4 304.9,248.3 
			306.3,247.3 307.7,246.4 309.1,245.6 310.5,244.9 312,244.4 313.4,243.9 314.8,243.6 316.2,243.4 317.6,243.2 319,243.2 
			320.5,243.3 321.9,243.5 323.3,243.8 324.7,244.2 326.1,244.7 327.5,245.3 329,246 330.4,246.8 331.8,247.7 333.2,248.7 
			334.6,249.7 336.1,250.9 337.5,252.1 338.9,253.4 340.3,254.7 341.7,256.2 343.1,257.7 344.6,259.2 346,260.9 347.4,262.6 
			348.8,264.3 350.2,266.1 351.7,267.9 353.1,269.8 354.5,271.7 355.9,273.7 357.3,275.7 358.7,277.7 360.2,279.8 361.6,281.8 
			363,283.9 364.4,286 365.8,288.2 367.2,290.3 368.7,292.5 370.1,294.6 371.5,296.8 372.9,298.9 374.3,301.1 375.7,303.2 
			377.2,305.3 378.6,307.5 380,309.6 381.4,311.7 382.8,313.7 384.2,315.8 385.7,317.8 387.1,319.8 388.5,321.8 389.9,323.8 
			391.3,325.7 392.7,327.6 394.2,329.5 395.6,331.3 397,333.1 398.4,334.9 399.8,336.6 401.3,338.3 402.7,340 404.1,341.6 
			405.5,343.2 406.9,344.8 408.3,346.3 409.8,347.8 411.2,349.2 412.6,350.6 414,352 415.4,353.4 416.8,354.7 418.3,356 
			419.7,357.2 421.1,358.4 422.5,359.6 423.9,360.8 425.4,361.9 426.8,363 428.2,364.1 429.6,365.2 431,366.2 432.4,367.2 
			433.9,368.2 435.3,369.2 436.7,370.1 438.1,371.1 439.5,372 440.9,372.9 442.4,373.8 443.8,374.7 445.2,375.5 446.6,376.4 
			448,377.3 449.5,378.1 450.9,378.9 452.3,379.8 453.7,380.6 455.1,381.4 456.5,382.2 458,383 459.4,383.8 460.8,384.6 
			462.2,385.4 463.6,386.2 465,387 466.5,387.8 467.9,388.6 469.3,389.4 470.7,390.1 472.1,390.9 473.5,391.7 475,392.4 
			476.4,393.2 477.8,393.9 479.2,394.7 480.6,395.4 482.1,396.1 483.5,396.8 484.9,397.5 486.3,398.2 487.7,398.8 489.1,399.5 
			490.6,400.1 492,400.7 493.4,401.3 494.8,401.8 496.2,402.4 497.6,402.9 499.1,403.3 500.5,403.8 501.9,404.2 503.3,404.5 
			504.7,404.9 506.1,405.2 507.6,405.4 509,405.6 510.4,405.8 511.8,405.9 513.2,405.9 514.6,405.9 516.1,405.9 517.5,405.7 
			518.9,405.5 520.3,405.3 521.7,405 523.2,404.6 524.6,404.1 526,403.6 527.4,403 528.8,402.3 530.2,401.5 531.7,400.7 
			533.1,399.7 534.5,398.7 535.9,397.6 537.3,396.4 538.7,395.1 540.2,393.7 541.6,392.1 543,390.5 544.4,388.8 545.8,387 
			547.3,385 548.7,383 550.1,380.8 551.5,378.5 552.9,376.1 554.3,373.6 555.8,371 557.2,368.2 558.6,365.3 560,362.3 561.4,359.2 
			562.9,356 564.3,352.6 565.7,349.1 567.1,345.5 568.5,341.7 569.9,337.9 571.4,333.9 572.8,329.8 574.2,325.5 575.6,321.2 
			577,316.7 578.4,312.1 579.9,307.4 581.3,302.6 582.7,297.7 584.1,292.7 585.5,287.6 586.9,282.4 588.4,277.1 589.8,271.7 
			591.2,266.3 592.6,260.8 594,255.1 595.4,249.5 596.9,243.8 598.3,238 599.7,232.2 601.1,226.3 602.5,220.4 603.9,214.5 
			605.4,208.6 606.8,202.7 608.2,196.7 609.6,190.8 611,184.9 612.5,179 613.9,173.2 615.3,167.4 616.7,161.7 618.1,156 
			619.5,150.4 621,144.9 622.4,139.5 623.8,134.2 625.2,128.9 626.6,123.8 628,118.8 629.5,113.9 630.9,109.3 632.3,104.7 
			633.7,100.3 635.1,96.1 636.5,92 638,88.1 639.4,84.4 640.8,80.8 642.2,77.5 643.6,74.4 645.1,71.4 646.5,68.7 647.9,66.2 
			649.3,63.9 650.7,61.8 652.1,60 653.6,58.2 655,56.8 656.4,55.6 657.8,54.6 659.2,53.8 660.7,53.3 662.1,52.9 663.5,52.8 
			664.9,52.8 666.3,53.1 667.7,53.5 669.2,54.2 670.6,55 672,56 673.4,57.2 674.8,58.5 676.2,60.1 677.7,61.7 679.1,63.5 
			680.5,65.4 681.9,67.5 683.3,69.6 684.7,71.9 686.2,74.3 687.6,76.7 689,79.3 690.4,81.8 691.8,84.5 693.3,87.2 694.7,89.9 
			696.1,92.6 697.5,95.4 698.9,98.2 700.3,100.9 701.8,103.7 703.2,106.4 704.6,109.1 706,111.7 707.4,114.3 708.8,116.9 
			710.3,119.3 711.7,121.7 713.1,124 714.5,126.3 715.9,128.4 717.3,130.5 718.8,132.5 720.2,134.3 721.6,136 723,137.7 
			724.4,139.2 725.8,140.6 727.3,141.9 728.7,143.1 730.1,144.2 731.5,145.2 732.9,146 734.4,146.8 735.8,147.4 737.2,148 
			738.6,148.4 740,148.8 741.4,149 742.9,149.2 744.3,149.3 745.7,149.4 747.1,149.4 748.5,149.3 749.9,149.1 751.4,149 
			752.8,148.8 754.2,148.5 755.6,148.3 757,148 758.5,147.8 759.9,147.5 761.3,147.2 762.7,147 764.1,146.8 765.5,146.7 767,146.6 
			768.4,146.5 769.8,146.5 771.2,146.6 772.6,146.8 774,147 775.5,147.4 776.9,147.8 778.3,148.4 779.7,149 781.1,149.8 
			782.6,150.7 784,151.7 785.4,152.9 786.8,154.1 788.2,155.5 789.6,157.1 791.1,158.8 792.5,160.6 793.9,162.6 795.3,164.7 
			796.7,167 798.1,169.4 799.6,171.9 801,174.7 802.4,177.5 803.8,180.4 805.2,183.6 806.6,186.8 808.1,190.1 809.5,193.7 
			810.9,197.3 812.3,201 813.7,204.9 815.1,208.8 816.6,212.8 818,217 819.4,221.2 820.8,225.5 822.2,229.9 823.6,234.4 
			825.1,238.9 826.5,243.5 827.9,248.1 829.3,252.8 829.3,460.1 827.9,460.1 826.5,460.1 825.1,460.1 823.6,460.1 822.2,460.1 
			820.8,460.1 819.4,460.1 818,460.1 816.6,460.1 815.1,460.1 813.7,460.1 812.3,460.1 810.9,460.1 809.5,460.1 808.1,460.1 
			806.6,460.1 805.2,460.1 803.8,460.1 802.4,460.1 801,460.1 799.6,460.1 798.1,460.1 796.7,460.1 795.3,460.1 793.9,460.1 
			792.5,460.1 791.1,460.1 789.6,460.1 788.2,460.1 786.8,460.1 785.4,460.1 784,460.1 782.6,460.1 781.1,460.1 779.7,460.1 
			778.3,460.1 776.9,460.1 775.5,460.1 774,460.1 772.6,460.1 771.2,460.1 769.8,460.1 768.4,460.1 767,460.1 765.5,460.1 
			764.1,460.1 762.7,460.1 761.3,460.1 759.9,460.1 758.5,460.1 757,460.1 755.6,460.1 754.2,460.1 752.8,460.1 751.4,460.1 
			749.9,460.1 748.5,460.1 747.1,460.1 745.7,460.1 744.3,460.1 742.9,460.1 741.4,460.1 740,460.1 738.6,460.1 737.2,460.1 
			735.8,460.1 734.4,460.1 732.9,460.1 731.5,460.1 730.1,460.1 728.7,460.1 727.3,460.1 725.8,460.1 724.4,460.1 723,460.1 
			721.6,460.1 720.2,460.1 718.8,460.1 717.3,460.1 715.9,460.1 714.5,460.1 713.1,460.1 711.7,460.1 710.3,460.1 708.8,460.1 
			707.4,460.1 706,460.1 704.6,460.1 703.2,460.1 701.8,460.1 700.3,460.1 698.9,460.1 697.5,460.1 696.1,460.1 694.7,460.1 
			693.3,460.1 691.8,460.1 690.4,460.1 689,460.1 687.6,460.1 686.2,460.1 684.7,460.1 683.3,460.1 681.9,460.1 680.5,460.1 
			679.1,460.1 677.7,460.1 676.2,460.1 674.8,460.1 673.4,460.1 672,460.1 670.6,460.1 669.2,460.1 667.7,460.1 666.3,460.1 
			664.9,460.1 663.5,460.1 662.1,460.1 660.7,460.1 659.2,460.1 657.8,460.1 656.4,460.1 655,460.1 653.6,460.1 652.1,460.1 
			650.7,460.1 649.3,460.1 647.9,460.1 646.5,460.1 645.1,460.1 643.6,460.1 642.2,460.1 640.8,460.1 639.4,460.1 638,460.1 
			636.5,460.1 635.1,460.1 633.7,460.1 632.3,460.1 630.9,460.1 629.5,460.1 628,460.1 626.6,460.1 625.2,460.1 623.8,460.1 
			622.4,460.1 621,460.1 619.5,460.1 618.1,460.1 616.7,460.1 615.3,460.1 613.9,460.1 612.5,460.1 611,460.1 609.6,460.1 
			608.2,460.1 606.8,460.1 605.4,460.1 603.9,460.1 602.5,460.1 601.1,460.1 599.7,460.1 598.3,460.1 596.9,460.1 595.4,460.1 
			594,460.1 592.6,460.1 591.2,460.1 589.8,460.1 588.4,460.1 586.9,460.1 585.5,460.1 584.1,460.1 582.7,460.1 581.3,460.1 
			579.9,460.1 578.4,460.1 577,460.1 575.6,460.1 574.2,460.1 572.8,460.1 571.4,460.1 569.9,460.1 568.5,460.1 567.1,460.1 
			565.7,460.1 564.3,460.1 562.9,460.1 561.4,460.1 560,460.1 558.6,460.1 557.2,460.1 555.8,460.1 554.3,460.1 552.9,460.1 
			551.5,460.1 550.1,460.1 548.7,460.1 547.3,460.1 545.8,460.1 544.4,460.1 543,460.1 541.6,460.1 540.2,460.1 538.7,460.1 
			537.3,460.1 535.9,460.1 534.5,460.1 533.1,460.1 531.7,460.1 530.2,460.1 528.8,460.1 527.4,460.1 526,460.1 524.6,460.1 
			523.2,460.1 521.7,460.1 520.3,460.1 518.9,460.1 517.5,460.1 516.1,460.1 514.6,460.1 513.2,460.1 511.8,460.1 510.4,460.1 
			509,460.1 507.6,460.1 506.1,460.1 504.7,460.1 503.3,460.1 501.9,460.1 500.5,460.1 499.1,460.1 497.6,460.1 496.2,460.1 
			494.8,460.1 493.4,460.1 492,460.1 490.6,460.1 489.1,460.1 487.7,460.1 486.3,460.1 484.9,460.1 483.5,460.1 482.1,460.1 
			480.6,460.1 479.2,460.1 477.8,460.1 476.4,460.1 475,460.1 473.5,460.1 472.1,460.1 470.7,460.1 469.3,460.1 467.9,460.1 
			466.5,460.1 465,460.1 463.6,460.1 462.2,460.1 460.8,460.1 459.4,460.1 458,460.1 456.5,460.1 455.1,460.1 453.7,460.1 
			452.3,460.1 450.9,460.1 449.5,460.1 448,460.1 446.6,460.1 445.2,460.1 443.8,460.1 442.4,460.1 440.9,460.1 439.5,460.1 
			438.1,460.1 436.7,460.1 435.3,460.1 433.9,460.1 432.4,460.1 431,460.1 429.6,460.1 428.2,460.1 426.8,460.1 425.4,460.1 
			423.9,460.1 422.5,460.1 421.1,460.1 419.7,460.1 418.3,460.1 416.8,460.1 415.4,460.1 414,460.1 412.6,460.1 411.2,460.1 
			409.8,460.1 408.3,460.1 406.9,460.1 405.5,460.1 404.1,460.1 402.7,460.1 401.3,460.1 399.8,460.1 398.4,460.1 397,460.1 
			395.6,460.1 394.2,460.1 392.7,460.1 391.3,460.1 389.9,460.1 388.5,460.1 387.1,460.1 385.7,460.1 384.2,460.1 382.8,460.1 
			381.4,460.1 380,460.1 378.6,460.1 377.2,460.1 375.7,460.1 374.3,460.1 372.9,460.1 371.5,460.1 370.1,460.1 368.7,460.1 
			367.2,460.1 365.8,460.1 364.4,460.1 363,460.1 361.6,460.1 360.2,460.1 358.7,460.1 357.3,460.1 355.9,460.1 354.5,460.1 
			353.1,460.1 351.7,460.1 350.2,460.1 348.8,460.1 347.4,460.1 346,460.1 344.6,460.1 343.1,460.1 341.7,460.1 340.3,460.1 
			338.9,460.1 337.5,460.1 336.1,460.1 334.6,460.1 333.2,460.1 331.8,460.1 330.4,460.1 329,460.1 327.5,460.1 326.1,460.1 
			324.7,460.1 323.3,460.1 321.9,460.1 320.5,460.1 319,460.1 317.6,460.1 316.2,460.1 314.8,460.1 313.4,460.1 312,460.1 
			310.5,460.1 309.1,460.1 307.7,460.1 306.3,460.1 304.9,460.1 303.4,460.1 302,460.1 300.6,460.1 299.2,460.1 297.8,460.1 
			296.4,460.1 294.9,460.1 293.5,460.1 292.1,460.1 290.7,460.1 289.3,460.1 287.9,460.1 286.4,460.1 285,460.1 283.6,460.1 
			282.2,460.1 280.8,460.1 279.4,460.1 277.9,460.1 276.5,460.1 275.1,460.1 273.7,460.1 272.3,460.1 270.9,460.1 269.4,460.1 
			268,460.1 266.6,460.1 265.2,460.1 263.8,460.1 262.4,460.1 260.9,460.1 259.5,460.1 258.1,460.1 256.7,460.1 255.3,460.1 
			253.8,460.1 252.4,460.1 251,460.1 249.6,460.1 248.2,460.1 246.8,460.1 245.3,460.1 243.9,460.1 242.5,460.1 241.1,460.1 
			239.7,460.1 238.3,460.1 236.8,460.1 235.4,460.1 234,460.1 232.6,460.1 231.2,460.1 229.7,460.1 228.3,460.1 226.9,460.1 
			225.5,460.1 224.1,460.1 222.7,460.1 221.2,460.1 219.8,460.1 218.4,460.1 217,460.1 215.6,460.1 214.2,460.1 212.7,460.1 
			211.3,460.1 209.9,460.1 208.5,460.1 207.1,460.1 205.6,460.1 204.2,460.1 202.8,460.1 201.4,460.1 200,460.1 198.6,460.1 
			197.1,460.1 195.7,460.1 194.3,460.1 192.9,460.1 191.5,460.1 190.1,460.1 188.6,460.1 187.2,460.1 185.8,460.1 184.4,460.1 
			183,460.1 181.6,460.1 180.1,460.1 178.7,460.1 177.3,460.1 175.9,460.1 174.5,460.1 173,460.1 171.6,460.1 170.2,460.1 
			168.8,460.1 167.4,460.1 166,460.1 164.5,460.1 163.1,460.1 161.7,460.1 160.3,460.1 158.9,460.1 157.5,460.1 156,460.1 
			154.6,460.1 153.2,460.1 151.8,460.1 150.4,460.1 149,460.1 147.5,460.1 146.1,460.1 144.7,460.1 143.3,460.1 141.9,460.1 
			140.5,460.1 139,460.1 137.6,460.1 136.2,460.1 134.8,460.1 133.4,460.1 131.9,460.1 130.5,460.1 129.1,460.1 127.7,460.1 
			126.3,460.1 124.9,460.1 123.4,460.1 122,460.1 120.6,460.1 119.2,460.1 117.8,460.1 116.3,460.1 114.9,460.1 113.5,460.1 
			112.1,460.1 110.7,460.1 109.3,460.1 107.8,460.1 106.4,460.1 105,460.1 		"/>
	</g>
	<g clip-path="url(#SVGID_2_)">
		<polygon opacity="0.6" fill="#00BFC4" points="105,459.5 106.4,459.5 107.8,459.5 109.3,459.5 110.7,459.5 112.1,459.5 
			113.5,459.5 114.9,459.5 116.3,459.5 117.8,459.5 119.2,459.5 120.6,459.5 122,459.5 123.4,459.5 124.9,459.5 126.3,459.6 
			127.7,459.6 129.1,459.6 130.5,459.6 131.9,459.6 133.4,459.6 134.8,459.6 136.2,459.6 137.6,459.7 139,459.7 140.5,459.7 
			141.9,459.7 143.3,459.7 144.7,459.7 146.1,459.7 147.5,459.7 149,459.7 150.4,459.7 151.8,459.7 153.2,459.7 154.6,459.7 
			156,459.7 157.5,459.6 158.9,459.6 160.3,459.6 161.7,459.5 163.1,459.5 164.5,459.5 166,459.4 167.4,459.3 168.8,459.2 
			170.2,459.1 171.6,459.1 173,458.9 174.5,458.8 175.9,458.7 177.3,458.5 178.7,458.3 180.1,458.1 181.6,457.8 183,457.6 
			184.4,457.3 185.8,457 187.2,456.6 188.6,456.2 190.1,455.8 191.5,455.4 192.9,454.8 194.3,454.3 195.7,453.7 197.1,453 
			198.6,452.3 200,451.5 201.4,450.6 202.8,449.7 204.2,448.7 205.6,447.6 207.1,446.5 208.5,445.2 209.9,443.9 211.3,442.5 
			212.7,441 214.2,439.3 215.6,437.6 217,435.8 218.4,433.8 219.8,431.7 221.2,429.5 222.7,427.2 224.1,424.8 225.5,422.2 
			226.9,419.5 228.3,416.7 229.7,413.7 231.2,410.5 232.6,407.3 234,403.9 235.4,400.4 236.8,396.7 238.3,392.9 239.7,389 
			241.1,384.9 242.5,380.7 243.9,376.4 245.3,371.9 246.8,367.4 248.2,362.7 249.6,357.9 251,353 252.4,348.1 253.8,343 
			255.3,337.9 256.7,332.7 258.1,327.4 259.5,322.1 260.9,316.8 262.4,311.4 263.8,306 265.2,300.6 266.6,295.2 268,289.8 
			269.4,284.4 270.9,279.1 272.3,273.9 273.7,268.6 275.1,263.5 276.5,258.4 277.9,253.5 279.4,248.6 280.8,243.8 282.2,239.2 
			283.6,234.7 285,230.3 286.4,226.1 287.9,222 289.3,218.1 290.7,214.4 292.1,210.7 293.5,207.3 294.9,204.1 296.4,201 
			297.8,198.1 299.2,195.4 300.6,192.8 302,190.4 303.4,188.2 304.9,186.2 306.3,184.3 307.7,182.5 309.1,181 310.5,179.6 
			312,178.3 313.4,177.2 314.8,176.2 316.2,175.4 317.6,174.6 319,174 320.5,173.5 321.9,173.1 323.3,172.8 324.7,172.7 
			326.1,172.6 327.5,172.6 329,172.6 330.4,172.8 331.8,173 333.2,173.4 334.6,173.7 336.1,174.2 337.5,174.7 338.9,175.3 
			340.3,175.9 341.7,176.7 343.1,177.4 344.6,178.3 346,179.2 347.4,180.2 348.8,181.2 350.2,182.3 351.7,183.6 353.1,184.8 
			354.5,186.2 355.9,187.6 357.3,189.1 358.7,190.7 360.2,192.4 361.6,194.1 363,196 364.4,197.9 365.8,199.9 367.2,202 
			368.7,204.3 370.1,206.5 371.5,208.9 372.9,211.4 374.3,213.9 375.7,216.5 377.2,219.2 378.6,222 380,224.9 381.4,227.8 
			382.8,230.8 384.2,233.8 385.7,236.9 387.1,240.1 388.5,243.3 389.9,246.5 391.3,249.8 392.7,253 394.2,256.4 395.6,259.7 
			397,263 398.4,266.4 399.8,269.7 401.3,273 402.7,276.3 404.1,279.6 405.5,282.8 406.9,286 408.3,289.2 409.8,292.3 411.2,295.3 
			412.6,298.3 414,301.3 415.4,304.1 416.8,306.9 418.3,309.6 419.7,312.2 421.1,314.7 422.5,317.1 423.9,319.4 425.4,321.7 
			426.8,323.8 428.2,325.9 429.6,327.8 431,329.7 432.4,331.4 433.9,333.1 435.3,334.7 436.7,336.1 438.1,337.5 439.5,338.8 
			440.9,340 442.4,341.1 443.8,342.2 445.2,343.1 446.6,344.1 448,344.9 449.5,345.7 450.9,346.4 452.3,347.1 453.7,347.8 
			455.1,348.4 456.5,349 458,349.6 459.4,350.1 460.8,350.7 462.2,351.2 463.6,351.8 465,352.4 466.5,352.9 467.9,353.5 
			469.3,354.1 470.7,354.8 472.1,355.4 473.5,356.1 475,356.9 476.4,357.6 477.8,358.4 479.2,359.3 480.6,360.2 482.1,361.1 
			483.5,362.1 484.9,363.1 486.3,364.2 487.7,365.2 489.1,366.3 490.6,367.5 492,368.6 493.4,369.8 494.8,371 496.2,372.2 
			497.6,373.4 499.1,374.6 500.5,375.7 501.9,376.9 503.3,378 504.7,379.1 506.1,380.2 507.6,381.2 509,382.2 510.4,383.1 
			511.8,384 513.2,384.8 514.6,385.5 516.1,386.1 517.5,386.6 518.9,387.1 520.3,387.4 521.7,387.6 523.2,387.7 524.6,387.7 
			526,387.6 527.4,387.4 528.8,387 530.2,386.5 531.7,385.9 533.1,385.1 534.5,384.2 535.9,383.1 537.3,381.9 538.7,380.5 
			540.2,379 541.6,377.4 543,375.6 544.4,373.6 545.8,371.5 547.3,369.3 548.7,366.9 550.1,364.3 551.5,361.6 552.9,358.8 
			554.3,355.8 555.8,352.6 557.2,349.3 558.6,345.9 560,342.3 561.4,338.6 562.9,334.7 564.3,330.7 565.7,326.5 567.1,322.3 
			568.5,317.9 569.9,313.3 571.4,308.7 572.8,303.9 574.2,299 575.6,293.9 577,288.8 578.4,283.6 579.9,278.2 581.3,272.8 
			582.7,267.3 584.1,261.6 585.5,255.9 586.9,250.1 588.4,244.3 589.8,238.3 591.2,232.3 592.6,226.3 594,220.2 595.4,214.1 
			596.9,207.9 598.3,201.7 599.7,195.5 601.1,189.2 602.5,183 603.9,176.7 605.4,170.5 606.8,164.3 608.2,158.1 609.6,152 
			611,145.8 612.5,139.8 613.9,133.8 615.3,127.9 616.7,122.1 618.1,116.4 619.5,110.8 621,105.3 622.4,99.9 623.8,94.7 625.2,89.6 
			626.6,84.7 628,80 629.5,75.5 630.9,71.1 632.3,67 633.7,63.2 635.1,59.5 636.5,56.1 638,53 639.4,50.2 640.8,47.7 642.2,45.4 
			643.6,43.5 645.1,41.9 646.5,40.7 647.9,39.7 649.3,39.2 650.7,39 652.1,39.1 653.6,39.6 655,40.6 656.4,41.9 657.8,43.5 
			659.2,45.5 660.7,47.9 662.1,50.7 663.5,53.8 664.9,57.3 666.3,61.2 667.7,65.4 669.2,69.8 670.6,74.7 672,79.8 673.4,85.2 
			674.8,90.9 676.2,96.8 677.7,102.9 679.1,109.3 680.5,115.8 681.9,122.5 683.3,129.3 684.7,136.1 686.2,143.1 687.6,150.2 
			689,157.2 690.4,164.3 691.8,171.3 693.3,178.3 694.7,185.2 696.1,192 697.5,198.7 698.9,205.2 700.3,211.6 701.8,217.7 
			703.2,223.6 704.6,229.3 706,234.7 707.4,239.8 708.8,244.7 710.3,249.2 711.7,253.4 713.1,257.3 714.5,260.8 715.9,264 
			717.3,266.8 718.8,269.2 720.2,271.2 721.6,273 723,274.3 724.4,275.2 725.8,275.7 727.3,276 728.7,275.7 730.1,275.2 
			731.5,274.3 732.9,273.1 734.4,271.5 735.8,269.6 737.2,267.4 738.6,265 740,262.2 741.4,259.1 742.9,255.9 744.3,252.4 
			745.7,248.7 747.1,244.8 748.5,240.8 749.9,236.6 751.4,232.3 752.8,227.9 754.2,223.5 755.6,219 757,214.5 758.5,210 
			759.9,205.5 761.3,201.1 762.7,196.8 764.1,192.6 765.5,188.6 767,184.7 768.4,181 769.8,177.5 771.2,174.2 772.6,171.3 
			774,168.5 775.5,166 776.9,164 778.3,162.2 779.7,160.7 781.1,159.6 782.6,158.9 784,158.5 785.4,158.5 786.8,159 788.2,159.8 
			789.6,161 791.1,162.5 792.5,164.6 793.9,166.9 795.3,169.7 796.7,172.7 798.1,176.3 799.6,180.1 801,184.2 802.4,188.7 
			803.8,193.5 805.2,198.6 806.6,203.9 808.1,209.5 809.5,215.4 810.9,221.4 812.3,227.6 813.7,234 815.1,240.5 816.6,247.1 
			818,253.9 819.4,260.7 820.8,267.6 822.2,274.5 823.6,281.4 825.1,288.3 826.5,295.2 827.9,302 829.3,308.8 829.3,460.1 
			827.9,460.1 826.5,460.1 825.1,460.1 823.6,460.1 822.2,460.1 820.8,460.1 819.4,460.1 818,460.1 816.6,460.1 815.1,460.1 
			813.7,460.1 812.3,460.1 810.9,460.1 809.5,460.1 808.1,460.1 806.6,460.1 805.2,460.1 803.8,460.1 802.4,460.1 801,460.1 
			799.6,460.1 798.1,460.1 796.7,460.1 795.3,460.1 793.9,460.1 792.5,460.1 791.1,460.1 789.6,460.1 788.2,460.1 786.8,460.1 
			785.4,460.1 784,460.1 782.6,460.1 781.1,460.1 779.7,460.1 778.3,460.1 776.9,460.1 775.5,460.1 774,460.1 772.6,460.1 
			771.2,460.1 769.8,460.1 768.4,460.1 767,460.1 765.5,460.1 764.1,460.1 762.7,460.1 761.3,460.1 759.9,460.1 758.5,460.1 
			757,460.1 755.6,460.1 754.2,460.1 752.8,460.1 751.4,460.1 749.9,460.1 748.5,460.1 747.1,460.1 745.7,460.1 744.3,460.1 
			742.9,460.1 741.4,460.1 740,460.1 738.6,460.1 737.2,460.1 735.8,460.1 734.4,460.1 732.9,460.1 731.5,460.1 730.1,460.1 
			728.7,460.1 727.3,460.1 725.8,460.1 724.4,460.1 723,460.1 721.6,460.1 720.2,460.1 718.8,460.1 717.3,460.1 715.9,460.1 
			714.5,460.1 713.1,460.1 711.7,460.1 710.3,460.1 708.8,460.1 707.4,460.1 706,460.1 704.6,460.1 703.2,460.1 701.8,460.1 
			700.3,460.1 698.9,460.1 697.5,460.1 696.1,460.1 694.7,460.1 693.3,460.1 691.8,460.1 690.4,460.1 689,460.1 687.6,460.1 
			686.2,460.1 684.7,460.1 683.3,460.1 681.9,460.1 680.5,460.1 679.1,460.1 677.7,460.1 676.2,460.1 674.8,460.1 673.4,460.1 
			672,460.1 670.6,460.1 669.2,460.1 667.7,460.1 666.3,460.1 664.9,460.1 663.5,460.1 662.1,460.1 660.7,460.1 659.2,460.1 
			657.8,460.1 656.4,460.1 655,460.1 653.6,460.1 652.1,460.1 650.7,460.1 649.3,460.1 647.9,460.1 646.5,460.1 645.1,460.1 
			643.6,460.1 642.2,460.1 640.8,460.1 639.4,460.1 638,460.1 636.5,460.1 635.1,460.1 633.7,460.1 632.3,460.1 630.9,460.1 
			629.5,460.1 628,460.1 626.6,460.1 625.2,460.1 623.8,460.1 622.4,460.1 621,460.1 619.5,460.1 618.1,460.1 616.7,460.1 
			615.3,460.1 613.9,460.1 612.5,460.1 611,460.1 609.6,460.1 608.2,460.1 606.8,460.1 605.4,460.1 603.9,460.1 602.5,460.1 
			601.1,460.1 599.7,460.1 598.3,460.1 596.9,460.1 595.4,460.1 594,460.1 592.6,460.1 591.2,460.1 589.8,460.1 588.4,460.1 
			586.9,460.1 585.5,460.1 584.1,460.1 582.7,460.1 581.3,460.1 579.9,460.1 578.4,460.1 577,460.1 575.6,460.1 574.2,460.1 
			572.8,460.1 571.4,460.1 569.9,460.1 568.5,460.1 567.1,460.1 565.7,460.1 564.3,460.1 562.9,460.1 561.4,460.1 560,460.1 
			558.6,460.1 557.2,460.1 555.8,460.1 554.3,460.1 552.9,460.1 551.5,460.1 550.1,460.1 548.7,460.1 547.3,460.1 545.8,460.1 
			544.4,460.1 543,460.1 541.6,460.1 540.2,460.1 538.7,460.1 537.3,460.1 535.9,460.1 534.5,460.1 533.1,460.1 531.7,460.1 
			530.2,460.1 528.8,460.1 527.4,460.1 526,460.1 524.6,460.1 523.2,460.1 521.7,460.1 520.3,460.1 518.9,460.1 517.5,460.1 
			516.1,460.1 514.6,460.1 513.2,460.1 511.8,460.1 510.4,460.1 509,460.1 507.6,460.1 506.1,460.1 504.7,460.1 503.3,460.1 
			501.9,460.1 500.5,460.1 499.1,460.1 497.6,460.1 496.2,460.1 494.8,460.1 493.4,460.1 492,460.1 490.6,460.1 489.1,460.1 
			487.7,460.1 486.3,460.1 484.9,460.1 483.5,460.1 482.1,460.1 480.6,460.1 479.2,460.1 477.8,460.1 476.4,460.1 475,460.1 
			473.5,460.1 472.1,460.1 470.7,460.1 469.3,460.1 467.9,460.1 466.5,460.1 465,460.1 463.6,460.1 462.2,460.1 460.8,460.1 
			459.4,460.1 458,460.1 456.5,460.1 455.1,460.1 453.7,460.1 452.3,460.1 450.9,460.1 449.5,460.1 448,460.1 446.6,460.1 
			445.2,460.1 443.8,460.1 442.4,460.1 440.9,460.1 439.5,460.1 438.1,460.1 436.7,460.1 435.3,460.1 433.9,460.1 432.4,460.1 
			431,460.1 429.6,460.1 428.2,460.1 426.8,460.1 425.4,460.1 423.9,460.1 422.5,460.1 421.1,460.1 419.7,460.1 418.3,460.1 
			416.8,460.1 415.4,460.1 414,460.1 412.6,460.1 411.2,460.1 409.8,460.1 408.3,460.1 406.9,460.1 405.5,460.1 404.1,460.1 
			402.7,460.1 401.3,460.1 399.8,460.1 398.4,460.1 397,460.1 395.6,460.1 394.2,460.1 392.7,460.1 391.3,460.1 389.9,460.1 
			388.5,460.1 387.1,460.1 385.7,460.1 384.2,460.1 382.8,460.1 381.4,460.1 380,460.1 378.6,460.1 377.2,460.1 375.7,460.1 
			374.3,460.1 372.9,460.1 371.5,460.1 370.1,460.1 368.7,460.1 367.2,460.1 365.8,460.1 364.4,460.1 363,460.1 361.6,460.1 
			360.2,460.1 358.7,460.1 357.3,460.1 355.9,460.1 354.5,460.1 353.1,460.1 351.7,460.1 350.2,460.1 348.8,460.1 347.4,460.1 
			346,460.1 344.6,460.1 343.1,460.1 341.7,460.1 340.3,460.1 338.9,460.1 337.5,460.1 336.1,460.1 334.6,460.1 333.2,460.1 
			331.8,460.1 330.4,460.1 329,460.1 327.5,460.1 326.1,460.1 324.7,460.1 323.3,460.1 321.9,460.1 320.5,460.1 319,460.1 
			317.6,460.1 316.2,460.1 314.8,460.1 313.4,460.1 312,460.1 310.5,460.1 309.1,460.1 307.7,460.1 306.3,460.1 304.9,460.1 
			303.4,460.1 302,460.1 300.6,460.1 299.2,460.1 297.8,460.1 296.4,460.1 294.9,460.1 293.5,460.1 292.1,460.1 290.7,460.1 
			289.3,460.1 287.9,460.1 286.4,460.1 285,460.1 283.6,460.1 282.2,460.1 280.8,460.1 279.4,460.1 277.9,460.1 276.5,460.1 
			275.1,460.1 273.7,460.1 272.3,460.1 270.9,460.1 269.4,460.1 268,460.1 266.6,460.1 265.2,460.1 263.8,460.1 262.4,460.1 
			260.9,460.1 259.5,460.1 258.1,460.1 256.7,460.1 255.3,460.1 253.8,460.1 252.4,460.1 251,460.1 249.6,460.1 248.2,460.1 
			246.8,460.1 245.3,460.1 243.9,460.1 242.5,460.1 241.1,460.1 239.7,460.1 238.3,460.1 236.8,460.1 235.4,460.1 234,460.1 
			232.6,460.1 231.2,460.1 229.7,460.1 228.3,460.1 226.9,460.1 225.5,460.1 224.1,460.1 222.7,460.1 221.2,460.1 219.8,460.1 
			218.4,460.1 217,460.1 215.6,460.1 214.2,460.1 212.7,460.1 211.3,460.1 209.9,460.1 208.5,460.1 207.1,460.1 205.6,460.1 
			204.2,460.1 202.8,460.1 201.4,460.1 200,460.1 198.6,460.1 197.1,460.1 195.7,460.1 194.3,460.1 192.9,460.1 191.5,460.1 
			190.1,460.1 188.6,460.1 187.2,460.1 185.8,460.1 184.4,460.1 183,460.1 181.6,460.1 180.1,460.1 178.7,460.1 177.3,460.1 
			175.9,460.1 174.5,460.1 173,460.1 171.6,460.1 170.2,460.1 168.8,460.1 167.4,460.1 166,460.1 164.5,460.1 163.1,460.1 
			161.7,460.1 160.3,460.1 158.9,460.1 157.5,460.1 156,460.1 154.6,460.1 153.2,460.1 151.8,460.1 150.4,460.1 149,460.1 
			147.5,460.1 146.1,460.1 144.7,460.1 143.3,460.1 141.9,460.1 140.5,460.1 139,460.1 137.6,460.1 136.2,460.1 134.8,460.1 
			133.4,460.1 131.9,460.1 130.5,460.1 129.1,460.1 127.7,460.1 126.3,460.1 124.9,460.1 123.4,460.1 122,460.1 120.6,460.1 
			119.2,460.1 117.8,460.1 116.3,460.1 114.9,460.1 113.5,460.1 112.1,460.1 110.7,460.1 109.3,460.1 107.8,460.1 106.4,460.1 
			105,460.1 		"/>
		
			<polygon fill="none" stroke="#000000" stroke-width="1.000000e-02" stroke-linecap="round" stroke-linejoin="round" stroke-miterlimit="10" points="
			105,459.5 106.4,459.5 107.8,459.5 109.3,459.5 110.7,459.5 112.1,459.5 113.5,459.5 114.9,459.5 116.3,459.5 117.8,459.5 
			119.2,459.5 120.6,459.5 122,459.5 123.4,459.5 124.9,459.5 126.3,459.6 127.7,459.6 129.1,459.6 130.5,459.6 131.9,459.6 
			133.4,459.6 134.8,459.6 136.2,459.6 137.6,459.7 139,459.7 140.5,459.7 141.9,459.7 143.3,459.7 144.7,459.7 146.1,459.7 
			147.5,459.7 149,459.7 150.4,459.7 151.8,459.7 153.2,459.7 154.6,459.7 156,459.7 157.5,459.6 158.9,459.6 160.3,459.6 
			161.7,459.5 163.1,459.5 164.5,459.5 166,459.4 167.4,459.3 168.8,459.2 170.2,459.1 171.6,459.1 173,458.9 174.5,458.8 
			175.9,458.7 177.3,458.5 178.7,458.3 180.1,458.1 181.6,457.8 183,457.6 184.4,457.3 185.8,457 187.2,456.6 188.6,456.2 
			190.1,455.8 191.5,455.4 192.9,454.8 194.3,454.3 195.7,453.7 197.1,453 198.6,452.3 200,451.5 201.4,450.6 202.8,449.7 
			204.2,448.7 205.6,447.6 207.1,446.5 208.5,445.2 209.9,443.9 211.3,442.5 212.7,441 214.2,439.3 215.6,437.6 217,435.8 
			218.4,433.8 219.8,431.7 221.2,429.5 222.7,427.2 224.1,424.8 225.5,422.2 226.9,419.5 228.3,416.7 229.7,413.7 231.2,410.5 
			232.6,407.3 234,403.9 235.4,400.4 236.8,396.7 238.3,392.9 239.7,389 241.1,384.9 242.5,380.7 243.9,376.4 245.3,371.9 
			246.8,367.4 248.2,362.7 249.6,357.9 251,353 252.4,348.1 253.8,343 255.3,337.9 256.7,332.7 258.1,327.4 259.5,322.1 
			260.9,316.8 262.4,311.4 263.8,306 265.2,300.6 266.6,295.2 268,289.8 269.4,284.4 270.9,279.1 272.3,273.9 273.7,268.6 
			275.1,263.5 276.5,258.4 277.9,253.5 279.4,248.6 280.8,243.8 282.2,239.2 283.6,234.7 285,230.3 286.4,226.1 287.9,222 
			289.3,218.1 290.7,214.4 292.1,210.7 293.5,207.3 294.9,204.1 296.4,201 297.8,198.1 299.2,195.4 300.6,192.8 302,190.4 
			303.4,188.2 304.9,186.2 306.3,184.3 307.7,182.5 309.1,181 310.5,179.6 312,178.3 313.4,177.2 314.8,176.2 316.2,175.4 
			317.6,174.6 319,174 320.5,173.5 321.9,173.1 323.3,172.8 324.7,172.7 326.1,172.6 327.5,172.6 329,172.6 330.4,172.8 331.8,173 
			333.2,173.4 334.6,173.7 336.1,174.2 337.5,174.7 338.9,175.3 340.3,175.9 341.7,176.7 343.1,177.4 344.6,178.3 346,179.2 
			347.4,180.2 348.8,181.2 350.2,182.3 351.7,183.6 353.1,184.8 354.5,186.2 355.9,187.6 357.3,189.1 358.7,190.7 360.2,192.4 
			361.6,194.1 363,196 364.4,197.9 365.8,199.9 367.2,202 368.7,204.3 370.1,206.5 371.5,208.9 372.9,211.4 374.3,213.9 
			375.7,216.5 377.2,219.2 378.6,222 380,224.9 381.4,227.8 382.8,230.8 384.2,233.8 385.7,236.9 387.1,240.1 388.5,243.3 
			389.9,246.5 391.3,249.8 392.7,253 394.2,256.4 395.6,259.7 397,263 398.4,266.4 399.8,269.7 401.3,273 402.7,276.3 404.1,279.6 
			405.5,282.8 406.9,286 408.3,289.2 409.8,292.3 411.2,295.3 412.6,298.3 414,301.3 415.4,304.1 416.8,306.9 418.3,309.6 
			419.7,312.2 421.1,314.7 422.5,317.1 423.9,319.4 425.4,321.7 426.8,323.8 428.2,325.9 429.6,327.8 431,329.7 432.4,331.4 
			433.9,333.1 435.3,334.7 436.7,336.1 438.1,337.5 439.5,338.8 440.9,340 442.4,341.1 443.8,342.2 445.2,343.1 446.6,344.1 
			448,344.9 449.5,345.7 450.9,346.4 452.3,347.1 453.7,347.8 455.1,348.4 456.5,349 458,349.6 459.4,350.1 460.8,350.7 
			462.2,351.2 463.6,351.8 465,352.4 466.5,352.9 467.9,353.5 469.3,354.1 470.7,354.8 472.1,355.4 473.5,356.1 475,356.9 
			476.4,357.6 477.8,358.4 479.2,359.3 480.6,360.2 482.1,361.1 483.5,362.1 484.9,363.1 486.3,364.2 487.7,365.2 489.1,366.3 
			490.6,367.5 492,368.6 493.4,369.8 494.8,371 496.2,372.2 497.6,373.4 499.1,374.6 500.5,375.7 501.9,376.9 503.3,378 
			504.7,379.1 506.1,380.2 507.6,381.2 509,382.2 510.4,383.1 511.8,384 513.2,384.8 514.6,385.5 516.1,386.1 517.5,386.6 
			518.9,387.1 520.3,387.4 521.7,387.6 523.2,387.7 524.6,387.7 526,387.6 527.4,387.4 528.8,387 530.2,386.5 531.7,385.9 
			533.1,385.1 534.5,384.2 535.9,383.1 537.3,381.9 538.7,380.5 540.2,379 541.6,377.4 543,375.6 544.4,373.6 545.8,371.5 
			547.3,369.3 548.7,366.9 550.1,364.3 551.5,361.6 552.9,358.8 554.3,355.8 555.8,352.6 557.2,349.3 558.6,345.9 560,342.3 
			561.4,338.6 562.9,334.7 564.3,330.7 565.7,326.5 567.1,322.3 568.5,317.9 569.9,313.3 571.4,308.7 572.8,303.9 574.2,299 
			575.6,293.9 577,288.8 578.4,283.6 579.9,278.2 581.3,272.8 582.7,267.3 584.1,261.6 585.5,255.9 586.9,250.1 588.4,244.3 
			589.8,238.3 591.2,232.3 592.6,226.3 594,220.2 595.4,214.1 596.9,207.9 598.3,201.7 599.7,195.5 601.1,189.2 602.5,183 
			603.9,176.7 605.4,170.5 606.8,164.3 608.2,158.1 609.6,152 611,145.8 612.5,139.8 613.9,133.8 615.3,127.9 616.7,122.1 
			618.1,116.4 619.5,110.8 621,105.3 622.4,99.9 623.8,94.7 625.2,89.6 626.6,84.7 628,80 629.5,75.5 630.9,71.1 632.3,67 
			633.7,63.2 635.1,59.5 636.5,56.1 638,53 639.4,50.2 640.8,47.7 642.2,45.4 643.6,43.5 645.1,41.9 646.5,40.7 647.9,39.7 
			649.3,39.2 650.7,39 652.1,39.1 653.6,39.6 655,40.6 656.4,41.9 657.8,43.5 659.2,45.5 660.7,47.9 662.1,50.7 663.5,53.8 
			664.9,57.3 666.3,61.2 667.7,65.4 669.2,69.8 670.6,74.7 672,79.8 673.4,85.2 674.8,90.9 676.2,96.8 677.7,102.9 679.1,109.3 
			680.5,115.8 681.9,122.5 683.3,129.3 684.7,136.1 686.2,143.1 687.6,150.2 689,157.2 690.4,164.3 691.8,171.3 693.3,178.3 
			694.7,185.2 696.1,192 697.5,198.7 698.9,205.2 700.3,211.6 701.8,217.7 703.2,223.6 704.6,229.3 706,234.7 707.4,239.8 
			708.8,244.7 710.3,249.2 711.7,253.4 713.1,257.3 714.5,260.8 715.9,264 717.3,266.8 718.8,269.2 720.2,271.2 721.6,273 
			723,274.3 724.4,275.2 725.8,275.7 727.3,276 728.7,275.7 730.1,275.2 731.5,274.3 732.9,273.1 734.4,271.5 735.8,269.6 
			737.2,267.4 738.6,265 740,262.2 741.4,259.1 742.9,255.9 744.3,252.4 745.7,248.7 747.1,244.8 748.5,240.8 749.9,236.6 
			751.4,232.3 752.8,227.9 754.2,223.5 755.6,219 757,214.5 758.5,210 759.9,205.5 761.3,201.1 762.7,196.8 764.1,192.6 
			765.5,188.6 767,184.7 768.4,181 769.8,177.5 771.2,174.2 772.6,171.3 774,168.5 775.5,166 776.9,164 778.3,162.2 779.7,160.7 
			781.1,159.6 782.6,158.9 784,158.5 785.4,158.5 786.8,159 788.2,159.8 789.6,161 791.1,162.5 792.5,164.6 793.9,166.9 
			795.3,169.7 796.7,172.7 798.1,176.3 799.6,180.1 801,184.2 802.4,188.7 803.8,193.5 805.2,198.6 806.6,203.9 808.1,209.5 
			809.5,215.4 810.9,221.4 812.3,227.6 813.7,234 815.1,240.5 816.6,247.1 818,253.9 819.4,260.7 820.8,267.6 822.2,274.5 
			823.6,281.4 825.1,288.3 826.5,295.2 827.9,302 829.3,308.8 829.3,460.1 827.9,460.1 826.5,460.1 825.1,460.1 823.6,460.1 
			822.2,460.1 820.8,460.1 819.4,460.1 818,460.1 816.6,460.1 815.1,460.1 813.7,460.1 812.3,460.1 810.9,460.1 809.5,460.1 
			808.1,460.1 806.6,460.1 805.2,460.1 803.8,460.1 802.4,460.1 801,460.1 799.6,460.1 798.1,460.1 796.7,460.1 795.3,460.1 
			793.9,460.1 792.5,460.1 791.1,460.1 789.6,460.1 788.2,460.1 786.8,460.1 785.4,460.1 784,460.1 782.6,460.1 781.1,460.1 
			779.7,460.1 778.3,460.1 776.9,460.1 775.5,460.1 774,460.1 772.6,460.1 771.2,460.1 769.8,460.1 768.4,460.1 767,460.1 
			765.5,460.1 764.1,460.1 762.7,460.1 761.3,460.1 759.9,460.1 758.5,460.1 757,460.1 755.6,460.1 754.2,460.1 752.8,460.1 
			751.4,460.1 749.9,460.1 748.5,460.1 747.1,460.1 745.7,460.1 744.3,460.1 742.9,460.1 741.4,460.1 740,460.1 738.6,460.1 
			737.2,460.1 735.8,460.1 734.4,460.1 732.9,460.1 731.5,460.1 730.1,460.1 728.7,460.1 727.3,460.1 725.8,460.1 724.4,460.1 
			723,460.1 721.6,460.1 720.2,460.1 718.8,460.1 717.3,460.1 715.9,460.1 714.5,460.1 713.1,460.1 711.7,460.1 710.3,460.1 
			708.8,460.1 707.4,460.1 706,460.1 704.6,460.1 703.2,460.1 701.8,460.1 700.3,460.1 698.9,460.1 697.5,460.1 696.1,460.1 
			694.7,460.1 693.3,460.1 691.8,460.1 690.4,460.1 689,460.1 687.6,460.1 686.2,460.1 684.7,460.1 683.3,460.1 681.9,460.1 
			680.5,460.1 679.1,460.1 677.7,460.1 676.2,460.1 674.8,460.1 673.4,460.1 672,460.1 670.6,460.1 669.2,460.1 667.7,460.1 
			666.3,460.1 664.9,460.1 663.5,460.1 662.1,460.1 660.7,460.1 659.2,460.1 657.8,460.1 656.4,460.1 655,460.1 653.6,460.1 
			652.1,460.1 650.7,460.1 649.3,460.1 647.9,460.1 646.5,460.1 645.1,460.1 643.6,460.1 642.2,460.1 640.8,460.1 639.4,460.1 
			638,460.1 636.5,460.1 635.1,460.1 633.7,460.1 632.3,460.1 630.9,460.1 629.5,460.1 628,460.1 626.6,460.1 625.2,460.1 
			623.8,460.1 622.4,460.1 621,460.1 619.5,460.1 618.1,460.1 616.7,460.1 615.3,460.1 613.9,460.1 612.5,460.1 611,460.1 
			609.6,460.1 608.2,460.1 606.8,460.1 605.4,460.1 603.9,460.1 602.5,460.1 601.1,460.1 599.7,460.1 598.3,460.1 596.9,460.1 
			595.4,460.1 594,460.1 592.6,460.1 591.2,460.1 589.8,460.1 588.4,460.1 586.9,460.1 585.5,460.1 584.1,460.1 582.7,460.1 
			581.3,460.1 579.9,460.1 578.4,460.1 577,460.1 575.6,460.1 574.2,460.1 572.8,460.1 571.4,460.1 569.9,460.1 568.5,460.1 
			567.1,460.1 565.7,460.1 564.3,460.1 562.9,460.1 561.4,460.1 560,460.1 558.6,460.1 557.2,460.1 555.8,460.1 554.3,460.1 
			552.9,460.1 551.5,460.1 550.1,460.1 548.7,460.1 547.3,460.1 545.8,460.1 544.4,460.1 543,460.1 541.6,460.1 540.2,460.1 
			538.7,460.1 537.3,460.1 535.9,460.1 534.5,460.1 533.1,460.1 531.7,460.1 530.2,460.1 528.8,460.1 527.4,460.1 526,460.1 
			524.6,460.1 523.2,460.1 521.7,460.1 520.3,460.1 518.9,460.1 517.5,460.1 516.1,460.1 514.6,460.1 513.2,460.1 511.8,460.1 
			510.4,460.1 509,460.1 507.6,460.1 506.1,460.1 504.7,460.1 503.3,460.1 501.9,460.1 500.5,460.1 499.1,460.1 497.6,460.1 
			496.2,460.1 494.8,460.1 493.4,460.1 492,460.1 490.6,460.1 489.1,460.1 487.7,460.1 486.3,460.1 484.9,460.1 483.5,460.1 
			482.1,460.1 480.6,460.1 479.2,460.1 477.8,460.1 476.4,460.1 475,460.1 473.5,460.1 472.1,460.1 470.7,460.1 469.3,460.1 
			467.9,460.1 466.5,460.1 465,460.1 463.6,460.1 462.2,460.1 460.8,460.1 459.4,460.1 458,460.1 456.5,460.1 455.1,460.1 
			453.7,460.1 452.3,460.1 450.9,460.1 449.5,460.1 448,460.1 446.6,460.1 445.2,460.1 443.8,460.1 442.4,460.1 440.9,460.1 
			439.5,460.1 438.1,460.1 436.7,460.1 435.3,460.1 433.9,460.1 432.4,460.1 431,460.1 429.6,460.1 428.2,460.1 426.8,460.1 
			425.4,460.1 423.9,460.1 422.5,460.1 421.1,460.1 419.7,460.1 418.3,460.1 416.8,460.1 415.4,460.1 414,460.1 412.6,460.1 
			411.2,460.1 409.8,460.1 408.3,460.1 406.9,460.1 405.5,460.1 404.1,460.1 402.7,460.1 401.3,460.1 399.8,460.1 398.4,460.1 
			397,460.1 395.6,460.1 394.2,460.1 392.7,460.1 391.3,460.1 389.9,460.1 388.5,460.1 387.1,460.1 385.7,460.1 384.2,460.1 
			382.8,460.1 381.4,460.1 380,460.1 378.6,460.1 377.2,460.1 375.7,460.1 374.3,460.1 372.9,460.1 371.5,460.1 370.1,460.1 
			368.7,460.1 367.2,460.1 365.8,460.1 364.4,460.1 363,460.1 361.6,460.1 360.2,460.1 358.7,460.1 357.3,460.1 355.9,460.1 
			354.5,460.1 353.1,460.1 351.7,460.1 350.2,460.1 348.8,460.1 347.4,460.1 346,460.1 344.6,460.1 343.1,460.1 341.7,460.1 
			340.3,460.1 338.9,460.1 337.5,460.1 336.1,460.1 334.6,460.1 333.2,460.1 331.8,460.1 330.4,460.1 329,460.1 327.5,460.1 
			326.1,460.1 324.7,460.1 323.3,460.1 321.9,460.1 320.5,460.1 319,460.1 317.6,460.1 316.2,460.1 314.8,460.1 313.4,460.1 
			312,460.1 310.5,460.1 309.1,460.1 307.7,460.1 306.3,460.1 304.9,460.1 303.4,460.1 302,460.1 300.6,460.1 299.2,460.1 
			297.8,460.1 296.4,460.1 294.9,460.1 293.5,460.1 292.1,460.1 290.7,460.1 289.3,460.1 287.9,460.1 286.4,460.1 285,460.1 
			283.6,460.1 282.2,460.1 280.8,460.1 279.4,460.1 277.9,460.1 276.5,460.1 275.1,460.1 273.7,460.1 272.3,460.1 270.9,460.1 
			269.4,460.1 268,460.1 266.6,460.1 265.2,460.1 263.8,460.1 262.4,460.1 260.9,460.1 259.5,460.1 258.1,460.1 256.7,460.1 
			255.3,460.1 253.8,460.1 252.4,460.1 251,460.1 249.6,460.1 248.2,460.1 246.8,460.1 245.3,460.1 243.9,460.1 242.5,460.1 
			241.1,460.1 239.7,460.1 238.3,460.1 236.8,460.1 235.4,460.1 234,460.1 232.6,460.1 231.2,460.1 229.7,460.1 228.3,460.1 
			226.9,460.1 225.5,460.1 224.1,460.1 222.7,460.1 221.2,460.1 219.8,460.1 218.4,460.1 217,460.1 215.6,460.1 214.2,460.1 
			212.7,460.1 211.3,460.1 209.9,460.1 208.5,460.1 207.1,460.1 205.6,460.1 204.2,460.1 202.8,460.1 201.4,460.1 200,460.1 
			198.6,460.1 197.1,460.1 195.7,460.1 194.3,460.1 192.9,460.1 191.5,460.1 190.1,460.1 188.6,460.1 187.2,460.1 185.8,460.1 
			184.4,460.1 183,460.1 181.6,460.1 180.1,460.1 178.7,460.1 177.3,460.1 175.9,460.1 174.5,460.1 173,460.1 171.6,460.1 
			170.2,460.1 168.8,460.1 167.4,460.1 166,460.1 164.5,460.1 163.1,460.1 161.7,460.1 160.3,460.1 158.9,460.1 157.5,460.1 
			156,460.1 154.6,460.1 153.2,460.1 151.8,460.1 150.4,460.1 149,460.1 147.5,460.1 146.1,460.1 144.7,460.1 143.3,460.1 
			141.9,460.1 140.5,460.1 139,460.1 137.6,460.1 136.2,460.1 134.8,460.1 133.4,460.1 131.9,460.1 130.5,460.1 129.1,460.1 
			127.7,460.1 126.3,460.1 124.9,460.1 123.4,460.1 122,460.1 120.6,460.1 119.2,460.1 117.8,460.1 116.3,460.1 114.9,460.1 
			113.5,460.1 112.1,460.1 110.7,460.1 109.3,460.1 107.8,460.1 106.4,460.1 105,460.1 		"/>
	</g>
</g>
<text transform="matrix(1 0 0 1 16.7475 464.375)" fill="#7F7F7F" font-family="'Helvetica'" font-size="12.0417">0.00000</text>
<text transform="matrix(1 0 0 1 16.7475 356.6367)" fill="#7F7F7F" font-family="'Helvetica'" font-size="12.0417">0.00025</text>
<text transform="matrix(1 0 0 1 16.7475 248.8887)" fill="#7F7F7F" font-family="'Helvetica'" font-size="12.0417">0.00050</text>
<text transform="matrix(1 0 0 1 16.7475 141.1401)" fill="#7F7F7F" font-family="'Helvetica'" font-size="12.0417">0.00075</text>
<text transform="matrix(1 0 0 1 16.7475 33.4028)" fill="#7F7F7F" font-family="'Helvetica'" font-size="12.0417">0.00100</text>
<line fill="none" stroke="#7F7F7F" stroke-width="1.06" stroke-linejoin="round" stroke-miterlimit="10" x1="63.7" y1="460.1" x2="68.8" y2="460.1"/>
<line fill="none" stroke="#7F7F7F" stroke-width="1.06" stroke-linejoin="round" stroke-miterlimit="10" x1="63.7" y1="352.3" x2="68.8" y2="352.3"/>
<line fill="none" stroke="#7F7F7F" stroke-width="1.06" stroke-linejoin="round" stroke-miterlimit="10" x1="63.7" y1="244.6" x2="68.8" y2="244.6"/>
<line fill="none" stroke="#7F7F7F" stroke-width="1.06" stroke-linejoin="round" stroke-miterlimit="10" x1="63.7" y1="136.8" x2="68.8" y2="136.8"/>
<line fill="none" stroke="#7F7F7F" stroke-width="1.06" stroke-linejoin="round" stroke-miterlimit="10" x1="63.7" y1="29.1" x2="68.8" y2="29.1"/>
<line fill="none" stroke="#7F7F7F" stroke-width="1.06" stroke-linejoin="round" stroke-miterlimit="10" x1="104.4" y1="486.2" x2="104.4" y2="481.1"/>
<line fill="none" stroke="#7F7F7F" stroke-width="1.06" stroke-linejoin="round" stroke-miterlimit="10" x1="258.1" y1="486.2" x2="258.1" y2="481.1"/>
<line fill="none" stroke="#7F7F7F" stroke-width="1.06" stroke-linejoin="round" stroke-miterlimit="10" x1="411.7" y1="486.2" x2="411.7" y2="481.1"/>
<line fill="none" stroke="#7F7F7F" stroke-width="1.06" stroke-linejoin="round" stroke-miterlimit="10" x1="565.4" y1="486.2" x2="565.4" y2="481.1"/>
<line fill="none" stroke="#7F7F7F" stroke-width="1.06" stroke-linejoin="round" stroke-miterlimit="10" x1="719" y1="486.2" x2="719" y2="481.1"/>
<text transform="matrix(1 0 0 1 101.0512 498.2852)" fill="#7F7F7F" font-family="'Helvetica'" font-size="12.0417">0</text>
<text transform="matrix(1 0 0 1 248.0083 498.2852)" fill="#7F7F7F" font-family="'Helvetica'" font-size="12.0417">500</text>
<text transform="matrix(1 0 0 1 398.313 498.2852)" fill="#7F7F7F" font-family="'Helvetica'" font-size="12.0417">1000</text>
<text transform="matrix(1 0 0 1 551.9653 498.2852)" fill="#7F7F7F" font-family="'Helvetica'" font-size="12.0417">1500</text>
<text transform="matrix(1 0 0 1 705.6166 498.2852)" fill="#7F7F7F" font-family="'Helvetica'" font-size="12.0417">2000</text>
<text transform="matrix(1 0 0 1 438.0747 513)"><tspan x="0" y="0" font-family="'Helvetica'" font-size="14.45">AI</tspan><tspan x="13.7" y="0" font-family="'Helvetica'" font-size="14.45">R</tspan><tspan x="23.7" y="0" font-family="'Helvetica'" font-size="14.45">TIME</tspan></text>
<text transform="matrix(-6.123234e-17 -1 1 -6.123234e-17 12.4125 272.4187)" font-family="'Helvetica'" font-size="14.45">density</text>
<rect x="877.6" y="209.1" fill="#FFFFFF" width="122.4" height="80.9"/>
<text transform="matrix(1 0 0 1 882.7377 222.6387)" font-family="'Helvetica-Bold'" font-size="12.0417">SPONSOR</text>
<rect x="882.7" y="229.4" fill="#F2F2F2" width="27.7" height="27.7"/>
<rect x="882.7" y="229.4" fill="none" stroke="#FFFFFF" stroke-width="1.06" stroke-linecap="round" stroke-linejoin="round" stroke-miterlimit="10" width="27.7" height="27.7"/>
<g>
	<rect x="882.7" y="229.4" opacity="0.6" fill="#F8766D" width="27.7" height="27.7"/>
	
		<rect x="882.7" y="229.4" fill="none" stroke="#000000" stroke-width="0.75" stroke-linecap="round" stroke-linejoin="round" stroke-miterlimit="10" width="27.7" height="27.7"/>
</g>
<rect x="882.7" y="257.1" fill="#F2F2F2" width="27.7" height="27.7"/>
<rect x="882.7" y="257.1" fill="none" stroke="#FFFFFF" stroke-width="1.06" stroke-linecap="round" stroke-linejoin="round" stroke-miterlimit="10" width="27.7" height="27.7"/>
<g>
	<rect x="882.7" y="257.1" opacity="0.6" fill="#00BFC4" width="27.7" height="27.7"/>
	
		<rect x="882.7" y="257.1" fill="none" stroke="#000000" stroke-width="0.75" stroke-linecap="round" stroke-linejoin="round" stroke-miterlimit="10" width="27.7" height="27.7"/>
</g>
<text transform="matrix(1 0 0 1 913.9496 247.5762)"><tspan x="0" y="0" font-family="'Helvetica'" font-size="12.0417">C</tspan><tspan x="8.7" y="0" font-family="'Helvetica'" font-size="12.0417">O</tspan><tspan x="17.6" y="0" font-family="'Helvetica'" font-size="12.0417">T</tspan><tspan x="25" y="0" font-family="'Helvetica'" font-size="12.0417">T</tspan><tspan x="31.8" y="0" font-family="'Helvetica'" font-size="12.0417">ON, </tspan><tspan x="56.6" y="0" font-family="'Helvetica'" font-size="12.0417">T</tspan><tspan x="63.5" y="0" font-family="'Helvetica'" font-size="12.0417">OM</tspan></text>
<text transform="matrix(1 0 0 1 913.9496 275.3203)"><tspan x="0" y="0" font-family="'Helvetica'" font-size="12.0417">P</tspan><tspan x="8" y="0" font-family="'Helvetica'" font-size="12.0417">R</tspan><tspan x="16.1" y="0" font-family="'Helvetica'" font-size="12.0417" letter-spacing="-1">Y</tspan><tspan x="23.1" y="0" font-family="'Helvetica'" font-size="12.0417">OR, MARK</tspan></text>
</svg>
