<?xml version="1.0" encoding="utf-8"?>
<!-- Generator: Adobe Illustrator 18.1.0, SVG Export Plug-In . SVG Version: 6.00 Build 0)  -->
<svg version="1.1" id="Layer_1" xmlns="http://www.w3.org/2000/svg" xmlns:xlink="http://www.w3.org/1999/xlink" x="0px" y="0px"
	 viewBox="0 0 1000 680" enable-background="new 0 0 1000 680" xml:space="preserve">
<g>
	<defs>
		<rect id="SVGID_1_" x="30.4" y="25" width="833.2" height="600.7"/>
	</defs>
	<clipPath id="SVGID_2_">
		<use xlink:href="#SVGID_1_"  overflow="visible"/>
	</clipPath>
	<rect x="30.4" y="25" clip-path="url(#SVGID_2_)" fill="#E5E5E5" width="833.2" height="600.7"/>
	
		<line clip-path="url(#SVGID_2_)" fill="none" stroke="#F2F2F2" stroke-width="0.53" stroke-linejoin="round" stroke-miterlimit="10" x1="30.4" y1="548.8" x2="863.6" y2="548.8"/>
	
		<line clip-path="url(#SVGID_2_)" fill="none" stroke="#F2F2F2" stroke-width="0.53" stroke-linejoin="round" stroke-miterlimit="10" x1="30.4" y1="416.4" x2="863.6" y2="416.4"/>
	
		<line clip-path="url(#SVGID_2_)" fill="none" stroke="#F2F2F2" stroke-width="0.53" stroke-linejoin="round" stroke-miterlimit="10" x1="30.4" y1="284" x2="863.6" y2="284"/>
	
		<line clip-path="url(#SVGID_2_)" fill="none" stroke="#F2F2F2" stroke-width="0.53" stroke-linejoin="round" stroke-miterlimit="10" x1="30.4" y1="151.6" x2="863.6" y2="151.6"/>
	
		<line clip-path="url(#SVGID_2_)" fill="none" stroke="#F2F2F2" stroke-width="0.53" stroke-linejoin="round" stroke-miterlimit="10" x1="176.5" y1="625.7" x2="176.5" y2="25"/>
	
		<line clip-path="url(#SVGID_2_)" fill="none" stroke="#F2F2F2" stroke-width="0.53" stroke-linejoin="round" stroke-miterlimit="10" x1="356.8" y1="625.7" x2="356.8" y2="25"/>
	
		<line clip-path="url(#SVGID_2_)" fill="none" stroke="#F2F2F2" stroke-width="0.53" stroke-linejoin="round" stroke-miterlimit="10" x1="537.2" y1="625.7" x2="537.2" y2="25"/>
	
		<line clip-path="url(#SVGID_2_)" fill="none" stroke="#F2F2F2" stroke-width="0.53" stroke-linejoin="round" stroke-miterlimit="10" x1="717.5" y1="625.7" x2="717.5" y2="25"/>
	
		<line clip-path="url(#SVGID_2_)" fill="none" stroke="#FFFFFF" stroke-width="1.06" stroke-linejoin="round" stroke-miterlimit="10" x1="30.4" y1="615" x2="863.6" y2="615"/>
	
		<line clip-path="url(#SVGID_2_)" fill="none" stroke="#FFFFFF" stroke-width="1.06" stroke-linejoin="round" stroke-miterlimit="10" x1="30.4" y1="482.6" x2="863.6" y2="482.6"/>
	
		<line clip-path="url(#SVGID_2_)" fill="none" stroke="#FFFFFF" stroke-width="1.06" stroke-linejoin="round" stroke-miterlimit="10" x1="30.4" y1="350.2" x2="863.6" y2="350.2"/>
	
		<line clip-path="url(#SVGID_2_)" fill="none" stroke="#FFFFFF" stroke-width="1.06" stroke-linejoin="round" stroke-miterlimit="10" x1="30.4" y1="217.8" x2="863.6" y2="217.8"/>
	
		<line clip-path="url(#SVGID_2_)" fill="none" stroke="#FFFFFF" stroke-width="1.06" stroke-linejoin="round" stroke-miterlimit="10" x1="30.4" y1="85.4" x2="863.6" y2="85.4"/>
	
		<line clip-path="url(#SVGID_2_)" fill="none" stroke="#FFFFFF" stroke-width="1.06" stroke-linejoin="round" stroke-miterlimit="10" x1="86.3" y1="625.7" x2="86.3" y2="25"/>
	
		<line clip-path="url(#SVGID_2_)" fill="none" stroke="#FFFFFF" stroke-width="1.06" stroke-linejoin="round" stroke-miterlimit="10" x1="266.7" y1="625.7" x2="266.7" y2="25"/>
	
		<line clip-path="url(#SVGID_2_)" fill="none" stroke="#FFFFFF" stroke-width="1.06" stroke-linejoin="round" stroke-miterlimit="10" x1="447" y1="625.7" x2="447" y2="25"/>
	
		<line clip-path="url(#SVGID_2_)" fill="none" stroke="#FFFFFF" stroke-width="1.06" stroke-linejoin="round" stroke-miterlimit="10" x1="627.3" y1="625.7" x2="627.3" y2="25"/>
	
		<line clip-path="url(#SVGID_2_)" fill="none" stroke="#FFFFFF" stroke-width="1.06" stroke-linejoin="round" stroke-miterlimit="10" x1="807.7" y1="625.7" x2="807.7" y2="25"/>
	
		<path clip-path="url(#SVGID_2_)" fill="none" stroke="#0000FF" stroke-width="0.75" stroke-linecap="round" stroke-linejoin="round" stroke-miterlimit="10" d="
		M63.7,499.1c0-2.5,2-4.5,4.5-4.5c2.5,0,4.5,2.1,4.5,4.5c0,2.5-2.1,4.5-4.5,4.5C65.8,503.7,63.7,501.6,63.7,499.1"/>
	
		<path clip-path="url(#SVGID_2_)" fill="none" stroke="#0000FF" stroke-width="0.75" stroke-linecap="round" stroke-linejoin="round" stroke-miterlimit="10" d="
		M50,598.4c0-10,8.2-18.3,18.3-18.3s18.3,8.2,18.3,18.3c0,10-8.2,18.3-18.3,18.3S50,608.4,50,598.4"/>
	
		<path clip-path="url(#SVGID_2_)" fill="none" stroke="#0000FF" stroke-width="0.75" stroke-linecap="round" stroke-linejoin="round" stroke-miterlimit="10" d="
		M242.2,598.4c0-3.5,2.9-6.4,6.4-6.4c3.5,0,6.4,2.9,6.4,6.4c0,3.5-2.9,6.4-6.4,6.4C245.1,604.8,242.2,601.9,242.2,598.4"/>
	
		<path clip-path="url(#SVGID_2_)" fill="none" stroke="#0000FF" stroke-width="0.75" stroke-linecap="round" stroke-linejoin="round" stroke-miterlimit="10" d="
		M244.1,565.3c0-2.5,2.1-4.5,4.5-4.5c2.5,0,4.5,2,4.5,4.5c0,2.5-2,4.5-4.5,4.5C246.1,569.9,244.1,567.8,244.1,565.3"/>
	
		<path clip-path="url(#SVGID_2_)" fill="none" stroke="#0000FF" stroke-width="0.75" stroke-linecap="round" stroke-linejoin="round" stroke-miterlimit="10" d="
		M236.5,532.2c0-6.7,5.4-12.1,12.1-12.1c6.7,0,12.1,5.4,12.1,12.1c0,6.6-5.4,12.1-12.1,12.1C242,544.3,236.5,538.9,236.5,532.2"/>
	
		<path clip-path="url(#SVGID_2_)" fill="none" stroke="#0000FF" stroke-width="0.75" stroke-linecap="round" stroke-linejoin="round" stroke-miterlimit="10" d="
		M240.7,499.1c0-4.4,3.6-7.9,7.9-7.9c4.4,0,7.9,3.6,7.9,7.9c0,4.4-3.6,7.9-7.9,7.9C244.3,507,240.7,503.5,240.7,499.1"/>
	
		<path clip-path="url(#SVGID_2_)" fill="none" stroke="#0000FF" stroke-width="0.75" stroke-linecap="round" stroke-linejoin="round" stroke-miterlimit="10" d="
		M244.1,466c0-2.5,2.1-4.5,4.5-4.5c2.5,0,4.5,2.1,4.5,4.5c0,2.5-2,4.5-4.5,4.5C246.1,470.6,244.1,468.5,244.1,466"/>
	
		<path clip-path="url(#SVGID_2_)" fill="none" stroke="#0000FF" stroke-width="0.75" stroke-linecap="round" stroke-linejoin="round" stroke-miterlimit="10" d="
		M242.2,432.9c0-3.5,2.9-6.4,6.4-6.4c3.5,0,6.4,2.9,6.4,6.4c0,3.5-2.9,6.4-6.4,6.4C245.1,439.4,242.2,436.5,242.2,432.9"/>
	
		<path clip-path="url(#SVGID_2_)" fill="none" stroke="#0000FF" stroke-width="0.75" stroke-linecap="round" stroke-linejoin="round" stroke-miterlimit="10" d="
		M244.1,399.8c0-2.5,2.1-4.5,4.5-4.5c2.5,0,4.5,2,4.5,4.5c0,2.5-2,4.5-4.5,4.5C246.1,404.4,244.1,402.3,244.1,399.8"/>
	
		<path clip-path="url(#SVGID_2_)" fill="none" stroke="#0000FF" stroke-width="0.75" stroke-linecap="round" stroke-linejoin="round" stroke-miterlimit="10" d="
		M424.4,532.2c0-2.5,2-4.5,4.5-4.5c2.5,0,4.5,2.1,4.5,4.5s-2.1,4.5-4.5,4.5C426.5,536.8,424.4,534.7,424.4,532.2"/>
	
		<path clip-path="url(#SVGID_2_)" fill="none" stroke="#0000FF" stroke-width="0.75" stroke-linecap="round" stroke-linejoin="round" stroke-miterlimit="10" d="
		M424.4,466c0-2.5,2-4.5,4.5-4.5c2.5,0,4.5,2.1,4.5,4.5c0,2.5-2.1,4.5-4.5,4.5C426.5,470.6,424.4,468.5,424.4,466"/>
	
		<path clip-path="url(#SVGID_2_)" fill="none" stroke="#0000FF" stroke-width="0.75" stroke-linecap="round" stroke-linejoin="round" stroke-miterlimit="10" d="
		M417.8,399.8c0-6.2,5-11.2,11.2-11.2c6.2,0,11.2,5,11.2,11.2c0,6.2-5,11.2-11.2,11.2C422.8,411,417.8,406,417.8,399.8"/>
	
		<path clip-path="url(#SVGID_2_)" fill="none" stroke="#0000FF" stroke-width="0.75" stroke-linecap="round" stroke-linejoin="round" stroke-miterlimit="10" d="
		M421,366.7c0-4.4,3.6-7.9,7.9-7.9c4.4,0,7.9,3.6,7.9,7.9c0,4.4-3.6,7.9-7.9,7.9C424.6,374.6,421,371.1,421,366.7"/>
	
		<path clip-path="url(#SVGID_2_)" fill="none" stroke="#0000FF" stroke-width="0.75" stroke-linecap="round" stroke-linejoin="round" stroke-miterlimit="10" d="
		M424.4,333.6c0-2.5,2-4.5,4.5-4.5c2.5,0,4.5,2.1,4.5,4.5c0,2.5-2.1,4.5-4.5,4.5C426.5,338.2,424.4,336.1,424.4,333.6"/>
	
		<path clip-path="url(#SVGID_2_)" fill="none" stroke="#0000FF" stroke-width="0.75" stroke-linecap="round" stroke-linejoin="round" stroke-miterlimit="10" d="
		M424.4,317.1c0-2.5,2-4.5,4.5-4.5c2.5,0,4.5,2,4.5,4.5c0,2.5-2.1,4.5-4.5,4.5C426.5,321.6,424.4,319.6,424.4,317.1"/>
	
		<path clip-path="url(#SVGID_2_)" fill="none" stroke="#0000FF" stroke-width="0.75" stroke-linecap="round" stroke-linejoin="round" stroke-miterlimit="10" d="
		M424.4,267.4c0-2.5,2-4.5,4.5-4.5c2.5,0,4.5,2.1,4.5,4.5c0,2.5-2.1,4.5-4.5,4.5C426.5,272,424.4,269.9,424.4,267.4"/>
	
		<path clip-path="url(#SVGID_2_)" fill="none" stroke="#0000FF" stroke-width="0.75" stroke-linecap="round" stroke-linejoin="round" stroke-miterlimit="10" d="
		M422.5,168.1c0-3.5,2.9-6.4,6.4-6.4s6.4,2.9,6.4,6.4s-2.9,6.4-6.4,6.4S422.5,171.7,422.5,168.1"/>
	
		<path clip-path="url(#SVGID_2_)" fill="none" stroke="#0000FF" stroke-width="0.75" stroke-linecap="round" stroke-linejoin="round" stroke-miterlimit="10" d="
		M424.4,118.5c0-2.5,2-4.5,4.5-4.5c2.5,0,4.5,2,4.5,4.5c0,2.5-2.1,4.5-4.5,4.5C426.5,123,424.4,121,424.4,118.5"/>
	
		<path clip-path="url(#SVGID_2_)" fill="none" stroke="#0000FF" stroke-width="0.75" stroke-linecap="round" stroke-linejoin="round" stroke-miterlimit="10" d="
		M604.8,350.2c0-2.5,2.1-4.5,4.5-4.5c2.5,0,4.5,2.1,4.5,4.5c0,2.5-2,4.5-4.5,4.5C606.8,354.7,604.8,352.7,604.8,350.2"/>
	
		<path clip-path="url(#SVGID_2_)" fill="none" stroke="#0000FF" stroke-width="0.75" stroke-linecap="round" stroke-linejoin="round" stroke-miterlimit="10" d="
		M601.4,267.4c0-4.4,3.6-7.9,7.9-7.9c4.4,0,7.9,3.6,7.9,7.9c0,4.4-3.6,7.9-7.9,7.9C604.9,275.4,601.4,271.8,601.4,267.4"/>
	
		<path clip-path="url(#SVGID_2_)" fill="none" stroke="#0000FF" stroke-width="0.75" stroke-linecap="round" stroke-linejoin="round" stroke-miterlimit="10" d="
		M602.9,234.3c0-3.5,2.9-6.4,6.4-6.4c3.5,0,6.4,2.9,6.4,6.4c0,3.5-2.9,6.4-6.4,6.4C605.8,240.8,602.9,237.9,602.9,234.3"/>
	
		<path clip-path="url(#SVGID_2_)" fill="none" stroke="#0000FF" stroke-width="0.75" stroke-linecap="round" stroke-linejoin="round" stroke-miterlimit="10" d="
		M600.2,201.2c0-5,4.1-9.1,9.1-9.1c5,0,9.1,4.1,9.1,9.1c0,5-4.1,9.1-9.1,9.1C604.3,210.4,600.2,206.3,600.2,201.2"/>
	
		<path clip-path="url(#SVGID_2_)" fill="none" stroke="#0000FF" stroke-width="0.75" stroke-linecap="round" stroke-linejoin="round" stroke-miterlimit="10" d="
		M604.8,168.1c0-2.5,2.1-4.5,4.5-4.5c2.5,0,4.5,2.1,4.5,4.5s-2,4.5-4.5,4.5C606.8,172.7,604.8,170.6,604.8,168.1"/>
	
		<path clip-path="url(#SVGID_2_)" fill="none" stroke="#0000FF" stroke-width="0.75" stroke-linecap="round" stroke-linejoin="round" stroke-miterlimit="10" d="
		M602.9,135c0-3.5,2.9-6.4,6.4-6.4c3.5,0,6.4,2.9,6.4,6.4c0,3.5-2.9,6.4-6.4,6.4C605.8,141.5,602.9,138.6,602.9,135"/>
	
		<path clip-path="url(#SVGID_2_)" fill="none" stroke="#0000FF" stroke-width="0.75" stroke-linecap="round" stroke-linejoin="round" stroke-miterlimit="10" d="
		M602.9,118.5c0-3.5,2.9-6.4,6.4-6.4c3.5,0,6.4,2.9,6.4,6.4s-2.9,6.4-6.4,6.4C605.8,124.9,602.9,122,602.9,118.5"/>
	
		<path clip-path="url(#SVGID_2_)" fill="none" stroke="#0000FF" stroke-width="0.75" stroke-linecap="round" stroke-linejoin="round" stroke-miterlimit="10" d="
		M604.8,101.9c0-2.5,2.1-4.5,4.5-4.5c2.5,0,4.5,2.1,4.5,4.5c0,2.5-2,4.5-4.5,4.5C606.8,106.5,604.8,104.5,604.8,101.9"/>
	
		<path clip-path="url(#SVGID_2_)" fill="none" stroke="#0000FF" stroke-width="0.75" stroke-linecap="round" stroke-linejoin="round" stroke-miterlimit="10" d="
		M604.8,85.4c0-2.5,2.1-4.5,4.5-4.5c2.5,0,4.5,2.1,4.5,4.5c0,2.5-2,4.5-4.5,4.5C606.8,89.9,604.8,87.9,604.8,85.4"/>
	
		<path clip-path="url(#SVGID_2_)" fill="none" stroke="#0000FF" stroke-width="0.75" stroke-linecap="round" stroke-linejoin="round" stroke-miterlimit="10" d="
		M785.1,217.8c0-2.5,2-4.5,4.5-4.5c2.5,0,4.5,2.1,4.5,4.5c0,2.5-2.1,4.5-4.5,4.5C787.1,222.3,785.1,220.3,785.1,217.8"/>
	
		<path clip-path="url(#SVGID_2_)" fill="none" stroke="#0000FF" stroke-width="0.75" stroke-linecap="round" stroke-linejoin="round" stroke-miterlimit="10" d="
		M777.6,151.6c0-6.7,5.4-12.1,12.1-12.1c6.6,0,12.1,5.4,12.1,12.1c0,6.6-5.4,12.1-12.1,12.1C783,163.7,777.6,158.2,777.6,151.6"/>
	
		<path clip-path="url(#SVGID_2_)" fill="none" stroke="#0000FF" stroke-width="0.75" stroke-linecap="round" stroke-linejoin="round" stroke-miterlimit="10" d="
		M777.6,118.5c0-6.7,5.4-12.1,12.1-12.1c6.6,0,12.1,5.4,12.1,12.1c0,6.6-5.4,12.1-12.1,12.1C783,130.6,777.6,125.1,777.6,118.5"/>
	
		<path clip-path="url(#SVGID_2_)" fill="none" stroke="#0000FF" stroke-width="0.75" stroke-linecap="round" stroke-linejoin="round" stroke-miterlimit="10" d="
		M783.2,85.4c0-3.5,2.9-6.4,6.4-6.4c3.5,0,6.4,2.9,6.4,6.4c0,3.5-2.9,6.4-6.4,6.4C786.1,91.8,783.2,88.9,783.2,85.4"/>
	
		<path clip-path="url(#SVGID_2_)" fill="none" stroke="#0000FF" stroke-width="0.75" stroke-linecap="round" stroke-linejoin="round" stroke-miterlimit="10" d="
		M785.1,52.3c0-2.5,2-4.5,4.5-4.5c2.5,0,4.5,2.1,4.5,4.5c0,2.5-2.1,4.5-4.5,4.5C787.1,56.9,785.1,54.8,785.1,52.3"/>
	<path clip-path="url(#SVGID_2_)" fill="#0000FF" d="M278.3,598.4c0-3.5,2.9-6.4,6.4-6.4c3.5,0,6.4,2.9,6.4,6.4
		c0,3.5-2.9,6.4-6.4,6.4C281.2,604.8,278.3,601.9,278.3,598.4"/>
	<path clip-path="url(#SVGID_2_)" fill="#0000FF" d="M274.5,565.3c0-5.6,4.6-10.2,10.2-10.2c5.6,0,10.2,4.6,10.2,10.2
		s-4.6,10.2-10.2,10.2C279.1,575.5,274.5,570.9,274.5,565.3"/>
	<path clip-path="url(#SVGID_2_)" fill="#0000FF" d="M274.5,532.2c0-5.6,4.6-10.2,10.2-10.2c5.6,0,10.2,4.6,10.2,10.2
		s-4.6,10.2-10.2,10.2C279.1,542.4,274.5,537.8,274.5,532.2"/>
	<path clip-path="url(#SVGID_2_)" fill="#0000FF" d="M274.5,499.1c0-5.6,4.6-10.2,10.2-10.2c5.6,0,10.2,4.6,10.2,10.2
		c0,5.6-4.6,10.2-10.2,10.2C279.1,509.3,274.5,504.7,274.5,499.1"/>
	<path clip-path="url(#SVGID_2_)" fill="#0000FF" d="M460.5,565.3c0-2.5,2-4.5,4.5-4.5c2.5,0,4.5,2,4.5,4.5c0,2.5-2.1,4.5-4.5,4.5
		C462.5,569.9,460.5,567.8,460.5,565.3"/>
	<path clip-path="url(#SVGID_2_)" fill="#0000FF" d="M460.5,499.1c0-2.5,2-4.5,4.5-4.5c2.5,0,4.5,2.1,4.5,4.5c0,2.5-2.1,4.5-4.5,4.5
		C462.5,503.7,460.5,501.6,460.5,499.1"/>
	<path clip-path="url(#SVGID_2_)" fill="#0000FF" d="M460.5,466c0-2.5,2-4.5,4.5-4.5c2.5,0,4.5,2.1,4.5,4.5c0,2.5-2.1,4.5-4.5,4.5
		C462.5,470.6,460.5,468.5,460.5,466"/>
	<path clip-path="url(#SVGID_2_)" fill="#0000FF" d="M455.9,432.9c0-5,4.1-9.1,9.1-9.1c5,0,9.1,4.1,9.1,9.1c0,5-4.1,9.1-9.1,9.1
		C460,442.1,455.9,437.9,455.9,432.9"/>
	<path clip-path="url(#SVGID_2_)" fill="#0000FF" d="M457.1,399.8c0-4.4,3.6-7.9,7.9-7.9c4.4,0,7.9,3.6,7.9,7.9
		c0,4.4-3.6,7.9-7.9,7.9C460.7,407.7,457.1,404.2,457.1,399.8"/>
	<path clip-path="url(#SVGID_2_)" fill="#0000FF" d="M460.5,366.7c0-2.5,2-4.5,4.5-4.5c2.5,0,4.5,2.1,4.5,4.5s-2.1,4.5-4.5,4.5
		C462.5,371.3,460.5,369.2,460.5,366.7"/>
	<path clip-path="url(#SVGID_2_)" fill="#0000FF" d="M460.5,333.6c0-2.5,2-4.5,4.5-4.5c2.5,0,4.5,2.1,4.5,4.5c0,2.5-2.1,4.5-4.5,4.5
		C462.5,338.2,460.5,336.1,460.5,333.6"/>
	<path clip-path="url(#SVGID_2_)" fill="#0000FF" d="M460.5,317.1c0-2.5,2-4.5,4.5-4.5c2.5,0,4.5,2,4.5,4.5c0,2.5-2.1,4.5-4.5,4.5
		C462.5,321.6,460.5,319.6,460.5,317.1"/>
	<path clip-path="url(#SVGID_2_)" fill="#0000FF" d="M460.5,300.5c0-2.5,2-4.5,4.5-4.5c2.5,0,4.5,2.1,4.5,4.5c0,2.5-2.1,4.5-4.5,4.5
		C462.5,305.1,460.5,303,460.5,300.5"/>
	<path clip-path="url(#SVGID_2_)" fill="#0000FF" d="M460.5,267.4c0-2.5,2-4.5,4.5-4.5c2.5,0,4.5,2.1,4.5,4.5c0,2.5-2.1,4.5-4.5,4.5
		C462.5,272,460.5,269.9,460.5,267.4"/>
	<path clip-path="url(#SVGID_2_)" fill="#0000FF" d="M458.6,234.3c0-3.5,2.9-6.4,6.4-6.4s6.4,2.9,6.4,6.4c0,3.5-2.9,6.4-6.4,6.4
		S458.6,237.9,458.6,234.3"/>
	<path clip-path="url(#SVGID_2_)" fill="#0000FF" d="M640.8,350.2c0-2.5,2.1-4.5,4.5-4.5c2.5,0,4.5,2.1,4.5,4.5c0,2.5-2,4.5-4.5,4.5
		C642.9,354.7,640.8,352.7,640.8,350.2"/>
	<path clip-path="url(#SVGID_2_)" fill="#0000FF" d="M640.8,333.6c0-2.5,2.1-4.5,4.5-4.5c2.5,0,4.5,2.1,4.5,4.5c0,2.5-2,4.5-4.5,4.5
		C642.9,338.2,640.8,336.1,640.8,333.6"/>
	<path clip-path="url(#SVGID_2_)" fill="#0000FF" d="M637.5,300.5c0-4.4,3.6-7.9,7.9-7.9c4.4,0,7.9,3.6,7.9,7.9
		c0,4.4-3.6,7.9-7.9,7.9C641,308.5,637.5,304.9,637.5,300.5"/>
	<path clip-path="url(#SVGID_2_)" fill="#0000FF" d="M637.5,267.4c0-4.4,3.6-7.9,7.9-7.9c4.4,0,7.9,3.6,7.9,7.9
		c0,4.4-3.6,7.9-7.9,7.9C641,275.4,637.5,271.8,637.5,267.4"/>
	<path clip-path="url(#SVGID_2_)" fill="#0000FF" d="M640.8,234.3c0-2.5,2.1-4.5,4.5-4.5c2.5,0,4.5,2,4.5,4.5c0,2.5-2,4.5-4.5,4.5
		C642.9,238.9,640.8,236.8,640.8,234.3"/>
	<path clip-path="url(#SVGID_2_)" fill="#0000FF" d="M640.8,201.2c0-2.5,2.1-4.5,4.5-4.5c2.5,0,4.5,2.1,4.5,4.5c0,2.5-2,4.5-4.5,4.5
		C642.9,205.8,640.8,203.7,640.8,201.2"/>
	<path clip-path="url(#SVGID_2_)" fill="#0000FF" d="M640.8,168.1c0-2.5,2.1-4.5,4.5-4.5c2.5,0,4.5,2.1,4.5,4.5s-2,4.5-4.5,4.5
		C642.9,172.7,640.8,170.6,640.8,168.1"/>
	<path clip-path="url(#SVGID_2_)" fill="#0000FF" d="M638.9,135c0-3.5,2.9-6.4,6.4-6.4c3.5,0,6.4,2.9,6.4,6.4c0,3.5-2.9,6.4-6.4,6.4
		C641.8,141.5,638.9,138.6,638.9,135"/>
	<path clip-path="url(#SVGID_2_)" fill="#0000FF" d="M638.9,118.5c0-3.5,2.9-6.4,6.4-6.4c3.5,0,6.4,2.9,6.4,6.4s-2.9,6.4-6.4,6.4
		C641.8,124.9,638.9,122,638.9,118.5"/>
	<path clip-path="url(#SVGID_2_)" fill="#0000FF" d="M638.9,101.9c0-3.5,2.9-6.4,6.4-6.4c3.5,0,6.4,2.9,6.4,6.4
		c0,3.5-2.9,6.4-6.4,6.4C641.8,108.4,638.9,105.5,638.9,101.9"/>
	<path clip-path="url(#SVGID_2_)" fill="#0000FF" d="M817.8,184.7c0-4.4,3.6-7.9,7.9-7.9s7.9,3.6,7.9,7.9c0,4.4-3.6,7.9-7.9,7.9
		S817.8,189.1,817.8,184.7"/>
	<path clip-path="url(#SVGID_2_)" fill="#0000FF" d="M815.5,151.6c0-5.6,4.6-10.2,10.2-10.2c5.6,0,10.2,4.6,10.2,10.2
		s-4.6,10.2-10.2,10.2C820.1,161.8,815.5,157.2,815.5,151.6"/>
	<path clip-path="url(#SVGID_2_)" fill="#0000FF" d="M814.5,118.5c0-6.2,5-11.2,11.2-11.2s11.2,5,11.2,11.2s-5,11.2-11.2,11.2
		S814.5,124.7,814.5,118.5"/>
	<path clip-path="url(#SVGID_2_)" fill="#0000FF" d="M819.3,85.4c0-3.5,2.9-6.4,6.4-6.4c3.5,0,6.4,2.9,6.4,6.4
		c0,3.5-2.9,6.4-6.4,6.4C822.2,91.8,819.3,88.9,819.3,85.4"/>
	<path clip-path="url(#SVGID_2_)" fill="#0000FF" d="M821.2,52.3c0-2.5,2-4.5,4.5-4.5c2.5,0,4.5,2.1,4.5,4.5c0,2.5-2.1,4.5-4.5,4.5
		C823.2,56.9,821.2,54.8,821.2,52.3"/>
</g>
<text transform="matrix(1 0 0 1 15.9336 619.0655)" fill="#7F7F7F" font-family="'Helvetica'" font-size="11.4569">0</text>
<text transform="matrix(1 0 0 1 15.9336 486.6807)" fill="#7F7F7F" font-family="'Helvetica'" font-size="11.4569">1</text>
<text transform="matrix(1 0 0 1 15.9336 354.2832)" fill="#7F7F7F" font-family="'Helvetica'" font-size="11.4569">2</text>
<text transform="matrix(1 0 0 1 15.9336 221.8985)" fill="#7F7F7F" font-family="'Helvetica'" font-size="11.4569">3</text>
<text transform="matrix(1 0 0 1 15.9336 89.5137)" fill="#7F7F7F" font-family="'Helvetica'" font-size="11.4569">4</text>
<line fill="none" stroke="#7F7F7F" stroke-width="1.06" stroke-linejoin="round" stroke-miterlimit="10" x1="25.5" y1="615" x2="30.4" y2="615"/>
<line fill="none" stroke="#7F7F7F" stroke-width="1.06" stroke-linejoin="round" stroke-miterlimit="10" x1="25.5" y1="482.6" x2="30.4" y2="482.6"/>
<line fill="none" stroke="#7F7F7F" stroke-width="1.06" stroke-linejoin="round" stroke-miterlimit="10" x1="25.5" y1="350.2" x2="30.4" y2="350.2"/>
<line fill="none" stroke="#7F7F7F" stroke-width="1.06" stroke-linejoin="round" stroke-miterlimit="10" x1="25.5" y1="217.8" x2="30.4" y2="217.8"/>
<line fill="none" stroke="#7F7F7F" stroke-width="1.06" stroke-linejoin="round" stroke-miterlimit="10" x1="25.5" y1="85.4" x2="30.4" y2="85.4"/>
<line fill="none" stroke="#7F7F7F" stroke-width="1.06" stroke-linejoin="round" stroke-miterlimit="10" x1="86.3" y1="630.6" x2="86.3" y2="625.7"/>
<line fill="none" stroke="#7F7F7F" stroke-width="1.06" stroke-linejoin="round" stroke-miterlimit="10" x1="266.7" y1="630.6" x2="266.7" y2="625.7"/>
<line fill="none" stroke="#7F7F7F" stroke-width="1.06" stroke-linejoin="round" stroke-miterlimit="10" x1="447" y1="630.6" x2="447" y2="625.7"/>
<line fill="none" stroke="#7F7F7F" stroke-width="1.06" stroke-linejoin="round" stroke-miterlimit="10" x1="627.3" y1="630.6" x2="627.3" y2="625.7"/>
<line fill="none" stroke="#7F7F7F" stroke-width="1.06" stroke-linejoin="round" stroke-miterlimit="10" x1="807.7" y1="630.6" x2="807.7" y2="625.7"/>
<text transform="matrix(1 0 0 1 73.585 642.0489)" fill="#7F7F7F" font-family="'Helvetica'" font-size="11.4569">2014</text>
<text transform="matrix(1 0 0 1 253.918 642.0489)" fill="#7F7F7F" font-family="'Helvetica'" font-size="11.4569">2015</text>
<text transform="matrix(1 0 0 1 434.2607 642.0489)" fill="#7F7F7F" font-family="'Helvetica'" font-size="11.4569">2016</text>
<text transform="matrix(1 0 0 1 614.5938 642.0489)" fill="#7F7F7F" font-family="'Helvetica'" font-size="11.4569">2017</text>
<text transform="matrix(1 0 0 1 794.9375 642.0489)" fill="#7F7F7F" font-family="'Helvetica'" font-size="11.4569">2018</text>
<text transform="matrix(1 0 0 1 400.7158 656.0489)"><tspan x="0" y="0" font-family="'Helvetica'" font-size="13.7483">y</tspan><tspan x="6.6" y="0" font-family="'Helvetica'" font-size="13.7483">ear_mar − 0.1</tspan></text>
<text transform="matrix(-6.123234e-17 -1 1 -6.123234e-17 11.8096 352.7817)"><tspan x="0" y="0" font-family="'Helvetica'" font-size="13.7483">r</tspan><tspan x="4.4" y="0" font-family="'Helvetica'" font-size="13.7483">ate_mar</tspan></text>
<rect x="875.1" y="237.4" fill="#FFFFFF" width="76.4" height="176"/>
<text transform="matrix(1 0 0 1 879.9482 250.2891)" font-family="'Helvetica-Bold'" font-size="11.4569">Number of projections</text>
<rect x="879.9" y="256.7" fill="#F2F2F2" width="48.7" height="26.4"/>
<rect x="879.9" y="256.7" fill="none" stroke="#FFFFFF" stroke-width="1.06" stroke-linecap="round" stroke-linejoin="round" stroke-miterlimit="10" width="48.7" height="26.4"/>
<path fill="none" stroke="#0000FF" stroke-width="0.75" stroke-linecap="round" stroke-linejoin="round" stroke-miterlimit="10" d="
	M895.2,269.9c0-5,4.1-9.1,9.1-9.1s9.1,4.1,9.1,9.1c0,5-4.1,9.1-9.1,9.1S895.2,274.9,895.2,269.9"/>
<path fill="#0000FF" d="M895.2,269.9c0-5,4.1-9.1,9.1-9.1s9.1,4.1,9.1,9.1c0,5-4.1,9.1-9.1,9.1S895.2,274.9,895.2,269.9"/>
<rect x="879.9" y="283.1" fill="#F2F2F2" width="48.7" height="34.5"/>
<rect x="879.9" y="283.1" fill="none" stroke="#FFFFFF" stroke-width="1.06" stroke-linecap="round" stroke-linejoin="round" stroke-miterlimit="10" width="48.7" height="34.5"/>
<path fill="none" stroke="#0000FF" stroke-width="0.75" stroke-linecap="round" stroke-linejoin="round" stroke-miterlimit="10" d="
	M891.4,300.3c0-7.1,5.8-12.9,12.9-12.9s12.9,5.8,12.9,12.9s-5.8,12.9-12.9,12.9S891.4,307.4,891.4,300.3"/>
<path fill="#0000FF" d="M891.4,300.3c0-7.1,5.8-12.9,12.9-12.9s12.9,5.8,12.9,12.9s-5.8,12.9-12.9,12.9S891.4,307.4,891.4,300.3"/>
<rect x="879.9" y="317.6" fill="#F2F2F2" width="48.7" height="42.2"/>
<rect x="879.9" y="317.6" fill="none" stroke="#FFFFFF" stroke-width="1.06" stroke-linecap="round" stroke-linejoin="round" stroke-miterlimit="10" width="48.7" height="42.2"/>
<path fill="none" stroke="#0000FF" stroke-width="0.75" stroke-linecap="round" stroke-linejoin="round" stroke-miterlimit="10" d="
	M888.5,338.7c0-8.7,7.1-15.8,15.8-15.8c8.7,0,15.8,7.1,15.8,15.8c0,8.7-7.1,15.8-15.8,15.8C895.6,354.5,888.5,347.4,888.5,338.7"/>
<path fill="#0000FF" d="M888.5,338.7c0-8.7,7.1-15.8,15.8-15.8c8.7,0,15.8,7.1,15.8,15.8c0,8.7-7.1,15.8-15.8,15.8
	C895.6,354.5,888.5,347.4,888.5,338.7"/>
<rect x="879.9" y="359.7" fill="#F2F2F2" width="48.7" height="48.7"/>
<rect x="879.9" y="359.7" fill="none" stroke="#FFFFFF" stroke-width="1.06" stroke-linecap="round" stroke-linejoin="round" stroke-miterlimit="10" width="48.7" height="48.7"/>
<path fill="none" stroke="#0000FF" stroke-width="0.75" stroke-linecap="round" stroke-linejoin="round" stroke-miterlimit="10" d="
	M886,384.1c0-10,8.2-18.3,18.3-18.3c10,0,18.3,8.2,18.3,18.3c0,10-8.2,18.3-18.3,18.3C894.3,402.4,886,394.2,886,384.1"/>
<path fill="#0000FF" d="M886,384.1c0-10,8.2-18.3,18.3-18.3c10,0,18.3,8.2,18.3,18.3c0,10-8.2,18.3-18.3,18.3
	C894.3,402.4,886,394.2,886,384.1"/>
<text transform="matrix(1 0 0 1 931.9619 274.0274)" font-family="'Helvetica'" font-size="11.4569">4</text>
<text transform="matrix(1 0 0 1 931.9619 304.4463)" font-family="'Helvetica'" font-size="11.4569">8</text>
<text transform="matrix(1 0 0 1 931.9619 342.7696)" font-family="'Helvetica'" font-size="11.4569">12</text>
<text transform="matrix(1 0 0 1 931.9619 388.2188)" font-family="'Helvetica'" font-size="11.4569">16</text>
</svg>
