<?xml version="1.0" encoding="utf-8"?>
<!-- Generator: Adobe Illustrator 18.1.0, SVG Export Plug-In . SVG Version: 6.00 Build 0)  -->
<svg version="1.1" id="Layer_1" xmlns="http://www.w3.org/2000/svg" xmlns:xlink="http://www.w3.org/1999/xlink" x="0px" y="0px"
	 viewBox="0 0 1000 698.7" enable-background="new 0 0 1000 698.7" xml:space="preserve">
<g>
	<defs>
		<rect id="SVGID_1_" x="31.6" y="21.7" width="968.4" height="623.8"/>
	</defs>
	<clipPath id="SVGID_2_">
		<use xlink:href="#SVGID_1_"  overflow="visible"/>
	</clipPath>
	<rect x="31.6" y="21.7" clip-path="url(#SVGID_2_)" fill="#E5E5E5" width="968.4" height="623.8"/>
	
		<line clip-path="url(#SVGID_2_)" fill="none" stroke="#F2F2F2" stroke-width="0.53" stroke-linejoin="round" stroke-miterlimit="10" x1="31.6" y1="580.4" x2="1000" y2="580.4"/>
	
		<line clip-path="url(#SVGID_2_)" fill="none" stroke="#F2F2F2" stroke-width="0.53" stroke-linejoin="round" stroke-miterlimit="10" x1="31.6" y1="438.2" x2="1000" y2="438.2"/>
	
		<line clip-path="url(#SVGID_2_)" fill="none" stroke="#F2F2F2" stroke-width="0.53" stroke-linejoin="round" stroke-miterlimit="10" x1="31.6" y1="295.9" x2="1000" y2="295.9"/>
	
		<line clip-path="url(#SVGID_2_)" fill="none" stroke="#F2F2F2" stroke-width="0.53" stroke-linejoin="round" stroke-miterlimit="10" x1="31.6" y1="153.7" x2="1000" y2="153.7"/>
	
		<line clip-path="url(#SVGID_2_)" fill="none" stroke="#F2F2F2" stroke-width="0.53" stroke-linejoin="round" stroke-miterlimit="10" x1="222.3" y1="645.5" x2="222.3" y2="21.7"/>
	
		<line clip-path="url(#SVGID_2_)" fill="none" stroke="#F2F2F2" stroke-width="0.53" stroke-linejoin="round" stroke-miterlimit="10" x1="515.8" y1="645.5" x2="515.8" y2="21.7"/>
	
		<line clip-path="url(#SVGID_2_)" fill="none" stroke="#F2F2F2" stroke-width="0.53" stroke-linejoin="round" stroke-miterlimit="10" x1="809.3" y1="645.5" x2="809.3" y2="21.7"/>
	
		<line clip-path="url(#SVGID_2_)" fill="none" stroke="#FFFFFF" stroke-width="1.06" stroke-linejoin="round" stroke-miterlimit="10" x1="31.6" y1="509.3" x2="1000" y2="509.3"/>
	
		<line clip-path="url(#SVGID_2_)" fill="none" stroke="#FFFFFF" stroke-width="1.06" stroke-linejoin="round" stroke-miterlimit="10" x1="31.6" y1="367.1" x2="1000" y2="367.1"/>
	
		<line clip-path="url(#SVGID_2_)" fill="none" stroke="#FFFFFF" stroke-width="1.06" stroke-linejoin="round" stroke-miterlimit="10" x1="31.6" y1="224.8" x2="1000" y2="224.8"/>
	
		<line clip-path="url(#SVGID_2_)" fill="none" stroke="#FFFFFF" stroke-width="1.06" stroke-linejoin="round" stroke-miterlimit="10" x1="31.6" y1="82.6" x2="1000" y2="82.6"/>
	
		<line clip-path="url(#SVGID_2_)" fill="none" stroke="#FFFFFF" stroke-width="1.06" stroke-linejoin="round" stroke-miterlimit="10" x1="75.6" y1="645.5" x2="75.6" y2="21.7"/>
	
		<line clip-path="url(#SVGID_2_)" fill="none" stroke="#FFFFFF" stroke-width="1.06" stroke-linejoin="round" stroke-miterlimit="10" x1="369.1" y1="645.5" x2="369.1" y2="21.7"/>
	
		<line clip-path="url(#SVGID_2_)" fill="none" stroke="#FFFFFF" stroke-width="1.06" stroke-linejoin="round" stroke-miterlimit="10" x1="662.5" y1="645.5" x2="662.5" y2="21.7"/>
	
		<line clip-path="url(#SVGID_2_)" fill="none" stroke="#FFFFFF" stroke-width="1.06" stroke-linejoin="round" stroke-miterlimit="10" x1="956" y1="645.5" x2="956" y2="21.7"/>
	<polygon clip-path="url(#SVGID_2_)" fill="#ADD8E6" points="75.6,617.1 75.6,617.1 75.6,599.9 	"/>
	
		<polygon clip-path="url(#SVGID_2_)" fill="none" stroke="#0000FF" stroke-width="1.06" stroke-linejoin="round" stroke-miterlimit="10" points="
		75.6,617.1 75.6,617.1 75.6,599.9 	"/>
	<rect x="75.6" y="582.8" clip-path="url(#SVGID_2_)" fill="#ADD8E6" width="293.5" height="17.2"/>
	
		<rect x="75.6" y="582.8" clip-path="url(#SVGID_2_)" fill="none" stroke="#0000FF" stroke-width="1.06" stroke-linejoin="round" stroke-miterlimit="10" width="293.5" height="17.2"/>
	<polygon clip-path="url(#SVGID_2_)" fill="#ADD8E6" points="75.6,582.8 75.6,582.8 75.6,565.6 	"/>
	
		<polygon clip-path="url(#SVGID_2_)" fill="none" stroke="#0000FF" stroke-width="1.06" stroke-linejoin="round" stroke-miterlimit="10" points="
		75.6,582.8 75.6,582.8 75.6,565.6 	"/>
	<polygon clip-path="url(#SVGID_2_)" fill="#ADD8E6" points="75.6,565.6 75.6,565.6 75.6,548.4 	"/>
	
		<polygon clip-path="url(#SVGID_2_)" fill="none" stroke="#0000FF" stroke-width="1.06" stroke-linejoin="round" stroke-miterlimit="10" points="
		75.6,565.6 75.6,565.6 75.6,548.4 	"/>
	<polygon clip-path="url(#SVGID_2_)" fill="#ADD8E6" points="75.6,548.4 75.6,548.4 75.6,531.2 	"/>
	
		<polygon clip-path="url(#SVGID_2_)" fill="none" stroke="#0000FF" stroke-width="1.06" stroke-linejoin="round" stroke-miterlimit="10" points="
		75.6,548.4 75.6,548.4 75.6,531.2 	"/>
	<polygon clip-path="url(#SVGID_2_)" fill="#ADD8E6" points="75.6,531.2 75.6,531.2 75.6,514 	"/>
	
		<polygon clip-path="url(#SVGID_2_)" fill="none" stroke="#0000FF" stroke-width="1.06" stroke-linejoin="round" stroke-miterlimit="10" points="
		75.6,531.2 75.6,531.2 75.6,514 	"/>
	<polygon clip-path="url(#SVGID_2_)" fill="#ADD8E6" points="75.6,514 75.6,514 75.6,496.8 	"/>
	
		<polygon clip-path="url(#SVGID_2_)" fill="none" stroke="#0000FF" stroke-width="1.06" stroke-linejoin="round" stroke-miterlimit="10" points="
		75.6,514 75.6,514 75.6,496.8 	"/>
	<rect x="75.6" y="479.7" clip-path="url(#SVGID_2_)" fill="#ADD8E6" width="293.5" height="17.2"/>
	
		<rect x="75.6" y="479.7" clip-path="url(#SVGID_2_)" fill="none" stroke="#0000FF" stroke-width="1.06" stroke-linejoin="round" stroke-miterlimit="10" width="293.5" height="17.2"/>
	<polygon clip-path="url(#SVGID_2_)" fill="#ADD8E6" points="75.6,479.6 75.6,479.6 75.6,462.5 	"/>
	
		<polygon clip-path="url(#SVGID_2_)" fill="none" stroke="#0000FF" stroke-width="1.06" stroke-linejoin="round" stroke-miterlimit="10" points="
		75.6,479.6 75.6,479.6 75.6,462.5 	"/>
	<polygon clip-path="url(#SVGID_2_)" fill="#ADD8E6" points="75.6,462.5 75.6,462.5 75.6,445.3 	"/>
	
		<polygon clip-path="url(#SVGID_2_)" fill="none" stroke="#0000FF" stroke-width="1.06" stroke-linejoin="round" stroke-miterlimit="10" points="
		75.6,462.5 75.6,462.5 75.6,445.3 	"/>
	<polygon clip-path="url(#SVGID_2_)" fill="#ADD8E6" points="75.6,445.3 75.6,445.3 75.6,428.1 	"/>
	
		<polygon clip-path="url(#SVGID_2_)" fill="none" stroke="#0000FF" stroke-width="1.06" stroke-linejoin="round" stroke-miterlimit="10" points="
		75.6,445.3 75.6,445.3 75.6,428.1 	"/>
	<rect x="75.6" y="410.9" clip-path="url(#SVGID_2_)" fill="#ADD8E6" width="293.5" height="17.2"/>
	
		<rect x="75.6" y="410.9" clip-path="url(#SVGID_2_)" fill="none" stroke="#0000FF" stroke-width="1.06" stroke-linejoin="round" stroke-miterlimit="10" width="293.5" height="17.2"/>
	<polygon clip-path="url(#SVGID_2_)" fill="#ADD8E6" points="75.6,410.9 75.6,410.9 75.6,393.7 	"/>
	
		<polygon clip-path="url(#SVGID_2_)" fill="none" stroke="#0000FF" stroke-width="1.06" stroke-linejoin="round" stroke-miterlimit="10" points="
		75.6,410.9 75.6,410.9 75.6,393.7 	"/>
	<polygon clip-path="url(#SVGID_2_)" fill="#ADD8E6" points="75.6,393.7 75.6,393.7 75.6,376.5 	"/>
	
		<polygon clip-path="url(#SVGID_2_)" fill="none" stroke="#0000FF" stroke-width="1.06" stroke-linejoin="round" stroke-miterlimit="10" points="
		75.6,393.7 75.6,393.7 75.6,376.5 	"/>
	<polygon clip-path="url(#SVGID_2_)" fill="#ADD8E6" points="75.6,376.5 75.6,376.5 75.6,359.4 	"/>
	
		<polygon clip-path="url(#SVGID_2_)" fill="none" stroke="#0000FF" stroke-width="1.06" stroke-linejoin="round" stroke-miterlimit="10" points="
		75.6,376.5 75.6,376.5 75.6,359.4 	"/>
	<rect x="75.6" y="342.2" clip-path="url(#SVGID_2_)" fill="#ADD8E6" width="586.9" height="17.2"/>
	
		<rect x="75.6" y="342.2" clip-path="url(#SVGID_2_)" fill="none" stroke="#0000FF" stroke-width="1.06" stroke-linejoin="round" stroke-miterlimit="10" width="586.9" height="17.2"/>
	<polygon clip-path="url(#SVGID_2_)" fill="#ADD8E6" points="75.6,342.2 75.6,342.2 75.6,325 	"/>
	
		<polygon clip-path="url(#SVGID_2_)" fill="none" stroke="#0000FF" stroke-width="1.06" stroke-linejoin="round" stroke-miterlimit="10" points="
		75.6,342.2 75.6,342.2 75.6,325 	"/>
	<rect x="75.6" y="307.8" clip-path="url(#SVGID_2_)" fill="#ADD8E6" width="586.9" height="17.2"/>
	
		<rect x="75.6" y="307.8" clip-path="url(#SVGID_2_)" fill="none" stroke="#0000FF" stroke-width="1.06" stroke-linejoin="round" stroke-miterlimit="10" width="586.9" height="17.2"/>
	<polygon clip-path="url(#SVGID_2_)" fill="#ADD8E6" points="75.6,307.8 75.6,307.8 75.6,290.6 	"/>
	
		<polygon clip-path="url(#SVGID_2_)" fill="none" stroke="#0000FF" stroke-width="1.06" stroke-linejoin="round" stroke-miterlimit="10" points="
		75.6,307.8 75.6,307.8 75.6,290.6 	"/>
	<rect x="75.6" y="273.4" clip-path="url(#SVGID_2_)" fill="#ADD8E6" width="293.5" height="17.2"/>
	
		<rect x="75.6" y="273.4" clip-path="url(#SVGID_2_)" fill="none" stroke="#0000FF" stroke-width="1.06" stroke-linejoin="round" stroke-miterlimit="10" width="293.5" height="17.2"/>
	<polygon clip-path="url(#SVGID_2_)" fill="#ADD8E6" points="75.6,273.4 75.6,273.4 75.6,256.2 	"/>
	
		<polygon clip-path="url(#SVGID_2_)" fill="none" stroke="#0000FF" stroke-width="1.06" stroke-linejoin="round" stroke-miterlimit="10" points="
		75.6,273.4 75.6,273.4 75.6,256.2 	"/>
	<rect x="75.6" y="239.1" clip-path="url(#SVGID_2_)" fill="#ADD8E6" width="586.9" height="17.2"/>
	
		<rect x="75.6" y="239.1" clip-path="url(#SVGID_2_)" fill="none" stroke="#0000FF" stroke-width="1.06" stroke-linejoin="round" stroke-miterlimit="10" width="586.9" height="17.2"/>
	<rect x="75.6" y="221.9" clip-path="url(#SVGID_2_)" fill="#ADD8E6" width="293.5" height="17.2"/>
	
		<rect x="75.6" y="221.9" clip-path="url(#SVGID_2_)" fill="none" stroke="#0000FF" stroke-width="1.06" stroke-linejoin="round" stroke-miterlimit="10" width="293.5" height="17.2"/>
	<rect x="75.6" y="204.7" clip-path="url(#SVGID_2_)" fill="#ADD8E6" width="293.5" height="17.2"/>
	
		<rect x="75.6" y="204.7" clip-path="url(#SVGID_2_)" fill="none" stroke="#0000FF" stroke-width="1.06" stroke-linejoin="round" stroke-miterlimit="10" width="293.5" height="17.2"/>
	<polygon clip-path="url(#SVGID_2_)" fill="#ADD8E6" points="75.6,204.7 75.6,204.7 75.6,187.5 	"/>
	
		<polygon clip-path="url(#SVGID_2_)" fill="none" stroke="#0000FF" stroke-width="1.06" stroke-linejoin="round" stroke-miterlimit="10" points="
		75.6,204.7 75.6,204.7 75.6,187.5 	"/>
	<rect x="75.6" y="170.3" clip-path="url(#SVGID_2_)" fill="#ADD8E6" width="293.5" height="17.2"/>
	
		<rect x="75.6" y="170.3" clip-path="url(#SVGID_2_)" fill="none" stroke="#0000FF" stroke-width="1.06" stroke-linejoin="round" stroke-miterlimit="10" width="293.5" height="17.2"/>
	<polygon clip-path="url(#SVGID_2_)" fill="#ADD8E6" points="75.6,170.3 75.6,170.3 75.6,153.1 	"/>
	
		<polygon clip-path="url(#SVGID_2_)" fill="none" stroke="#0000FF" stroke-width="1.06" stroke-linejoin="round" stroke-miterlimit="10" points="
		75.6,170.3 75.6,170.3 75.6,153.1 	"/>
	<polygon clip-path="url(#SVGID_2_)" fill="#ADD8E6" points="75.6,153.1 75.6,153.1 75.6,136 	"/>
	
		<polygon clip-path="url(#SVGID_2_)" fill="none" stroke="#0000FF" stroke-width="1.06" stroke-linejoin="round" stroke-miterlimit="10" points="
		75.6,153.1 75.6,153.1 75.6,136 	"/>
	<polygon clip-path="url(#SVGID_2_)" fill="#ADD8E6" points="75.6,135.9 75.6,135.9 75.6,118.8 	"/>
	
		<polygon clip-path="url(#SVGID_2_)" fill="none" stroke="#0000FF" stroke-width="1.06" stroke-linejoin="round" stroke-miterlimit="10" points="
		75.6,135.9 75.6,135.9 75.6,118.8 	"/>
	<polygon clip-path="url(#SVGID_2_)" fill="#ADD8E6" points="75.6,118.8 75.6,118.8 75.6,101.6 	"/>
	
		<polygon clip-path="url(#SVGID_2_)" fill="none" stroke="#0000FF" stroke-width="1.06" stroke-linejoin="round" stroke-miterlimit="10" points="
		75.6,118.8 75.6,118.8 75.6,101.6 	"/>
	<rect x="75.6" y="84.4" clip-path="url(#SVGID_2_)" fill="#ADD8E6" width="880.4" height="17.2"/>
	
		<rect x="75.6" y="84.4" clip-path="url(#SVGID_2_)" fill="none" stroke="#0000FF" stroke-width="1.06" stroke-linejoin="round" stroke-miterlimit="10" width="880.4" height="17.2"/>
	<rect x="75.6" y="67.2" clip-path="url(#SVGID_2_)" fill="#ADD8E6" width="293.5" height="17.2"/>
	
		<rect x="75.6" y="67.2" clip-path="url(#SVGID_2_)" fill="none" stroke="#0000FF" stroke-width="1.06" stroke-linejoin="round" stroke-miterlimit="10" width="293.5" height="17.2"/>
	<polygon clip-path="url(#SVGID_2_)" fill="#ADD8E6" points="75.6,67.2 75.6,67.2 75.6,50 	"/>
	
		<polygon clip-path="url(#SVGID_2_)" fill="none" stroke="#0000FF" stroke-width="1.06" stroke-linejoin="round" stroke-miterlimit="10" points="
		75.6,67.2 75.6,67.2 75.6,50 	"/>
</g>
<text transform="matrix(1 0 0 1 16.5478 513.5596)" fill="#7F7F7F" font-family="'Helvetica'" font-size="11.8978">1</text>
<text transform="matrix(1 0 0 1 16.5478 371.332)" fill="#7F7F7F" font-family="'Helvetica'" font-size="11.8978">2</text>
<text transform="matrix(1 0 0 1 16.5478 229.1055)" fill="#7F7F7F" font-family="'Helvetica'" font-size="11.8978">3</text>
<text transform="matrix(1 0 0 1 16.5478 86.8906)" fill="#7F7F7F" font-family="'Helvetica'" font-size="11.8978">4</text>
<line fill="none" stroke="#7F7F7F" stroke-width="1.06" stroke-linejoin="round" stroke-miterlimit="10" x1="26.5" y1="509.3" x2="31.6" y2="509.3"/>
<line fill="none" stroke="#7F7F7F" stroke-width="1.06" stroke-linejoin="round" stroke-miterlimit="10" x1="26.5" y1="367.1" x2="31.6" y2="367.1"/>
<line fill="none" stroke="#7F7F7F" stroke-width="1.06" stroke-linejoin="round" stroke-miterlimit="10" x1="26.5" y1="224.8" x2="31.6" y2="224.8"/>
<line fill="none" stroke="#7F7F7F" stroke-width="1.06" stroke-linejoin="round" stroke-miterlimit="10" x1="26.5" y1="82.6" x2="31.6" y2="82.6"/>
<line fill="none" stroke="#7F7F7F" stroke-width="1.06" stroke-linejoin="round" stroke-miterlimit="10" x1="75.6" y1="650.6" x2="75.6" y2="645.5"/>
<line fill="none" stroke="#7F7F7F" stroke-width="1.06" stroke-linejoin="round" stroke-miterlimit="10" x1="369.1" y1="650.6" x2="369.1" y2="645.5"/>
<line fill="none" stroke="#7F7F7F" stroke-width="1.06" stroke-linejoin="round" stroke-miterlimit="10" x1="662.5" y1="650.6" x2="662.5" y2="645.5"/>
<line fill="none" stroke="#7F7F7F" stroke-width="1.06" stroke-linejoin="round" stroke-miterlimit="10" x1="956" y1="650.6" x2="956" y2="645.5"/>
<text transform="matrix(1 0 0 1 72.3017 662.4609)" fill="#7F7F7F" font-family="'Helvetica'" font-size="11.8978">0</text>
<text transform="matrix(1 0 0 1 365.7617 662.4609)" fill="#7F7F7F" font-family="'Helvetica'" font-size="11.8978">1</text>
<text transform="matrix(1 0 0 1 659.2213 662.4609)" fill="#7F7F7F" font-family="'Helvetica'" font-size="11.8978">2</text>
<text transform="matrix(1 0 0 1 952.6705 662.4609)" fill="#7F7F7F" font-family="'Helvetica'" font-size="11.8978">3</text>
<text transform="matrix(1 0 0 1 498.3404 677)" font-family="'Helvetica'" font-size="14.2774">count</text>
<text transform="matrix(-6.123236e-17 -1 1 -6.123234e-17 12.265 345.8119)"><tspan x="0" y="0" font-family="'Helvetica'" font-size="14.2774">r</tspan><tspan x="4.6" y="0" font-family="'Helvetica'" font-size="14.2774">ate</tspan></text>
</svg>
