<?xml version="1.0" encoding="utf-8"?>
<!-- Generator: Adobe Illustrator 18.1.0, SVG Export Plug-In . SVG Version: 6.00 Build 0)  -->
<svg version="1.1" id="Layer_1" xmlns="http://www.w3.org/2000/svg" xmlns:xlink="http://www.w3.org/1999/xlink" x="0px" y="0px"
	 viewBox="0 0 1000 694.7" enable-background="new 0 0 1000 694.7" xml:space="preserve">
<g>
	<defs>
		<rect id="SVGID_1_" x="38.2" y="19.7" width="961.8" height="623.8"/>
	</defs>
	<clipPath id="SVGID_2_">
		<use xlink:href="#SVGID_1_"  overflow="visible"/>
	</clipPath>
	<rect x="38.2" y="19.7" clip-path="url(#SVGID_2_)" fill="#E5E5E5" width="961.8" height="623.8"/>
	
		<line clip-path="url(#SVGID_2_)" fill="none" stroke="#F2F2F2" stroke-width="0.53" stroke-linejoin="round" stroke-miterlimit="10" x1="38.2" y1="540.5" x2="1000" y2="540.5"/>
	
		<line clip-path="url(#SVGID_2_)" fill="none" stroke="#F2F2F2" stroke-width="0.53" stroke-linejoin="round" stroke-miterlimit="10" x1="38.2" y1="391.3" x2="1000" y2="391.3"/>
	
		<line clip-path="url(#SVGID_2_)" fill="none" stroke="#F2F2F2" stroke-width="0.53" stroke-linejoin="round" stroke-miterlimit="10" x1="38.2" y1="242" x2="1000" y2="242"/>
	
		<line clip-path="url(#SVGID_2_)" fill="none" stroke="#F2F2F2" stroke-width="0.53" stroke-linejoin="round" stroke-miterlimit="10" x1="38.2" y1="92.8" x2="1000" y2="92.8"/>
	
		<line clip-path="url(#SVGID_2_)" fill="none" stroke="#F2F2F2" stroke-width="0.53" stroke-linejoin="round" stroke-miterlimit="10" x1="192.1" y1="643.5" x2="192.1" y2="19.7"/>
	
		<line clip-path="url(#SVGID_2_)" fill="none" stroke="#F2F2F2" stroke-width="0.53" stroke-linejoin="round" stroke-miterlimit="10" x1="359.4" y1="643.5" x2="359.4" y2="19.7"/>
	
		<line clip-path="url(#SVGID_2_)" fill="none" stroke="#F2F2F2" stroke-width="0.53" stroke-linejoin="round" stroke-miterlimit="10" x1="526.8" y1="643.5" x2="526.8" y2="19.7"/>
	
		<line clip-path="url(#SVGID_2_)" fill="none" stroke="#F2F2F2" stroke-width="0.53" stroke-linejoin="round" stroke-miterlimit="10" x1="694.1" y1="643.5" x2="694.1" y2="19.7"/>
	
		<line clip-path="url(#SVGID_2_)" fill="none" stroke="#F2F2F2" stroke-width="0.53" stroke-linejoin="round" stroke-miterlimit="10" x1="861.4" y1="643.5" x2="861.4" y2="19.7"/>
	
		<line clip-path="url(#SVGID_2_)" fill="none" stroke="#FFFFFF" stroke-width="1.06" stroke-linejoin="round" stroke-miterlimit="10" x1="38.2" y1="615.1" x2="1000" y2="615.1"/>
	
		<line clip-path="url(#SVGID_2_)" fill="none" stroke="#FFFFFF" stroke-width="1.06" stroke-linejoin="round" stroke-miterlimit="10" x1="38.2" y1="465.9" x2="1000" y2="465.9"/>
	
		<line clip-path="url(#SVGID_2_)" fill="none" stroke="#FFFFFF" stroke-width="1.06" stroke-linejoin="round" stroke-miterlimit="10" x1="38.2" y1="316.7" x2="1000" y2="316.7"/>
	
		<line clip-path="url(#SVGID_2_)" fill="none" stroke="#FFFFFF" stroke-width="1.06" stroke-linejoin="round" stroke-miterlimit="10" x1="38.2" y1="167.4" x2="1000" y2="167.4"/>
	
		<line clip-path="url(#SVGID_2_)" fill="none" stroke="#FFFFFF" stroke-width="1.06" stroke-linejoin="round" stroke-miterlimit="10" x1="108.4" y1="643.5" x2="108.4" y2="19.7"/>
	
		<line clip-path="url(#SVGID_2_)" fill="none" stroke="#FFFFFF" stroke-width="1.06" stroke-linejoin="round" stroke-miterlimit="10" x1="275.8" y1="643.5" x2="275.8" y2="19.7"/>
	
		<line clip-path="url(#SVGID_2_)" fill="none" stroke="#FFFFFF" stroke-width="1.06" stroke-linejoin="round" stroke-miterlimit="10" x1="443.1" y1="643.5" x2="443.1" y2="19.7"/>
	
		<line clip-path="url(#SVGID_2_)" fill="none" stroke="#FFFFFF" stroke-width="1.06" stroke-linejoin="round" stroke-miterlimit="10" x1="610.4" y1="643.5" x2="610.4" y2="19.7"/>
	
		<line clip-path="url(#SVGID_2_)" fill="none" stroke="#FFFFFF" stroke-width="1.06" stroke-linejoin="round" stroke-miterlimit="10" x1="777.8" y1="643.5" x2="777.8" y2="19.7"/>
	
		<line clip-path="url(#SVGID_2_)" fill="none" stroke="#FFFFFF" stroke-width="1.06" stroke-linejoin="round" stroke-miterlimit="10" x1="945.1" y1="643.5" x2="945.1" y2="19.7"/>
	<path clip-path="url(#SVGID_2_)" fill="#ADD8E6" d="M81.9,615.1h26.5H81.9z"/>
	
		<path clip-path="url(#SVGID_2_)" fill="none" stroke="#0000FF" stroke-width="1.06" stroke-linejoin="round" stroke-miterlimit="10" d="
		M81.9,615.1h26.5H81.9z"/>
	<rect x="108.4" y="48" clip-path="url(#SVGID_2_)" fill="#ADD8E6" width="26.5" height="567.1"/>
	
		<rect x="108.4" y="48" clip-path="url(#SVGID_2_)" fill="none" stroke="#0000FF" stroke-width="1.06" stroke-linejoin="round" stroke-miterlimit="10" width="26.5" height="567.1"/>
	<path clip-path="url(#SVGID_2_)" fill="#ADD8E6" d="M134.9,615.1h26.5H134.9z"/>
	
		<path clip-path="url(#SVGID_2_)" fill="none" stroke="#0000FF" stroke-width="1.06" stroke-linejoin="round" stroke-miterlimit="10" d="
		M134.9,615.1h26.5H134.9z"/>
	<rect x="161.4" y="555.4" clip-path="url(#SVGID_2_)" fill="#ADD8E6" width="26.5" height="59.7"/>
	
		<rect x="161.4" y="555.4" clip-path="url(#SVGID_2_)" fill="none" stroke="#0000FF" stroke-width="1.06" stroke-linejoin="round" stroke-miterlimit="10" width="26.5" height="59.7"/>
	<path clip-path="url(#SVGID_2_)" fill="#ADD8E6" d="M187.9,615.1h26.5H187.9z"/>
	
		<path clip-path="url(#SVGID_2_)" fill="none" stroke="#0000FF" stroke-width="1.06" stroke-linejoin="round" stroke-miterlimit="10" d="
		M187.9,615.1h26.5H187.9z"/>
	<path clip-path="url(#SVGID_2_)" fill="#ADD8E6" d="M214.4,615.1h26.5H214.4z"/>
	
		<path clip-path="url(#SVGID_2_)" fill="none" stroke="#0000FF" stroke-width="1.06" stroke-linejoin="round" stroke-miterlimit="10" d="
		M214.4,615.1h26.5H214.4z"/>
	<rect x="240.9" y="495.7" clip-path="url(#SVGID_2_)" fill="#ADD8E6" width="26.5" height="119.4"/>
	
		<rect x="240.9" y="495.7" clip-path="url(#SVGID_2_)" fill="none" stroke="#0000FF" stroke-width="1.06" stroke-linejoin="round" stroke-miterlimit="10" width="26.5" height="119.4"/>
	<path clip-path="url(#SVGID_2_)" fill="#ADD8E6" d="M267.4,615.1h26.5H267.4z"/>
	
		<path clip-path="url(#SVGID_2_)" fill="none" stroke="#0000FF" stroke-width="1.06" stroke-linejoin="round" stroke-miterlimit="10" d="
		M267.4,615.1h26.5H267.4z"/>
	<rect x="293.9" y="525.6" clip-path="url(#SVGID_2_)" fill="#ADD8E6" width="26.5" height="89.5"/>
	
		<rect x="293.9" y="525.6" clip-path="url(#SVGID_2_)" fill="none" stroke="#0000FF" stroke-width="1.06" stroke-linejoin="round" stroke-miterlimit="10" width="26.5" height="89.5"/>
	<rect x="320.4" y="525.6" clip-path="url(#SVGID_2_)" fill="#ADD8E6" width="26.5" height="89.5"/>
	
		<rect x="320.4" y="525.6" clip-path="url(#SVGID_2_)" fill="none" stroke="#0000FF" stroke-width="1.06" stroke-linejoin="round" stroke-miterlimit="10" width="26.5" height="89.5"/>
	<path clip-path="url(#SVGID_2_)" fill="#ADD8E6" d="M346.9,615.1h26.5H346.9z"/>
	
		<path clip-path="url(#SVGID_2_)" fill="none" stroke="#0000FF" stroke-width="1.06" stroke-linejoin="round" stroke-miterlimit="10" d="
		M346.9,615.1h26.5H346.9z"/>
	<rect x="373.4" y="555.4" clip-path="url(#SVGID_2_)" fill="#ADD8E6" width="26.5" height="59.7"/>
	
		<rect x="373.4" y="555.4" clip-path="url(#SVGID_2_)" fill="none" stroke="#0000FF" stroke-width="1.06" stroke-linejoin="round" stroke-miterlimit="10" width="26.5" height="59.7"/>
	<rect x="399.9" y="495.7" clip-path="url(#SVGID_2_)" fill="#ADD8E6" width="26.5" height="119.4"/>
	
		<rect x="399.9" y="495.7" clip-path="url(#SVGID_2_)" fill="none" stroke="#0000FF" stroke-width="1.06" stroke-linejoin="round" stroke-miterlimit="10" width="26.5" height="119.4"/>
	<rect x="426.4" y="585.3" clip-path="url(#SVGID_2_)" fill="#ADD8E6" width="26.5" height="29.9"/>
	
		<rect x="426.4" y="585.3" clip-path="url(#SVGID_2_)" fill="none" stroke="#0000FF" stroke-width="1.06" stroke-linejoin="round" stroke-miterlimit="10" width="26.5" height="29.9"/>
	<rect x="452.9" y="555.4" clip-path="url(#SVGID_2_)" fill="#ADD8E6" width="26.5" height="59.7"/>
	
		<rect x="452.9" y="555.4" clip-path="url(#SVGID_2_)" fill="none" stroke="#0000FF" stroke-width="1.06" stroke-linejoin="round" stroke-miterlimit="10" width="26.5" height="59.7"/>
	<path clip-path="url(#SVGID_2_)" fill="#ADD8E6" d="M479.4,615.1h26.5H479.4z"/>
	
		<path clip-path="url(#SVGID_2_)" fill="none" stroke="#0000FF" stroke-width="1.06" stroke-linejoin="round" stroke-miterlimit="10" d="
		M479.4,615.1h26.5H479.4z"/>
	<rect x="505.9" y="555.4" clip-path="url(#SVGID_2_)" fill="#ADD8E6" width="26.5" height="59.7"/>
	
		<rect x="505.9" y="555.4" clip-path="url(#SVGID_2_)" fill="none" stroke="#0000FF" stroke-width="1.06" stroke-linejoin="round" stroke-miterlimit="10" width="26.5" height="59.7"/>
	<rect x="532.4" y="555.4" clip-path="url(#SVGID_2_)" fill="#ADD8E6" width="26.5" height="59.7"/>
	
		<rect x="532.4" y="555.4" clip-path="url(#SVGID_2_)" fill="none" stroke="#0000FF" stroke-width="1.06" stroke-linejoin="round" stroke-miterlimit="10" width="26.5" height="59.7"/>
	<path clip-path="url(#SVGID_2_)" fill="#ADD8E6" d="M558.8,615.1h26.5H558.8z"/>
	
		<path clip-path="url(#SVGID_2_)" fill="none" stroke="#0000FF" stroke-width="1.06" stroke-linejoin="round" stroke-miterlimit="10" d="
		M558.8,615.1h26.5H558.8z"/>
	<rect x="585.3" y="495.7" clip-path="url(#SVGID_2_)" fill="#ADD8E6" width="26.5" height="119.4"/>
	
		<rect x="585.3" y="495.7" clip-path="url(#SVGID_2_)" fill="none" stroke="#0000FF" stroke-width="1.06" stroke-linejoin="round" stroke-miterlimit="10" width="26.5" height="119.4"/>
	<rect x="611.8" y="495.7" clip-path="url(#SVGID_2_)" fill="#ADD8E6" width="26.5" height="119.4"/>
	
		<rect x="611.8" y="495.7" clip-path="url(#SVGID_2_)" fill="none" stroke="#0000FF" stroke-width="1.06" stroke-linejoin="round" stroke-miterlimit="10" width="26.5" height="119.4"/>
	<rect x="638.3" y="585.3" clip-path="url(#SVGID_2_)" fill="#ADD8E6" width="26.5" height="29.9"/>
	
		<rect x="638.3" y="585.3" clip-path="url(#SVGID_2_)" fill="none" stroke="#0000FF" stroke-width="1.06" stroke-linejoin="round" stroke-miterlimit="10" width="26.5" height="29.9"/>
	<rect x="664.8" y="525.6" clip-path="url(#SVGID_2_)" fill="#ADD8E6" width="26.5" height="89.5"/>
	
		<rect x="664.8" y="525.6" clip-path="url(#SVGID_2_)" fill="none" stroke="#0000FF" stroke-width="1.06" stroke-linejoin="round" stroke-miterlimit="10" width="26.5" height="89.5"/>
	<rect x="691.3" y="495.7" clip-path="url(#SVGID_2_)" fill="#ADD8E6" width="26.5" height="119.4"/>
	
		<rect x="691.3" y="495.7" clip-path="url(#SVGID_2_)" fill="none" stroke="#0000FF" stroke-width="1.06" stroke-linejoin="round" stroke-miterlimit="10" width="26.5" height="119.4"/>
	<rect x="717.8" y="555.4" clip-path="url(#SVGID_2_)" fill="#ADD8E6" width="26.5" height="59.7"/>
	
		<rect x="717.8" y="555.4" clip-path="url(#SVGID_2_)" fill="none" stroke="#0000FF" stroke-width="1.06" stroke-linejoin="round" stroke-miterlimit="10" width="26.5" height="59.7"/>
	<rect x="744.3" y="436" clip-path="url(#SVGID_2_)" fill="#ADD8E6" width="26.5" height="179.1"/>
	
		<rect x="744.3" y="436" clip-path="url(#SVGID_2_)" fill="none" stroke="#0000FF" stroke-width="1.06" stroke-linejoin="round" stroke-miterlimit="10" width="26.5" height="179.1"/>
	<rect x="770.8" y="465.9" clip-path="url(#SVGID_2_)" fill="#ADD8E6" width="26.5" height="149.2"/>
	
		<rect x="770.8" y="465.9" clip-path="url(#SVGID_2_)" fill="none" stroke="#0000FF" stroke-width="1.06" stroke-linejoin="round" stroke-miterlimit="10" width="26.5" height="149.2"/>
	<rect x="797.3" y="495.7" clip-path="url(#SVGID_2_)" fill="#ADD8E6" width="26.5" height="119.4"/>
	
		<rect x="797.3" y="495.7" clip-path="url(#SVGID_2_)" fill="none" stroke="#0000FF" stroke-width="1.06" stroke-linejoin="round" stroke-miterlimit="10" width="26.5" height="119.4"/>
	<rect x="823.8" y="585.3" clip-path="url(#SVGID_2_)" fill="#ADD8E6" width="26.5" height="29.9"/>
	
		<rect x="823.8" y="585.3" clip-path="url(#SVGID_2_)" fill="none" stroke="#0000FF" stroke-width="1.06" stroke-linejoin="round" stroke-miterlimit="10" width="26.5" height="29.9"/>
	<path clip-path="url(#SVGID_2_)" fill="#ADD8E6" d="M850.3,615.1h26.5H850.3z"/>
	
		<path clip-path="url(#SVGID_2_)" fill="none" stroke="#0000FF" stroke-width="1.06" stroke-linejoin="round" stroke-miterlimit="10" d="
		M850.3,615.1h26.5H850.3z"/>
	<path clip-path="url(#SVGID_2_)" fill="#ADD8E6" d="M876.8,615.1h26.5H876.8z"/>
	
		<path clip-path="url(#SVGID_2_)" fill="none" stroke="#0000FF" stroke-width="1.06" stroke-linejoin="round" stroke-miterlimit="10" d="
		M876.8,615.1h26.5H876.8z"/>
	<rect x="903.3" y="376.3" clip-path="url(#SVGID_2_)" fill="#ADD8E6" width="26.5" height="238.8"/>
	
		<rect x="903.3" y="376.3" clip-path="url(#SVGID_2_)" fill="none" stroke="#0000FF" stroke-width="1.06" stroke-linejoin="round" stroke-miterlimit="10" width="26.5" height="238.8"/>
	<path clip-path="url(#SVGID_2_)" fill="#ADD8E6" d="M929.8,615.1h26.5H929.8z"/>
	
		<path clip-path="url(#SVGID_2_)" fill="none" stroke="#0000FF" stroke-width="1.06" stroke-linejoin="round" stroke-miterlimit="10" d="
		M929.8,615.1h26.5H929.8z"/>
</g>
<text transform="matrix(1 0 0 1 23.1578 619.4004)" fill="#7F7F7F" font-family="'Helvetica'" font-size="11.8979">0</text>
<text transform="matrix(1 0 0 1 23.1578 470.165)" fill="#7F7F7F" font-family="'Helvetica'" font-size="11.8979">5</text>
<text transform="matrix(1 0 0 1 16.5425 320.9297)" fill="#7F7F7F" font-family="'Helvetica'" font-size="11.8979">10</text>
<text transform="matrix(1 0 0 1 16.5425 171.6812)" fill="#7F7F7F" font-family="'Helvetica'" font-size="11.8979">15</text>
<line fill="none" stroke="#7F7F7F" stroke-width="1.06" stroke-linejoin="round" stroke-miterlimit="10" x1="33.1" y1="615.1" x2="38.2" y2="615.1"/>
<line fill="none" stroke="#7F7F7F" stroke-width="1.06" stroke-linejoin="round" stroke-miterlimit="10" x1="33.1" y1="465.9" x2="38.2" y2="465.9"/>
<line fill="none" stroke="#7F7F7F" stroke-width="1.06" stroke-linejoin="round" stroke-miterlimit="10" x1="33.1" y1="316.7" x2="38.2" y2="316.7"/>
<line fill="none" stroke="#7F7F7F" stroke-width="1.06" stroke-linejoin="round" stroke-miterlimit="10" x1="33.1" y1="167.4" x2="38.2" y2="167.4"/>
<line fill="none" stroke="#7F7F7F" stroke-width="1.06" stroke-linejoin="round" stroke-miterlimit="10" x1="108.4" y1="648.6" x2="108.4" y2="643.5"/>
<line fill="none" stroke="#7F7F7F" stroke-width="1.06" stroke-linejoin="round" stroke-miterlimit="10" x1="275.8" y1="648.6" x2="275.8" y2="643.5"/>
<line fill="none" stroke="#7F7F7F" stroke-width="1.06" stroke-linejoin="round" stroke-miterlimit="10" x1="443.1" y1="648.6" x2="443.1" y2="643.5"/>
<line fill="none" stroke="#7F7F7F" stroke-width="1.06" stroke-linejoin="round" stroke-miterlimit="10" x1="610.4" y1="648.6" x2="610.4" y2="643.5"/>
<line fill="none" stroke="#7F7F7F" stroke-width="1.06" stroke-linejoin="round" stroke-miterlimit="10" x1="777.8" y1="648.6" x2="777.8" y2="643.5"/>
<line fill="none" stroke="#7F7F7F" stroke-width="1.06" stroke-linejoin="round" stroke-miterlimit="10" x1="945.1" y1="648.6" x2="945.1" y2="643.5"/>
<text transform="matrix(1 0 0 1 105.1099 660.4609)" fill="#7F7F7F" font-family="'Helvetica'" font-size="11.8979">0</text>
<text transform="matrix(1 0 0 1 272.4429 660.4609)" fill="#7F7F7F" font-family="'Helvetica'" font-size="11.8979">1</text>
<text transform="matrix(1 0 0 1 439.7872 660.4609)" fill="#7F7F7F" font-family="'Helvetica'" font-size="11.8979">2</text>
<text transform="matrix(1 0 0 1 607.1309 660.4609)" fill="#7F7F7F" font-family="'Helvetica'" font-size="11.8979">3</text>
<text transform="matrix(1 0 0 1 774.4747 660.4609)" fill="#7F7F7F" font-family="'Helvetica'" font-size="11.8979">4</text>
<text transform="matrix(1 0 0 1 941.8204 660.4609)" fill="#7F7F7F" font-family="'Helvetica'" font-size="11.8979">5</text>
<text transform="matrix(1 0 0 1 506.8672 675)"><tspan x="0" y="0" font-family="'Helvetica'" font-size="14.2775">r</tspan><tspan x="4.6" y="0" font-family="'Helvetica'" font-size="14.2775">ate</tspan></text>
<text transform="matrix(-6.123234e-17 -1 1 -6.123234e-17 12.2597 349.0326)" font-family="'Helvetica'" font-size="14.2775">count</text>
</svg>
