<?xml version="1.0" encoding="utf-8"?>
<!-- Generator: Adobe Illustrator 18.1.0, SVG Export Plug-In . SVG Version: 6.00 Build 0)  -->
<svg version="1.1" id="Layer_1" xmlns="http://www.w3.org/2000/svg" xmlns:xlink="http://www.w3.org/1999/xlink" x="0px" y="0px"
	 viewBox="0 0 1000 717" enable-background="new 0 0 1000 717" xml:space="preserve">
<rect x="44.4" y="64.4" fill="#0000FF" width="31.9" height="355"/>
<rect x="44.4" y="64.4" fill="none" stroke="#000000" stroke-width="0.75" stroke-linecap="round" stroke-linejoin="round" stroke-miterlimit="10" width="31.9" height="355"/>
<rect x="44.4" y="419.4" fill="#FF0000" width="31.9" height="232.8"/>
<rect x="44.4" y="419.4" fill="none" stroke="#000000" stroke-width="0.75" stroke-linecap="round" stroke-linejoin="round" stroke-miterlimit="10" width="31.9" height="232.8"/>
<rect x="83.6" y="64.4" fill="#0000FF" width="23.7" height="291.9"/>
<rect x="83.6" y="64.4" fill="none" stroke="#000000" stroke-width="0.75" stroke-linecap="round" stroke-linejoin="round" stroke-miterlimit="10" width="23.7" height="291.9"/>
<rect x="83.6" y="356.3" fill="#FF0000" width="23.7" height="295.9"/>
<rect x="83.6" y="356.3" fill="none" stroke="#000000" stroke-width="0.75" stroke-linecap="round" stroke-linejoin="round" stroke-miterlimit="10" width="23.7" height="295.9"/>
<rect x="118.3" y="64.4" fill="#0000FF" width="35.9" height="59"/>
<rect x="118.3" y="64.4" fill="none" stroke="#000000" stroke-width="0.75" stroke-linecap="round" stroke-linejoin="round" stroke-miterlimit="10" width="35.9" height="59"/>
<rect x="118.3" y="123.4" fill="#FF0000" width="35.9" height="528.9"/>
<rect x="118.3" y="123.4" fill="none" stroke="#000000" stroke-width="0.75" stroke-linecap="round" stroke-linejoin="round" stroke-miterlimit="10" width="35.9" height="528.9"/>
<rect x="161.6" y="64.4" fill="#0000FF" width="5" height="587.8"/>
<rect x="161.6" y="64.4" fill="none" stroke="#000000" stroke-width="0.75" stroke-linecap="round" stroke-linejoin="round" stroke-miterlimit="10" width="5" height="587.8"/>
<line fill="none" stroke="#000000" stroke-width="0.75" stroke-linecap="round" stroke-linejoin="round" stroke-miterlimit="10" x1="164.1" y1="652.2" x2="164.1" y2="652.2"/>
<line fill="none" stroke="#000000" stroke-width="0.75" stroke-linecap="round" stroke-linejoin="round" stroke-miterlimit="10" x1="161.6" y1="652.2" x2="166.6" y2="652.2"/>
<path fill="none" stroke="#000000" stroke-width="0.75" stroke-linecap="round" stroke-linejoin="round" stroke-miterlimit="10" d="
	M160.2,652.2c0-2.1,1.7-3.8,3.8-3.8c2.1,0,3.8,1.7,3.8,3.8c0,2.1-1.7,3.8-3.8,3.8C161.9,656.1,160.2,654.3,160.2,652.2"/>
<rect x="177.6" y="64.4" fill="#0000FF" width="37.2" height="282.4"/>
<rect x="177.6" y="64.4" fill="none" stroke="#000000" stroke-width="0.75" stroke-linecap="round" stroke-linejoin="round" stroke-miterlimit="10" width="37.2" height="282.4"/>
<rect x="177.6" y="346.8" fill="#FF0000" width="37.2" height="305.4"/>
<rect x="177.6" y="346.8" fill="none" stroke="#000000" stroke-width="0.75" stroke-linecap="round" stroke-linejoin="round" stroke-miterlimit="10" width="37.2" height="305.4"/>
<rect x="222.1" y="64.4" fill="#0000FF" width="9.6" height="284.1"/>
<rect x="222.1" y="64.4" fill="none" stroke="#000000" stroke-width="0.75" stroke-linecap="round" stroke-linejoin="round" stroke-miterlimit="10" width="9.6" height="284.1"/>
<rect x="222.1" y="348.5" fill="#FF0000" width="9.6" height="303.7"/>
<rect x="222.1" y="348.5" fill="none" stroke="#000000" stroke-width="0.75" stroke-linecap="round" stroke-linejoin="round" stroke-miterlimit="10" width="9.6" height="303.7"/>
<rect x="242.7" y="64.4" fill="#0000FF" width="89.3" height="224.9"/>
<rect x="242.7" y="64.4" fill="none" stroke="#000000" stroke-width="0.75" stroke-linecap="round" stroke-linejoin="round" stroke-miterlimit="10" width="89.3" height="224.9"/>
<rect x="242.7" y="289.3" fill="#FF0000" width="89.3" height="362.9"/>
<rect x="242.7" y="289.3" fill="none" stroke="#000000" stroke-width="0.75" stroke-linecap="round" stroke-linejoin="round" stroke-miterlimit="10" width="89.3" height="362.9"/>
<line fill="none" stroke="#000000" stroke-width="0.75" stroke-linecap="round" stroke-linejoin="round" stroke-miterlimit="10" x1="365.3" y1="64.4" x2="365.3" y2="64.4"/>
<line fill="none" stroke="#000000" stroke-width="0.75" stroke-linecap="round" stroke-linejoin="round" stroke-miterlimit="10" x1="339.3" y1="64.4" x2="391.3" y2="64.4"/>
<path fill="none" stroke="#000000" stroke-width="0.75" stroke-linecap="round" stroke-linejoin="round" stroke-miterlimit="10" d="
	M361.5,64.4c0-2.1,1.7-3.8,3.8-3.8c2.1,0,3.8,1.7,3.8,3.8c0,2.1-1.7,3.8-3.8,3.8C363.2,68.2,361.5,66.5,361.5,64.4"/>
<rect x="339.3" y="64.4" fill="#FF0000" width="51.9" height="587.8"/>
<rect x="339.3" y="64.4" fill="none" stroke="#000000" stroke-width="0.75" stroke-linecap="round" stroke-linejoin="round" stroke-miterlimit="10" width="51.9" height="587.8"/>
<rect x="402.3" y="64.4" fill="#0000FF" width="59.2" height="222"/>
<rect x="402.3" y="64.4" fill="none" stroke="#000000" stroke-width="0.75" stroke-linecap="round" stroke-linejoin="round" stroke-miterlimit="10" width="59.2" height="222"/>
<rect x="402.3" y="286.4" fill="#FF0000" width="59.2" height="365.8"/>
<rect x="402.3" y="286.4" fill="none" stroke="#000000" stroke-width="0.75" stroke-linecap="round" stroke-linejoin="round" stroke-miterlimit="10" width="59.2" height="365.8"/>
<rect x="468.8" y="64.4" fill="#0000FF" width="30.7" height="335.7"/>
<rect x="468.8" y="64.4" fill="none" stroke="#000000" stroke-width="0.75" stroke-linecap="round" stroke-linejoin="round" stroke-miterlimit="10" width="30.7" height="335.7"/>
<rect x="468.8" y="400.1" fill="#FF0000" width="30.7" height="252.1"/>
<rect x="468.8" y="400.1" fill="none" stroke="#000000" stroke-width="0.75" stroke-linecap="round" stroke-linejoin="round" stroke-miterlimit="10" width="30.7" height="252.1"/>
<rect x="510.5" y="64.4" fill="#0000FF" width="58.7" height="451.6"/>
<rect x="510.5" y="64.4" fill="none" stroke="#000000" stroke-width="0.75" stroke-linecap="round" stroke-linejoin="round" stroke-miterlimit="10" width="58.7" height="451.6"/>
<rect x="510.5" y="516" fill="#FF0000" width="58.7" height="136.3"/>
<rect x="510.5" y="516" fill="none" stroke="#000000" stroke-width="0.75" stroke-linecap="round" stroke-linejoin="round" stroke-miterlimit="10" width="58.7" height="136.3"/>
<rect x="576.5" y="64.4" fill="#0000FF" width="113.3" height="527.8"/>
<rect x="576.5" y="64.4" fill="none" stroke="#000000" stroke-width="0.75" stroke-linecap="round" stroke-linejoin="round" stroke-miterlimit="10" width="113.3" height="527.8"/>
<rect x="576.5" y="592.2" fill="#FF0000" width="113.3" height="60"/>
<rect x="576.5" y="592.2" fill="none" stroke="#000000" stroke-width="0.75" stroke-linecap="round" stroke-linejoin="round" stroke-miterlimit="10" width="113.3" height="60"/>
<line fill="none" stroke="#000000" stroke-width="0.75" stroke-linecap="round" stroke-linejoin="round" stroke-miterlimit="10" x1="737.5" y1="64.4" x2="737.5" y2="64.4"/>
<line fill="none" stroke="#000000" stroke-width="0.75" stroke-linecap="round" stroke-linejoin="round" stroke-miterlimit="10" x1="700.8" y1="64.4" x2="774.1" y2="64.4"/>
<path fill="none" stroke="#000000" stroke-width="0.75" stroke-linecap="round" stroke-linejoin="round" stroke-miterlimit="10" d="
	M733.6,64.4c0-2.1,1.7-3.8,3.8-3.8c2.1,0,3.8,1.7,3.8,3.8c0,2.1-1.7,3.8-3.8,3.8C735.4,68.2,733.6,66.5,733.6,64.4"/>
<rect x="700.8" y="64.4" fill="#FF0000" width="73.2" height="587.8"/>
<rect x="700.8" y="64.4" fill="none" stroke="#000000" stroke-width="0.75" stroke-linecap="round" stroke-linejoin="round" stroke-miterlimit="10" width="73.2" height="587.8"/>
<rect x="781.4" y="64.4" fill="#0000FF" width="13.7" height="587.8"/>
<rect x="781.4" y="64.4" fill="none" stroke="#000000" stroke-width="0.75" stroke-linecap="round" stroke-linejoin="round" stroke-miterlimit="10" width="13.7" height="587.8"/>
<line fill="none" stroke="#000000" stroke-width="0.75" stroke-linecap="round" stroke-linejoin="round" stroke-miterlimit="10" x1="788.3" y1="652.2" x2="788.3" y2="652.2"/>
<line fill="none" stroke="#000000" stroke-width="0.75" stroke-linecap="round" stroke-linejoin="round" stroke-miterlimit="10" x1="781.4" y1="652.2" x2="795.1" y2="652.2"/>
<path fill="none" stroke="#000000" stroke-width="0.75" stroke-linecap="round" stroke-linejoin="round" stroke-miterlimit="10" d="
	M784.5,652.2c0-2.1,1.7-3.8,3.8-3.8c2.1,0,3.8,1.7,3.8,3.8c0,2.1-1.7,3.8-3.8,3.8C786.2,656.1,784.5,654.3,784.5,652.2"/>
<rect x="806.2" y="64.4" fill="#0000FF" width="46.2" height="396.2"/>
<rect x="806.2" y="64.4" fill="none" stroke="#000000" stroke-width="0.75" stroke-linecap="round" stroke-linejoin="round" stroke-miterlimit="10" width="46.2" height="396.2"/>
<rect x="806.2" y="460.6" fill="#FF0000" width="46.2" height="191.6"/>
<rect x="806.2" y="460.6" fill="none" stroke="#000000" stroke-width="0.75" stroke-linecap="round" stroke-linejoin="round" stroke-miterlimit="10" width="46.2" height="191.6"/>
<rect x="859.7" y="64.4" fill="#0000FF" width="139.9" height="244.2"/>
<rect x="859.7" y="64.4" fill="none" stroke="#000000" stroke-width="0.75" stroke-linecap="round" stroke-linejoin="round" stroke-miterlimit="10" width="139.9" height="244.2"/>
<rect x="859.7" y="308.6" fill="#FF0000" width="139.9" height="343.6"/>
<rect x="859.7" y="308.6" fill="none" stroke="#000000" stroke-width="0.75" stroke-linecap="round" stroke-linejoin="round" stroke-miterlimit="10" width="139.9" height="343.6"/>
<text transform="matrix(1 0 0 1 504.1484 33.1499)" font-family="'Helvetica-Bold'" font-size="15.3082">state</text>
<text transform="matrix(1 0 0 1 505.8447 694.4668)" font-family="'Helvetica-Bold'" font-size="15.3082">tone</text>
<text transform="matrix(-6.123234e-17 -1 1 -6.123234e-17 13.1494 377.1772)"><tspan x="0" y="0" font-family="'Helvetica-Bold'" font-size="15.3082">pa</tspan><tspan x="17.9" y="0" font-family="'Helvetica-Bold'" font-size="15.3082">r</tspan><tspan x="24.1" y="0" font-family="'Helvetica-Bold'" font-size="15.3082">ty</tspan></text>
<text transform="matrix(1 0 0 1 65.2099 51.52)" font-family="'ArialMT'" font-size="15.3082">AR</text>
<text transform="matrix(1 0 0 1 44.1611 676.0977)" font-family="'ArialMT'" font-size="15.3082">Neg.</text>
<text transform="matrix(-6.123234e-17 -1 1 -6.123234e-17 31.5189 573.9644)"><tspan x="0" y="0" font-family="'ArialMT'" font-size="15.3082">Repu</tspan><tspan x="36.6" y="0" font-family="'ArialMT'" font-size="15.3082">b</tspan><tspan x="44.8" y="0" font-family="'ArialMT'" font-size="15.3082">lican</tspan></text>
<text transform="matrix(-6.123234e-17 -1 1 -6.123234e-17 31.5189 275.0191)"><tspan x="0" y="0" font-family="'ArialMT'" font-size="15.3082">Democ</tspan><tspan x="48.5" y="0" font-family="'ArialMT'" font-size="15.3082">r</tspan><tspan x="53.4" y="0" font-family="'ArialMT'" font-size="15.3082">at</tspan></text>
<text transform="matrix(1 0 0 1 80.6328 676.0977)"><tspan x="0" y="0" font-family="'ArialMT'" font-size="15.3082">P</tspan><tspan x="9.5" y="0" font-family="'ArialMT'" font-size="15.3082">o</tspan><tspan x="18" y="0" font-family="'ArialMT'" font-size="15.3082">s</tspan><tspan x="25.4" y="0" font-family="'ArialMT'" font-size="15.3082">.</tspan></text>
<text transform="matrix(1 0 0 1 132.6426 51.52)" font-family="'ArialMT'" font-size="15.3082">AZ</text>
<text transform="matrix(1 0 0 1 120.0898 676.0977)" font-family="'ArialMT'" font-size="15.3082">Neg.</text>
<text transform="matrix(1 0 0 1 149.2265 676.0977)"><tspan x="0" y="0" font-family="'ArialMT'" font-size="15.3082">P</tspan><tspan x="9.4" y="0" font-family="'ArialMT'" font-size="15.3082">o</tspan><tspan x="18" y="0" font-family="'ArialMT'" font-size="15.3082">s</tspan><tspan x="25.4" y="0" font-family="'ArialMT'" font-size="15.3082">.</tspan></text>
<text transform="matrix(1 0 0 1 195.7002 51.52)" font-family="'ArialMT'" font-size="15.3082">FL</text>
<text transform="matrix(1 0 0 1 180.0088 676.0977)" font-family="'ArialMT'" font-size="15.3082">Neg.</text>
<text transform="matrix(1 0 0 1 212.0928 676.0977)"><tspan x="0" y="0" font-family="'ArialMT'" font-size="15.3082">P</tspan><tspan x="9.4" y="0" font-family="'ArialMT'" font-size="15.3082">o</tspan><tspan x="18" y="0" font-family="'ArialMT'" font-size="15.3082">s</tspan><tspan x="25.4" y="0" font-family="'ArialMT'" font-size="15.3082">.</tspan></text>
<text transform="matrix(1 0 0 1 306.7734 51.52)" font-family="'ArialMT'" font-size="15.3082">KY</text>
<text transform="matrix(1 0 0 1 271.1826 676.0977)" font-family="'ArialMT'" font-size="15.3082">Neg.</text>
<text transform="matrix(1 0 0 1 350.4658 676.0977)"><tspan x="0" y="0" font-family="'ArialMT'" font-size="15.3082">P</tspan><tspan x="9.4" y="0" font-family="'ArialMT'" font-size="15.3082">o</tspan><tspan x="18" y="0" font-family="'ArialMT'" font-size="15.3082">s</tspan><tspan x="25.4" y="0" font-family="'ArialMT'" font-size="15.3082">.</tspan></text>
<text transform="matrix(1 0 0 1 441.5117 51.52)" font-family="'ArialMT'" font-size="15.3082">LA</text>
<text transform="matrix(1 0 0 1 415.705 676.0977)" font-family="'ArialMT'" font-size="15.3082">Neg.</text>
<text transform="matrix(1 0 0 1 469.3349 676.0977)"><tspan x="0" y="0" font-family="'ArialMT'" font-size="15.3082">P</tspan><tspan x="9.4" y="0" font-family="'ArialMT'" font-size="15.3082">o</tspan><tspan x="18" y="0" font-family="'ArialMT'" font-size="15.3082">s</tspan><tspan x="25.4" y="0" font-family="'ArialMT'" font-size="15.3082">.</tspan></text>
<text transform="matrix(1 0 0 1 588.6747 51.52)" font-family="'ArialMT'" font-size="15.3082">MA</text>
<text transform="matrix(1 0 0 1 523.6786 676.0977)" font-family="'ArialMT'" font-size="15.3082">Neg.</text>
<text transform="matrix(1 0 0 1 618.3603 676.0977)"><tspan x="0" y="0" font-family="'ArialMT'" font-size="15.3082">P</tspan><tspan x="9.4" y="0" font-family="'ArialMT'" font-size="15.3082">o</tspan><tspan x="18" y="0" font-family="'ArialMT'" font-size="15.3082">s</tspan><tspan x="25.4" y="0" font-family="'ArialMT'" font-size="15.3082">.</tspan></text>
<text transform="matrix(1 0 0 1 736.9365 51.52)" font-family="'ArialMT'" font-size="15.3082">NC</text>
<text transform="matrix(1 0 0 1 721.2949 676.0977)" font-family="'ArialMT'" font-size="15.3082">Neg.</text>
<text transform="matrix(1 0 0 1 773.4589 676.0977)"><tspan x="0" y="0" font-family="'ArialMT'" font-size="15.3082">P</tspan><tspan x="9.5" y="0" font-family="'ArialMT'" font-size="15.3082">o</tspan><tspan x="18" y="0" font-family="'ArialMT'" font-size="15.3082">s</tspan><tspan x="25.4" y="0" font-family="'ArialMT'" font-size="15.3082">.</tspan></text>
<text transform="matrix(1 0 0 1 892.2636 51.52)" font-family="'ArialMT'" font-size="15.3082">SC</text>
<text transform="matrix(1 0 0 1 813.1074 676.0977)" font-family="'ArialMT'" font-size="15.3082">Neg.</text>
<text transform="matrix(1 0 0 1 914.8554 676.0977)"><tspan x="0" y="0" font-family="'ArialMT'" font-size="15.3082">P</tspan><tspan x="9.5" y="0" font-family="'ArialMT'" font-size="15.3082">o</tspan><tspan x="18" y="0" font-family="'ArialMT'" font-size="15.3082">s</tspan><tspan x="25.4" y="0" font-family="'ArialMT'" font-size="15.3082">.</tspan></text>
</svg>
