<?xml version="1.0" encoding="utf-8"?>
<!-- Generator: Adobe Illustrator 18.1.0, SVG Export Plug-In . SVG Version: 6.00 Build 0)  -->
<svg version="1.1" id="Layer_1" xmlns="http://www.w3.org/2000/svg" xmlns:xlink="http://www.w3.org/1999/xlink" x="0px" y="0px"
	 viewBox="0 0 1000 719" enable-background="new 0 0 1000 719" xml:space="preserve">
<rect x="44.4" y="64.4" fill="#00008B" width="39" height="324"/>
<rect x="44.4" y="64.4" fill="none" stroke="#000000" stroke-width="0.75" stroke-linecap="round" stroke-linejoin="round" stroke-miterlimit="10" width="39" height="324"/>
<rect x="83.5" y="64.4" fill="#0000FF" width="23.9" height="324"/>
<rect x="83.5" y="64.4" fill="none" stroke="#000000" stroke-width="0.75" stroke-linecap="round" stroke-linejoin="round" stroke-miterlimit="10" width="23.9" height="324"/>
<rect x="44.4" y="395.8" fill="#8B0000" width="32.3" height="256.5"/>
<rect x="44.4" y="395.8" fill="none" stroke="#000000" stroke-width="0.75" stroke-linecap="round" stroke-linejoin="round" stroke-miterlimit="10" width="32.3" height="256.5"/>
<rect x="76.7" y="395.8" fill="#FF0000" width="30.6" height="256.5"/>
<rect x="76.7" y="395.8" fill="none" stroke="#000000" stroke-width="0.75" stroke-linecap="round" stroke-linejoin="round" stroke-miterlimit="10" width="30.6" height="256.5"/>
<rect x="118.3" y="64.4" fill="#00008B" width="20.2" height="122"/>
<rect x="118.3" y="64.4" fill="none" stroke="#000000" stroke-width="0.75" stroke-linecap="round" stroke-linejoin="round" stroke-miterlimit="10" width="20.2" height="122"/>
<rect x="138.5" y="64.4" fill="#0000FF" width="28" height="122"/>
<rect x="138.5" y="64.4" fill="none" stroke="#000000" stroke-width="0.75" stroke-linecap="round" stroke-linejoin="round" stroke-miterlimit="10" width="28" height="122"/>
<rect x="118.3" y="193.8" fill="#8B0000" width="48.2" height="458.4"/>
<rect x="118.3" y="193.8" fill="none" stroke="#000000" stroke-width="0.75" stroke-linecap="round" stroke-linejoin="round" stroke-miterlimit="10" width="48.2" height="458.4"/>
<line fill="none" stroke="#000000" stroke-width="0.75" stroke-linecap="round" stroke-linejoin="round" stroke-miterlimit="10" x1="166.6" y1="652.2" x2="166.6" y2="193.8"/>
<line fill="none" stroke="#000000" stroke-width="0.75" stroke-linecap="round" stroke-linejoin="round" stroke-miterlimit="10" x1="166.6" y1="423" x2="166.6" y2="423"/>
<path fill="none" stroke="#000000" stroke-width="0.75" stroke-linecap="round" stroke-linejoin="round" stroke-miterlimit="10" d="
	M162.7,423c0-2.1,1.7-3.8,3.8-3.8s3.8,1.7,3.8,3.8c0,2.1-1.7,3.8-3.8,3.8S162.7,425.1,162.7,423"/>
<rect x="177.6" y="64.4" fill="#00008B" width="43" height="279.3"/>
<rect x="177.6" y="64.4" fill="none" stroke="#000000" stroke-width="0.75" stroke-linecap="round" stroke-linejoin="round" stroke-miterlimit="10" width="43" height="279.3"/>
<rect x="220.6" y="64.4" fill="#0000FF" width="11.1" height="279.3"/>
<rect x="220.6" y="64.4" fill="none" stroke="#000000" stroke-width="0.75" stroke-linecap="round" stroke-linejoin="round" stroke-miterlimit="10" width="11.1" height="279.3"/>
<rect x="177.6" y="351" fill="#8B0000" width="43.1" height="301.2"/>
<rect x="177.6" y="351" fill="none" stroke="#000000" stroke-width="0.75" stroke-linecap="round" stroke-linejoin="round" stroke-miterlimit="10" width="43.1" height="301.2"/>
<rect x="220.7" y="351" fill="#FF0000" width="11" height="301.2"/>
<rect x="220.7" y="351" fill="none" stroke="#000000" stroke-width="0.75" stroke-linecap="round" stroke-linejoin="round" stroke-miterlimit="10" width="11" height="301.2"/>
<rect x="242.7" y="64.4" fill="#00008B" width="148.5" height="140.4"/>
<rect x="242.7" y="64.4" fill="none" stroke="#000000" stroke-width="0.75" stroke-linecap="round" stroke-linejoin="round" stroke-miterlimit="10" width="148.5" height="140.4"/>
<line fill="none" stroke="#000000" stroke-width="0.75" stroke-linecap="round" stroke-linejoin="round" stroke-miterlimit="10" x1="391.3" y1="204.8" x2="391.3" y2="64.4"/>
<line fill="none" stroke="#000000" stroke-width="0.75" stroke-linecap="round" stroke-linejoin="round" stroke-miterlimit="10" x1="391.3" y1="134.6" x2="391.3" y2="134.6"/>
<path fill="none" stroke="#000000" stroke-width="0.75" stroke-linecap="round" stroke-linejoin="round" stroke-miterlimit="10" d="
	M387.4,134.6c0-2.1,1.7-3.8,3.8-3.8s3.8,1.7,3.8,3.8c0,2.1-1.7,3.8-3.8,3.8S387.4,136.7,387.4,134.6"/>
<rect x="242.7" y="212.2" fill="#8B0000" width="76.5" height="440.1"/>
<rect x="242.7" y="212.2" fill="none" stroke="#000000" stroke-width="0.75" stroke-linecap="round" stroke-linejoin="round" stroke-miterlimit="10" width="76.5" height="440.1"/>
<rect x="319.2" y="212.2" fill="#FF0000" width="72" height="440.1"/>
<rect x="319.2" y="212.2" fill="none" stroke="#000000" stroke-width="0.75" stroke-linecap="round" stroke-linejoin="round" stroke-miterlimit="10" width="72" height="440.1"/>
<rect x="402.3" y="64.4" fill="#00008B" width="54.5" height="257.6"/>
<rect x="402.3" y="64.4" fill="none" stroke="#000000" stroke-width="0.75" stroke-linecap="round" stroke-linejoin="round" stroke-miterlimit="10" width="54.5" height="257.6"/>
<rect x="456.8" y="64.4" fill="#0000FF" width="42.7" height="257.6"/>
<rect x="456.8" y="64.4" fill="none" stroke="#000000" stroke-width="0.75" stroke-linecap="round" stroke-linejoin="round" stroke-miterlimit="10" width="42.7" height="257.6"/>
<rect x="402.3" y="329.3" fill="#8B0000" width="71.7" height="322.9"/>
<rect x="402.3" y="329.3" fill="none" stroke="#000000" stroke-width="0.75" stroke-linecap="round" stroke-linejoin="round" stroke-miterlimit="10" width="71.7" height="322.9"/>
<rect x="473.9" y="329.3" fill="#FF0000" width="25.6" height="322.9"/>
<rect x="473.9" y="329.3" fill="none" stroke="#000000" stroke-width="0.75" stroke-linecap="round" stroke-linejoin="round" stroke-miterlimit="10" width="25.6" height="322.9"/>
<rect x="510.5" y="64.4" fill="#00008B" width="55.1" height="495.5"/>
<rect x="510.5" y="64.4" fill="none" stroke="#000000" stroke-width="0.75" stroke-linecap="round" stroke-linejoin="round" stroke-miterlimit="10" width="55.1" height="495.5"/>
<rect x="565.6" y="64.4" fill="#0000FF" width="124.2" height="495.5"/>
<rect x="565.6" y="64.4" fill="none" stroke="#000000" stroke-width="0.75" stroke-linecap="round" stroke-linejoin="round" stroke-miterlimit="10" width="124.2" height="495.5"/>
<rect x="510.5" y="567.3" fill="#8B0000" width="96.9" height="84.9"/>
<rect x="510.5" y="567.3" fill="none" stroke="#000000" stroke-width="0.75" stroke-linecap="round" stroke-linejoin="round" stroke-miterlimit="10" width="96.9" height="84.9"/>
<rect x="607.4" y="567.3" fill="#FF0000" width="82.4" height="84.9"/>
<rect x="607.4" y="567.3" fill="none" stroke="#000000" stroke-width="0.75" stroke-linecap="round" stroke-linejoin="round" stroke-miterlimit="10" width="82.4" height="84.9"/>
<line fill="none" stroke="#000000" stroke-width="0.75" stroke-linecap="round" stroke-linejoin="round" stroke-miterlimit="10" x1="700.9" y1="155.9" x2="700.9" y2="64.4"/>
<line fill="none" stroke="#000000" stroke-width="0.75" stroke-linecap="round" stroke-linejoin="round" stroke-miterlimit="10" x1="700.9" y1="110.1" x2="700.9" y2="110.1"/>
<path fill="none" stroke="#000000" stroke-width="0.75" stroke-linecap="round" stroke-linejoin="round" stroke-miterlimit="10" d="
	M697,110.1c0-2.1,1.7-3.8,3.8-3.8c2.1,0,3.8,1.7,3.8,3.8c0,2.1-1.7,3.8-3.8,3.8C698.7,114,697,112.2,697,110.1"/>
<rect x="700.9" y="64.4" fill="#0000FF" width="94.3" height="91.5"/>
<rect x="700.9" y="64.4" fill="none" stroke="#000000" stroke-width="0.75" stroke-linecap="round" stroke-linejoin="round" stroke-miterlimit="10" width="94.3" height="91.5"/>
<rect x="700.9" y="163.2" fill="#8B0000" width="94.3" height="489"/>
<rect x="700.9" y="163.2" fill="none" stroke="#000000" stroke-width="0.75" stroke-linecap="round" stroke-linejoin="round" stroke-miterlimit="10" width="94.3" height="489"/>
<line fill="none" stroke="#000000" stroke-width="0.75" stroke-linecap="round" stroke-linejoin="round" stroke-miterlimit="10" x1="795.1" y1="652.2" x2="795.1" y2="163.2"/>
<line fill="none" stroke="#000000" stroke-width="0.75" stroke-linecap="round" stroke-linejoin="round" stroke-miterlimit="10" x1="795.1" y1="407.7" x2="795.1" y2="407.7"/>
<path fill="none" stroke="#000000" stroke-width="0.75" stroke-linecap="round" stroke-linejoin="round" stroke-miterlimit="10" d="
	M791.3,407.7c0-2.1,1.7-3.8,3.8-3.8c2.1,0,3.8,1.7,3.8,3.8s-1.7,3.8-3.8,3.8C793,411.6,791.3,409.8,791.3,407.7"/>
<rect x="806.2" y="64.4" fill="#00008B" width="67.5" height="278.4"/>
<rect x="806.2" y="64.4" fill="none" stroke="#000000" stroke-width="0.75" stroke-linecap="round" stroke-linejoin="round" stroke-miterlimit="10" width="67.5" height="278.4"/>
<rect x="873.7" y="64.4" fill="#0000FF" width="125.9" height="278.4"/>
<rect x="873.7" y="64.4" fill="none" stroke="#000000" stroke-width="0.75" stroke-linecap="round" stroke-linejoin="round" stroke-miterlimit="10" width="125.9" height="278.4"/>
<rect x="806.2" y="350.2" fill="#8B0000" width="30.1" height="302.1"/>
<rect x="806.2" y="350.2" fill="none" stroke="#000000" stroke-width="0.75" stroke-linecap="round" stroke-linejoin="round" stroke-miterlimit="10" width="30.1" height="302.1"/>
<rect x="836.3" y="350.2" fill="#FF0000" width="163.4" height="302.1"/>
<rect x="836.3" y="350.2" fill="none" stroke="#000000" stroke-width="0.75" stroke-linecap="round" stroke-linejoin="round" stroke-miterlimit="10" width="163.4" height="302.1"/>
<text transform="matrix(1 0 0 1 504.1553 33.163)" font-family="'Helvetica-Bold'" font-size="15.308">state</text>
<text transform="matrix(1 0 0 1 505.8516 694.4697)" font-family="'Helvetica-Bold'" font-size="15.308">tone</text>
<text transform="matrix(-6.123234e-17 -1 1 -6.123234e-17 13.1628 377.187)"><tspan x="0" y="0" font-family="'Helvetica-Bold'" font-size="15.308">pa</tspan><tspan x="17.9" y="0" font-family="'Helvetica-Bold'" font-size="15.308">r</tspan><tspan x="24.1" y="0" font-family="'Helvetica-Bold'" font-size="15.308">ty</tspan></text>
<text transform="matrix(1 0 0 1 65.2226 51.5322)" font-family="'ArialMT'" font-size="15.308">AR</text>
<text transform="matrix(-6.123234e-17 -1 1 -6.123234e-17 31.5321 562.1321)"><tspan x="0" y="0" font-family="'ArialMT'" font-size="15.308">Repu</tspan><tspan x="36.6" y="0" font-family="'ArialMT'" font-size="15.308">b</tspan><tspan x="44.8" y="0" font-family="'ArialMT'" font-size="15.308">lican</tspan></text>
<text transform="matrix(1 0 0 1 44.4043 676.1005)" font-family="'ArialMT'" font-size="15.308">Neg.</text>
<text transform="matrix(1 0 0 1 77.2021 676.1005)"><tspan x="0" y="0" font-family="'ArialMT'" font-size="15.308">P</tspan><tspan x="9.5" y="0" font-family="'ArialMT'" font-size="15.308">o</tspan><tspan x="18" y="0" font-family="'ArialMT'" font-size="15.308">s</tspan><tspan x="25.4" y="0" font-family="'ArialMT'" font-size="15.308">.</tspan></text>
<text transform="matrix(-6.123234e-17 -1 1 -6.123234e-17 31.5323 259.5043)"><tspan x="0" y="0" font-family="'ArialMT'" font-size="15.308">Democ</tspan><tspan x="48.5" y="0" font-family="'ArialMT'" font-size="15.308">r</tspan><tspan x="53.4" y="0" font-family="'ArialMT'" font-size="15.308">at</tspan></text>
<text transform="matrix(1 0 0 1 132.6543 51.5322)" font-family="'ArialMT'" font-size="15.308">AZ</text>
<text transform="matrix(1 0 0 1 126.2764 676.1005)" font-family="'ArialMT'" font-size="15.308">Neg.</text>
<text transform="matrix(1 0 0 1 151.7393 676.1005)"><tspan x="0" y="0" font-family="'ArialMT'" font-size="15.308">P</tspan><tspan x="9.4" y="0" font-family="'ArialMT'" font-size="15.308">o</tspan><tspan x="18" y="0" font-family="'ArialMT'" font-size="15.308">s</tspan><tspan x="25.4" y="0" font-family="'ArialMT'" font-size="15.308">.</tspan></text>
<text transform="matrix(1 0 0 1 195.7109 51.5322)" font-family="'ArialMT'" font-size="15.308">FL</text>
<text transform="matrix(1 0 0 1 182.9678 676.1005)" font-family="'ArialMT'" font-size="15.308">Neg.</text>
<text transform="matrix(1 0 0 1 211.377 676.1005)"><tspan x="0" y="0" font-family="'ArialMT'" font-size="15.308">P</tspan><tspan x="9.4" y="0" font-family="'ArialMT'" font-size="15.308">o</tspan><tspan x="18" y="0" font-family="'ArialMT'" font-size="15.308">s</tspan><tspan x="25.4" y="0" font-family="'ArialMT'" font-size="15.308">.</tspan></text>
<text transform="matrix(1 0 0 1 306.7832 51.5322)" font-family="'ArialMT'" font-size="15.308">KY</text>
<text transform="matrix(1 0 0 1 264.8018 676.1005)" font-family="'ArialMT'" font-size="15.308">Neg.</text>
<text transform="matrix(1 0 0 1 340.4102 676.1005)"><tspan x="0" y="0" font-family="'ArialMT'" font-size="15.308">P</tspan><tspan x="9.4" y="0" font-family="'ArialMT'" font-size="15.308">o</tspan><tspan x="18" y="0" font-family="'ArialMT'" font-size="15.308">s</tspan><tspan x="25.4" y="0" font-family="'ArialMT'" font-size="15.308">.</tspan></text>
<text transform="matrix(1 0 0 1 441.5195 51.5322)" font-family="'ArialMT'" font-size="15.308">LA</text>
<text transform="matrix(1 0 0 1 421.9385 676.1005)" font-family="'ArialMT'" font-size="15.308">Neg.</text>
<text transform="matrix(1 0 0 1 471.8809 676.1005)"><tspan x="0" y="0" font-family="'ArialMT'" font-size="15.308">P</tspan><tspan x="9.4" y="0" font-family="'ArialMT'" font-size="15.308">o</tspan><tspan x="18" y="0" font-family="'ArialMT'" font-size="15.308">s</tspan><tspan x="25.4" y="0" font-family="'ArialMT'" font-size="15.308">.</tspan></text>
<text transform="matrix(1 0 0 1 588.6807 51.5322)" font-family="'ArialMT'" font-size="15.308">MA</text>
<text transform="matrix(1 0 0 1 542.8076 676.1005)" font-family="'ArialMT'" font-size="15.308">Neg.</text>
<text transform="matrix(1 0 0 1 633.8135 676.1005)"><tspan x="0" y="0" font-family="'ArialMT'" font-size="15.308">P</tspan><tspan x="9.5" y="0" font-family="'ArialMT'" font-size="15.308">o</tspan><tspan x="18" y="0" font-family="'ArialMT'" font-size="15.308">s</tspan><tspan x="25.4" y="0" font-family="'ArialMT'" font-size="15.308">.</tspan></text>
<text transform="matrix(1 0 0 1 736.9395 51.5322)" font-family="'ArialMT'" font-size="15.308">NC</text>
<text transform="matrix(1 0 0 1 731.8232 676.1005)" font-family="'ArialMT'" font-size="15.308">Neg.</text>
<text transform="matrix(1 0 0 1 780.3125 676.1005)"><tspan x="0" y="0" font-family="'ArialMT'" font-size="15.308">P</tspan><tspan x="9.5" y="0" font-family="'ArialMT'" font-size="15.308">o</tspan><tspan x="18" y="0" font-family="'ArialMT'" font-size="15.308">s</tspan><tspan x="25.4" y="0" font-family="'ArialMT'" font-size="15.308">.</tspan></text>
<text transform="matrix(1 0 0 1 892.2646 51.5322)" font-family="'ArialMT'" font-size="15.308">SC</text>
<text transform="matrix(1 0 0 1 805.0479 676.1005)" font-family="'ArialMT'" font-size="15.308">Neg.</text>
<text transform="matrix(1 0 0 1 903.1211 676.1005)"><tspan x="0" y="0" font-family="'ArialMT'" font-size="15.308">P</tspan><tspan x="9.5" y="0" font-family="'ArialMT'" font-size="15.308">o</tspan><tspan x="18" y="0" font-family="'ArialMT'" font-size="15.308">s</tspan><tspan x="25.4" y="0" font-family="'ArialMT'" font-size="15.308">.</tspan></text>
</svg>
