<?xml version="1.0" encoding="utf-8"?>
<!-- Generator: Adobe Illustrator 16.0.0, SVG Export Plug-In . SVG Version: 6.00 Build 0)  -->
<!DOCTYPE svg PUBLIC "-//W3C//DTD SVG 1.1//EN" "http://www.w3.org/Graphics/SVG/1.1/DTD/svg11.dtd">
<svg version="1.1" id="Layer_1" xmlns="http://www.w3.org/2000/svg" xmlns:xlink="http://www.w3.org/1999/xlink" x="0px" y="0px"
	 width="1000.005px" height="716px" viewBox="0 0 1000.005 716" enable-background="new 0 0 1000.005 716" xml:space="preserve">
<g>
	<defs>
		<rect id="SVGID_1_" x="52.042" y="28.4" width="809.621" height="631.377"/>
	</defs>
	<clipPath id="SVGID_2_">
		<use xlink:href="#SVGID_1_"  overflow="visible"/>
	</clipPath>
	<rect x="52.042" y="28.4" clip-path="url(#SVGID_2_)" fill="#E5E5E5" width="809.621" height="631.377"/>
	
		<line clip-path="url(#SVGID_2_)" fill="none" stroke="#F2F2F2" stroke-width="0.53" stroke-linejoin="round" stroke-miterlimit="10" x1="52.042" y1="499.02" x2="861.677" y2="499.02"/>
	
		<line clip-path="url(#SVGID_2_)" fill="none" stroke="#F2F2F2" stroke-width="0.53" stroke-linejoin="round" stroke-miterlimit="10" x1="52.042" y1="281.11" x2="861.677" y2="281.11"/>
	
		<line clip-path="url(#SVGID_2_)" fill="none" stroke="#F2F2F2" stroke-width="0.53" stroke-linejoin="round" stroke-miterlimit="10" x1="52.042" y1="63.201" x2="861.677" y2="63.201"/>
	
		<line clip-path="url(#SVGID_2_)" fill="none" stroke="#F2F2F2" stroke-width="0.53" stroke-linejoin="round" stroke-miterlimit="10" x1="162.453" y1="659.777" x2="162.453" y2="28.4"/>
	
		<line clip-path="url(#SVGID_2_)" fill="none" stroke="#F2F2F2" stroke-width="0.53" stroke-linejoin="round" stroke-miterlimit="10" x1="309.653" y1="659.777" x2="309.653" y2="28.4"/>
	
		<line clip-path="url(#SVGID_2_)" fill="none" stroke="#F2F2F2" stroke-width="0.53" stroke-linejoin="round" stroke-miterlimit="10" x1="456.853" y1="659.777" x2="456.853" y2="28.4"/>
	
		<line clip-path="url(#SVGID_2_)" fill="none" stroke="#F2F2F2" stroke-width="0.53" stroke-linejoin="round" stroke-miterlimit="10" x1="604.063" y1="659.777" x2="604.063" y2="28.4"/>
	
		<line clip-path="url(#SVGID_2_)" fill="none" stroke="#F2F2F2" stroke-width="0.53" stroke-linejoin="round" stroke-miterlimit="10" x1="751.263" y1="659.777" x2="751.263" y2="28.4"/>
	
		<line clip-path="url(#SVGID_2_)" fill="none" stroke="#FFFFFF" stroke-width="1.06" stroke-linejoin="round" stroke-miterlimit="10" x1="52.042" y1="607.975" x2="861.677" y2="607.975"/>
	
		<line clip-path="url(#SVGID_2_)" fill="none" stroke="#FFFFFF" stroke-width="1.06" stroke-linejoin="round" stroke-miterlimit="10" x1="52.042" y1="390.065" x2="861.677" y2="390.065"/>
	
		<line clip-path="url(#SVGID_2_)" fill="none" stroke="#FFFFFF" stroke-width="1.06" stroke-linejoin="round" stroke-miterlimit="10" x1="52.042" y1="172.155" x2="861.677" y2="172.155"/>
	
		<line clip-path="url(#SVGID_2_)" fill="none" stroke="#FFFFFF" stroke-width="1.06" stroke-linejoin="round" stroke-miterlimit="10" x1="88.841" y1="659.777" x2="88.841" y2="28.4"/>
	
		<line clip-path="url(#SVGID_2_)" fill="none" stroke="#FFFFFF" stroke-width="1.06" stroke-linejoin="round" stroke-miterlimit="10" x1="236.053" y1="659.777" x2="236.053" y2="28.4"/>
	
		<line clip-path="url(#SVGID_2_)" fill="none" stroke="#FFFFFF" stroke-width="1.06" stroke-linejoin="round" stroke-miterlimit="10" x1="383.253" y1="659.777" x2="383.253" y2="28.4"/>
	
		<line clip-path="url(#SVGID_2_)" fill="none" stroke="#FFFFFF" stroke-width="1.06" stroke-linejoin="round" stroke-miterlimit="10" x1="530.465" y1="659.777" x2="530.465" y2="28.4"/>
	
		<line clip-path="url(#SVGID_2_)" fill="none" stroke="#FFFFFF" stroke-width="1.06" stroke-linejoin="round" stroke-miterlimit="10" x1="677.664" y1="659.777" x2="677.664" y2="28.4"/>
	
		<line clip-path="url(#SVGID_2_)" fill="none" stroke="#FFFFFF" stroke-width="1.06" stroke-linejoin="round" stroke-miterlimit="10" x1="824.876" y1="659.777" x2="824.876" y2="28.4"/>
	<path opacity="0.702" clip-path="url(#SVGID_2_)" fill="#00FF00" d="M152.892,532.147c0-5.263,4.299-9.562,9.561-9.562
		c5.251,0,9.562,4.3,9.562,9.562c0,5.261-4.311,9.561-9.562,9.561C157.191,541.708,152.892,537.408,152.892,532.147"/>
	<path opacity="0.702" clip-path="url(#SVGID_2_)" fill="#00FF00" d="M226.299,572.679c0-5.37,4.383-9.753,9.754-9.753
		c5.359,0,9.754,4.383,9.754,9.753c0,5.359-4.395,9.755-9.754,9.755C230.683,582.434,226.299,578.038,226.299,572.679"/>
	<path opacity="0.702" clip-path="url(#SVGID_2_)" fill="#00FF00" d="M367.634,284.157c0-8.585,7.032-15.619,15.619-15.619
		c8.598,0,15.63,7.033,15.63,15.619c0,8.598-7.033,15.63-15.63,15.63C374.667,299.787,367.634,292.755,367.634,284.157"/>
	<path opacity="0.702" clip-path="url(#SVGID_2_)" fill="#00FF00" d="M450.157,610.153c0-3.685,3.011-6.706,6.695-6.706
		c3.697,0,6.707,3.021,6.707,6.706c0,3.697-3.01,6.708-6.707,6.708C453.168,616.861,450.157,613.851,450.157,610.153"/>
	<path opacity="0.702" clip-path="url(#SVGID_2_)" fill="#00FF00" d="M596.729,631.07c0-4.033,3.3-7.333,7.334-7.333
		c4.035,0,7.333,3.3,7.333,7.333c0,4.046-3.298,7.346-7.333,7.346C600.029,638.416,596.729,635.116,596.729,631.07"/>
	<path opacity="0.702" clip-path="url(#SVGID_2_)" fill="#00FF00" d="M661.467,279.364c0-8.911,7.286-16.197,16.197-16.197
		c8.912,0,16.207,7.286,16.207,16.197c0,8.911-7.295,16.208-16.207,16.208C668.753,295.572,661.467,288.275,661.467,279.364"/>
	<path opacity="0.702" clip-path="url(#SVGID_2_)" fill="#00FF00" d="M738.499,447.601c0-7.032,5.743-12.776,12.764-12.776
		s12.765,5.744,12.765,12.776c0,7.021-5.744,12.765-12.765,12.765S738.499,454.621,738.499,447.601"/>
	<path opacity="0.702" clip-path="url(#SVGID_2_)" fill="#00FF00" d="M371.332,453.26c0-6.562,5.358-11.934,11.921-11.934
		c6.562,0,11.933,5.371,11.933,11.934c0,6.563-5.371,11.934-11.933,11.934C376.69,465.193,371.332,459.823,371.332,453.26"/>
	<path opacity="0.702" clip-path="url(#SVGID_2_)" fill="#00FF00" d="M375.245,580.52c0-4.408,3.6-8.009,8.008-8.009
		c4.407,0,8.008,3.601,8.008,8.009c0,4.406-3.601,8.007-8.008,8.007C378.845,588.526,375.245,584.926,375.245,580.52"/>
	<path opacity="0.702" clip-path="url(#SVGID_2_)" fill="#00FF00" d="M518.169,448.034c0-6.768,5.526-12.295,12.296-12.295
		c6.754,0,12.293,5.527,12.293,12.295c0,6.756-5.539,12.295-12.293,12.295C523.695,460.329,518.169,454.79,518.169,448.034"/>
	<path opacity="0.702" clip-path="url(#SVGID_2_)" fill="#00FF00" d="M593.611,505.991c0-5.743,4.708-10.44,10.452-10.44
		c5.745,0,10.439,4.697,10.439,10.44c0,5.745-4.694,10.453-10.439,10.453C598.319,516.444,593.611,511.736,593.611,505.991"/>
	<path opacity="0.702" clip-path="url(#SVGID_2_)" fill="#00FF00" d="M594.538,533.446c0-5.237,4.287-9.512,9.525-9.512
		c5.24,0,9.525,4.274,9.525,9.512c0,5.239-4.285,9.525-9.525,9.525C598.825,542.972,594.538,538.686,594.538,533.446"/>
	<path opacity="0.702" clip-path="url(#SVGID_2_)" fill="#00FF00" d="M658.471,78.892c0-10.561,8.634-19.207,19.193-19.207
		c10.561,0,19.206,8.646,19.206,19.207s-8.646,19.195-19.206,19.195C667.104,98.086,658.471,89.452,658.471,78.892"/>
	<path opacity="0.702" clip-path="url(#SVGID_2_)" fill="#00FF00" d="M734.068,198.311c0-9.465,7.742-17.196,17.194-17.196
		c9.467,0,17.197,7.731,17.197,17.196c0,9.453-7.73,17.184-17.197,17.184C741.811,215.494,734.068,207.764,734.068,198.311"/>
	<path opacity="0.702" clip-path="url(#SVGID_2_)" fill="#00FF00" d="M738.823,433.644c0-6.839,5.601-12.439,12.439-12.439
		c6.854,0,12.451,5.601,12.451,12.439c0,6.853-5.598,12.451-12.451,12.451C744.424,446.095,738.823,440.496,738.823,433.644"/>
	<path opacity="0.702" clip-path="url(#SVGID_2_)" fill="#00FF00" d="M811.677,398.783c0-7.249,5.937-13.186,13.199-13.186
		c7.248,0,13.185,5.937,13.185,13.186s-5.937,13.186-13.185,13.186C817.613,411.969,811.677,406.032,811.677,398.783"/>
	<path opacity="0.702" clip-path="url(#SVGID_2_)" fill="#00FF00" d="M811.136,370.895c0-7.562,6.177-13.74,13.74-13.74
		c7.55,0,13.728,6.178,13.728,13.74c0,7.55-6.178,13.74-13.728,13.74C817.312,384.635,811.136,378.444,811.136,370.895"/>
	<path clip-path="url(#SVGID_2_)" fill="#8B0000" d="M155.469,532.147c0-3.842,3.143-6.973,6.984-6.973
		c3.83,0,6.972,3.131,6.972,6.973c0,3.828-3.143,6.971-6.972,6.971C158.612,539.118,155.469,535.976,155.469,532.147"/>
	<path clip-path="url(#SVGID_2_)" fill="#8B0000" d="M227.383,572.679c0-4.769,3.901-8.669,8.67-8.669s8.67,3.9,8.67,8.669
		s-3.902,8.671-8.67,8.671S227.383,577.447,227.383,572.679"/>
	<path clip-path="url(#SVGID_2_)" fill="#8B0000" d="M375.293,284.157c0-4.371,3.588-7.959,7.96-7.959
		c4.383,0,7.971,3.588,7.971,7.959c0,4.383-3.588,7.972-7.971,7.972C378.881,292.129,375.293,288.54,375.293,284.157"/>
	<path clip-path="url(#SVGID_2_)" fill="#8B0000" d="M450.037,610.153c0-3.744,3.07-6.815,6.815-6.815
		c3.757,0,6.815,3.071,6.815,6.815c0,3.757-3.059,6.815-6.815,6.815C453.107,616.969,450.037,613.91,450.037,610.153"/>
	<path clip-path="url(#SVGID_2_)" fill="#8B0000" d="M595.876,631.07c0-4.504,3.684-8.188,8.188-8.188s8.189,3.685,8.189,8.188
		c0,4.516-3.686,8.201-8.189,8.201S595.876,635.586,595.876,631.07"/>
	<path clip-path="url(#SVGID_2_)" fill="#8B0000" d="M668.776,279.364c0-4.877,3.998-8.875,8.888-8.875s8.886,3.998,8.886,8.875
		c0,4.889-3.996,8.887-8.886,8.887S668.776,284.253,668.776,279.364"/>
	<path clip-path="url(#SVGID_2_)" fill="#8B0000" d="M742.726,447.601c0-4.708,3.841-8.55,8.537-8.55c4.709,0,8.55,3.842,8.55,8.55
		c0,4.696-3.841,8.538-8.55,8.538C746.566,456.139,742.726,452.297,742.726,447.601"/>
	<path clip-path="url(#SVGID_2_)" fill="#8B0000" d="M375.775,453.26c0-4.118,3.36-7.489,7.478-7.489s7.49,3.371,7.49,7.489
		s-3.372,7.491-7.49,7.491S375.775,457.378,375.775,453.26"/>
	<path clip-path="url(#SVGID_2_)" fill="#8B0000" d="M376.281,580.52c0-3.83,3.143-6.973,6.972-6.973
		c3.841,0,6.984,3.143,6.984,6.973c0,3.84-3.143,6.972-6.984,6.972C379.423,587.491,376.281,584.359,376.281,580.52"/>
	<path clip-path="url(#SVGID_2_)" fill="#8B0000" d="M522.588,448.034c0-4.335,3.542-7.876,7.877-7.876
		c4.322,0,7.862,3.541,7.862,7.876c0,4.323-3.54,7.863-7.862,7.863C526.13,455.897,522.588,452.357,522.588,448.034"/>
	<path clip-path="url(#SVGID_2_)" fill="#8B0000" d="M596.826,505.991c0-3.974,3.253-7.236,7.237-7.236
		c3.975,0,7.236,3.263,7.236,7.236c0,3.986-3.262,7.237-7.236,7.237C600.079,513.229,596.826,509.978,596.826,505.991"/>
	<path clip-path="url(#SVGID_2_)" fill="#8B0000" d="M597.092,533.446c0-3.829,3.131-6.972,6.972-6.972
		c3.843,0,6.974,3.143,6.974,6.972c0,3.842-3.131,6.985-6.974,6.985C600.223,540.432,597.092,537.288,597.092,533.446"/>
	<path clip-path="url(#SVGID_2_)" fill="#8B0000" d="M669.127,78.892c0-4.696,3.841-8.55,8.537-8.55c4.697,0,8.55,3.854,8.55,8.55
		s-3.853,8.538-8.55,8.538C672.968,87.429,669.127,83.588,669.127,78.892"/>
	<path clip-path="url(#SVGID_2_)" fill="#8B0000" d="M743.076,198.311c0-4.516,3.683-8.201,8.187-8.201s8.201,3.685,8.201,8.201
		c0,4.504-3.697,8.188-8.201,8.188S743.076,202.814,743.076,198.311"/>
	<path clip-path="url(#SVGID_2_)" fill="#8B0000" d="M743.689,433.644c0-4.166,3.408-7.574,7.573-7.574
		c4.18,0,7.588,3.408,7.588,7.574c0,4.18-3.408,7.588-7.588,7.588C747.098,441.231,743.689,437.823,743.689,433.644"/>
	<path clip-path="url(#SVGID_2_)" fill="#8B0000" d="M817.288,398.783c0-4.167,3.408-7.587,7.588-7.587
		c4.165,0,7.573,3.42,7.573,7.587s-3.408,7.587-7.573,7.587C820.696,406.37,817.288,402.95,817.288,398.783"/>
	<path clip-path="url(#SVGID_2_)" fill="#8B0000" d="M817.385,370.895c0-4.118,3.373-7.491,7.491-7.491
		c4.106,0,7.477,3.373,7.477,7.491s-3.37,7.478-7.477,7.478C820.758,378.372,817.385,375.013,817.385,370.895"/>
	<g clip-path="url(#SVGID_2_)">
		<text transform="matrix(1 0 0 1 125.7021 514.2412)" fill="#00BFC4" font-family="'ArialMT'" font-size="10.8377">Batman Begins</text>
	</g>
	<g clip-path="url(#SVGID_2_)">
		<text transform="matrix(1 0 0 1 190.3076 554.7725)"><tspan x="0" y="0" fill="#00BFC4" font-family="'ArialMT'" font-size="10.8377">Supe</tspan><tspan x="25.311" y="0" fill="#00BFC4" font-family="'ArialMT'" font-size="10.8377">r</tspan><tspan x="29.18" y="0" fill="#00BFC4" font-family="'ArialMT'" font-size="10.8377">man Retu</tspan><tspan x="76.166" y="0" fill="#00BFC4" font-family="'ArialMT'" font-size="10.8377">r</tspan><tspan x="80.035" y="0" fill="#00BFC4" font-family="'ArialMT'" font-size="10.8377">ns</tspan></text>
	</g>
	<g clip-path="url(#SVGID_2_)">
		<text transform="matrix(1 0 0 1 344.0215 266.2627)"><tspan x="0" y="0" fill="#00BFC4" font-family="'ArialMT'" font-size="10.8377">The Da</tspan><tspan x="35.54" y="0" fill="#00BFC4" font-family="'ArialMT'" font-size="10.8377">r</tspan><tspan x="39.301" y="0" fill="#00BFC4" font-family="'ArialMT'" font-size="10.8377">k Knight</tspan></text>
	</g>
	<g clip-path="url(#SVGID_2_)">
		<text transform="matrix(1 0 0 1 431.1807 592.2598)"><tspan x="0" y="0" fill="#00BFC4" font-family="'ArialMT'" font-size="10.8377">W</tspan><tspan x="9.807" y="0" fill="#00BFC4" font-family="'ArialMT'" font-size="10.8377">atchmen</tspan></text>
	</g>
	<g clip-path="url(#SVGID_2_)">
		<text transform="matrix(1 0 0 1 568.9873 613.1758)"><tspan x="0" y="0" fill="#00BFC4" font-family="'ArialMT'" font-size="10.8377">Green Lante</tspan><tspan x="60.253" y="0" fill="#00BFC4" font-family="'ArialMT'" font-size="10.8377">r</tspan><tspan x="64.122" y="0" fill="#00BFC4" font-family="'ArialMT'" font-size="10.8377">n</tspan></text>
	</g>
	<g clip-path="url(#SVGID_2_)">
		<text transform="matrix(1 0 0 1 623.3799 261.4707)"><tspan x="0" y="0" fill="#00BFC4" font-family="'ArialMT'" font-size="10.8377">The Da</tspan><tspan x="35.54" y="0" fill="#00BFC4" font-family="'ArialMT'" font-size="10.8377">r</tspan><tspan x="39.301" y="0" fill="#00BFC4" font-family="'ArialMT'" font-size="10.8377">k Knight Rises</tspan></text>
	</g>
	<g clip-path="url(#SVGID_2_)">
		<text transform="matrix(1 0 0 1 719.6436 429.6953)" fill="#00BFC4" font-family="'ArialMT'" font-size="10.8377">Man Of Steel</text>
	</g>
	<g clip-path="url(#SVGID_2_)">
		<text transform="matrix(1 0 0 1 361.8799 435.3672)" fill="#F8766D" font-family="'ArialMT'" font-size="10.8377">Iron Man</text>
	</g>
	<g clip-path="url(#SVGID_2_)">
		<text transform="matrix(1 0 0 1 336.6885 562.625)"><tspan x="0" y="0" fill="#F8766D" font-family="'ArialMT'" font-size="10.8377">The Incredi</tspan><tspan x="54.215" y="0" fill="#F8766D" font-family="'ArialMT'" font-size="10.8377">b</tspan><tspan x="60.025" y="0" fill="#F8766D" font-family="'ArialMT'" font-size="10.8377">le Hulk</tspan></text>
	</g>
	<g clip-path="url(#SVGID_2_)">
		<text transform="matrix(1 0 0 1 504.5635 430.1279)" fill="#F8766D" font-family="'ArialMT'" font-size="10.8377">Iron Man 2</text>
	</g>
	<g clip-path="url(#SVGID_2_)">
		<text transform="matrix(1 0 0 1 592.9258 488.0986)" fill="#F8766D" font-family="'ArialMT'" font-size="10.8377">Thor</text>
	</g>
	<g clip-path="url(#SVGID_2_)">
		<text transform="matrix(1 0 0 1 518.207 515.5537)"><tspan x="0" y="0" fill="#F8766D" font-family="'ArialMT'" font-size="10.8377">Captain Ame</tspan><tspan x="62.649" y="0" fill="#F8766D" font-family="'ArialMT'" font-size="10.8377">r</tspan><tspan x="66.41" y="0" fill="#F8766D" font-family="'ArialMT'" font-size="10.8377">ica: The First </tspan><tspan x="132.051" y="0" fill="#F8766D" font-family="'ArialMT'" font-size="10.8377">A</tspan><tspan x="138.856" y="0" fill="#F8766D" font-family="'ArialMT'" font-size="10.8377">v</tspan><tspan x="144.004" y="0" fill="#F8766D" font-family="'ArialMT'" font-size="10.8377">enger</tspan></text>
	</g>
	<g clip-path="url(#SVGID_2_)">
		<text transform="matrix(1 0 0 1 622.585 60.9854)"><tspan x="0" y="0" fill="#F8766D" font-family="'ArialMT'" font-size="10.8377">Ma</tspan><tspan x="15.056" y="0" fill="#F8766D" font-family="'ArialMT'" font-size="10.8377">r</tspan><tspan x="18.979" y="0" fill="#F8766D" font-family="'ArialMT'" font-size="10.8377">v</tspan><tspan x="24.126" y="0" fill="#F8766D" font-family="'ArialMT'" font-size="10.8377">el&apos;s The </tspan><tspan x="64.746" y="0" fill="#F8766D" font-family="'ArialMT'" font-size="10.8377">A</tspan><tspan x="71.553" y="0" fill="#F8766D" font-family="'ArialMT'" font-size="10.8377">v</tspan><tspan x="76.7" y="0" fill="#F8766D" font-family="'ArialMT'" font-size="10.8377">engers</tspan></text>
	</g>
	<g clip-path="url(#SVGID_2_)">
		<text transform="matrix(1 0 0 1 725.3633 180.4043)" fill="#F8766D" font-family="'ArialMT'" font-size="10.8377">Iron Man 3</text>
	</g>
	<g clip-path="url(#SVGID_2_)">
		<text transform="matrix(1 0 0 1 699.0156 415.751)"><tspan x="0" y="0" fill="#F8766D" font-family="'ArialMT'" font-size="10.8377">Tho</tspan><tspan x="18.675" y="0" fill="#F8766D" font-family="'ArialMT'" font-size="10.8377">r</tspan><tspan x="22.599" y="0" fill="#F8766D" font-family="'ArialMT'" font-size="10.8377">: The Da</tspan><tspan x="64.16" y="0" fill="#F8766D" font-family="'ArialMT'" font-size="10.8377">r</tspan><tspan x="67.921" y="0" fill="#F8766D" font-family="'ArialMT'" font-size="10.8377">k </tspan><tspan x="76.351" y="0" fill="#F8766D" font-family="'ArialMT'" font-size="10.8377">W</tspan><tspan x="86.266" y="0" fill="#F8766D" font-family="'ArialMT'" font-size="10.8377">o</tspan><tspan x="92.293" y="0" fill="#F8766D" font-family="'ArialMT'" font-size="10.8377">r</tspan><tspan x="96.054" y="0" fill="#F8766D" font-family="'ArialMT'" font-size="10.8377">ld</tspan></text>
	</g>
	<g clip-path="url(#SVGID_2_)">
		<text transform="matrix(1 0 0 1 736.8623 380.8779)"><tspan x="0" y="0" fill="#F8766D" font-family="'ArialMT'" font-size="10.8377">Captain Ame</tspan><tspan x="62.649" y="0" fill="#F8766D" font-family="'ArialMT'" font-size="10.8377">r</tspan><tspan x="66.41" y="0" fill="#F8766D" font-family="'ArialMT'" font-size="10.8377">ica: The Winter Soldier</tspan></text>
	</g>
	<g clip-path="url(#SVGID_2_)">
		<text transform="matrix(1 0 0 1 763.4268 352.9883)" fill="#F8766D" font-family="'ArialMT'" font-size="10.8377">Guardians Of The Galaxy</text>
	</g>
</g>
<text transform="matrix(1 0 0 1 36.8223 612.2979)" fill="#7F7F7F" font-family="'ArialMT'" font-size="12.0418">0</text>
<text transform="matrix(1 0 0 1 23.4316 394.3887)" fill="#7F7F7F" font-family="'ArialMT'" font-size="12.0418">500</text>
<text transform="matrix(1 0 0 1 16.7363 176.4795)" fill="#7F7F7F" font-family="'ArialMT'" font-size="12.0418">1000</text>
<line fill="none" stroke="#7F7F7F" stroke-width="1.06" stroke-linejoin="round" stroke-miterlimit="10" x1="46.924" y1="607.975" x2="52.042" y2="607.975"/>
<line fill="none" stroke="#7F7F7F" stroke-width="1.06" stroke-linejoin="round" stroke-miterlimit="10" x1="46.924" y1="390.065" x2="52.042" y2="390.065"/>
<line fill="none" stroke="#7F7F7F" stroke-width="1.06" stroke-linejoin="round" stroke-miterlimit="10" x1="46.924" y1="172.155" x2="52.042" y2="172.155"/>
<line fill="none" stroke="#7F7F7F" stroke-width="1.06" stroke-linejoin="round" stroke-miterlimit="10" x1="88.841" y1="664.896" x2="88.841" y2="659.777"/>
<line fill="none" stroke="#7F7F7F" stroke-width="1.06" stroke-linejoin="round" stroke-miterlimit="10" x1="236.053" y1="664.896" x2="236.053" y2="659.777"/>
<line fill="none" stroke="#7F7F7F" stroke-width="1.06" stroke-linejoin="round" stroke-miterlimit="10" x1="383.253" y1="664.896" x2="383.253" y2="659.777"/>
<line fill="none" stroke="#7F7F7F" stroke-width="1.06" stroke-linejoin="round" stroke-miterlimit="10" x1="530.465" y1="664.896" x2="530.465" y2="659.777"/>
<line fill="none" stroke="#7F7F7F" stroke-width="1.06" stroke-linejoin="round" stroke-miterlimit="10" x1="677.664" y1="664.896" x2="677.664" y2="659.777"/>
<line fill="none" stroke="#7F7F7F" stroke-width="1.06" stroke-linejoin="round" stroke-miterlimit="10" x1="824.876" y1="664.896" x2="824.876" y2="659.777"/>
<text transform="matrix(1 0 0 1 75.4521 676.9502)" fill="#7F7F7F" font-family="'ArialMT'" font-size="12.0418">2004</text>
<text transform="matrix(1 0 0 1 222.6631 676.9502)" fill="#7F7F7F" font-family="'ArialMT'" font-size="12.0418">2006</text>
<text transform="matrix(1 0 0 1 369.8633 676.9502)" fill="#7F7F7F" font-family="'ArialMT'" font-size="12.0418">2008</text>
<text transform="matrix(1 0 0 1 517.0742 676.9502)" fill="#7F7F7F" font-family="'ArialMT'" font-size="12.0418">2010</text>
<text transform="matrix(1 0 0 1 664.2744 676.9502)" fill="#7F7F7F" font-family="'ArialMT'" font-size="12.0418">2012</text>
<text transform="matrix(1 0 0 1 811.4854 676.9502)" fill="#7F7F7F" font-family="'ArialMT'" font-size="12.0418">2014</text>
<text transform="matrix(1 0 0 1 442.8008 691.665)" font-family="'ArialMT'" font-size="14.4502">date</text>
<text transform="matrix(-6.123234e-17 -1 1 -6.123234e-17 12.4009 360.1543)" font-family="'ArialMT'" font-size="14.4502">profit</text>
<rect x="873.754" y="225.573" fill="#FFFFFF" width="126.246" height="80.945"/>
<text transform="matrix(1 0 0 1 878.8721 239.1562)" font-family="'Arial-BoldMT'" font-size="12.0418">studio</text>
<rect x="878.871" y="245.912" fill="#F2F2F2" width="27.743" height="27.745"/>
<rect x="878.871" y="245.912" fill="none" stroke="#FFFFFF" stroke-width="1.06" stroke-linecap="round" stroke-linejoin="round" stroke-miterlimit="10" width="27.743" height="27.745"/>
<text transform="matrix(1 0 0 1 889.7344 263.6738)" fill="#F8766D" font-family="'ArialMT'" font-size="10.8377">a</text>
<rect x="878.871" y="273.656" fill="#F2F2F2" width="27.743" height="27.744"/>
<rect x="878.871" y="273.656" fill="none" stroke="#FFFFFF" stroke-width="1.06" stroke-linecap="round" stroke-linejoin="round" stroke-miterlimit="10" width="27.743" height="27.744"/>
<text transform="matrix(1 0 0 1 889.7344 291.418)" fill="#00BFC4" font-family="'ArialMT'" font-size="10.8377">a</text>
<text transform="matrix(1 0 0 1 910.084 264.1074)"><tspan x="0" y="0" font-family="'ArialMT'" font-size="12.0418">Ma</tspan><tspan x="16.729" y="0" font-family="'ArialMT'" font-size="12.0418">r</tspan><tspan x="21.087" y="0" font-family="'ArialMT'" font-size="12.0418">v</tspan><tspan x="26.808" y="0" font-family="'ArialMT'" font-size="12.0418">el</tspan></text>
<text transform="matrix(1 0 0 1 910.084 291.8516)"><tspan x="0" y="0" font-family="'ArialMT'" font-size="12.0418">W</tspan><tspan x="10.896" y="0" font-family="'ArialMT'" font-size="12.0418">a</tspan><tspan x="17.593" y="0" font-family="'ArialMT'" font-size="12.0418">r</tspan><tspan x="21.893" y="0" font-family="'ArialMT'" font-size="12.0418">ner Brothers</tspan></text>
<rect x="873.754" y="315.188" fill="#FFFFFF" width="90.372" height="147.404"/>
<text transform="matrix(1 0 0 1 878.8721 328.7715)"><tspan x="0" y="0" font-family="'Arial-BoldMT'" font-size="12.0418">g</tspan><tspan x="7.355" y="0" font-family="'Arial-BoldMT'" font-size="12.0418">r</tspan><tspan x="11.801" y="0" font-family="'Arial-BoldMT'" font-size="12.0418">oss</tspan></text>
<rect x="878.871" y="335.516" fill="#F2F2F2" width="50.95" height="29.418"/>
<rect x="878.871" y="335.516" fill="none" stroke="#FFFFFF" stroke-width="1.06" stroke-linecap="round" stroke-linejoin="round" stroke-miterlimit="10" width="50.95" height="29.418"/>
<path opacity="0.702" fill="#00FF00" d="M893.321,350.23c0-6.069,4.96-11.03,11.03-11.03c6.057,0,11.031,4.961,11.031,11.03
	s-4.975,11.03-11.031,11.03C898.281,361.261,893.321,356.3,893.321,350.23"/>
<rect x="878.871" y="364.934" fill="#F2F2F2" width="50.95" height="41.593"/>
<rect x="878.871" y="364.934" fill="none" stroke="#FFFFFF" stroke-width="1.06" stroke-linecap="round" stroke-linejoin="round" stroke-miterlimit="10" width="50.95" height="41.593"/>
<path opacity="0.702" fill="#00FF00" d="M888.744,385.729c0-8.574,7.021-15.594,15.607-15.594c8.573,0,15.594,7.02,15.594,15.594
	c0,8.586-7.021,15.606-15.594,15.606C895.766,401.336,888.744,394.315,888.744,385.729"/>
<rect x="878.871" y="406.526" fill="#F2F2F2" width="50.95" height="50.948"/>
<rect x="878.871" y="406.526" fill="none" stroke="#FFFFFF" stroke-width="1.06" stroke-linecap="round" stroke-linejoin="round" stroke-miterlimit="10" width="50.95" height="50.948"/>
<path opacity="0.702" fill="#00FF00" d="M885.24,432.007c0-10.513,8.599-19.11,19.111-19.11c10.499,0,19.098,8.598,19.098,19.11
	c0,10.5-8.599,19.098-19.098,19.098C893.839,451.104,885.24,442.507,885.24,432.007"/>
<text transform="matrix(1 0 0 1 933.2891 354.5537)" font-family="'ArialMT'" font-size="12.0418">500</text>
<text transform="matrix(1 0 0 1 933.2891 390.0537)" font-family="'ArialMT'" font-size="12.0418">1000</text>
<text transform="matrix(1 0 0 1 933.2891 436.3301)" font-family="'ArialMT'" font-size="12.0418">1500</text>
<rect x="873.754" y="482.854" fill="#FFFFFF" width="90.372" height="147.404"/>
<text transform="matrix(1 0 0 1 878.8721 496.4375)" font-family="'Arial-BoldMT'" font-size="12.0418">budget</text>
<rect x="878.871" y="503.182" fill="#F2F2F2" width="50.95" height="29.418"/>
<rect x="878.871" y="503.182" fill="none" stroke="#FFFFFF" stroke-width="1.06" stroke-linecap="round" stroke-linejoin="round" stroke-miterlimit="10" width="50.95" height="29.418"/>
<rect x="878.871" y="532.6" fill="#F2F2F2" width="50.95" height="41.593"/>
<rect x="878.871" y="532.6" fill="none" stroke="#FFFFFF" stroke-width="1.06" stroke-linecap="round" stroke-linejoin="round" stroke-miterlimit="10" width="50.95" height="41.593"/>
<rect x="878.871" y="574.192" fill="#F2F2F2" width="50.95" height="50.948"/>
<rect x="878.871" y="574.192" fill="none" stroke="#FFFFFF" stroke-width="1.06" stroke-linecap="round" stroke-linejoin="round" stroke-miterlimit="10" width="50.95" height="50.948"/>
<text transform="matrix(1 0 0 1 933.2891 522.2197)" font-family="'ArialMT'" font-size="12.0418">500</text>
<text transform="matrix(1 0 0 1 933.2891 557.7197)" font-family="'ArialMT'" font-size="12.0418">1000</text>
<text transform="matrix(1 0 0 1 933.2891 603.9961)" font-family="'ArialMT'" font-size="12.0418">1500</text>
<path fill="#8B0000" d="M893.321,517.896c0-6.069,4.96-11.03,11.03-11.03c6.057,0,11.031,4.961,11.031,11.03
	s-4.975,11.03-11.031,11.03C898.281,528.927,893.321,523.966,893.321,517.896"/>
<path fill="#8B0000" d="M888.744,553.396c0-8.574,7.021-15.594,15.607-15.594c8.573,0,15.594,7.02,15.594,15.594
	c0,8.586-7.021,15.606-15.594,15.606C895.766,569.002,888.744,561.981,888.744,553.396"/>
<path fill="#8B0000" d="M885.24,599.673c0-10.513,8.599-19.11,19.111-19.11c10.499,0,19.098,8.598,19.098,19.11
	c0,10.5-8.599,19.098-19.098,19.098C893.839,618.771,885.24,610.173,885.24,599.673"/>
</svg>
