<?xml version="1.0" encoding="utf-8"?>
<!-- Generator: Adobe Illustrator 18.1.0, SVG Export Plug-In . SVG Version: 6.00 Build 0)  -->
<svg version="1.1" id="Layer_1" xmlns="http://www.w3.org/2000/svg" xmlns:xlink="http://www.w3.org/1999/xlink" x="0px" y="0px"
	 viewBox="0 0 1000 690" enable-background="new 0 0 1000 690" xml:space="preserve">
<g>
	<defs>
		<rect id="SVGID_1_" x="44.8" y="43.6" width="955.2" height="603.3"/>
	</defs>
	<clipPath id="SVGID_2_">
		<use xlink:href="#SVGID_1_"  overflow="visible"/>
	</clipPath>
	<rect x="44.8" y="43.6" clip-path="url(#SVGID_2_)" fill="#E5E5E5" width="955.2" height="603.3"/>
	
		<line clip-path="url(#SVGID_2_)" fill="none" stroke="#F2F2F2" stroke-width="0.53" stroke-linejoin="round" stroke-miterlimit="10" x1="44.8" y1="550.9" x2="1000" y2="550.9"/>
	
		<line clip-path="url(#SVGID_2_)" fill="none" stroke="#F2F2F2" stroke-width="0.53" stroke-linejoin="round" stroke-miterlimit="10" x1="44.8" y1="413.8" x2="1000" y2="413.8"/>
	
		<line clip-path="url(#SVGID_2_)" fill="none" stroke="#F2F2F2" stroke-width="0.53" stroke-linejoin="round" stroke-miterlimit="10" x1="44.8" y1="276.7" x2="1000" y2="276.7"/>
	
		<line clip-path="url(#SVGID_2_)" fill="none" stroke="#F2F2F2" stroke-width="0.53" stroke-linejoin="round" stroke-miterlimit="10" x1="44.8" y1="139.6" x2="1000" y2="139.6"/>
	
		<line clip-path="url(#SVGID_2_)" fill="none" stroke="#F2F2F2" stroke-width="0.53" stroke-linejoin="round" stroke-miterlimit="10" x1="175.1" y1="646.9" x2="175.1" y2="43.6"/>
	
		<line clip-path="url(#SVGID_2_)" fill="none" stroke="#F2F2F2" stroke-width="0.53" stroke-linejoin="round" stroke-miterlimit="10" x1="348.7" y1="646.9" x2="348.7" y2="43.6"/>
	
		<line clip-path="url(#SVGID_2_)" fill="none" stroke="#F2F2F2" stroke-width="0.53" stroke-linejoin="round" stroke-miterlimit="10" x1="522.4" y1="646.9" x2="522.4" y2="43.6"/>
	
		<line clip-path="url(#SVGID_2_)" fill="none" stroke="#F2F2F2" stroke-width="0.53" stroke-linejoin="round" stroke-miterlimit="10" x1="696.1" y1="646.9" x2="696.1" y2="43.6"/>
	
		<line clip-path="url(#SVGID_2_)" fill="none" stroke="#F2F2F2" stroke-width="0.53" stroke-linejoin="round" stroke-miterlimit="10" x1="869.7" y1="646.9" x2="869.7" y2="43.6"/>
	
		<line clip-path="url(#SVGID_2_)" fill="none" stroke="#FFFFFF" stroke-width="1.06" stroke-linejoin="round" stroke-miterlimit="10" x1="44.8" y1="619.5" x2="1000" y2="619.5"/>
	
		<line clip-path="url(#SVGID_2_)" fill="none" stroke="#FFFFFF" stroke-width="1.06" stroke-linejoin="round" stroke-miterlimit="10" x1="44.8" y1="482.4" x2="1000" y2="482.4"/>
	
		<line clip-path="url(#SVGID_2_)" fill="none" stroke="#FFFFFF" stroke-width="1.06" stroke-linejoin="round" stroke-miterlimit="10" x1="44.8" y1="345.2" x2="1000" y2="345.2"/>
	
		<line clip-path="url(#SVGID_2_)" fill="none" stroke="#FFFFFF" stroke-width="1.06" stroke-linejoin="round" stroke-miterlimit="10" x1="44.8" y1="208.1" x2="1000" y2="208.1"/>
	
		<line clip-path="url(#SVGID_2_)" fill="none" stroke="#FFFFFF" stroke-width="1.06" stroke-linejoin="round" stroke-miterlimit="10" x1="44.8" y1="71" x2="1000" y2="71"/>
	
		<line clip-path="url(#SVGID_2_)" fill="none" stroke="#FFFFFF" stroke-width="1.06" stroke-linejoin="round" stroke-miterlimit="10" x1="88.2" y1="646.9" x2="88.2" y2="43.6"/>
	
		<line clip-path="url(#SVGID_2_)" fill="none" stroke="#FFFFFF" stroke-width="1.06" stroke-linejoin="round" stroke-miterlimit="10" x1="261.9" y1="646.9" x2="261.9" y2="43.6"/>
	
		<line clip-path="url(#SVGID_2_)" fill="none" stroke="#FFFFFF" stroke-width="1.06" stroke-linejoin="round" stroke-miterlimit="10" x1="435.6" y1="646.9" x2="435.6" y2="43.6"/>
	
		<line clip-path="url(#SVGID_2_)" fill="none" stroke="#FFFFFF" stroke-width="1.06" stroke-linejoin="round" stroke-miterlimit="10" x1="609.2" y1="646.9" x2="609.2" y2="43.6"/>
	
		<line clip-path="url(#SVGID_2_)" fill="none" stroke="#FFFFFF" stroke-width="1.06" stroke-linejoin="round" stroke-miterlimit="10" x1="782.9" y1="646.9" x2="782.9" y2="43.6"/>
	
		<line clip-path="url(#SVGID_2_)" fill="none" stroke="#FFFFFF" stroke-width="1.06" stroke-linejoin="round" stroke-miterlimit="10" x1="956.6" y1="646.9" x2="956.6" y2="43.6"/>
	
		<line opacity="0.502" clip-path="url(#SVGID_2_)" fill="none" stroke="#FF0000" stroke-width="1.06" stroke-linejoin="round" stroke-miterlimit="10" x1="261.9" y1="213.6" x2="782.9" y2="400.1"/>
	
		<line opacity="0.502" clip-path="url(#SVGID_2_)" fill="none" stroke="#FF0000" stroke-width="1.06" stroke-linejoin="round" stroke-miterlimit="10" x1="261.9" y1="273.9" x2="782.9" y2="520.7"/>
	
		<line opacity="0.502" clip-path="url(#SVGID_2_)" fill="none" stroke="#FF0000" stroke-width="1.06" stroke-linejoin="round" stroke-miterlimit="10" x1="261.9" y1="328.8" x2="782.9" y2="465.9"/>
	
		<line opacity="0.502" clip-path="url(#SVGID_2_)" fill="none" stroke="#FF0000" stroke-width="1.06" stroke-linejoin="round" stroke-miterlimit="10" x1="261.9" y1="334.3" x2="782.9" y2="509.8"/>
	
		<line opacity="0.502" clip-path="url(#SVGID_2_)" fill="none" stroke="#FF0000" stroke-width="1.06" stroke-linejoin="round" stroke-miterlimit="10" x1="261.9" y1="383.6" x2="782.9" y2="361.7"/>
	
		<line opacity="0.502" clip-path="url(#SVGID_2_)" fill="none" stroke="#FF0000" stroke-width="1.06" stroke-linejoin="round" stroke-miterlimit="10" x1="261.9" y1="405.6" x2="782.9" y2="422"/>
	
		<line opacity="0.502" clip-path="url(#SVGID_2_)" fill="none" stroke="#FF0000" stroke-width="1.06" stroke-linejoin="round" stroke-miterlimit="10" x1="261.9" y1="405.6" x2="782.9" y2="405.6"/>
	
		<line opacity="0.502" clip-path="url(#SVGID_2_)" fill="none" stroke="#FF0000" stroke-width="1.06" stroke-linejoin="round" stroke-miterlimit="10" x1="261.9" y1="416.5" x2="782.9" y2="509.8"/>
	
		<line opacity="0.502" clip-path="url(#SVGID_2_)" fill="none" stroke="#FF0000" stroke-width="1.06" stroke-linejoin="round" stroke-miterlimit="10" x1="261.9" y1="476.9" x2="782.9" y2="416.5"/>
	
		<line opacity="0.502" clip-path="url(#SVGID_2_)" fill="none" stroke="#FF0000" stroke-width="1.06" stroke-linejoin="round" stroke-miterlimit="10" x1="261.9" y1="498.8" x2="782.9" y2="449.4"/>
	
		<line opacity="0.502" clip-path="url(#SVGID_2_)" fill="none" stroke="#FF0000" stroke-width="1.06" stroke-linejoin="round" stroke-miterlimit="10" x1="261.9" y1="531.7" x2="782.9" y2="460.4"/>
	
		<line opacity="0.502" clip-path="url(#SVGID_2_)" fill="none" stroke="#FF0000" stroke-width="1.06" stroke-linejoin="round" stroke-miterlimit="10" x1="261.9" y1="531.7" x2="782.9" y2="438.5"/>
	
		<line opacity="0.502" clip-path="url(#SVGID_2_)" fill="none" stroke="#FF0000" stroke-width="1.06" stroke-linejoin="round" stroke-miterlimit="10" x1="261.9" y1="575.6" x2="782.9" y2="509.8"/>
	
		<line opacity="0.502" clip-path="url(#SVGID_2_)" fill="none" stroke="#FF0000" stroke-width="1.06" stroke-linejoin="round" stroke-miterlimit="10" x1="261.9" y1="575.6" x2="782.9" y2="504.3"/>
	<g clip-path="url(#SVGID_2_)">
		<text transform="matrix(1 0 0 1 114.832 218.3064)" opacity="0.6"><tspan x="0" y="0" font-family="'Helvetica'" font-size="13.0877">Com</tspan><tspan x="27.6" y="0" font-family="'Helvetica'" font-size="13.0877">m</tspan><tspan x="38.4" y="0" font-family="'Helvetica'" font-size="13.0877">unication skills</tspan></text>
	</g>
	<g clip-path="url(#SVGID_2_)">
		<text transform="matrix(1 0 0 1 132.8447 278.6404)" opacity="0.6" font-family="'Helvetica'" font-size="13.0877">Analytical thinking</text>
	</g>
	<g clip-path="url(#SVGID_2_)">
		<text transform="matrix(1 0 0 1 144.2314 333.4778)" opacity="0.6"><tspan x="0" y="0" font-family="'Helvetica'" font-size="13.0877">Moti</tspan><tspan x="24.7" y="0" font-family="'Helvetica'" font-size="13.0877">v</tspan><tspan x="31" y="0" font-family="'Helvetica'" font-size="13.0877">ation/D</tspan><tspan x="72.4" y="0" font-family="'Helvetica'" font-size="13.0877">r</tspan><tspan x="77" y="0" font-family="'Helvetica'" font-size="13.0877">i</tspan><tspan x="79.9" y="0" font-family="'Helvetica'" font-size="13.0877">v</tspan><tspan x="86.1" y="0" font-family="'Helvetica'" font-size="13.0877">e</tspan></text>
	</g>
	<g clip-path="url(#SVGID_2_)">
		<text transform="matrix(1 0 0 1 70.7021 338.9631)" opacity="0.6"><tspan x="0" y="0" font-family="'Helvetica'" font-size="13.0877">Ability to </tspan><tspan x="53.1" y="0" font-family="'Helvetica'" font-size="13.0877">w</tspan><tspan x="62.4" y="0" font-family="'Helvetica'" font-size="13.0877">o</tspan><tspan x="69.7" y="0" font-family="'Helvetica'" font-size="13.0877">r</tspan><tspan x="74.2" y="0" font-family="'Helvetica'" font-size="13.0877">k collabo</tspan><tspan x="125.9" y="0" font-family="'Helvetica'" font-size="13.0877">r</tspan><tspan x="130.1" y="0" font-family="'Helvetica'" font-size="13.0877">ati</tspan><tspan x="143.9" y="0" font-family="'Helvetica'" font-size="13.0877">v</tspan><tspan x="150.2" y="0" font-family="'Helvetica'" font-size="13.0877">ely</tspan></text>
	</g>
	<g clip-path="url(#SVGID_2_)">
		<text transform="matrix(1 0 0 1 137.3427 388.3274)" opacity="0.6"><tspan x="0" y="0" font-family="'Helvetica'" font-size="13.0877">St</tspan><tspan x="12.4" y="0" font-family="'Helvetica'" font-size="13.0877">r</tspan><tspan x="16.6" y="0" font-family="'Helvetica'" font-size="13.0877">ategic thinking</tspan></text>
	</g>
	<g clip-path="url(#SVGID_2_)">
		<text transform="matrix(1 0 0 1 140.8525 410.2668)" opacity="0.6" font-family="'Helvetica'" font-size="13.0877">Leadership skills</text>
	</g>
	<g clip-path="url(#SVGID_2_)">
		<text transform="matrix(1 0 0 1 90.1669 410.2668)" opacity="0.6"><tspan x="0" y="0" font-family="'Helvetica'" font-size="13.0877">Creati</tspan><tspan x="34.9" y="0" font-family="'Helvetica'" font-size="13.0877">v</tspan><tspan x="41.1" y="0" font-family="'Helvetica'" font-size="13.0877">e pro</tspan><tspan x="71" y="0" font-family="'Helvetica'" font-size="13.0877">b</tspan><tspan x="78" y="0" font-family="'Helvetica'" font-size="13.0877">lem−solving</tspan></text>
	</g>
	<g clip-path="url(#SVGID_2_)">
		<text transform="matrix(1 0 0 1 136.0937 421.2366)" opacity="0.6"><tspan x="0" y="0" font-family="'Helvetica'" font-size="13.0877">Quantitati</tspan><tspan x="56" y="0" font-family="'Helvetica'" font-size="13.0877">v</tspan><tspan x="62.2" y="0" font-family="'Helvetica'" font-size="13.0877">e skills</tspan></text>
	</g>
	<g clip-path="url(#SVGID_2_)">
		<text transform="matrix(1 0 0 1 169.9433 481.5706)" opacity="0.6" font-family="'Helvetica'" font-size="13.0877">Adaptability</text>
	</g>
	<g clip-path="url(#SVGID_2_)">
		<text transform="matrix(1 0 0 1 141.5898 503.4993)" opacity="0.6" font-family="'Helvetica'" font-size="13.0877">Decision making</text>
	</g>
	<g clip-path="url(#SVGID_2_)">
		<text transform="matrix(1 0 0 1 123.1601 536.4084)" opacity="0.6"><tspan x="0" y="0" font-family="'Helvetica'" font-size="13.0877">Initiati</tspan><tspan x="34.2" y="0" font-family="'Helvetica'" font-size="13.0877">v</tspan><tspan x="40.4" y="0" font-family="'Helvetica'" font-size="13.0877">e/</tspan><tspan x="51.3" y="0" font-family="'Helvetica'" font-size="13.0877">r</tspan><tspan x="55.9" y="0" font-family="'Helvetica'" font-size="13.0877">isk−taking</tspan></text>
	</g>
	<g clip-path="url(#SVGID_2_)">
		<text transform="matrix(1 0 0 1 44.206 536.4084)" opacity="0.6"><tspan x="0" y="0" font-family="'Helvetica'" font-size="13.0877">Indust</tspan><tspan x="35.7" y="0" font-family="'Helvetica'" font-size="13.0877">r</tspan><tspan x="40.4" y="0" font-family="'Helvetica'" font-size="13.0877">y−related </tspan><tspan x="98.2" y="0" font-family="'Helvetica'" font-size="13.0877">w</tspan><tspan x="107.6" y="0" font-family="'Helvetica'" font-size="13.0877">o</tspan><tspan x="114.8" y="0" font-family="'Helvetica'" font-size="13.0877">r</tspan><tspan x="119.4" y="0" font-family="'Helvetica'" font-size="13.0877">k </tspan><tspan x="129.6" y="0" font-family="'Helvetica'" font-size="13.0877">e</tspan><tspan x="136.4" y="0" font-family="'Helvetica'" font-size="13.0877">xpe</tspan><tspan x="157.5" y="0" font-family="'Helvetica'" font-size="13.0877">r</tspan><tspan x="162.1" y="0" font-family="'Helvetica'" font-size="13.0877">ience</tspan></text>
	</g>
	<g clip-path="url(#SVGID_2_)">
		<text transform="matrix(1 0 0 1 150.3115 580.2883)" opacity="0.6" font-family="'Helvetica'" font-size="13.0877">Global mindset</text>
	</g>
	<g clip-path="url(#SVGID_2_)">
		<text transform="matrix(1 0 0 1 137.2119 580.2883)" opacity="0.6" font-family="'Helvetica'" font-size="13.0877">Entrepreneurship</text>
	</g>
	<g clip-path="url(#SVGID_2_)">
		<text transform="matrix(1 0 0 1 243.8759 218.3064)" font-family="'Helvetica'" font-size="13.0877">74</text>
	</g>
	<g clip-path="url(#SVGID_2_)">
		<text transform="matrix(1 0 0 1 243.8759 278.6404)" font-family="'Helvetica'" font-size="13.0877">63</text>
	</g>
	<g clip-path="url(#SVGID_2_)">
		<text transform="matrix(1 0 0 1 243.8759 333.4778)" font-family="'Helvetica'" font-size="13.0877">53</text>
	</g>
	<g clip-path="url(#SVGID_2_)">
		<text transform="matrix(1 0 0 1 243.8759 338.9631)" font-family="'Helvetica'" font-size="13.0877">52</text>
	</g>
	<g clip-path="url(#SVGID_2_)">
		<text transform="matrix(1 0 0 1 243.8759 388.3274)" font-family="'Helvetica'" font-size="13.0877">43</text>
	</g>
	<g clip-path="url(#SVGID_2_)">
		<text transform="matrix(1 0 0 1 243.8759 410.2668)" font-family="'Helvetica'" font-size="13.0877">39</text>
	</g>
	<g clip-path="url(#SVGID_2_)">
		<text transform="matrix(1 0 0 1 243.8759 410.2668)" font-family="'Helvetica'" font-size="13.0877">39</text>
	</g>
	<g clip-path="url(#SVGID_2_)">
		<text transform="matrix(1 0 0 1 243.8759 421.2366)" font-family="'Helvetica'" font-size="13.0877">37</text>
	</g>
	<g clip-path="url(#SVGID_2_)">
		<text transform="matrix(1 0 0 1 243.8759 481.5706)" font-family="'Helvetica'" font-size="13.0877">26</text>
	</g>
	<g clip-path="url(#SVGID_2_)">
		<text transform="matrix(1 0 0 1 243.8759 503.4993)" font-family="'Helvetica'" font-size="13.0877">22</text>
	</g>
	<g clip-path="url(#SVGID_2_)">
		<text transform="matrix(1 0 0 1 243.8759 536.4084)" font-family="'Helvetica'" font-size="13.0877">16</text>
	</g>
	<g clip-path="url(#SVGID_2_)">
		<text transform="matrix(1 0 0 1 243.8759 536.4084)" font-family="'Helvetica'" font-size="13.0877">16</text>
	</g>
	<g clip-path="url(#SVGID_2_)">
		<text transform="matrix(1 0 0 1 251.1582 580.2883)" font-family="'Helvetica'" font-size="13.0877">8</text>
	</g>
	<g clip-path="url(#SVGID_2_)">
		<text transform="matrix(1 0 0 1 251.1582 580.2883)" font-family="'Helvetica'" font-size="13.0877">8</text>
	</g>
	<g clip-path="url(#SVGID_2_)">
		<text transform="matrix(1 0 0 1 786.3847 404.7825)" font-family="'Helvetica'" font-size="13.0877">40</text>
	</g>
	<g clip-path="url(#SVGID_2_)">
		<text transform="matrix(1 0 0 1 786.3847 525.4377)" font-family="'Helvetica'" font-size="13.0877">18</text>
	</g>
	<g clip-path="url(#SVGID_2_)">
		<text transform="matrix(1 0 0 1 786.3847 470.6008)" font-family="'Helvetica'" font-size="13.0877">28</text>
	</g>
	<g clip-path="url(#SVGID_2_)">
		<text transform="matrix(1 0 0 1 786.3847 514.469)" font-family="'Helvetica'" font-size="13.0877">20</text>
	</g>
	<g clip-path="url(#SVGID_2_)">
		<text transform="matrix(1 0 0 1 786.3847 366.387)" font-family="'Helvetica'" font-size="13.0877">47</text>
	</g>
	<g clip-path="url(#SVGID_2_)">
		<text transform="matrix(1 0 0 1 786.3847 426.7219)" font-family="'Helvetica'" font-size="13.0877">36</text>
	</g>
	<g clip-path="url(#SVGID_2_)">
		<text transform="matrix(1 0 0 1 786.3847 410.2668)" font-family="'Helvetica'" font-size="13.0877">39</text>
	</g>
	<g clip-path="url(#SVGID_2_)">
		<text transform="matrix(1 0 0 1 786.3847 514.469)" font-family="'Helvetica'" font-size="13.0877">20</text>
	</g>
	<g clip-path="url(#SVGID_2_)">
		<text transform="matrix(1 0 0 1 786.3847 421.2366)" font-family="'Helvetica'" font-size="13.0877">37</text>
	</g>
	<g clip-path="url(#SVGID_2_)">
		<text transform="matrix(1 0 0 1 786.3847 454.1458)" font-family="'Helvetica'" font-size="13.0877">31</text>
	</g>
	<g clip-path="url(#SVGID_2_)">
		<text transform="matrix(1 0 0 1 786.3847 465.1165)" font-family="'Helvetica'" font-size="13.0877">29</text>
	</g>
	<g clip-path="url(#SVGID_2_)">
		<text transform="matrix(1 0 0 1 786.3847 443.176)" font-family="'Helvetica'" font-size="13.0877">33</text>
	</g>
	<g clip-path="url(#SVGID_2_)">
		<text transform="matrix(1 0 0 1 786.3847 514.469)" font-family="'Helvetica'" font-size="13.0877">20</text>
	</g>
	<g clip-path="url(#SVGID_2_)">
		<text transform="matrix(1 0 0 1 786.3847 508.9836)" font-family="'Helvetica'" font-size="13.0877">21</text>
	</g>
	<g clip-path="url(#SVGID_2_)">
		<text transform="matrix(1 0 0 1 817.6406 404.7825)" opacity="0.6"><tspan x="0" y="0" font-family="'Helvetica'" font-size="13.0877">Com</tspan><tspan x="27.6" y="0" font-family="'Helvetica'" font-size="13.0877">m</tspan><tspan x="38.4" y="0" font-family="'Helvetica'" font-size="13.0877">unication skills</tspan></text>
	</g>
	<g clip-path="url(#SVGID_2_)">
		<text transform="matrix(1 0 0 1 817.6406 525.4377)" opacity="0.6" font-family="'Helvetica'" font-size="13.0877">Analytical thinking</text>
	</g>
	<g clip-path="url(#SVGID_2_)">
		<text transform="matrix(1 0 0 1 817.6406 470.6008)" opacity="0.6"><tspan x="0" y="0" font-family="'Helvetica'" font-size="13.0877">Moti</tspan><tspan x="24.7" y="0" font-family="'Helvetica'" font-size="13.0877">v</tspan><tspan x="30.9" y="0" font-family="'Helvetica'" font-size="13.0877">ation/D</tspan><tspan x="72.4" y="0" font-family="'Helvetica'" font-size="13.0877">r</tspan><tspan x="77" y="0" font-family="'Helvetica'" font-size="13.0877">i</tspan><tspan x="79.9" y="0" font-family="'Helvetica'" font-size="13.0877">v</tspan><tspan x="86.1" y="0" font-family="'Helvetica'" font-size="13.0877">e</tspan></text>
	</g>
	<g clip-path="url(#SVGID_2_)">
		<text transform="matrix(1 0 0 1 817.6406 514.469)" opacity="0.6"><tspan x="0" y="0" font-family="'Helvetica'" font-size="13.0877">Ability to </tspan><tspan x="53.1" y="0" font-family="'Helvetica'" font-size="13.0877">w</tspan><tspan x="62.4" y="0" font-family="'Helvetica'" font-size="13.0877">o</tspan><tspan x="69.7" y="0" font-family="'Helvetica'" font-size="13.0877">r</tspan><tspan x="74.2" y="0" font-family="'Helvetica'" font-size="13.0877">k collabo</tspan><tspan x="125.9" y="0" font-family="'Helvetica'" font-size="13.0877">r</tspan><tspan x="130.1" y="0" font-family="'Helvetica'" font-size="13.0877">ati</tspan><tspan x="143.9" y="0" font-family="'Helvetica'" font-size="13.0877">v</tspan><tspan x="150.2" y="0" font-family="'Helvetica'" font-size="13.0877">ely</tspan></text>
	</g>
	<g clip-path="url(#SVGID_2_)">
		<text transform="matrix(1 0 0 1 817.6406 366.387)" opacity="0.6"><tspan x="0" y="0" font-family="'Helvetica'" font-size="13.0877">St</tspan><tspan x="12.4" y="0" font-family="'Helvetica'" font-size="13.0877">r</tspan><tspan x="16.6" y="0" font-family="'Helvetica'" font-size="13.0877">ategic thinking</tspan></text>
	</g>
	<g clip-path="url(#SVGID_2_)">
		<text transform="matrix(1 0 0 1 817.6406 426.7219)" opacity="0.6" font-family="'Helvetica'" font-size="13.0877">Leadership skills</text>
	</g>
	<g clip-path="url(#SVGID_2_)">
		<text transform="matrix(1 0 0 1 817.6406 410.2668)" opacity="0.6"><tspan x="0" y="0" font-family="'Helvetica'" font-size="13.0877">Creati</tspan><tspan x="34.9" y="0" font-family="'Helvetica'" font-size="13.0877">v</tspan><tspan x="41.1" y="0" font-family="'Helvetica'" font-size="13.0877">e pro</tspan><tspan x="71" y="0" font-family="'Helvetica'" font-size="13.0877">b</tspan><tspan x="78" y="0" font-family="'Helvetica'" font-size="13.0877">lem−solving</tspan></text>
	</g>
	<g clip-path="url(#SVGID_2_)">
		<text transform="matrix(1 0 0 1 817.6406 514.469)" opacity="0.6"><tspan x="0" y="0" font-family="'Helvetica'" font-size="13.0877">Quantitati</tspan><tspan x="56" y="0" font-family="'Helvetica'" font-size="13.0877">v</tspan><tspan x="62.2" y="0" font-family="'Helvetica'" font-size="13.0877">e skills</tspan></text>
	</g>
	<g clip-path="url(#SVGID_2_)">
		<text transform="matrix(1 0 0 1 817.6406 421.2366)" opacity="0.6" font-family="'Helvetica'" font-size="13.0877">Adaptability</text>
	</g>
	<g clip-path="url(#SVGID_2_)">
		<text transform="matrix(1 0 0 1 817.6406 454.1458)" opacity="0.6" font-family="'Helvetica'" font-size="13.0877">Decision making</text>
	</g>
	<g clip-path="url(#SVGID_2_)">
		<text transform="matrix(1 0 0 1 817.6406 465.1165)" opacity="0.6"><tspan x="0" y="0" font-family="'Helvetica'" font-size="13.0877">Initiati</tspan><tspan x="34.2" y="0" font-family="'Helvetica'" font-size="13.0877">v</tspan><tspan x="40.4" y="0" font-family="'Helvetica'" font-size="13.0877">e/</tspan><tspan x="51.3" y="0" font-family="'Helvetica'" font-size="13.0877">r</tspan><tspan x="55.9" y="0" font-family="'Helvetica'" font-size="13.0877">isk−taking</tspan></text>
	</g>
	<g clip-path="url(#SVGID_2_)">
		<text transform="matrix(1 0 0 1 817.6406 443.176)" opacity="0.6"><tspan x="0" y="0" font-family="'Helvetica'" font-size="13.0877">Indust</tspan><tspan x="35.7" y="0" font-family="'Helvetica'" font-size="13.0877">r</tspan><tspan x="40.4" y="0" font-family="'Helvetica'" font-size="13.0877">y−related </tspan><tspan x="98.2" y="0" font-family="'Helvetica'" font-size="13.0877">w</tspan><tspan x="107.6" y="0" font-family="'Helvetica'" font-size="13.0877">o</tspan><tspan x="114.8" y="0" font-family="'Helvetica'" font-size="13.0877">r</tspan><tspan x="119.4" y="0" font-family="'Helvetica'" font-size="13.0877">k </tspan><tspan x="129.6" y="0" font-family="'Helvetica'" font-size="13.0877">e</tspan><tspan x="136.4" y="0" font-family="'Helvetica'" font-size="13.0877">xpe</tspan><tspan x="157.5" y="0" font-family="'Helvetica'" font-size="13.0877">r</tspan><tspan x="162.1" y="0" font-family="'Helvetica'" font-size="13.0877">ience</tspan></text>
	</g>
	<g clip-path="url(#SVGID_2_)">
		<text transform="matrix(1 0 0 1 817.6406 514.469)" opacity="0.6" font-family="'Helvetica'" font-size="13.0877">Global mindset</text>
	</g>
	<g clip-path="url(#SVGID_2_)">
		<text transform="matrix(1 0 0 1 817.6406 508.9836)" opacity="0.6" font-family="'Helvetica'" font-size="13.0877">Entrepreneurship</text>
	</g>
	<g clip-path="url(#SVGID_2_)">
		<text transform="matrix(1 0 0 1 52.2607 131.8328)"><tspan x="0" y="0" font-family="'Helvetica'" font-size="16.6571">Most impo</tspan><tspan x="76.8" y="0" font-family="'Helvetica'" font-size="16.6571">r</tspan><tspan x="83" y="0" font-family="'Helvetica'" font-size="16.6571">tant skills sought</tspan></text>
	</g>
	<g clip-path="url(#SVGID_2_)">
		<text transform="matrix(1 0 0 1 786.3847 131.8328)" font-family="'Helvetica'" font-size="16.6571">Hardest−to−find skills</text>
	</g>
</g>
<text transform="matrix(1 0 0 1 29.7734 623.7385)" fill="#7F7F7F" font-family="'Helvetica'" font-size="11.8979">0</text>
<text transform="matrix(1 0 0 1 23.1582 486.6272)" fill="#7F7F7F" font-family="'Helvetica'" font-size="11.8979">25</text>
<text transform="matrix(1 0 0 1 23.1582 349.5042)" fill="#7F7F7F" font-family="'Helvetica'" font-size="11.8979">50</text>
<text transform="matrix(1 0 0 1 23.1582 212.3933)" fill="#7F7F7F" font-family="'Helvetica'" font-size="11.8979">75</text>
<text transform="matrix(1 0 0 1 16.5429 75.282)" fill="#7F7F7F" font-family="'Helvetica'" font-size="11.8979">100</text>
<line fill="none" stroke="#7F7F7F" stroke-width="1.06" stroke-linejoin="round" stroke-miterlimit="10" x1="39.8" y1="619.5" x2="44.8" y2="619.5"/>
<line fill="none" stroke="#7F7F7F" stroke-width="1.06" stroke-linejoin="round" stroke-miterlimit="10" x1="39.8" y1="482.4" x2="44.8" y2="482.4"/>
<line fill="none" stroke="#7F7F7F" stroke-width="1.06" stroke-linejoin="round" stroke-miterlimit="10" x1="39.8" y1="345.2" x2="44.8" y2="345.2"/>
<line fill="none" stroke="#7F7F7F" stroke-width="1.06" stroke-linejoin="round" stroke-miterlimit="10" x1="39.8" y1="208.1" x2="44.8" y2="208.1"/>
<line fill="none" stroke="#7F7F7F" stroke-width="1.06" stroke-linejoin="round" stroke-miterlimit="10" x1="39.8" y1="71" x2="44.8" y2="71"/>
<line fill="none" stroke="#7F7F7F" stroke-width="1.06" stroke-linejoin="round" stroke-miterlimit="10" x1="88.2" y1="651.9" x2="88.2" y2="646.9"/>
<line fill="none" stroke="#7F7F7F" stroke-width="1.06" stroke-linejoin="round" stroke-miterlimit="10" x1="261.9" y1="651.9" x2="261.9" y2="646.9"/>
<line fill="none" stroke="#7F7F7F" stroke-width="1.06" stroke-linejoin="round" stroke-miterlimit="10" x1="435.6" y1="651.9" x2="435.6" y2="646.9"/>
<line fill="none" stroke="#7F7F7F" stroke-width="1.06" stroke-linejoin="round" stroke-miterlimit="10" x1="609.2" y1="651.9" x2="609.2" y2="646.9"/>
<line fill="none" stroke="#7F7F7F" stroke-width="1.06" stroke-linejoin="round" stroke-miterlimit="10" x1="782.9" y1="651.9" x2="782.9" y2="646.9"/>
<line fill="none" stroke="#7F7F7F" stroke-width="1.06" stroke-linejoin="round" stroke-miterlimit="10" x1="956.6" y1="651.9" x2="956.6" y2="646.9"/>
<text transform="matrix(1 0 0 1 84.9209 663.8596)" fill="#7F7F7F" font-family="'Helvetica'" font-size="11.8979">0</text>
<text transform="matrix(1 0 0 1 255.2871 663.8596)" fill="#7F7F7F" font-family="'Helvetica'" font-size="11.8979">10</text>
<text transform="matrix(1 0 0 1 428.9599 663.8596)" fill="#7F7F7F" font-family="'Helvetica'" font-size="11.8979">20</text>
<text transform="matrix(1 0 0 1 602.622 663.8596)" fill="#7F7F7F" font-family="'Helvetica'" font-size="11.8979">30</text>
<text transform="matrix(1 0 0 1 776.2958 663.8596)" fill="#7F7F7F" font-family="'Helvetica'" font-size="11.8979">40</text>
<text transform="matrix(1 0 0 1 949.9687 663.8596)" fill="#7F7F7F" font-family="'Helvetica'" font-size="11.8979">50</text>
<text transform="matrix(-6.123234e-17 -1 1 -6.123234e-17 12.2597 394.7176)"><tspan x="0" y="0" font-family="'Helvetica'" font-size="14.2775">most_impo</tspan><tspan x="69.8" y="0" font-family="'Helvetica'" font-size="14.2775">r</tspan><tspan x="75.1" y="0" font-family="'Helvetica'" font-size="14.2775">tant</tspan></text>
<text transform="matrix(1 0 0 1 359.5956 39.3025)"><tspan x="0" y="0" font-family="'Helvetica'" font-size="16.6571">Skills </tspan><tspan x="43.5" y="0" font-family="'Helvetica'" font-size="16.6571">w</tspan><tspan x="55.3" y="0" font-family="'Helvetica'" font-size="16.6571">anted/hardest to find: Finance sector</tspan></text>
</svg>
