<?xml version="1.0" encoding="utf-8"?>
<!-- Generator: Adobe Illustrator 18.1.0, SVG Export Plug-In . SVG Version: 6.00 Build 0)  -->
<svg version="1.1" id="Layer_1" xmlns="http://www.w3.org/2000/svg" xmlns:xlink="http://www.w3.org/1999/xlink" x="0px" y="0px"
	 viewBox="0 0 1000 717" enable-background="new 0 0 1000 717" xml:space="preserve">
<text transform="matrix(0.9998 0 0 1 341.5811 51.2296)"><tspan x="0" y="0" font-family="'Helvetica'" font-size="30.5359">Campaign cont</tspan><tspan x="205.4" y="0" font-family="'Helvetica'" font-size="30.5359">r</tspan><tspan x="215.9" y="0" font-family="'Helvetica'" font-size="30.5359">i</tspan><tspan x="222.7" y="0" font-family="'Helvetica'" font-size="30.5359">b</tspan><tspan x="239.1" y="0" font-family="'Helvetica'" font-size="30.5359">utions</tspan></text>
<line fill="none" stroke="#000000" stroke-width="0.75" stroke-linecap="round" stroke-linejoin="round" stroke-miterlimit="10" x1="7.3" y1="106.2" x2="7.3" y2="113.5"/>
<line fill="none" stroke="#000000" stroke-width="0.75" stroke-linecap="round" stroke-linejoin="round" stroke-miterlimit="10" x1="254.6" y1="106.2" x2="254.6" y2="113.5"/>
<line fill="none" stroke="#000000" stroke-width="0.75" stroke-linecap="round" stroke-linejoin="round" stroke-miterlimit="10" x1="501.9" y1="106.2" x2="501.9" y2="113.5"/>
<line fill="none" stroke="#000000" stroke-width="0.75" stroke-linecap="round" stroke-linejoin="round" stroke-miterlimit="10" x1="749.2" y1="106.2" x2="749.2" y2="113.5"/>
<line fill="none" stroke="#000000" stroke-width="0.75" stroke-linecap="round" stroke-linejoin="round" stroke-miterlimit="10" x1="996.5" y1="106.2" x2="996.5" y2="113.5"/>
<rect x="7.3" y="87.9" fill="#FF0000" width="19.4" height="18.3"/>
<rect x="26.7" y="87.9" fill="#F40000" width="19.4" height="18.3"/>
<rect x="46" y="87.9" fill="#EA0000" width="19.4" height="18.3"/>
<rect x="65.4" y="87.9" fill="#E00000" width="19.4" height="18.3"/>
<rect x="84.8" y="87.9" fill="#D60000" width="19.4" height="18.3"/>
<rect x="104.2" y="87.9" fill="#CC0000" width="19.4" height="18.3"/>
<rect x="123.6" y="87.9" fill="#C10000" width="19.4" height="18.3"/>
<rect x="143" y="87.9" fill="#B70000" width="19.4" height="18.3"/>
<rect x="162.4" y="87.9" fill="#AD0000" width="19.4" height="18.3"/>
<rect x="181.8" y="87.9" fill="#A30000" width="19.4" height="18.3"/>
<rect x="201.2" y="87.9" fill="#990000" width="19.4" height="18.3"/>
<rect x="220.6" y="87.9" fill="#8E0000" width="19.4" height="18.3"/>
<rect x="240" y="87.9" fill="#840000" width="19.4" height="18.3"/>
<rect x="259.4" y="87.9" fill="#7A0000" width="19.4" height="18.3"/>
<rect x="278.8" y="87.9" fill="#700000" width="19.4" height="18.3"/>
<rect x="298.2" y="87.9" fill="#660000" width="19.4" height="18.3"/>
<rect x="317.6" y="87.9" fill="#5B0000" width="19.4" height="18.3"/>
<rect x="337" y="87.9" fill="#510000" width="19.4" height="18.3"/>
<rect x="356.4" y="87.9" fill="#470000" width="19.4" height="18.3"/>
<rect x="375.8" y="87.9" fill="#3D0000" width="19.4" height="18.3"/>
<rect x="395.2" y="87.9" fill="#320000" width="19.4" height="18.3"/>
<rect x="414.6" y="87.9" fill="#280000" width="19.4" height="18.3"/>
<rect x="434" y="87.9" fill="#1E0000" width="19.4" height="18.3"/>
<rect x="453.4" y="87.9" fill="#140000" width="19.4" height="18.3"/>
<rect x="472.8" y="87.9" fill="#0A0000" width="19.4" height="18.3"/>
<rect x="492.2" y="87.9" width="19.4" height="18.3"/>
<rect x="511.6" y="87.9" fill="#000A00" width="19.4" height="18.3"/>
<rect x="531" y="87.9" fill="#001400" width="19.4" height="18.3"/>
<rect x="550.4" y="87.9" fill="#001E00" width="19.4" height="18.3"/>
<rect x="569.7" y="87.9" fill="#002800" width="19.4" height="18.3"/>
<rect x="589.1" y="87.9" fill="#003200" width="19.4" height="18.3"/>
<rect x="608.5" y="87.9" fill="#003D00" width="19.4" height="18.3"/>
<rect x="627.9" y="87.9" fill="#004700" width="19.4" height="18.3"/>
<rect x="647.3" y="87.9" fill="#005100" width="19.4" height="18.3"/>
<rect x="666.7" y="87.9" fill="#005B00" width="19.4" height="18.3"/>
<rect x="686.1" y="87.9" fill="#006600" width="19.4" height="18.3"/>
<rect x="705.5" y="87.9" fill="#007000" width="19.4" height="18.3"/>
<rect x="724.9" y="87.9" fill="#007A00" width="19.4" height="18.3"/>
<rect x="744.3" y="87.9" fill="#008400" width="19.4" height="18.3"/>
<rect x="763.7" y="87.9" fill="#008E00" width="19.4" height="18.3"/>
<rect x="783.1" y="87.9" fill="#009900" width="19.4" height="18.3"/>
<rect x="802.5" y="87.9" fill="#00A300" width="19.4" height="18.3"/>
<rect x="821.9" y="87.9" fill="#00AD00" width="19.4" height="18.3"/>
<rect x="841.3" y="87.9" fill="#00B700" width="19.4" height="18.3"/>
<rect x="860.7" y="87.9" fill="#00C100" width="19.4" height="18.3"/>
<rect x="880.1" y="87.9" fill="#00CC00" width="19.4" height="18.3"/>
<rect x="899.5" y="87.9" fill="#00D600" width="19.4" height="18.3"/>
<rect x="918.9" y="87.9" fill="#00E000" width="19.4" height="18.3"/>
<rect x="938.3" y="87.9" fill="#00EA00" width="19.4" height="18.3"/>
<rect x="957.7" y="87.9" fill="#00F400" width="19.4" height="18.3"/>
<rect x="977.1" y="87.9" fill="#00FF00" width="19.4" height="18.3"/>
<text transform="matrix(0.9998 0 0 1 1.058682e-04 132.7735)" font-family="'Helvetica-Bold'" font-size="12.7233">−2</text>
<text transform="matrix(0.9998 0 0 1 247.3028 132.7735)" font-family="'Helvetica-Bold'" font-size="12.7233">−1</text>
<text transform="matrix(0.9998 0 0 1 498.3214 132.7735)" font-family="'Helvetica-Bold'" font-size="12.7233">0</text>
<text transform="matrix(0.9998 0 0 1 745.6241 132.7735)" font-family="'Helvetica-Bold'" font-size="12.7233">1</text>
<text transform="matrix(0.9998 0 0 1 992.9269 132.7735)" font-family="'Helvetica-Bold'" font-size="12.7233">2</text>
<rect x="7.3" y="142.9" fill="none" stroke="#A9A9A9" stroke-width="0.75" stroke-linecap="round" stroke-linejoin="round" stroke-miterlimit="10" width="989.2" height="549.6"/>
<g>
	<defs>
		<rect id="SVGID_1_" x="7.3" y="385.3" width="503.2" height="307.3"/>
	</defs>
	<clipPath id="SVGID_2_">
		<use xlink:href="#SVGID_1_"  overflow="visible"/>
	</clipPath>
</g>
<g>
	<defs>
		<rect id="SVGID_3_" x="7.3" y="385.3" width="503.2" height="307.3"/>
	</defs>
	<clipPath id="SVGID_4_">
		<use xlink:href="#SVGID_3_"  overflow="visible"/>
	</clipPath>
	<rect x="7.3" y="385.3" clip-path="url(#SVGID_4_)" fill="#FF0000" width="503.2" height="307.3"/>
	
		<rect x="7.3" y="385.3" clip-path="url(#SVGID_4_)" fill="none" stroke="#FF0000" stroke-width="0.75" stroke-linecap="round" stroke-linejoin="round" stroke-miterlimit="10" width="503.2" height="307.3"/>
	<g clip-path="url(#SVGID_4_)">
		<text transform="matrix(0.9998 0 0 1 18.2423 402.6475)" fill="#FFFFFF" font-family="'Helvetica'" font-size="8.9063">36</text>
	</g>
</g>
<g>
	<defs>
		<rect id="SVGID_5_" x="7.3" y="385.3" width="503.2" height="307.3"/>
	</defs>
	<clipPath id="SVGID_6_">
		<use xlink:href="#SVGID_5_"  overflow="visible"/>
	</clipPath>
	
		<rect x="7.3" y="385.3" clip-path="url(#SVGID_6_)" fill="none" stroke="#BEBEBE" stroke-width="0.75" stroke-linecap="round" stroke-linejoin="round" stroke-miterlimit="10" width="503.2" height="307.3"/>
	<g clip-path="url(#SVGID_6_)">
		<text transform="matrix(0.9998 0 0 1 228.2716 544.3594)"><tspan x="0" y="0" fill="#FFFFFF" font-family="'Helvetica'" font-size="15.268" letter-spacing="-1">T</tspan><tspan x="7.5" y="0" fill="#FFFFFF" font-family="'Helvetica'" font-size="15.268">ed C</tspan><tspan x="39.8" y="0" fill="#FFFFFF" font-family="'Helvetica'" font-size="15.268">r</tspan><tspan x="45.1" y="0" fill="#FFFFFF" font-family="'Helvetica'" font-size="15.268">uz</tspan></text>
	</g>
</g>
<g>
	<defs>
		<rect id="SVGID_7_" x="7.3" y="142.9" width="503.2" height="242.4"/>
	</defs>
	<clipPath id="SVGID_8_">
		<use xlink:href="#SVGID_7_"  overflow="visible"/>
	</clipPath>
</g>
<g>
	<defs>
		<rect id="SVGID_9_" x="7.3" y="142.9" width="503.2" height="242.4"/>
	</defs>
	<clipPath id="SVGID_10_">
		<use xlink:href="#SVGID_9_"  overflow="visible"/>
	</clipPath>
	<rect x="7.3" y="142.9" clip-path="url(#SVGID_10_)" fill="#FF0000" width="503.2" height="242.4"/>
	
		<rect x="7.3" y="142.9" clip-path="url(#SVGID_10_)" fill="none" stroke="#FF0000" stroke-width="0.75" stroke-linecap="round" stroke-linejoin="round" stroke-miterlimit="10" width="503.2" height="242.4"/>
	<g clip-path="url(#SVGID_10_)">
		<text transform="matrix(0.9998 0 0 1 18.2423 160.2559)" fill="#FFFFFF" font-family="'Helvetica'" font-size="8.9063">28.4</text>
	</g>
</g>
<g>
	<defs>
		<rect id="SVGID_11_" x="7.3" y="142.9" width="503.2" height="242.4"/>
	</defs>
	<clipPath id="SVGID_12_">
		<use xlink:href="#SVGID_11_"  overflow="visible"/>
	</clipPath>
	
		<rect x="7.3" y="142.9" clip-path="url(#SVGID_12_)" fill="none" stroke="#BEBEBE" stroke-width="0.75" stroke-linecap="round" stroke-linejoin="round" stroke-miterlimit="10" width="503.2" height="242.4"/>
	<g clip-path="url(#SVGID_12_)">
		<text transform="matrix(0.9998 0 0 1 227.0255 269.5362)" fill="#FFFFFF" font-family="'Helvetica'" font-size="15.268">Jeb Bush</text>
	</g>
</g>
<g>
	<defs>
		<rect id="SVGID_13_" x="510.5" y="469.8" width="244.9" height="222.7"/>
	</defs>
	<clipPath id="SVGID_14_">
		<use xlink:href="#SVGID_13_"  overflow="visible"/>
	</clipPath>
</g>
<g>
	<defs>
		<rect id="SVGID_15_" x="510.5" y="469.8" width="244.9" height="222.7"/>
	</defs>
	<clipPath id="SVGID_16_">
		<use xlink:href="#SVGID_15_"  overflow="visible"/>
	</clipPath>
	<rect x="510.5" y="469.8" clip-path="url(#SVGID_16_)" fill="#FF0000" width="244.9" height="222.7"/>
	
		<rect x="510.5" y="469.8" clip-path="url(#SVGID_16_)" fill="none" stroke="#FF0000" stroke-width="0.75" stroke-linecap="round" stroke-linejoin="round" stroke-miterlimit="10" width="244.9" height="222.7"/>
	<g clip-path="url(#SVGID_16_)">
		<text transform="matrix(0.9998 0 0 1 521.4493 487.2061)" fill="#FFFFFF" font-family="'Helvetica'" font-size="8.9063">12.7</text>
	</g>
</g>
<g>
	<defs>
		<rect id="SVGID_17_" x="510.5" y="469.8" width="244.9" height="222.7"/>
	</defs>
	<clipPath id="SVGID_18_">
		<use xlink:href="#SVGID_17_"  overflow="visible"/>
	</clipPath>
	
		<rect x="510.5" y="469.8" clip-path="url(#SVGID_18_)" fill="none" stroke="#BEBEBE" stroke-width="0.75" stroke-linecap="round" stroke-linejoin="round" stroke-miterlimit="10" width="244.9" height="222.7"/>
	<g clip-path="url(#SVGID_18_)">
		<text transform="matrix(0.9998 0 0 1 590.1183 586.6524)"><tspan x="0" y="0" fill="#FFFFFF" font-family="'Helvetica'" font-size="15.268">Scott </tspan><tspan x="39" y="0" fill="#FFFFFF" font-family="'Helvetica'" font-size="15.268">W</tspan><tspan x="52.9" y="0" fill="#FFFFFF" font-family="'Helvetica'" font-size="15.268">al</tspan><tspan x="64.7" y="0" fill="#FFFFFF" font-family="'Helvetica'" font-size="15.268">k</tspan><tspan x="72.1" y="0" fill="#FFFFFF" font-family="'Helvetica'" font-size="15.268">er</tspan></text>
	</g>
</g>
<g>
	<defs>
		<rect id="SVGID_19_" x="755.4" y="469.8" width="241.1" height="222.7"/>
	</defs>
	<clipPath id="SVGID_20_">
		<use xlink:href="#SVGID_19_"  overflow="visible"/>
	</clipPath>
</g>
<g>
	<defs>
		<rect id="SVGID_21_" x="755.4" y="469.8" width="241.1" height="222.7"/>
	</defs>
	<clipPath id="SVGID_22_">
		<use xlink:href="#SVGID_21_"  overflow="visible"/>
	</clipPath>
	<rect x="755.4" y="469.8" clip-path="url(#SVGID_22_)" fill="#FF0000" width="241.1" height="222.7"/>
	
		<rect x="755.4" y="469.8" clip-path="url(#SVGID_22_)" fill="none" stroke="#FF0000" stroke-width="0.75" stroke-linecap="round" stroke-linejoin="round" stroke-miterlimit="10" width="241.1" height="222.7"/>
	<g clip-path="url(#SVGID_22_)">
		<text transform="matrix(0.9998 0 0 1 766.3722 487.2061)" fill="#FFFFFF" font-family="'Helvetica'" font-size="8.9063">12.5</text>
	</g>
</g>
<g>
	<defs>
		<rect id="SVGID_23_" x="755.4" y="469.8" width="241.1" height="222.7"/>
	</defs>
	<clipPath id="SVGID_24_">
		<use xlink:href="#SVGID_23_"  overflow="visible"/>
	</clipPath>
	
		<rect x="755.4" y="469.8" clip-path="url(#SVGID_24_)" fill="none" stroke="#BEBEBE" stroke-width="0.75" stroke-linecap="round" stroke-linejoin="round" stroke-miterlimit="10" width="241.1" height="222.7"/>
	<g clip-path="url(#SVGID_24_)">
		<text transform="matrix(0.9998 0 0 1 832.6642 586.6524)" fill="#FFFFFF" font-family="'Helvetica'" font-size="15.268">Marco Rubio</text>
	</g>
</g>
<g>
	<defs>
		<rect id="SVGID_25_" x="510.5" y="293.1" width="267.3" height="176.7"/>
	</defs>
	<clipPath id="SVGID_26_">
		<use xlink:href="#SVGID_25_"  overflow="visible"/>
	</clipPath>
</g>
<g>
	<defs>
		<rect id="SVGID_27_" x="510.5" y="293.1" width="267.3" height="176.7"/>
	</defs>
	<clipPath id="SVGID_28_">
		<use xlink:href="#SVGID_27_"  overflow="visible"/>
	</clipPath>
	<rect x="510.5" y="293.1" clip-path="url(#SVGID_28_)" fill="#FF0000" width="267.3" height="176.7"/>
	
		<rect x="510.5" y="293.1" clip-path="url(#SVGID_28_)" fill="none" stroke="#FF0000" stroke-width="0.75" stroke-linecap="round" stroke-linejoin="round" stroke-miterlimit="10" width="267.3" height="176.7"/>
	<g clip-path="url(#SVGID_28_)">
		<text transform="matrix(0.9998 0 0 1 521.4493 310.4796)" fill="#FFFFFF" font-family="'Helvetica'" font-size="8.9063">11</text>
	</g>
</g>
<g>
	<defs>
		<rect id="SVGID_29_" x="510.5" y="293.1" width="267.3" height="176.7"/>
	</defs>
	<clipPath id="SVGID_30_">
		<use xlink:href="#SVGID_29_"  overflow="visible"/>
	</clipPath>
	
		<rect x="510.5" y="293.1" clip-path="url(#SVGID_30_)" fill="none" stroke="#BEBEBE" stroke-width="0.75" stroke-linecap="round" stroke-linejoin="round" stroke-miterlimit="10" width="267.3" height="176.7"/>
	<g clip-path="url(#SVGID_30_)">
		<text transform="matrix(0.9998 0 0 1 609.0597 386.9346)"><tspan x="0" y="0" fill="#FFFFFF" font-family="'Helvetica'" font-size="15.268">Rick </tspan><tspan x="33.9" y="0" fill="#FFFFFF" font-family="'Helvetica'" font-size="15.268">P</tspan><tspan x="43.4" y="0" fill="#FFFFFF" font-family="'Helvetica'" font-size="15.268">er</tspan><tspan x="56.9" y="0" fill="#FFFFFF" font-family="'Helvetica'" font-size="15.268">r</tspan><tspan x="62.5" y="0" fill="#FFFFFF" font-family="'Helvetica'" font-size="15.268">y</tspan></text>
	</g>
</g>
<g>
	<defs>
		<rect id="SVGID_31_" x="777.8" y="293.1" width="218.7" height="176.7"/>
	</defs>
	<clipPath id="SVGID_32_">
		<use xlink:href="#SVGID_31_"  overflow="visible"/>
	</clipPath>
</g>
<g>
	<defs>
		<rect id="SVGID_33_" x="777.8" y="293.1" width="218.7" height="176.7"/>
	</defs>
	<clipPath id="SVGID_34_">
		<use xlink:href="#SVGID_33_"  overflow="visible"/>
	</clipPath>
	<rect x="777.8" y="293.1" clip-path="url(#SVGID_34_)" fill="#00FF00" width="218.7" height="176.7"/>
	
		<rect x="777.8" y="293.1" clip-path="url(#SVGID_34_)" fill="none" stroke="#00FF00" stroke-width="0.75" stroke-linecap="round" stroke-linejoin="round" stroke-miterlimit="10" width="218.7" height="176.7"/>
	<g clip-path="url(#SVGID_34_)">
		<text transform="matrix(0.9998 0 0 1 788.7491 310.4796)" fill="#FFFFFF" font-family="'Helvetica'" font-size="8.9063">9</text>
	</g>
</g>
<g>
	<defs>
		<rect id="SVGID_35_" x="777.8" y="293.1" width="218.7" height="176.7"/>
	</defs>
	<clipPath id="SVGID_36_">
		<use xlink:href="#SVGID_35_"  overflow="visible"/>
	</clipPath>
	
		<rect x="777.8" y="293.1" clip-path="url(#SVGID_36_)" fill="none" stroke="#BEBEBE" stroke-width="0.75" stroke-linecap="round" stroke-linejoin="round" stroke-miterlimit="10" width="218.7" height="176.7"/>
	<g clip-path="url(#SVGID_36_)">
		<text transform="matrix(0.9998 0 0 1 839.8136 386.9346)"><tspan x="0" y="0" fill="#FFFFFF" font-family="'Helvetica'" font-size="15.268">Hilla</tspan><tspan x="29.7" y="0" fill="#FFFFFF" font-family="'Helvetica'" font-size="15.268">r</tspan><tspan x="35.2" y="0" fill="#FFFFFF" font-family="'Helvetica'" font-size="15.268">y Clinton</tspan></text>
	</g>
</g>
<g>
	<defs>
		<rect id="SVGID_37_" x="510.5" y="214.4" width="240.1" height="78.7"/>
	</defs>
	<clipPath id="SVGID_38_">
		<use xlink:href="#SVGID_37_"  overflow="visible"/>
	</clipPath>
</g>
<g>
	<defs>
		<rect id="SVGID_39_" x="510.5" y="214.4" width="240.1" height="78.7"/>
	</defs>
	<clipPath id="SVGID_40_">
		<use xlink:href="#SVGID_39_"  overflow="visible"/>
	</clipPath>
	<rect x="510.5" y="214.4" clip-path="url(#SVGID_40_)" fill="#FF0000" width="240.1" height="78.7"/>
	
		<rect x="510.5" y="214.4" clip-path="url(#SVGID_40_)" fill="none" stroke="#FF0000" stroke-width="0.75" stroke-linecap="round" stroke-linejoin="round" stroke-miterlimit="10" width="240.1" height="78.7"/>
	<g clip-path="url(#SVGID_40_)">
		<text transform="matrix(0.9998 0 0 1 521.4493 231.7862)" fill="#FFFFFF" font-family="'Helvetica'" font-size="8.9063">4.4</text>
	</g>
</g>
<g>
	<defs>
		<rect id="SVGID_41_" x="510.5" y="214.4" width="240.1" height="78.7"/>
	</defs>
	<clipPath id="SVGID_42_">
		<use xlink:href="#SVGID_41_"  overflow="visible"/>
	</clipPath>
	
		<rect x="510.5" y="214.4" clip-path="url(#SVGID_42_)" fill="none" stroke="#BEBEBE" stroke-width="0.75" stroke-linecap="round" stroke-linejoin="round" stroke-miterlimit="10" width="240.1" height="78.7"/>
	<g clip-path="url(#SVGID_42_)">
		<text transform="matrix(0.9998 0 0 1 595.1945 259.2305)"><tspan x="0" y="0" fill="#FFFFFF" font-family="'Helvetica'" font-size="15.268">Rand </tspan><tspan x="40.7" y="0" fill="#FFFFFF" font-family="'Helvetica'" font-size="15.268">P</tspan><tspan x="50.3" y="0" fill="#FFFFFF" font-family="'Helvetica'" font-size="15.268">aul</tspan></text>
	</g>
</g>
<g>
	<defs>
		<rect id="SVGID_43_" x="510.5" y="142.9" width="240.1" height="71.5"/>
	</defs>
	<clipPath id="SVGID_44_">
		<use xlink:href="#SVGID_43_"  overflow="visible"/>
	</clipPath>
</g>
<g>
	<defs>
		<rect id="SVGID_45_" x="510.5" y="142.9" width="240.1" height="71.5"/>
	</defs>
	<clipPath id="SVGID_46_">
		<use xlink:href="#SVGID_45_"  overflow="visible"/>
	</clipPath>
	<rect x="510.5" y="142.9" clip-path="url(#SVGID_46_)" fill="#FF0000" width="240.1" height="71.5"/>
	
		<rect x="510.5" y="142.9" clip-path="url(#SVGID_46_)" fill="none" stroke="#FF0000" stroke-width="0.75" stroke-linecap="round" stroke-linejoin="round" stroke-miterlimit="10" width="240.1" height="71.5"/>
	<g clip-path="url(#SVGID_46_)">
		<text transform="matrix(0.9998 0 0 1 521.4493 160.2559)" fill="#FFFFFF" font-family="'Helvetica'" font-size="8.9063">4</text>
	</g>
</g>
<g>
	<defs>
		<rect id="SVGID_47_" x="510.5" y="142.9" width="240.1" height="71.5"/>
	</defs>
	<clipPath id="SVGID_48_">
		<use xlink:href="#SVGID_47_"  overflow="visible"/>
	</clipPath>
	
		<rect x="510.5" y="142.9" clip-path="url(#SVGID_48_)" fill="none" stroke="#BEBEBE" stroke-width="0.75" stroke-linecap="round" stroke-linejoin="round" stroke-miterlimit="10" width="240.1" height="71.5"/>
	<g clip-path="url(#SVGID_48_)">
		<text transform="matrix(0.9998 0 0 1 588.9484 184.1124)" fill="#FFFFFF" font-family="'Helvetica'" font-size="15.268">John Kasich</text>
	</g>
</g>
<g>
	<defs>
		<rect id="SVGID_49_" x="750.6" y="188.3" width="122.9" height="104.8"/>
	</defs>
	<clipPath id="SVGID_50_">
		<use xlink:href="#SVGID_49_"  overflow="visible"/>
	</clipPath>
</g>
<g>
	<defs>
		<rect id="SVGID_51_" x="750.6" y="188.3" width="122.9" height="104.8"/>
	</defs>
	<clipPath id="SVGID_52_">
		<use xlink:href="#SVGID_51_"  overflow="visible"/>
	</clipPath>
	<rect x="750.6" y="188.3" clip-path="url(#SVGID_52_)" fill="#FF0000" width="122.9" height="104.8"/>
	
		<rect x="750.6" y="188.3" clip-path="url(#SVGID_52_)" fill="none" stroke="#FF0000" stroke-width="0.75" stroke-linecap="round" stroke-linejoin="round" stroke-miterlimit="10" width="122.9" height="104.8"/>
	<g clip-path="url(#SVGID_52_)">
		<text transform="matrix(0.9998 0 0 1 761.59 205.6651)" fill="#FFFFFF" font-family="'Helvetica'" font-size="8.9063">3</text>
	</g>
</g>
<g>
	<defs>
		<rect id="SVGID_53_" x="750.6" y="188.3" width="122.9" height="104.8"/>
	</defs>
	<clipPath id="SVGID_54_">
		<use xlink:href="#SVGID_53_"  overflow="visible"/>
	</clipPath>
	
		<rect x="750.6" y="188.3" clip-path="url(#SVGID_54_)" fill="none" stroke="#BEBEBE" stroke-width="0.75" stroke-linecap="round" stroke-linejoin="round" stroke-miterlimit="10" width="122.9" height="104.8"/>
	<g clip-path="url(#SVGID_54_)">
		<text transform="matrix(0.9998 0 0 1 766.0421 246.1641)"><tspan x="0" y="0" fill="#FFFFFF" font-family="'Helvetica'" font-size="15.268">Ch</tspan><tspan x="19.5" y="0" fill="#FFFFFF" font-family="'Helvetica'" font-size="15.268">r</tspan><tspan x="24.8" y="0" fill="#FFFFFF" font-family="'Helvetica'" font-size="15.268">is Ch</tspan><tspan x="59.6" y="0" fill="#FFFFFF" font-family="'Helvetica'" font-size="15.268">r</tspan><tspan x="64.9" y="0" fill="#FFFFFF" font-family="'Helvetica'" font-size="15.268">istie</tspan></text>
	</g>
</g>
<g>
	<defs>
		<rect id="SVGID_55_" x="873.5" y="188.3" width="122.9" height="104.8"/>
	</defs>
	<clipPath id="SVGID_56_">
		<use xlink:href="#SVGID_55_"  overflow="visible"/>
	</clipPath>
</g>
<g>
	<defs>
		<rect id="SVGID_57_" x="873.5" y="188.3" width="122.9" height="104.8"/>
	</defs>
	<clipPath id="SVGID_58_">
		<use xlink:href="#SVGID_57_"  overflow="visible"/>
	</clipPath>
	<rect x="873.5" y="188.3" clip-path="url(#SVGID_58_)" fill="#FF0000" width="122.9" height="104.8"/>
	
		<rect x="873.5" y="188.3" clip-path="url(#SVGID_58_)" fill="none" stroke="#FF0000" stroke-width="0.75" stroke-linecap="round" stroke-linejoin="round" stroke-miterlimit="10" width="122.9" height="104.8"/>
	<g clip-path="url(#SVGID_58_)">
		<text transform="matrix(0.9998 0 0 1 884.5284 205.6651)" fill="#FFFFFF" font-family="'Helvetica'" font-size="8.9063">3</text>
	</g>
</g>
<g>
	<defs>
		<rect id="SVGID_59_" x="873.5" y="188.3" width="122.9" height="104.8"/>
	</defs>
	<clipPath id="SVGID_60_">
		<use xlink:href="#SVGID_59_"  overflow="visible"/>
	</clipPath>
	
		<rect x="873.5" y="188.3" clip-path="url(#SVGID_60_)" fill="none" stroke="#BEBEBE" stroke-width="0.75" stroke-linecap="round" stroke-linejoin="round" stroke-miterlimit="10" width="122.9" height="104.8"/>
	<g clip-path="url(#SVGID_60_)">
		<text transform="matrix(0.9998 0 0 1 882.5568 246.1641)"><tspan x="0" y="0" fill="#FFFFFF" font-family="'Helvetica'" font-size="15.268">Mi</tspan><tspan x="16.1" y="0" fill="#FFFFFF" font-family="'Helvetica'" font-size="15.268">k</tspan><tspan x="23.5" y="0" fill="#FFFFFF" font-family="'Helvetica'" font-size="15.268">e Huckabee</tspan></text>
	</g>
</g>
<g>
	<defs>
		<rect id="SVGID_61_" x="750.6" y="142.9" width="151.3" height="45.4"/>
	</defs>
	<clipPath id="SVGID_62_">
		<use xlink:href="#SVGID_61_"  overflow="visible"/>
	</clipPath>
</g>
<g>
	<defs>
		<rect id="SVGID_63_" x="750.6" y="142.9" width="151.3" height="45.4"/>
	</defs>
	<clipPath id="SVGID_64_">
		<use xlink:href="#SVGID_63_"  overflow="visible"/>
	</clipPath>
	<rect x="750.6" y="142.9" clip-path="url(#SVGID_64_)" fill="#FF0000" width="151.3" height="45.4"/>
	
		<rect x="750.6" y="142.9" clip-path="url(#SVGID_64_)" fill="none" stroke="#FF0000" stroke-width="0.75" stroke-linecap="round" stroke-linejoin="round" stroke-miterlimit="10" width="151.3" height="45.4"/>
	<g clip-path="url(#SVGID_64_)">
		<text transform="matrix(0.9998 0 0 1 761.59 160.2559)" fill="#FFFFFF" font-family="'Helvetica'" font-size="8.9063">1.6</text>
	</g>
</g>
<g>
	<defs>
		<rect id="SVGID_65_" x="750.6" y="142.9" width="151.3" height="45.4"/>
	</defs>
	<clipPath id="SVGID_66_">
		<use xlink:href="#SVGID_65_"  overflow="visible"/>
	</clipPath>
	
		<rect x="750.6" y="142.9" clip-path="url(#SVGID_66_)" fill="none" stroke="#BEBEBE" stroke-width="0.75" stroke-linecap="round" stroke-linejoin="round" stroke-miterlimit="10" width="151.3" height="45.4"/>
	<g clip-path="url(#SVGID_66_)">
		<text transform="matrix(0.9998 0 0 1 782.7716 171.0577)"><tspan x="0" y="0" fill="#FFFFFF" font-family="'Helvetica'" font-size="15.268">Ca</tspan><tspan x="19.5" y="0" fill="#FFFFFF" font-family="'Helvetica'" font-size="15.268">r</tspan><tspan x="24.8" y="0" fill="#FFFFFF" font-family="'Helvetica'" font-size="15.268">ly Fio</tspan><tspan x="61.3" y="0" fill="#FFFFFF" font-family="'Helvetica'" font-size="15.268">r</tspan><tspan x="66.6" y="0" fill="#FFFFFF" font-family="'Helvetica'" font-size="15.268">ina</tspan></text>
	</g>
</g>
<g>
	<defs>
		<rect id="SVGID_67_" x="901.9" y="142.9" width="94.6" height="45.4"/>
	</defs>
	<clipPath id="SVGID_68_">
		<use xlink:href="#SVGID_67_"  overflow="visible"/>
	</clipPath>
</g>
<g>
	<defs>
		<rect id="SVGID_69_" x="901.9" y="142.9" width="94.6" height="45.4"/>
	</defs>
	<clipPath id="SVGID_70_">
		<use xlink:href="#SVGID_69_"  overflow="visible"/>
	</clipPath>
	<rect x="901.9" y="142.9" clip-path="url(#SVGID_70_)" fill="#FF0000" width="94.6" height="45.4"/>
	
		<rect x="901.9" y="142.9" clip-path="url(#SVGID_70_)" fill="none" stroke="#FF0000" stroke-width="0.75" stroke-linecap="round" stroke-linejoin="round" stroke-miterlimit="10" width="94.6" height="45.4"/>
	<g clip-path="url(#SVGID_70_)">
		<text transform="matrix(0.9998 0 0 1 912.8976 160.2559)" fill="#FFFFFF" font-family="'Helvetica'" font-size="8.9063">1</text>
	</g>
</g>
<g>
	<defs>
		<rect id="SVGID_71_" x="901.9" y="142.9" width="94.6" height="45.4"/>
	</defs>
	<clipPath id="SVGID_72_">
		<use xlink:href="#SVGID_71_"  overflow="visible"/>
	</clipPath>
	
		<rect x="901.9" y="142.9" clip-path="url(#SVGID_72_)" fill="none" stroke="#BEBEBE" stroke-width="0.75" stroke-linecap="round" stroke-linejoin="round" stroke-miterlimit="10" width="94.6" height="45.4"/>
	<g clip-path="url(#SVGID_72_)">
		<text transform="matrix(0.9998 0 0 1 905.7101 171.0577)"><tspan x="0" y="0" fill="#FFFFFF" font-family="'Helvetica'" font-size="15.268">Bo</tspan><tspan x="18.7" y="0" fill="#FFFFFF" font-family="'Helvetica'" font-size="15.268">b</tspan><tspan x="27" y="0" fill="#FFFFFF" font-family="'Helvetica'" font-size="15.268">b</tspan><tspan x="35.2" y="0" fill="#FFFFFF" font-family="'Helvetica'" font-size="15.268">y Jindal</tspan></text>
	</g>
</g>
</svg>
