<?xml version="1.0" encoding="utf-8"?>
<!-- Generator: Adobe Illustrator 18.1.0, SVG Export Plug-In . SVG Version: 6.00 Build 0)  -->
<svg version="1.1" id="Layer_1" xmlns="http://www.w3.org/2000/svg" xmlns:xlink="http://www.w3.org/1999/xlink" x="0px" y="0px"
	 viewBox="0 0 1000 717.3" enable-background="new 0 0 1000 717.3" xml:space="preserve">
<g>
	<defs>
		<rect id="SVGID_1_" x="52.1" y="25.3" width="813.5" height="631.4"/>
	</defs>
	<clipPath id="SVGID_2_">
		<use xlink:href="#SVGID_1_"  overflow="visible"/>
	</clipPath>
	<rect x="52.1" y="25.3" clip-path="url(#SVGID_2_)" fill="#E5E5E5" width="813.5" height="631.4"/>
	
		<line clip-path="url(#SVGID_2_)" fill="none" stroke="#F2F2F2" stroke-width="0.53" stroke-linejoin="round" stroke-miterlimit="10" x1="52.1" y1="632.7" x2="865.5" y2="632.7"/>
	
		<line clip-path="url(#SVGID_2_)" fill="none" stroke="#F2F2F2" stroke-width="0.53" stroke-linejoin="round" stroke-miterlimit="10" x1="52.1" y1="459.1" x2="865.5" y2="459.1"/>
	
		<line clip-path="url(#SVGID_2_)" fill="none" stroke="#F2F2F2" stroke-width="0.53" stroke-linejoin="round" stroke-miterlimit="10" x1="52.1" y1="285.5" x2="865.5" y2="285.5"/>
	
		<line clip-path="url(#SVGID_2_)" fill="none" stroke="#F2F2F2" stroke-width="0.53" stroke-linejoin="round" stroke-miterlimit="10" x1="52.1" y1="111.8" x2="865.5" y2="111.8"/>
	
		<line clip-path="url(#SVGID_2_)" fill="none" stroke="#FFFFFF" stroke-width="1.06" stroke-linejoin="round" stroke-miterlimit="10" x1="52.1" y1="545.9" x2="865.5" y2="545.9"/>
	
		<line clip-path="url(#SVGID_2_)" fill="none" stroke="#FFFFFF" stroke-width="1.06" stroke-linejoin="round" stroke-miterlimit="10" x1="52.1" y1="372.3" x2="865.5" y2="372.3"/>
	
		<line clip-path="url(#SVGID_2_)" fill="none" stroke="#FFFFFF" stroke-width="1.06" stroke-linejoin="round" stroke-miterlimit="10" x1="52.1" y1="198.6" x2="865.5" y2="198.6"/>
	
		<line clip-path="url(#SVGID_2_)" fill="none" stroke="#FFFFFF" stroke-width="1.06" stroke-linejoin="round" stroke-miterlimit="10" x1="273.9" y1="656.7" x2="273.9" y2="25.3"/>
	
		<line clip-path="url(#SVGID_2_)" fill="none" stroke="#FFFFFF" stroke-width="1.06" stroke-linejoin="round" stroke-miterlimit="10" x1="643.7" y1="656.7" x2="643.7" y2="25.3"/>
	<polygon clip-path="url(#SVGID_2_)" fill="#F8766D" points="273.9,628 273.9,625.1 273.9,622.2 273.9,619.4 273.9,616.5 
		273.9,613.6 273.9,610.7 273.9,607.8 273.9,604.9 273.9,602 273.8,599.2 273.8,596.3 273.8,593.4 273.8,590.5 273.8,587.6 
		273.8,584.7 273.7,581.9 273.7,579 273.7,576.1 273.7,573.2 273.6,570.3 273.6,567.4 273.6,564.5 273.5,561.7 273.5,558.8 
		273.5,555.9 273.5,553 273.5,550.1 273.4,547.2 273.4,544.4 273.4,541.5 273.4,538.6 273.4,535.7 273.4,532.8 273.4,529.9 
		273.4,527.1 273.4,524.2 273.4,521.3 273.4,518.4 273.4,515.5 273.3,512.6 273.3,509.7 273.2,506.9 273.1,504 272.9,501.1 
		272.7,498.2 272.5,495.3 272.2,492.4 271.9,489.6 271.5,486.7 271.1,483.8 270.6,480.9 270,478 269.4,475.1 268.8,472.2 
		268.1,469.4 267.4,466.5 266.6,463.6 265.8,460.7 265.1,457.8 264.3,454.9 263.6,452.1 262.8,449.2 262.2,446.3 261.6,443.4 
		261.1,440.5 260.6,437.6 260.2,434.8 260,431.9 259.8,429 259.7,426.1 259.7,423.2 259.8,420.3 260,417.4 260.3,414.6 260.6,411.7 
		261,408.8 261.4,405.9 261.8,403 262.3,400.1 262.8,397.3 263.3,394.4 263.8,391.5 264.3,388.6 264.8,385.7 265.3,382.8 
		265.7,379.9 266.1,377.1 266.5,374.2 266.8,371.3 267.1,368.4 267.4,365.5 267.6,362.6 267.9,359.8 268.1,356.9 268.3,354 
		268.5,351.1 268.7,348.2 268.9,345.3 269.1,342.5 269.3,339.6 269.5,336.7 269.6,333.8 269.8,330.9 270,328 270.1,325.1 
		270.2,322.3 270.3,319.4 270.4,316.5 270.4,313.6 270.3,310.7 270.2,307.8 270.1,305 269.8,302.1 269.5,299.2 269.1,296.3 
		268.6,293.4 268,290.5 267.3,287.7 266.5,284.8 265.6,281.9 264.6,279 263.5,276.1 262.3,273.2 261,270.4 259.7,267.5 258.3,264.6 
		256.9,261.7 255.5,258.8 254.1,255.9 252.8,253 251.6,250.2 250.5,247.3 249.5,244.4 248.7,241.5 248.1,238.6 247.6,235.7 
		247.3,232.9 247.2,230 247.3,227.1 247.5,224.2 247.9,221.3 248.4,218.4 249,215.6 249.6,212.7 250.2,209.8 250.9,206.9 251.5,204 
		252.1,201.1 252.5,198.2 252.9,195.4 253.2,192.5 253.4,189.6 253.5,186.7 253.6,183.8 253.5,180.9 253.5,178.1 253.4,175.2 
		253.4,172.3 253.4,169.4 253.4,166.5 253.6,163.6 253.8,160.8 254.2,157.9 254.7,155 255.3,152.1 256,149.2 256.8,146.3 
		257.7,143.4 258.7,140.6 259.8,137.7 260.9,134.8 262,131.9 263.2,129 264.3,126.1 265.4,123.3 266.4,120.4 267.4,117.5 
		268.3,114.6 269.1,111.7 269.8,108.8 270.5,106 271.1,103.1 271.6,100.2 272,97.3 272.4,94.4 272.7,91.5 272.9,88.6 273.1,85.8 
		273.3,82.9 273.5,80 273.6,77.1 273.6,74.2 273.7,71.3 273.8,68.5 273.8,65.6 273.8,62.7 273.9,59.8 273.9,56.9 273.9,54 273.9,54 
		274,56.9 274,59.8 274,62.7 274,65.6 274.1,68.5 274.1,71.3 274.2,74.2 274.3,77.1 274.4,80 274.5,82.9 274.7,85.8 274.9,88.6 
		275.2,91.5 275.5,94.4 275.8,97.3 276.3,100.2 276.8,103.1 277.4,106 278,108.8 278.8,111.7 279.6,114.6 280.5,117.5 281.4,120.4 
		282.5,123.3 283.5,126.1 284.7,129 285.8,131.9 286.9,134.8 288,137.7 289.1,140.6 290.1,143.4 291,146.3 291.9,149.2 292.6,152.1 
		293.2,155 293.6,157.9 294,160.8 294.2,163.6 294.4,166.5 294.5,169.4 294.5,172.3 294.4,175.2 294.3,178.1 294.3,180.9 
		294.3,183.8 294.3,186.7 294.4,189.6 294.6,192.5 294.9,195.4 295.3,198.2 295.8,201.1 296.3,204 296.9,206.9 297.6,209.8 
		298.2,212.7 298.9,215.6 299.4,218.4 299.9,221.3 300.3,224.2 300.5,227.1 300.6,230 300.5,232.9 300.2,235.7 299.8,238.6 
		299.1,241.5 298.3,244.4 297.3,247.3 296.2,250.2 295,253 293.7,255.9 292.3,258.8 290.9,261.7 289.6,264.6 288.2,267.5 
		286.8,270.4 285.6,273.2 284.4,276.1 283.3,279 282.2,281.9 281.3,284.8 280.5,287.7 279.8,290.5 279.2,293.4 278.7,296.3 
		278.3,299.2 278,302.1 277.8,305 277.6,307.8 277.5,310.7 277.5,313.6 277.5,316.5 277.5,319.4 277.6,322.3 277.7,325.1 277.9,328 
		278,330.9 278.2,333.8 278.4,336.7 278.5,339.6 278.7,342.5 278.9,345.3 279.1,348.2 279.3,351.1 279.5,354 279.7,356.9 
		279.9,359.8 280.2,362.6 280.4,365.5 280.7,368.4 281,371.3 281.4,374.2 281.7,377.1 282.1,379.9 282.6,382.8 283,385.7 
		283.5,388.6 284,391.5 284.5,394.4 285,397.3 285.5,400.1 286,403 286.5,405.9 286.9,408.8 287.3,411.7 287.6,414.6 287.8,417.4 
		288,420.3 288.1,423.2 288.1,426.1 288,429 287.9,431.9 287.6,434.8 287.2,437.6 286.8,440.5 286.2,443.4 285.6,446.3 285,449.2 
		284.3,452.1 283.5,454.9 282.8,457.8 282,460.7 281.2,463.6 280.5,466.5 279.7,469.4 279.1,472.2 278.4,475.1 277.8,478 
		277.3,480.9 276.8,483.8 276.3,486.7 276,489.6 275.6,492.4 275.3,495.3 275.1,498.2 274.9,501.1 274.8,504 274.7,506.9 
		274.6,509.7 274.5,512.6 274.5,515.5 274.4,518.4 274.4,521.3 274.4,524.2 274.4,527.1 274.4,529.9 274.4,532.8 274.4,535.7 
		274.4,538.6 274.4,541.5 274.4,544.4 274.4,547.2 274.4,550.1 274.4,553 274.3,555.9 274.3,558.8 274.3,561.7 274.3,564.5 
		274.2,567.4 274.2,570.3 274.2,573.2 274.2,576.1 274.1,579 274.1,581.9 274.1,584.7 274,587.6 274,590.5 274,593.4 274,596.3 
		274,599.2 274,602 274,604.9 273.9,607.8 273.9,610.7 273.9,613.6 273.9,616.5 273.9,619.4 273.9,622.2 273.9,625.1 273.9,628 	"/>
	
		<polygon clip-path="url(#SVGID_2_)" fill="none" stroke="#333333" stroke-width="1.000000e-02" stroke-linecap="round" stroke-linejoin="round" stroke-miterlimit="10" points="
		273.9,628 273.9,625.1 273.9,622.2 273.9,619.4 273.9,616.5 273.9,613.6 273.9,610.7 273.9,607.8 273.9,604.9 273.9,602 
		273.8,599.2 273.8,596.3 273.8,593.4 273.8,590.5 273.8,587.6 273.8,584.7 273.7,581.9 273.7,579 273.7,576.1 273.7,573.2 
		273.6,570.3 273.6,567.4 273.6,564.5 273.5,561.7 273.5,558.8 273.5,555.9 273.5,553 273.5,550.1 273.4,547.2 273.4,544.4 
		273.4,541.5 273.4,538.6 273.4,535.7 273.4,532.8 273.4,529.9 273.4,527.1 273.4,524.2 273.4,521.3 273.4,518.4 273.4,515.5 
		273.3,512.6 273.3,509.7 273.2,506.9 273.1,504 272.9,501.1 272.7,498.2 272.5,495.3 272.2,492.4 271.9,489.6 271.5,486.7 
		271.1,483.8 270.6,480.9 270,478 269.4,475.1 268.8,472.2 268.1,469.4 267.4,466.5 266.6,463.6 265.8,460.7 265.1,457.8 
		264.3,454.9 263.6,452.1 262.8,449.2 262.2,446.3 261.6,443.4 261.1,440.5 260.6,437.6 260.2,434.8 260,431.9 259.8,429 
		259.7,426.1 259.7,423.2 259.8,420.3 260,417.4 260.3,414.6 260.6,411.7 261,408.8 261.4,405.9 261.8,403 262.3,400.1 262.8,397.3 
		263.3,394.4 263.8,391.5 264.3,388.6 264.8,385.7 265.3,382.8 265.7,379.9 266.1,377.1 266.5,374.2 266.8,371.3 267.1,368.4 
		267.4,365.5 267.6,362.6 267.9,359.8 268.1,356.9 268.3,354 268.5,351.1 268.7,348.2 268.9,345.3 269.1,342.5 269.3,339.6 
		269.5,336.7 269.6,333.8 269.8,330.9 270,328 270.1,325.1 270.2,322.3 270.3,319.4 270.4,316.5 270.4,313.6 270.3,310.7 
		270.2,307.8 270.1,305 269.8,302.1 269.5,299.2 269.1,296.3 268.6,293.4 268,290.5 267.3,287.7 266.5,284.8 265.6,281.9 264.6,279 
		263.5,276.1 262.3,273.2 261,270.4 259.7,267.5 258.3,264.6 256.9,261.7 255.5,258.8 254.1,255.9 252.8,253 251.6,250.2 
		250.5,247.3 249.5,244.4 248.7,241.5 248.1,238.6 247.6,235.7 247.3,232.9 247.2,230 247.3,227.1 247.5,224.2 247.9,221.3 
		248.4,218.4 249,215.6 249.6,212.7 250.2,209.8 250.9,206.9 251.5,204 252.1,201.1 252.5,198.2 252.9,195.4 253.2,192.5 
		253.4,189.6 253.5,186.7 253.6,183.8 253.5,180.9 253.5,178.1 253.4,175.2 253.4,172.3 253.4,169.4 253.4,166.5 253.6,163.6 
		253.8,160.8 254.2,157.9 254.7,155 255.3,152.1 256,149.2 256.8,146.3 257.7,143.4 258.7,140.6 259.8,137.7 260.9,134.8 262,131.9 
		263.2,129 264.3,126.1 265.4,123.3 266.4,120.4 267.4,117.5 268.3,114.6 269.1,111.7 269.8,108.8 270.5,106 271.1,103.1 
		271.6,100.2 272,97.3 272.4,94.4 272.7,91.5 272.9,88.6 273.1,85.8 273.3,82.9 273.5,80 273.6,77.1 273.6,74.2 273.7,71.3 
		273.8,68.5 273.8,65.6 273.8,62.7 273.9,59.8 273.9,56.9 273.9,54 273.9,54 274,56.9 274,59.8 274,62.7 274,65.6 274.1,68.5 
		274.1,71.3 274.2,74.2 274.3,77.1 274.4,80 274.5,82.9 274.7,85.8 274.9,88.6 275.2,91.5 275.5,94.4 275.8,97.3 276.3,100.2 
		276.8,103.1 277.4,106 278,108.8 278.8,111.7 279.6,114.6 280.5,117.5 281.4,120.4 282.5,123.3 283.5,126.1 284.7,129 285.8,131.9 
		286.9,134.8 288,137.7 289.1,140.6 290.1,143.4 291,146.3 291.9,149.2 292.6,152.1 293.2,155 293.6,157.9 294,160.8 294.2,163.6 
		294.4,166.5 294.5,169.4 294.5,172.3 294.4,175.2 294.3,178.1 294.3,180.9 294.3,183.8 294.3,186.7 294.4,189.6 294.6,192.5 
		294.9,195.4 295.3,198.2 295.8,201.1 296.3,204 296.9,206.9 297.6,209.8 298.2,212.7 298.9,215.6 299.4,218.4 299.9,221.3 
		300.3,224.2 300.5,227.1 300.6,230 300.5,232.9 300.2,235.7 299.8,238.6 299.1,241.5 298.3,244.4 297.3,247.3 296.2,250.2 295,253 
		293.7,255.9 292.3,258.8 290.9,261.7 289.6,264.6 288.2,267.5 286.8,270.4 285.6,273.2 284.4,276.1 283.3,279 282.2,281.9 
		281.3,284.8 280.5,287.7 279.8,290.5 279.2,293.4 278.7,296.3 278.3,299.2 278,302.1 277.8,305 277.6,307.8 277.5,310.7 
		277.5,313.6 277.5,316.5 277.5,319.4 277.6,322.3 277.7,325.1 277.9,328 278,330.9 278.2,333.8 278.4,336.7 278.5,339.6 
		278.7,342.5 278.9,345.3 279.1,348.2 279.3,351.1 279.5,354 279.7,356.9 279.9,359.8 280.2,362.6 280.4,365.5 280.7,368.4 
		281,371.3 281.4,374.2 281.7,377.1 282.1,379.9 282.6,382.8 283,385.7 283.5,388.6 284,391.5 284.5,394.4 285,397.3 285.5,400.1 
		286,403 286.5,405.9 286.9,408.8 287.3,411.7 287.6,414.6 287.8,417.4 288,420.3 288.1,423.2 288.1,426.1 288,429 287.9,431.9 
		287.6,434.8 287.2,437.6 286.8,440.5 286.2,443.4 285.6,446.3 285,449.2 284.3,452.1 283.5,454.9 282.8,457.8 282,460.7 
		281.2,463.6 280.5,466.5 279.7,469.4 279.1,472.2 278.4,475.1 277.8,478 277.3,480.9 276.8,483.8 276.3,486.7 276,489.6 
		275.6,492.4 275.3,495.3 275.1,498.2 274.9,501.1 274.8,504 274.7,506.9 274.6,509.7 274.5,512.6 274.5,515.5 274.4,518.4 
		274.4,521.3 274.4,524.2 274.4,527.1 274.4,529.9 274.4,532.8 274.4,535.7 274.4,538.6 274.4,541.5 274.4,544.4 274.4,547.2 
		274.4,550.1 274.4,553 274.3,555.9 274.3,558.8 274.3,561.7 274.3,564.5 274.2,567.4 274.2,570.3 274.2,573.2 274.2,576.1 
		274.1,579 274.1,581.9 274.1,584.7 274,587.6 274,590.5 274,593.4 274,596.3 274,599.2 274,602 274,604.9 273.9,607.8 273.9,610.7 
		273.9,613.6 273.9,616.5 273.9,619.4 273.9,622.2 273.9,625.1 273.9,628 	"/>
	<polygon clip-path="url(#SVGID_2_)" fill="#00BFC4" points="643.7,600.6 643.7,598 643.7,595.3 643.7,592.7 643.7,590.1 
		643.7,587.5 643.7,584.9 643.7,582.3 643.6,579.7 643.6,577 643.6,574.4 643.6,571.8 643.6,569.2 643.6,566.6 643.5,564 
		643.5,561.4 643.5,558.8 643.5,556.1 643.5,553.5 643.5,550.9 643.5,548.3 643.4,545.7 643.4,543.1 643.5,540.5 643.5,537.8 
		643.5,535.2 643.5,532.6 643.5,530 643.5,527.4 643.5,524.8 643.5,522.2 643.5,519.5 643.5,516.9 643.5,514.3 643.4,511.7 
		643.3,509.1 643.2,506.5 643,503.9 642.7,501.2 642.2,498.6 641.7,496 640.9,493.4 639.8,490.8 638.5,488.2 636.8,485.6 634.7,483 
		632.1,480.3 629,477.7 625.4,475.1 621.2,472.5 616.4,469.9 611,467.3 605.2,464.7 598.9,462 592.2,459.4 585.3,456.8 578.4,454.2 
		571.5,451.6 564.8,449 558.5,446.4 552.7,443.7 547.5,441.1 543,438.5 539.2,435.9 536.1,433.3 533.7,430.7 532,428.1 530.9,425.4 
		530.3,422.8 530.1,420.2 530.2,417.6 530.7,415 531.5,412.4 532.5,409.8 533.9,407.2 535.5,404.5 537.5,401.9 539.8,399.3 
		542.5,396.7 545.5,394.1 548.9,391.5 552.7,388.8 556.6,386.2 560.8,383.6 565.1,381 569.4,378.4 573.6,375.8 577.7,373.2 
		581.5,370.6 585,367.9 588.1,365.3 590.9,362.7 593.2,360.1 595.1,357.5 596.7,354.9 598,352.3 598.9,349.6 599.8,347 600.5,344.4 
		601.2,341.8 602,339.2 602.9,336.6 603.9,334 605.2,331.3 606.5,328.7 608,326.1 609.5,323.5 611.1,320.9 612.4,318.3 613.6,315.7 
		614.5,313 615,310.4 615.1,307.8 614.6,305.2 613.5,302.6 611.9,300 609.6,297.4 606.7,294.8 603.1,292.1 599,289.5 594.2,286.9 
		588.8,284.3 582.9,281.7 576.5,279.1 569.7,276.5 562.4,273.8 554.8,271.2 547,268.6 539,266 530.9,263.4 522.9,260.8 515.1,258.2 
		507.6,255.5 500.6,252.9 494.1,250.3 488.5,247.7 483.8,245.1 480.3,242.5 478.1,239.9 477.3,237.3 478,234.6 480.3,232 
		484.2,229.4 489.5,226.8 496.2,224.2 503.9,221.6 512.4,219 521.4,216.3 530.5,213.7 539.3,211.1 547.5,208.5 554.9,205.9 
		561,203.3 565.7,200.7 569,198 570.6,195.4 570.7,192.8 569.3,190.2 566.6,187.6 562.7,185 557.8,182.4 552.3,179.7 546.6,177.1 
		540.9,174.5 535.5,171.9 531,169.3 527.4,166.7 525.2,164.1 524.5,161.5 525.4,158.8 528,156.2 532.1,153.6 537.7,151 544.5,148.4 
		552.3,145.8 560.8,143.1 569.6,140.5 578.5,137.9 587.2,135.3 595.5,132.7 603.2,130.1 610.2,127.5 616.4,124.9 621.8,122.2 
		626.4,119.6 630.2,117 633.4,114.4 635.9,111.8 637.9,109.2 639.4,106.6 640.6,103.9 641.5,101.3 642.2,98.7 642.7,96.1 643,93.5 
		643.2,90.9 643.4,88.3 643.5,85.7 643.6,83 643.6,80.4 643.8,80.4 643.8,83 643.9,85.7 644,88.3 644.1,90.9 644.4,93.5 644.7,96.1 
		645.2,98.7 645.8,101.3 646.7,103.9 647.9,106.6 649.5,109.2 651.5,111.8 654,114.4 657.1,117 661,119.6 665.6,122.2 671,124.9 
		677.2,127.5 684.2,130.1 691.9,132.7 700.2,135.3 708.9,137.9 717.8,140.5 726.6,143.1 735.1,145.8 742.8,148.4 749.7,151 
		755.2,153.6 759.4,156.2 761.9,158.8 762.8,161.5 762.1,164.1 759.9,166.7 756.4,169.3 751.8,171.9 746.5,174.5 740.8,177.1 
		735,179.7 729.6,182.4 724.7,185 720.8,187.6 718,190.2 716.6,192.8 716.7,195.4 718.4,198 721.6,200.7 726.4,203.3 732.5,205.9 
		739.8,208.5 748,211.1 756.9,213.7 766,216.3 774.9,219 783.5,221.6 791.2,224.2 797.8,226.8 803.2,229.4 807,232 809.3,234.6 
		810.1,237.3 809.3,239.9 807,242.5 803.5,245.1 798.8,247.7 793.2,250.3 786.8,252.9 779.8,255.5 772.3,258.2 764.4,260.8 
		756.5,263.4 748.4,266 740.4,268.6 732.6,271.2 725,273.8 717.7,276.5 710.8,279.1 704.4,281.7 698.5,284.3 693.2,286.9 
		688.4,289.5 684.2,292.1 680.7,294.8 677.8,297.4 675.5,300 673.8,302.6 672.8,305.2 672.3,307.8 672.3,310.4 672.9,313 
		673.7,315.7 674.9,318.3 676.3,320.9 677.8,323.5 679.4,326.1 680.8,328.7 682.2,331.3 683.4,334 684.5,336.6 685.4,339.2 
		686.2,341.8 686.9,344.4 687.6,347 688.4,349.6 689.4,352.3 690.7,354.9 692.2,357.5 694.2,360.1 696.5,362.7 699.2,365.3 
		702.4,367.9 705.9,370.6 709.7,373.2 713.8,375.8 718,378.4 722.3,381 726.5,383.6 730.7,386.2 734.7,388.8 738.4,391.5 
		741.8,394.1 744.9,396.7 747.6,399.3 749.9,401.9 751.9,404.5 753.5,407.2 754.8,409.8 755.9,412.4 756.7,415 757.1,417.6 
		757.3,420.2 757.1,422.8 756.5,425.4 755.3,428.1 753.6,430.7 751.3,433.3 748.2,435.9 744.4,438.5 739.9,441.1 734.7,443.7 
		728.9,446.4 722.5,449 715.9,451.6 709,454.2 702,456.8 695.2,459.4 688.5,462 682.2,464.7 676.3,467.3 671,469.9 666.2,472.5 
		662,475.1 658.3,477.7 655.2,480.3 652.7,483 650.6,485.6 648.9,488.2 647.5,490.8 646.5,493.4 645.7,496 645.1,498.6 644.7,501.2 
		644.4,503.9 644.2,506.5 644,509.1 643.9,511.7 643.9,514.3 643.8,516.9 643.8,519.5 643.8,522.2 643.8,524.8 643.8,527.4 
		643.9,530 643.9,532.6 643.9,535.2 643.9,537.8 643.9,540.5 643.9,543.1 643.9,545.7 643.9,548.3 643.9,550.9 643.9,553.5 
		643.9,556.1 643.9,558.8 643.8,561.4 643.8,564 643.8,566.6 643.8,569.2 643.8,571.8 643.7,574.4 643.7,577 643.7,579.7 
		643.7,582.3 643.7,584.9 643.7,587.5 643.7,590.1 643.7,592.7 643.7,595.3 643.7,598 643.7,600.6 	"/>
	
		<polygon clip-path="url(#SVGID_2_)" fill="none" stroke="#333333" stroke-width="1.000000e-02" stroke-linecap="round" stroke-linejoin="round" stroke-miterlimit="10" points="
		643.7,600.6 643.7,598 643.7,595.3 643.7,592.7 643.7,590.1 643.7,587.5 643.7,584.9 643.7,582.3 643.6,579.7 643.6,577 
		643.6,574.4 643.6,571.8 643.6,569.2 643.6,566.6 643.5,564 643.5,561.4 643.5,558.8 643.5,556.1 643.5,553.5 643.5,550.9 
		643.5,548.3 643.4,545.7 643.4,543.1 643.5,540.5 643.5,537.8 643.5,535.2 643.5,532.6 643.5,530 643.5,527.4 643.5,524.8 
		643.5,522.2 643.5,519.5 643.5,516.9 643.5,514.3 643.4,511.7 643.3,509.1 643.2,506.5 643,503.9 642.7,501.2 642.2,498.6 
		641.7,496 640.9,493.4 639.8,490.8 638.5,488.2 636.8,485.6 634.7,483 632.1,480.3 629,477.7 625.4,475.1 621.2,472.5 616.4,469.9 
		611,467.3 605.2,464.7 598.9,462 592.2,459.4 585.3,456.8 578.4,454.2 571.5,451.6 564.8,449 558.5,446.4 552.7,443.7 547.5,441.1 
		543,438.5 539.2,435.9 536.1,433.3 533.7,430.7 532,428.1 530.9,425.4 530.3,422.8 530.1,420.2 530.2,417.6 530.7,415 531.5,412.4 
		532.5,409.8 533.9,407.2 535.5,404.5 537.5,401.9 539.8,399.3 542.5,396.7 545.5,394.1 548.9,391.5 552.7,388.8 556.6,386.2 
		560.8,383.6 565.1,381 569.4,378.4 573.6,375.8 577.7,373.2 581.5,370.6 585,367.9 588.1,365.3 590.9,362.7 593.2,360.1 
		595.1,357.5 596.7,354.9 598,352.3 598.9,349.6 599.8,347 600.5,344.4 601.2,341.8 602,339.2 602.9,336.6 603.9,334 605.2,331.3 
		606.5,328.7 608,326.1 609.5,323.5 611.1,320.9 612.4,318.3 613.6,315.7 614.5,313 615,310.4 615.1,307.8 614.6,305.2 613.5,302.6 
		611.9,300 609.6,297.4 606.7,294.8 603.1,292.1 599,289.5 594.2,286.9 588.8,284.3 582.9,281.7 576.5,279.1 569.7,276.5 
		562.4,273.8 554.8,271.2 547,268.6 539,266 530.9,263.4 522.9,260.8 515.1,258.2 507.6,255.5 500.6,252.9 494.1,250.3 488.5,247.7 
		483.8,245.1 480.3,242.5 478.1,239.9 477.3,237.3 478,234.6 480.3,232 484.2,229.4 489.5,226.8 496.2,224.2 503.9,221.6 512.4,219 
		521.4,216.3 530.5,213.7 539.3,211.1 547.5,208.5 554.9,205.9 561,203.3 565.7,200.7 569,198 570.6,195.4 570.7,192.8 569.3,190.2 
		566.6,187.6 562.7,185 557.8,182.4 552.3,179.7 546.6,177.1 540.9,174.5 535.5,171.9 531,169.3 527.4,166.7 525.2,164.1 
		524.5,161.5 525.4,158.8 528,156.2 532.1,153.6 537.7,151 544.5,148.4 552.3,145.8 560.8,143.1 569.6,140.5 578.5,137.9 
		587.2,135.3 595.5,132.7 603.2,130.1 610.2,127.5 616.4,124.9 621.8,122.2 626.4,119.6 630.2,117 633.4,114.4 635.9,111.8 
		637.9,109.2 639.4,106.6 640.6,103.9 641.5,101.3 642.2,98.7 642.7,96.1 643,93.5 643.2,90.9 643.4,88.3 643.5,85.7 643.6,83 
		643.6,80.4 643.8,80.4 643.8,83 643.9,85.7 644,88.3 644.1,90.9 644.4,93.5 644.7,96.1 645.2,98.7 645.8,101.3 646.7,103.9 
		647.9,106.6 649.5,109.2 651.5,111.8 654,114.4 657.1,117 661,119.6 665.6,122.2 671,124.9 677.2,127.5 684.2,130.1 691.9,132.7 
		700.2,135.3 708.9,137.9 717.8,140.5 726.6,143.1 735.1,145.8 742.8,148.4 749.7,151 755.2,153.6 759.4,156.2 761.9,158.8 
		762.8,161.5 762.1,164.1 759.9,166.7 756.4,169.3 751.8,171.9 746.5,174.5 740.8,177.1 735,179.7 729.6,182.4 724.7,185 
		720.8,187.6 718,190.2 716.6,192.8 716.7,195.4 718.4,198 721.6,200.7 726.4,203.3 732.5,205.9 739.8,208.5 748,211.1 756.9,213.7 
		766,216.3 774.9,219 783.5,221.6 791.2,224.2 797.8,226.8 803.2,229.4 807,232 809.3,234.6 810.1,237.3 809.3,239.9 807,242.5 
		803.5,245.1 798.8,247.7 793.2,250.3 786.8,252.9 779.8,255.5 772.3,258.2 764.4,260.8 756.5,263.4 748.4,266 740.4,268.6 
		732.6,271.2 725,273.8 717.7,276.5 710.8,279.1 704.4,281.7 698.5,284.3 693.2,286.9 688.4,289.5 684.2,292.1 680.7,294.8 
		677.8,297.4 675.5,300 673.8,302.6 672.8,305.2 672.3,307.8 672.3,310.4 672.9,313 673.7,315.7 674.9,318.3 676.3,320.9 
		677.8,323.5 679.4,326.1 680.8,328.7 682.2,331.3 683.4,334 684.5,336.6 685.4,339.2 686.2,341.8 686.9,344.4 687.6,347 
		688.4,349.6 689.4,352.3 690.7,354.9 692.2,357.5 694.2,360.1 696.5,362.7 699.2,365.3 702.4,367.9 705.9,370.6 709.7,373.2 
		713.8,375.8 718,378.4 722.3,381 726.5,383.6 730.7,386.2 734.7,388.8 738.4,391.5 741.8,394.1 744.9,396.7 747.6,399.3 
		749.9,401.9 751.9,404.5 753.5,407.2 754.8,409.8 755.9,412.4 756.7,415 757.1,417.6 757.3,420.2 757.1,422.8 756.5,425.4 
		755.3,428.1 753.6,430.7 751.3,433.3 748.2,435.9 744.4,438.5 739.9,441.1 734.7,443.7 728.9,446.4 722.5,449 715.9,451.6 
		709,454.2 702,456.8 695.2,459.4 688.5,462 682.2,464.7 676.3,467.3 671,469.9 666.2,472.5 662,475.1 658.3,477.7 655.2,480.3 
		652.7,483 650.6,485.6 648.9,488.2 647.5,490.8 646.5,493.4 645.7,496 645.1,498.6 644.7,501.2 644.4,503.9 644.2,506.5 644,509.1 
		643.9,511.7 643.9,514.3 643.8,516.9 643.8,519.5 643.8,522.2 643.8,524.8 643.8,527.4 643.9,530 643.9,532.6 643.9,535.2 
		643.9,537.8 643.9,540.5 643.9,543.1 643.9,545.7 643.9,548.3 643.9,550.9 643.9,553.5 643.9,556.1 643.9,558.8 643.8,561.4 
		643.8,564 643.8,566.6 643.8,569.2 643.8,571.8 643.7,574.4 643.7,577 643.7,579.7 643.7,582.3 643.7,584.9 643.7,587.5 
		643.7,590.1 643.7,592.7 643.7,595.3 643.7,598 643.7,600.6 	"/>
	
		<line clip-path="url(#SVGID_2_)" fill="none" stroke="#333333" stroke-width="1.06" stroke-linejoin="round" stroke-miterlimit="10" x1="273.9" y1="175.5" x2="273.9" y2="136.5"/>
	
		<line clip-path="url(#SVGID_2_)" fill="none" stroke="#333333" stroke-width="1.06" stroke-linejoin="round" stroke-miterlimit="10" x1="273.9" y1="379.4" x2="273.9" y2="545.5"/>
	<g clip-path="url(#SVGID_2_)">
		<rect x="260" y="175.5" opacity="0.502" width="27.7" height="203.9"/>
		
			<rect x="260" y="175.5" fill="none" stroke="#333333" stroke-width="1.06" stroke-linecap="round" stroke-linejoin="round" stroke-miterlimit="10" width="27.7" height="203.9"/>
	</g>
	
		<line clip-path="url(#SVGID_2_)" fill="none" stroke="#333333" stroke-width="2.13" stroke-linejoin="round" stroke-miterlimit="10" x1="260" y1="230.3" x2="287.8" y2="230.3"/>
	
		<line clip-path="url(#SVGID_2_)" fill="none" stroke="#333333" stroke-width="1.06" stroke-linejoin="round" stroke-miterlimit="10" x1="643.7" y1="223.3" x2="643.7" y2="136.3"/>
	
		<line clip-path="url(#SVGID_2_)" fill="none" stroke="#333333" stroke-width="1.06" stroke-linejoin="round" stroke-miterlimit="10" x1="643.7" y1="397.2" x2="643.7" y2="544.7"/>
	<g clip-path="url(#SVGID_2_)">
		<rect x="629.8" y="223.3" opacity="0.502" width="27.7" height="173.9"/>
		
			<rect x="629.8" y="223.3" fill="none" stroke="#333333" stroke-width="1.06" stroke-linecap="round" stroke-linejoin="round" stroke-miterlimit="10" width="27.7" height="173.9"/>
	</g>
	
		<line clip-path="url(#SVGID_2_)" fill="none" stroke="#333333" stroke-width="2.13" stroke-linejoin="round" stroke-miterlimit="10" x1="629.8" y1="258" x2="657.5" y2="258"/>
	<path clip-path="url(#SVGID_2_)" fill="#FFFFFF" d="M268.8,230.3c0-2.8,2.3-5.1,5.1-5.1c2.8,0,5.1,2.3,5.1,5.1
		c0,2.8-2.3,5.1-5.1,5.1C271.1,235.4,268.8,233.1,268.8,230.3"/>
	
		<path clip-path="url(#SVGID_2_)" fill="none" stroke="#000000" stroke-width="0.75" stroke-linecap="round" stroke-linejoin="round" stroke-miterlimit="10" d="
		M268.8,230.3c0-2.8,2.3-5.1,5.1-5.1c2.8,0,5.1,2.3,5.1,5.1c0,2.8-2.3,5.1-5.1,5.1C271.1,235.4,268.8,233.1,268.8,230.3"/>
	<path clip-path="url(#SVGID_2_)" fill="#FFFFFF" d="M638.6,258c0-2.8,2.3-5.1,5.1-5.1c2.8,0,5.1,2.3,5.1,5.1c0,2.8-2.3,5.1-5.1,5.1
		C640.9,263.1,638.6,260.8,638.6,258"/>
	
		<path clip-path="url(#SVGID_2_)" fill="none" stroke="#000000" stroke-width="0.75" stroke-linecap="round" stroke-linejoin="round" stroke-miterlimit="10" d="
		M638.6,258c0-2.8,2.3-5.1,5.1-5.1c2.8,0,5.1,2.3,5.1,5.1c0,2.8-2.3,5.1-5.1,5.1C640.9,263.1,638.6,260.8,638.6,258"/>
</g>
<text transform="matrix(1 0 0 1 36.8329 550.2191)" fill="#7F7F7F" font-family="'Helvetica'" font-size="12.0417">0</text>
<text transform="matrix(1 0 0 1 16.747 376.5892)" fill="#7F7F7F" font-family="'Helvetica'" font-size="12.0417">1000</text>
<text transform="matrix(1 0 0 1 16.747 202.9603)" fill="#7F7F7F" font-family="'Helvetica'" font-size="12.0417">2000</text>
<line fill="none" stroke="#7F7F7F" stroke-width="1.06" stroke-linejoin="round" stroke-miterlimit="10" x1="46.9" y1="545.9" x2="52.1" y2="545.9"/>
<line fill="none" stroke="#7F7F7F" stroke-width="1.06" stroke-linejoin="round" stroke-miterlimit="10" x1="46.9" y1="372.3" x2="52.1" y2="372.3"/>
<line fill="none" stroke="#7F7F7F" stroke-width="1.06" stroke-linejoin="round" stroke-miterlimit="10" x1="46.9" y1="198.6" x2="52.1" y2="198.6"/>
<line fill="none" stroke="#7F7F7F" stroke-width="1.06" stroke-linejoin="round" stroke-miterlimit="10" x1="273.9" y1="661.8" x2="273.9" y2="656.7"/>
<line fill="none" stroke="#7F7F7F" stroke-width="1.06" stroke-linejoin="round" stroke-miterlimit="10" x1="643.7" y1="661.8" x2="643.7" y2="656.7"/>
<text transform="matrix(1 0 0 1 232.4863 673.8753)"><tspan x="0" y="0" fill="#7F7F7F" font-family="'Helvetica'" font-size="12.0417">C</tspan><tspan x="8.7" y="0" fill="#7F7F7F" font-family="'Helvetica'" font-size="12.0417">O</tspan><tspan x="17.6" y="0" fill="#7F7F7F" font-family="'Helvetica'" font-size="12.0417">T</tspan><tspan x="25" y="0" fill="#7F7F7F" font-family="'Helvetica'" font-size="12.0417">T</tspan><tspan x="31.8" y="0" fill="#7F7F7F" font-family="'Helvetica'" font-size="12.0417">ON, </tspan><tspan x="56.6" y="0" fill="#7F7F7F" font-family="'Helvetica'" font-size="12.0417">T</tspan><tspan x="63.5" y="0" fill="#7F7F7F" font-family="'Helvetica'" font-size="12.0417">OM</tspan></text>
<text transform="matrix(1 0 0 1 602.3466 673.8753)"><tspan x="0" y="0" fill="#7F7F7F" font-family="'Helvetica'" font-size="12.0417">P</tspan><tspan x="8" y="0" fill="#7F7F7F" font-family="'Helvetica'" font-size="12.0417">R</tspan><tspan x="16.1" y="0" fill="#7F7F7F" font-family="'Helvetica'" font-size="12.0417" letter-spacing="-1">Y</tspan><tspan x="23.1" y="0" fill="#7F7F7F" font-family="'Helvetica'" font-size="12.0417">OR, MARK</tspan></text>
<text transform="matrix(1 0 0 1 422.6601 688.5901)" font-family="'Helvetica'" font-size="14.45">SPONSOR</text>
<text transform="matrix(-6.123234e-17 -1 1 -6.123234e-17 12.4121 370.0996)"><tspan x="0" y="0" font-family="'Helvetica'" font-size="14.45">AI</tspan><tspan x="13.7" y="0" font-family="'Helvetica'" font-size="14.45">R</tspan><tspan x="23.7" y="0" font-family="'Helvetica'" font-size="14.45">TIME</tspan></text>
<rect x="877.6" y="300.5" fill="#FFFFFF" width="122.4" height="80.9"/>
<text transform="matrix(1 0 0 1 882.7372 314.1292)" font-family="'Helvetica-Bold'" font-size="12.0417">SPONSOR</text>
<rect x="882.7" y="320.9" fill="#F2F2F2" width="27.7" height="27.7"/>
<rect x="882.7" y="320.9" fill="none" stroke="#FFFFFF" stroke-width="1.06" stroke-linecap="round" stroke-linejoin="round" stroke-miterlimit="10" width="27.7" height="27.7"/>
<rect x="882.7" y="320.9" fill="#F8766D" width="27.7" height="27.7"/>
<rect x="882.7" y="320.9" fill="none" stroke="#333333" stroke-width="0.75" stroke-linecap="round" stroke-linejoin="round" stroke-miterlimit="10" width="27.7" height="27.7"/>
<rect x="882.7" y="348.6" fill="#F2F2F2" width="27.7" height="27.7"/>
<rect x="882.7" y="348.6" fill="none" stroke="#FFFFFF" stroke-width="1.06" stroke-linecap="round" stroke-linejoin="round" stroke-miterlimit="10" width="27.7" height="27.7"/>
<rect x="882.7" y="348.6" fill="#00BFC4" width="27.7" height="27.7"/>
<rect x="882.7" y="348.6" fill="none" stroke="#333333" stroke-width="0.75" stroke-linecap="round" stroke-linejoin="round" stroke-miterlimit="10" width="27.7" height="27.7"/>
<text transform="matrix(1 0 0 1 913.9492 339.0677)"><tspan x="0" y="0" font-family="'Helvetica'" font-size="12.0417">C</tspan><tspan x="8.7" y="0" font-family="'Helvetica'" font-size="12.0417">O</tspan><tspan x="17.6" y="0" font-family="'Helvetica'" font-size="12.0417">T</tspan><tspan x="25" y="0" font-family="'Helvetica'" font-size="12.0417">T</tspan><tspan x="31.8" y="0" font-family="'Helvetica'" font-size="12.0417">ON, </tspan><tspan x="56.6" y="0" font-family="'Helvetica'" font-size="12.0417">T</tspan><tspan x="63.5" y="0" font-family="'Helvetica'" font-size="12.0417">OM</tspan></text>
<text transform="matrix(1 0 0 1 913.9492 366.8128)"><tspan x="0" y="0" font-family="'Helvetica'" font-size="12.0417">P</tspan><tspan x="8" y="0" font-family="'Helvetica'" font-size="12.0417">R</tspan><tspan x="16.1" y="0" font-family="'Helvetica'" font-size="12.0417" letter-spacing="-1">Y</tspan><tspan x="23.1" y="0" font-family="'Helvetica'" font-size="12.0417">OR, MARK</tspan></text>
</svg>
