<?xml version="1.0" encoding="utf-8"?>
<!-- Generator: Adobe Illustrator 18.1.0, SVG Export Plug-In . SVG Version: 6.00 Build 0)  -->
<svg version="1.1" id="Layer_1" xmlns="http://www.w3.org/2000/svg" xmlns:xlink="http://www.w3.org/1999/xlink" x="0px" y="0px"
	 viewBox="0 -19.7 1000 702.7" enable-background="new 0 -19.7 1000 702.7" xml:space="preserve">
<g>
	<g>
		<defs>
			<rect id="SVGID_1_" x="52.1" y="0" width="813.5" height="631.4"/>
		</defs>
		<clipPath id="SVGID_2_">
			<use xlink:href="#SVGID_1_"  overflow="visible"/>
		</clipPath>
		<rect x="52.1" y="0" clip-path="url(#SVGID_2_)" fill="#E5E5E5" width="813.5" height="631.4"/>
	</g>
	<g>
		<defs>
			<rect id="SVGID_3_" x="52.1" y="0" width="813.5" height="631.4"/>
		</defs>
		<clipPath id="SVGID_4_">
			<use xlink:href="#SVGID_3_"  overflow="visible"/>
		</clipPath>
		
			<line clip-path="url(#SVGID_4_)" fill="none" stroke="#F2F2F2" stroke-width="0.53" stroke-linejoin="round" stroke-miterlimit="10" x1="52.1" y1="607.4" x2="865.5" y2="607.4"/>
	</g>
	<g>
		<defs>
			<rect id="SVGID_5_" x="52.1" y="0" width="813.5" height="631.4"/>
		</defs>
		<clipPath id="SVGID_6_">
			<use xlink:href="#SVGID_5_"  overflow="visible"/>
		</clipPath>
		
			<line clip-path="url(#SVGID_6_)" fill="none" stroke="#F2F2F2" stroke-width="0.53" stroke-linejoin="round" stroke-miterlimit="10" x1="52.1" y1="433.8" x2="865.5" y2="433.8"/>
	</g>
	<g>
		<defs>
			<rect id="SVGID_7_" x="52.1" y="0" width="813.5" height="631.4"/>
		</defs>
		<clipPath id="SVGID_8_">
			<use xlink:href="#SVGID_7_"  overflow="visible"/>
		</clipPath>
		
			<line clip-path="url(#SVGID_8_)" fill="none" stroke="#F2F2F2" stroke-width="0.53" stroke-linejoin="round" stroke-miterlimit="10" x1="52.1" y1="260.2" x2="865.5" y2="260.2"/>
	</g>
	<g>
		<defs>
			<rect id="SVGID_9_" x="52.1" y="0" width="813.5" height="631.4"/>
		</defs>
		<clipPath id="SVGID_10_">
			<use xlink:href="#SVGID_9_"  overflow="visible"/>
		</clipPath>
		
			<line clip-path="url(#SVGID_10_)" fill="none" stroke="#F2F2F2" stroke-width="0.53" stroke-linejoin="round" stroke-miterlimit="10" x1="52.1" y1="86.5" x2="865.5" y2="86.5"/>
	</g>
	<g>
		<defs>
			<rect id="SVGID_11_" x="52.1" y="0" width="813.5" height="631.4"/>
		</defs>
		<clipPath id="SVGID_12_">
			<use xlink:href="#SVGID_11_"  overflow="visible"/>
		</clipPath>
		
			<line clip-path="url(#SVGID_12_)" fill="none" stroke="#FFFFFF" stroke-width="1.06" stroke-linejoin="round" stroke-miterlimit="10" x1="52.1" y1="520.6" x2="865.5" y2="520.6"/>
	</g>
	<g>
		<defs>
			<rect id="SVGID_13_" x="52.1" y="0" width="813.5" height="631.4"/>
		</defs>
		<clipPath id="SVGID_14_">
			<use xlink:href="#SVGID_13_"  overflow="visible"/>
		</clipPath>
		
			<line clip-path="url(#SVGID_14_)" fill="none" stroke="#FFFFFF" stroke-width="1.06" stroke-linejoin="round" stroke-miterlimit="10" x1="52.1" y1="347" x2="865.5" y2="347"/>
	</g>
	<g>
		<defs>
			<rect id="SVGID_15_" x="52.1" y="0" width="813.5" height="631.4"/>
		</defs>
		<clipPath id="SVGID_16_">
			<use xlink:href="#SVGID_15_"  overflow="visible"/>
		</clipPath>
		
			<line clip-path="url(#SVGID_16_)" fill="none" stroke="#FFFFFF" stroke-width="1.06" stroke-linejoin="round" stroke-miterlimit="10" x1="52.1" y1="173.3" x2="865.5" y2="173.3"/>
	</g>
	<g>
		<defs>
			<rect id="SVGID_17_" x="52.1" y="0" width="813.5" height="631.4"/>
		</defs>
		<clipPath id="SVGID_18_">
			<use xlink:href="#SVGID_17_"  overflow="visible"/>
		</clipPath>
		
			<line clip-path="url(#SVGID_18_)" fill="none" stroke="#FFFFFF" stroke-width="1.06" stroke-linejoin="round" stroke-miterlimit="10" x1="273.9" y1="631.4" x2="273.9" y2="0"/>
	</g>
	<g>
		<defs>
			<rect id="SVGID_19_" x="52.1" y="0" width="813.5" height="631.4"/>
		</defs>
		<clipPath id="SVGID_20_">
			<use xlink:href="#SVGID_19_"  overflow="visible"/>
		</clipPath>
		
			<line clip-path="url(#SVGID_20_)" fill="none" stroke="#FFFFFF" stroke-width="1.06" stroke-linejoin="round" stroke-miterlimit="10" x1="643.7" y1="631.4" x2="643.7" y2="0"/>
	</g>
	<g>
		<defs>
			<rect id="SVGID_21_" x="52.1" y="0" width="813.5" height="631.4"/>
		</defs>
		<clipPath id="SVGID_22_">
			<use xlink:href="#SVGID_21_"  overflow="visible"/>
		</clipPath>
		<polygon clip-path="url(#SVGID_22_)" fill="#F8766D" points="273.9,602.7 273.9,599.8 273.9,596.9 273.9,594.1 273.9,591.2 
			273.9,588.3 273.9,585.4 273.9,582.5 273.9,579.6 273.9,576.7 273.8,573.9 273.8,571 273.8,568.1 273.8,565.2 273.8,562.3 
			273.8,559.4 273.7,556.6 273.7,553.7 273.7,550.8 273.7,547.9 273.6,545 273.6,542.1 273.6,539.2 273.5,536.4 273.5,533.5 
			273.5,530.6 273.5,527.7 273.5,524.8 273.4,521.9 273.4,519.1 273.4,516.2 273.4,513.3 273.4,510.4 273.4,507.5 273.4,504.6 
			273.4,501.8 273.4,498.9 273.4,496 273.4,493.1 273.4,490.2 273.3,487.3 273.3,484.4 273.2,481.6 273.1,478.7 272.9,475.8 
			272.7,472.9 272.5,470 272.2,467.1 271.9,464.3 271.5,461.4 271.1,458.5 270.6,455.6 270,452.7 269.4,449.8 268.8,446.9 
			268.1,444.1 267.4,441.2 266.6,438.3 265.8,435.4 265.1,432.5 264.3,429.6 263.6,426.8 262.8,423.9 262.2,421 261.6,418.1 
			261.1,415.2 260.6,412.3 260.2,409.5 260,406.6 259.8,403.7 259.7,400.8 259.7,397.9 259.8,395 260,392.1 260.3,389.3 
			260.6,386.4 261,383.5 261.4,380.6 261.8,377.7 262.3,374.8 262.8,372 263.3,369.1 263.8,366.2 264.3,363.3 264.8,360.4 
			265.3,357.5 265.7,354.6 266.1,351.8 266.5,348.9 266.8,346 267.1,343.1 267.4,340.2 267.6,337.3 267.9,334.5 268.1,331.6 
			268.3,328.7 268.5,325.8 268.7,322.9 268.9,320 269.1,317.2 269.3,314.3 269.5,311.4 269.6,308.5 269.8,305.6 270,302.7 
			270.1,299.8 270.2,297 270.3,294.1 270.4,291.2 270.4,288.3 270.3,285.4 270.2,282.5 270.1,279.7 269.8,276.8 269.5,273.9 
			269.1,271 268.6,268.1 268,265.2 267.3,262.4 266.5,259.5 265.6,256.6 264.6,253.7 263.5,250.8 262.3,247.9 261,245.1 
			259.7,242.2 258.3,239.3 256.9,236.4 255.5,233.5 254.1,230.6 252.8,227.7 251.6,224.9 250.5,222 249.5,219.1 248.7,216.2 
			248.1,213.3 247.6,210.4 247.3,207.6 247.2,204.7 247.3,201.8 247.5,198.9 247.9,196 248.4,193.1 249,190.3 249.6,187.4 
			250.2,184.5 250.9,181.6 251.5,178.7 252.1,175.8 252.5,172.9 252.9,170.1 253.2,167.2 253.4,164.3 253.5,161.4 253.6,158.5 
			253.5,155.6 253.5,152.8 253.4,149.9 253.4,147 253.4,144.1 253.4,141.2 253.6,138.3 253.8,135.5 254.2,132.6 254.7,129.7 
			255.3,126.8 256,123.9 256.8,121 257.7,118.1 258.7,115.3 259.8,112.4 260.9,109.5 262,106.6 263.2,103.7 264.3,100.8 265.4,98 
			266.4,95.1 267.4,92.2 268.3,89.3 269.1,86.4 269.8,83.5 270.5,80.7 271.1,77.8 271.6,74.9 272,72 272.4,69.1 272.7,66.2 
			272.9,63.3 273.1,60.5 273.3,57.6 273.5,54.7 273.6,51.8 273.6,48.9 273.7,46 273.8,43.2 273.8,40.3 273.8,37.4 273.9,34.5 
			273.9,31.6 273.9,28.7 273.9,28.7 274,31.6 274,34.5 274,37.4 274,40.3 274.1,43.2 274.1,46 274.2,48.9 274.3,51.8 274.4,54.7 
			274.5,57.6 274.7,60.5 274.9,63.3 275.2,66.2 275.5,69.1 275.8,72 276.3,74.9 276.8,77.8 277.4,80.7 278,83.5 278.8,86.4 
			279.6,89.3 280.5,92.2 281.4,95.1 282.5,98 283.5,100.8 284.7,103.7 285.8,106.6 286.9,109.5 288,112.4 289.1,115.3 290.1,118.1 
			291,121 291.9,123.9 292.6,126.8 293.2,129.7 293.6,132.6 294,135.5 294.2,138.3 294.4,141.2 294.5,144.1 294.5,147 294.4,149.9 
			294.3,152.8 294.3,155.6 294.3,158.5 294.3,161.4 294.4,164.3 294.6,167.2 294.9,170.1 295.3,172.9 295.8,175.8 296.3,178.7 
			296.9,181.6 297.6,184.5 298.2,187.4 298.9,190.3 299.4,193.1 299.9,196 300.3,198.9 300.5,201.8 300.6,204.7 300.5,207.6 
			300.2,210.4 299.8,213.3 299.1,216.2 298.3,219.1 297.3,222 296.2,224.9 295,227.7 293.7,230.6 292.3,233.5 290.9,236.4 
			289.6,239.3 288.2,242.2 286.8,245.1 285.6,247.9 284.4,250.8 283.3,253.7 282.2,256.6 281.3,259.5 280.5,262.4 279.8,265.2 
			279.2,268.1 278.7,271 278.3,273.9 278,276.8 277.8,279.7 277.6,282.5 277.5,285.4 277.5,288.3 277.5,291.2 277.5,294.1 
			277.6,297 277.7,299.8 277.9,302.7 278,305.6 278.2,308.5 278.4,311.4 278.5,314.3 278.7,317.2 278.9,320 279.1,322.9 
			279.3,325.8 279.5,328.7 279.7,331.6 279.9,334.5 280.2,337.3 280.4,340.2 280.7,343.1 281,346 281.4,348.9 281.7,351.8 
			282.1,354.6 282.6,357.5 283,360.4 283.5,363.3 284,366.2 284.5,369.1 285,372 285.5,374.8 286,377.7 286.5,380.6 286.9,383.5 
			287.3,386.4 287.6,389.3 287.8,392.1 288,395 288.1,397.9 288.1,400.8 288,403.7 287.9,406.6 287.6,409.5 287.2,412.3 
			286.8,415.2 286.2,418.1 285.6,421 285,423.9 284.3,426.8 283.5,429.6 282.8,432.5 282,435.4 281.2,438.3 280.5,441.2 
			279.7,444.1 279.1,446.9 278.4,449.8 277.8,452.7 277.3,455.6 276.8,458.5 276.3,461.4 276,464.3 275.6,467.1 275.3,470 
			275.1,472.9 274.9,475.8 274.8,478.7 274.7,481.6 274.6,484.4 274.5,487.3 274.5,490.2 274.4,493.1 274.4,496 274.4,498.9 
			274.4,501.8 274.4,504.6 274.4,507.5 274.4,510.4 274.4,513.3 274.4,516.2 274.4,519.1 274.4,521.9 274.4,524.8 274.4,527.7 
			274.3,530.6 274.3,533.5 274.3,536.4 274.3,539.2 274.2,542.1 274.2,545 274.2,547.9 274.2,550.8 274.1,553.7 274.1,556.6 
			274.1,559.4 274,562.3 274,565.2 274,568.1 274,571 274,573.9 274,576.7 274,579.6 273.9,582.5 273.9,585.4 273.9,588.3 
			273.9,591.2 273.9,594.1 273.9,596.9 273.9,599.8 		"/>
	</g>
	<g>
		<defs>
			<rect id="SVGID_23_" x="52.1" y="0" width="813.5" height="631.4"/>
		</defs>
		<clipPath id="SVGID_24_">
			<use xlink:href="#SVGID_23_"  overflow="visible"/>
		</clipPath>
		
			<polygon clip-path="url(#SVGID_24_)" fill="none" stroke="#333333" stroke-width="1.000000e-02" stroke-linecap="round" stroke-linejoin="round" stroke-miterlimit="10" points="
			273.9,602.7 273.9,599.8 273.9,596.9 273.9,594.1 273.9,591.2 273.9,588.3 273.9,585.4 273.9,582.5 273.9,579.6 273.9,576.7 
			273.8,573.9 273.8,571 273.8,568.1 273.8,565.2 273.8,562.3 273.8,559.4 273.7,556.6 273.7,553.7 273.7,550.8 273.7,547.9 
			273.6,545 273.6,542.1 273.6,539.2 273.5,536.4 273.5,533.5 273.5,530.6 273.5,527.7 273.5,524.8 273.4,521.9 273.4,519.1 
			273.4,516.2 273.4,513.3 273.4,510.4 273.4,507.5 273.4,504.6 273.4,501.8 273.4,498.9 273.4,496 273.4,493.1 273.4,490.2 
			273.3,487.3 273.3,484.4 273.2,481.6 273.1,478.7 272.9,475.8 272.7,472.9 272.5,470 272.2,467.1 271.9,464.3 271.5,461.4 
			271.1,458.5 270.6,455.6 270,452.7 269.4,449.8 268.8,446.9 268.1,444.1 267.4,441.2 266.6,438.3 265.8,435.4 265.1,432.5 
			264.3,429.6 263.6,426.8 262.8,423.9 262.2,421 261.6,418.1 261.1,415.2 260.6,412.3 260.2,409.5 260,406.6 259.8,403.7 
			259.7,400.8 259.7,397.9 259.8,395 260,392.1 260.3,389.3 260.6,386.4 261,383.5 261.4,380.6 261.8,377.7 262.3,374.8 262.8,372 
			263.3,369.1 263.8,366.2 264.3,363.3 264.8,360.4 265.3,357.5 265.7,354.6 266.1,351.8 266.5,348.9 266.8,346 267.1,343.1 
			267.4,340.2 267.6,337.3 267.9,334.5 268.1,331.6 268.3,328.7 268.5,325.8 268.7,322.9 268.9,320 269.1,317.2 269.3,314.3 
			269.5,311.4 269.6,308.5 269.8,305.6 270,302.7 270.1,299.8 270.2,297 270.3,294.1 270.4,291.2 270.4,288.3 270.3,285.4 
			270.2,282.5 270.1,279.7 269.8,276.8 269.5,273.9 269.1,271 268.6,268.1 268,265.2 267.3,262.4 266.5,259.5 265.6,256.6 
			264.6,253.7 263.5,250.8 262.3,247.9 261,245.1 259.7,242.2 258.3,239.3 256.9,236.4 255.5,233.5 254.1,230.6 252.8,227.7 
			251.6,224.9 250.5,222 249.5,219.1 248.7,216.2 248.1,213.3 247.6,210.4 247.3,207.6 247.2,204.7 247.3,201.8 247.5,198.9 
			247.9,196 248.4,193.1 249,190.3 249.6,187.4 250.2,184.5 250.9,181.6 251.5,178.7 252.1,175.8 252.5,172.9 252.9,170.1 
			253.2,167.2 253.4,164.3 253.5,161.4 253.6,158.5 253.5,155.6 253.5,152.8 253.4,149.9 253.4,147 253.4,144.1 253.4,141.2 
			253.6,138.3 253.8,135.5 254.2,132.6 254.7,129.7 255.3,126.8 256,123.9 256.8,121 257.7,118.1 258.7,115.3 259.8,112.4 
			260.9,109.5 262,106.6 263.2,103.7 264.3,100.8 265.4,98 266.4,95.1 267.4,92.2 268.3,89.3 269.1,86.4 269.8,83.5 270.5,80.7 
			271.1,77.8 271.6,74.9 272,72 272.4,69.1 272.7,66.2 272.9,63.3 273.1,60.5 273.3,57.6 273.5,54.7 273.6,51.8 273.6,48.9 
			273.7,46 273.8,43.2 273.8,40.3 273.8,37.4 273.9,34.5 273.9,31.6 273.9,28.7 273.9,28.7 274,31.6 274,34.5 274,37.4 274,40.3 
			274.1,43.2 274.1,46 274.2,48.9 274.3,51.8 274.4,54.7 274.5,57.6 274.7,60.5 274.9,63.3 275.2,66.2 275.5,69.1 275.8,72 
			276.3,74.9 276.8,77.8 277.4,80.7 278,83.5 278.8,86.4 279.6,89.3 280.5,92.2 281.4,95.1 282.5,98 283.5,100.8 284.7,103.7 
			285.8,106.6 286.9,109.5 288,112.4 289.1,115.3 290.1,118.1 291,121 291.9,123.9 292.6,126.8 293.2,129.7 293.6,132.6 294,135.5 
			294.2,138.3 294.4,141.2 294.5,144.1 294.5,147 294.4,149.9 294.3,152.8 294.3,155.6 294.3,158.5 294.3,161.4 294.4,164.3 
			294.6,167.2 294.9,170.1 295.3,172.9 295.8,175.8 296.3,178.7 296.9,181.6 297.6,184.5 298.2,187.4 298.9,190.3 299.4,193.1 
			299.9,196 300.3,198.9 300.5,201.8 300.6,204.7 300.5,207.6 300.2,210.4 299.8,213.3 299.1,216.2 298.3,219.1 297.3,222 
			296.2,224.9 295,227.7 293.7,230.6 292.3,233.5 290.9,236.4 289.6,239.3 288.2,242.2 286.8,245.1 285.6,247.9 284.4,250.8 
			283.3,253.7 282.2,256.6 281.3,259.5 280.5,262.4 279.8,265.2 279.2,268.1 278.7,271 278.3,273.9 278,276.8 277.8,279.7 
			277.6,282.5 277.5,285.4 277.5,288.3 277.5,291.2 277.5,294.1 277.6,297 277.7,299.8 277.9,302.7 278,305.6 278.2,308.5 
			278.4,311.4 278.5,314.3 278.7,317.2 278.9,320 279.1,322.9 279.3,325.8 279.5,328.7 279.7,331.6 279.9,334.5 280.2,337.3 
			280.4,340.2 280.7,343.1 281,346 281.4,348.9 281.7,351.8 282.1,354.6 282.6,357.5 283,360.4 283.5,363.3 284,366.2 284.5,369.1 
			285,372 285.5,374.8 286,377.7 286.5,380.6 286.9,383.5 287.3,386.4 287.6,389.3 287.8,392.1 288,395 288.1,397.9 288.1,400.8 
			288,403.7 287.9,406.6 287.6,409.5 287.2,412.3 286.8,415.2 286.2,418.1 285.6,421 285,423.9 284.3,426.8 283.5,429.6 
			282.8,432.5 282,435.4 281.2,438.3 280.5,441.2 279.7,444.1 279.1,446.9 278.4,449.8 277.8,452.7 277.3,455.6 276.8,458.5 
			276.3,461.4 276,464.3 275.6,467.1 275.3,470 275.1,472.9 274.9,475.8 274.8,478.7 274.7,481.6 274.6,484.4 274.5,487.3 
			274.5,490.2 274.4,493.1 274.4,496 274.4,498.9 274.4,501.8 274.4,504.6 274.4,507.5 274.4,510.4 274.4,513.3 274.4,516.2 
			274.4,519.1 274.4,521.9 274.4,524.8 274.4,527.7 274.3,530.6 274.3,533.5 274.3,536.4 274.3,539.2 274.2,542.1 274.2,545 
			274.2,547.9 274.2,550.8 274.1,553.7 274.1,556.6 274.1,559.4 274,562.3 274,565.2 274,568.1 274,571 274,573.9 274,576.7 
			274,579.6 273.9,582.5 273.9,585.4 273.9,588.3 273.9,591.2 273.9,594.1 273.9,596.9 273.9,599.8 		"/>
	</g>
	<g>
		<defs>
			<rect id="SVGID_25_" x="52.1" y="0" width="813.5" height="631.4"/>
		</defs>
		<clipPath id="SVGID_26_">
			<use xlink:href="#SVGID_25_"  overflow="visible"/>
		</clipPath>
		<polygon clip-path="url(#SVGID_26_)" fill="#00BFC4" points="643.7,575.3 643.7,572.7 643.7,570 643.7,567.4 643.7,564.8 
			643.7,562.2 643.7,559.6 643.7,557 643.6,554.4 643.6,551.7 643.6,549.1 643.6,546.5 643.6,543.9 643.6,541.3 643.5,538.7 
			643.5,536.1 643.5,533.5 643.5,530.8 643.5,528.2 643.5,525.6 643.5,523 643.4,520.4 643.4,517.8 643.5,515.2 643.5,512.5 
			643.5,509.9 643.5,507.3 643.5,504.7 643.5,502.1 643.5,499.5 643.5,496.9 643.5,494.2 643.5,491.6 643.5,489 643.4,486.4 
			643.3,483.8 643.2,481.2 643,478.6 642.7,475.9 642.2,473.3 641.7,470.7 640.9,468.1 639.8,465.5 638.5,462.9 636.8,460.3 
			634.7,457.7 632.1,455 629,452.4 625.4,449.8 621.2,447.2 616.4,444.6 611,442 605.2,439.4 598.9,436.7 592.2,434.1 585.3,431.5 
			578.4,428.9 571.5,426.3 564.8,423.7 558.5,421.1 552.7,418.4 547.5,415.8 543,413.2 539.2,410.6 536.1,408 533.7,405.4 
			532,402.8 530.9,400.1 530.3,397.5 530.1,394.9 530.2,392.3 530.7,389.7 531.5,387.1 532.5,384.5 533.9,381.9 535.5,379.2 
			537.5,376.6 539.8,374 542.5,371.4 545.5,368.8 548.9,366.2 552.7,363.5 556.6,360.9 560.8,358.3 565.1,355.7 569.4,353.1 
			573.6,350.5 577.7,347.9 581.5,345.3 585,342.6 588.1,340 590.9,337.4 593.2,334.8 595.1,332.2 596.7,329.6 598,327 598.9,324.3 
			599.8,321.7 600.5,319.1 601.2,316.5 602,313.9 602.9,311.3 603.9,308.7 605.2,306 606.5,303.4 608,300.8 609.5,298.2 
			611.1,295.6 612.4,293 613.6,290.4 614.5,287.7 615,285.1 615.1,282.5 614.6,279.9 613.5,277.3 611.9,274.7 609.6,272.1 
			606.7,269.5 603.1,266.8 599,264.2 594.2,261.6 588.8,259 582.9,256.4 576.5,253.8 569.7,251.2 562.4,248.5 554.8,245.9 
			547,243.3 539,240.7 530.9,238.1 522.9,235.5 515.1,232.9 507.6,230.2 500.6,227.6 494.1,225 488.5,222.4 483.8,219.8 
			480.3,217.2 478.1,214.6 477.3,212 478,209.3 480.3,206.7 484.2,204.1 489.5,201.5 496.2,198.9 503.9,196.3 512.4,193.7 
			521.4,191 530.5,188.4 539.3,185.8 547.5,183.2 554.9,180.6 561,178 565.7,175.4 569,172.7 570.6,170.1 570.7,167.5 569.3,164.9 
			566.6,162.3 562.7,159.7 557.8,157.1 552.3,154.4 546.6,151.8 540.9,149.2 535.5,146.6 531,144 527.4,141.4 525.2,138.8 
			524.5,136.2 525.4,133.5 528,130.9 532.1,128.3 537.7,125.7 544.5,123.1 552.3,120.5 560.8,117.8 569.6,115.2 578.5,112.6 
			587.2,110 595.5,107.4 603.2,104.8 610.2,102.2 616.4,99.6 621.8,96.9 626.4,94.3 630.2,91.7 633.4,89.1 635.9,86.5 637.9,83.9 
			639.4,81.3 640.6,78.6 641.5,76 642.2,73.4 642.7,70.8 643,68.2 643.2,65.6 643.4,63 643.5,60.4 643.6,57.7 643.6,55.1 
			643.8,55.1 643.8,57.7 643.9,60.4 644,63 644.1,65.6 644.4,68.2 644.7,70.8 645.2,73.4 645.8,76 646.7,78.6 647.9,81.3 
			649.5,83.9 651.5,86.5 654,89.1 657.1,91.7 661,94.3 665.6,96.9 671,99.6 677.2,102.2 684.2,104.8 691.9,107.4 700.2,110 
			708.9,112.6 717.8,115.2 726.6,117.8 735.1,120.5 742.8,123.1 749.7,125.7 755.2,128.3 759.4,130.9 761.9,133.5 762.8,136.2 
			762.1,138.8 759.9,141.4 756.4,144 751.8,146.6 746.5,149.2 740.8,151.8 735,154.4 729.6,157.1 724.7,159.7 720.8,162.3 
			718,164.9 716.6,167.5 716.7,170.1 718.4,172.7 721.6,175.4 726.4,178 732.5,180.6 739.8,183.2 748,185.8 756.9,188.4 766,191 
			774.9,193.7 783.5,196.3 791.2,198.9 797.8,201.5 803.2,204.1 807,206.7 809.3,209.3 810.1,212 809.3,214.6 807,217.2 
			803.5,219.8 798.8,222.4 793.2,225 786.8,227.6 779.8,230.2 772.3,232.9 764.4,235.5 756.5,238.1 748.4,240.7 740.4,243.3 
			732.6,245.9 725,248.5 717.7,251.2 710.8,253.8 704.4,256.4 698.5,259 693.2,261.6 688.4,264.2 684.2,266.8 680.7,269.5 
			677.8,272.1 675.5,274.7 673.8,277.3 672.8,279.9 672.3,282.5 672.3,285.1 672.9,287.7 673.7,290.4 674.9,293 676.3,295.6 
			677.8,298.2 679.4,300.8 680.8,303.4 682.2,306 683.4,308.7 684.5,311.3 685.4,313.9 686.2,316.5 686.9,319.1 687.6,321.7 
			688.4,324.3 689.4,327 690.7,329.6 692.2,332.2 694.2,334.8 696.5,337.4 699.2,340 702.4,342.6 705.9,345.3 709.7,347.9 
			713.8,350.5 718,353.1 722.3,355.7 726.5,358.3 730.7,360.9 734.7,363.5 738.4,366.2 741.8,368.8 744.9,371.4 747.6,374 
			749.9,376.6 751.9,379.2 753.5,381.9 754.8,384.5 755.9,387.1 756.7,389.7 757.1,392.3 757.3,394.9 757.1,397.5 756.5,400.1 
			755.3,402.8 753.6,405.4 751.3,408 748.2,410.6 744.4,413.2 739.9,415.8 734.7,418.4 728.9,421.1 722.5,423.7 715.9,426.3 
			709,428.9 702,431.5 695.2,434.1 688.5,436.7 682.2,439.4 676.3,442 671,444.6 666.2,447.2 662,449.8 658.3,452.4 655.2,455 
			652.7,457.7 650.6,460.3 648.9,462.9 647.5,465.5 646.5,468.1 645.7,470.7 645.1,473.3 644.7,475.9 644.4,478.6 644.2,481.2 
			644,483.8 643.9,486.4 643.9,489 643.8,491.6 643.8,494.2 643.8,496.9 643.8,499.5 643.8,502.1 643.9,504.7 643.9,507.3 
			643.9,509.9 643.9,512.5 643.9,515.2 643.9,517.8 643.9,520.4 643.9,523 643.9,525.6 643.9,528.2 643.9,530.8 643.9,533.5 
			643.8,536.1 643.8,538.7 643.8,541.3 643.8,543.9 643.8,546.5 643.7,549.1 643.7,551.7 643.7,554.4 643.7,557 643.7,559.6 
			643.7,562.2 643.7,564.8 643.7,567.4 643.7,570 643.7,572.7 		"/>
	</g>
	<g>
		<defs>
			<rect id="SVGID_27_" x="52.1" y="0" width="813.5" height="631.4"/>
		</defs>
		<clipPath id="SVGID_28_">
			<use xlink:href="#SVGID_27_"  overflow="visible"/>
		</clipPath>
		
			<polygon clip-path="url(#SVGID_28_)" fill="none" stroke="#333333" stroke-width="1.000000e-02" stroke-linecap="round" stroke-linejoin="round" stroke-miterlimit="10" points="
			643.7,575.3 643.7,572.7 643.7,570 643.7,567.4 643.7,564.8 643.7,562.2 643.7,559.6 643.7,557 643.6,554.4 643.6,551.7 
			643.6,549.1 643.6,546.5 643.6,543.9 643.6,541.3 643.5,538.7 643.5,536.1 643.5,533.5 643.5,530.8 643.5,528.2 643.5,525.6 
			643.5,523 643.4,520.4 643.4,517.8 643.5,515.2 643.5,512.5 643.5,509.9 643.5,507.3 643.5,504.7 643.5,502.1 643.5,499.5 
			643.5,496.9 643.5,494.2 643.5,491.6 643.5,489 643.4,486.4 643.3,483.8 643.2,481.2 643,478.6 642.7,475.9 642.2,473.3 
			641.7,470.7 640.9,468.1 639.8,465.5 638.5,462.9 636.8,460.3 634.7,457.7 632.1,455 629,452.4 625.4,449.8 621.2,447.2 
			616.4,444.6 611,442 605.2,439.4 598.9,436.7 592.2,434.1 585.3,431.5 578.4,428.9 571.5,426.3 564.8,423.7 558.5,421.1 
			552.7,418.4 547.5,415.8 543,413.2 539.2,410.6 536.1,408 533.7,405.4 532,402.8 530.9,400.1 530.3,397.5 530.1,394.9 
			530.2,392.3 530.7,389.7 531.5,387.1 532.5,384.5 533.9,381.9 535.5,379.2 537.5,376.6 539.8,374 542.5,371.4 545.5,368.8 
			548.9,366.2 552.7,363.5 556.6,360.9 560.8,358.3 565.1,355.7 569.4,353.1 573.6,350.5 577.7,347.9 581.5,345.3 585,342.6 
			588.1,340 590.9,337.4 593.2,334.8 595.1,332.2 596.7,329.6 598,327 598.9,324.3 599.8,321.7 600.5,319.1 601.2,316.5 602,313.9 
			602.9,311.3 603.9,308.7 605.2,306 606.5,303.4 608,300.8 609.5,298.2 611.1,295.6 612.4,293 613.6,290.4 614.5,287.7 615,285.1 
			615.1,282.5 614.6,279.9 613.5,277.3 611.9,274.7 609.6,272.1 606.7,269.5 603.1,266.8 599,264.2 594.2,261.6 588.8,259 
			582.9,256.4 576.5,253.8 569.7,251.2 562.4,248.5 554.8,245.9 547,243.3 539,240.7 530.9,238.1 522.9,235.5 515.1,232.9 
			507.6,230.2 500.6,227.6 494.1,225 488.5,222.4 483.8,219.8 480.3,217.2 478.1,214.6 477.3,212 478,209.3 480.3,206.7 
			484.2,204.1 489.5,201.5 496.2,198.9 503.9,196.3 512.4,193.7 521.4,191 530.5,188.4 539.3,185.8 547.5,183.2 554.9,180.6 
			561,178 565.7,175.4 569,172.7 570.6,170.1 570.7,167.5 569.3,164.9 566.6,162.3 562.7,159.7 557.8,157.1 552.3,154.4 
			546.6,151.8 540.9,149.2 535.5,146.6 531,144 527.4,141.4 525.2,138.8 524.5,136.2 525.4,133.5 528,130.9 532.1,128.3 
			537.7,125.7 544.5,123.1 552.3,120.5 560.8,117.8 569.6,115.2 578.5,112.6 587.2,110 595.5,107.4 603.2,104.8 610.2,102.2 
			616.4,99.6 621.8,96.9 626.4,94.3 630.2,91.7 633.4,89.1 635.9,86.5 637.9,83.9 639.4,81.3 640.6,78.6 641.5,76 642.2,73.4 
			642.7,70.8 643,68.2 643.2,65.6 643.4,63 643.5,60.4 643.6,57.7 643.6,55.1 643.8,55.1 643.8,57.7 643.9,60.4 644,63 644.1,65.6 
			644.4,68.2 644.7,70.8 645.2,73.4 645.8,76 646.7,78.6 647.9,81.3 649.5,83.9 651.5,86.5 654,89.1 657.1,91.7 661,94.3 
			665.6,96.9 671,99.6 677.2,102.2 684.2,104.8 691.9,107.4 700.2,110 708.9,112.6 717.8,115.2 726.6,117.8 735.1,120.5 
			742.8,123.1 749.7,125.7 755.2,128.3 759.4,130.9 761.9,133.5 762.8,136.2 762.1,138.8 759.9,141.4 756.4,144 751.8,146.6 
			746.5,149.2 740.8,151.8 735,154.4 729.6,157.1 724.7,159.7 720.8,162.3 718,164.9 716.6,167.5 716.7,170.1 718.4,172.7 
			721.6,175.4 726.4,178 732.5,180.6 739.8,183.2 748,185.8 756.9,188.4 766,191 774.9,193.7 783.5,196.3 791.2,198.9 797.8,201.5 
			803.2,204.1 807,206.7 809.3,209.3 810.1,212 809.3,214.6 807,217.2 803.5,219.8 798.8,222.4 793.2,225 786.8,227.6 779.8,230.2 
			772.3,232.9 764.4,235.5 756.5,238.1 748.4,240.7 740.4,243.3 732.6,245.9 725,248.5 717.7,251.2 710.8,253.8 704.4,256.4 
			698.5,259 693.2,261.6 688.4,264.2 684.2,266.8 680.7,269.5 677.8,272.1 675.5,274.7 673.8,277.3 672.8,279.9 672.3,282.5 
			672.3,285.1 672.9,287.7 673.7,290.4 674.9,293 676.3,295.6 677.8,298.2 679.4,300.8 680.8,303.4 682.2,306 683.4,308.7 
			684.5,311.3 685.4,313.9 686.2,316.5 686.9,319.1 687.6,321.7 688.4,324.3 689.4,327 690.7,329.6 692.2,332.2 694.2,334.8 
			696.5,337.4 699.2,340 702.4,342.6 705.9,345.3 709.7,347.9 713.8,350.5 718,353.1 722.3,355.7 726.5,358.3 730.7,360.9 
			734.7,363.5 738.4,366.2 741.8,368.8 744.9,371.4 747.6,374 749.9,376.6 751.9,379.2 753.5,381.9 754.8,384.5 755.9,387.1 
			756.7,389.7 757.1,392.3 757.3,394.9 757.1,397.5 756.5,400.1 755.3,402.8 753.6,405.4 751.3,408 748.2,410.6 744.4,413.2 
			739.9,415.8 734.7,418.4 728.9,421.1 722.5,423.7 715.9,426.3 709,428.9 702,431.5 695.2,434.1 688.5,436.7 682.2,439.4 
			676.3,442 671,444.6 666.2,447.2 662,449.8 658.3,452.4 655.2,455 652.7,457.7 650.6,460.3 648.9,462.9 647.5,465.5 646.5,468.1 
			645.7,470.7 645.1,473.3 644.7,475.9 644.4,478.6 644.2,481.2 644,483.8 643.9,486.4 643.9,489 643.8,491.6 643.8,494.2 
			643.8,496.9 643.8,499.5 643.8,502.1 643.9,504.7 643.9,507.3 643.9,509.9 643.9,512.5 643.9,515.2 643.9,517.8 643.9,520.4 
			643.9,523 643.9,525.6 643.9,528.2 643.9,530.8 643.9,533.5 643.8,536.1 643.8,538.7 643.8,541.3 643.8,543.9 643.8,546.5 
			643.7,549.1 643.7,551.7 643.7,554.4 643.7,557 643.7,559.6 643.7,562.2 643.7,564.8 643.7,567.4 643.7,570 643.7,572.7 		"/>
	</g>
</g>
<text transform="matrix(1 0 0 1 36.833 524.92)" fill="#7F7F7F" font-family="'Helvetica'" font-size="12.0417">0</text>
<text transform="matrix(1 0 0 1 16.7471 351.2887)" fill="#7F7F7F" font-family="'Helvetica'" font-size="12.0417">1000</text>
<text transform="matrix(1 0 0 1 16.7471 177.6608)" fill="#7F7F7F" font-family="'Helvetica'" font-size="12.0417">2000</text>
<line fill="none" stroke="#7F7F7F" stroke-width="1.06" stroke-linejoin="round" stroke-miterlimit="10" x1="46.9" y1="520.6" x2="52.1" y2="520.6"/>
<line fill="none" stroke="#7F7F7F" stroke-width="1.06" stroke-linejoin="round" stroke-miterlimit="10" x1="46.9" y1="347" x2="52.1" y2="347"/>
<line fill="none" stroke="#7F7F7F" stroke-width="1.06" stroke-linejoin="round" stroke-miterlimit="10" x1="46.9" y1="173.3" x2="52.1" y2="173.3"/>
<line fill="none" stroke="#7F7F7F" stroke-width="1.06" stroke-linejoin="round" stroke-miterlimit="10" x1="273.9" y1="636.5" x2="273.9" y2="631.4"/>
<line fill="none" stroke="#7F7F7F" stroke-width="1.06" stroke-linejoin="round" stroke-miterlimit="10" x1="643.7" y1="636.5" x2="643.7" y2="631.4"/>
<text transform="matrix(1 0 0 1 232.4854 648.5763)" fill="#7F7F7F" font-family="'Helvetica'" font-size="12.0417">C</text>
<text transform="matrix(1 0 0 1 241.1865 648.5763)" fill="#7F7F7F" font-family="'Helvetica'" font-size="12.0417">O</text>
<text transform="matrix(1 0 0 1 250.0859 648.5763)" fill="#7F7F7F" font-family="'Helvetica'" font-size="12.0417">T</text>
<text transform="matrix(1 0 0 1 257.4863 648.5763)" fill="#7F7F7F" font-family="'Helvetica'" font-size="12.0417">T</text>
<text transform="matrix(1 0 0 1 264.2861 648.5763)" fill="#7F7F7F" font-family="'Helvetica'" font-size="12.0417">ON, </text>
<text transform="matrix(1 0 0 1 289.0869 648.5763)" fill="#7F7F7F" font-family="'Helvetica'" font-size="12.0417">T</text>
<text transform="matrix(1 0 0 1 295.9863 648.5763)" fill="#7F7F7F" font-family="'Helvetica'" font-size="12.0417">OM</text>
<text transform="matrix(1 0 0 1 602.3477 648.5763)" fill="#7F7F7F" font-family="'Helvetica'" font-size="12.0417">P</text>
<text transform="matrix(1 0 0 1 610.3467 648.5763)" fill="#7F7F7F" font-family="'Helvetica'" font-size="12.0417">R</text>
<text transform="matrix(1 0 0 1 618.4463 648.5763)" fill="#7F7F7F" font-family="'Helvetica'" font-size="12.0417">Y</text>
<text transform="matrix(1 0 0 1 625.4473 648.5763)" fill="#7F7F7F" font-family="'Helvetica'" font-size="12.0417">OR, MARK</text>
<text transform="matrix(1 0 0 1 422.6602 663.2892)" font-family="'Helvetica'" font-size="14.45">SPONSOR</text>
<text transform="matrix(-6.123234e-17 -1 1 -6.123234e-17 12.4121 344.801)" font-family="'Helvetica'" font-size="14.45">AI</text>
<text transform="matrix(-6.123234e-17 -1 1 -6.123234e-17 12.4121 331.0989)" font-family="'Helvetica'" font-size="14.45">R</text>
<text transform="matrix(-6.123234e-17 -1 1 -6.123234e-17 12.4121 321.098)" font-family="'Helvetica'" font-size="14.45">TIME</text>
<rect x="877.6" y="275.2" fill="#FFFFFF" width="122.4" height="80.9"/>
<text transform="matrix(1 0 0 1 882.7364 288.8287)" font-family="'Helvetica-Bold'" font-size="12.0417">SPONSOR</text>
<rect x="882.7" y="295.6" fill="#F2F2F2" width="27.7" height="27.7"/>
<rect x="882.7" y="295.6" fill="none" stroke="#FFFFFF" stroke-width="1.06" stroke-linecap="round" stroke-linejoin="round" stroke-miterlimit="10" width="27.7" height="27.7"/>
<rect x="882.7" y="295.6" fill="#F8766D" width="27.7" height="27.7"/>
<rect x="882.7" y="295.6" fill="none" stroke="#333333" stroke-width="0.75" stroke-linecap="round" stroke-linejoin="round" stroke-miterlimit="10" width="27.7" height="27.7"/>
<rect x="882.7" y="323.3" fill="#F2F2F2" width="27.7" height="27.7"/>
<rect x="882.7" y="323.3" fill="none" stroke="#FFFFFF" stroke-width="1.06" stroke-linecap="round" stroke-linejoin="round" stroke-miterlimit="10" width="27.7" height="27.7"/>
<rect x="882.7" y="323.3" fill="#00BFC4" width="27.7" height="27.7"/>
<rect x="882.7" y="323.3" fill="none" stroke="#333333" stroke-width="0.75" stroke-linecap="round" stroke-linejoin="round" stroke-miterlimit="10" width="27.7" height="27.7"/>
<text transform="matrix(1 0 0 1 913.9492 313.7672)" font-family="'Helvetica'" font-size="12.0417">C</text>
<text transform="matrix(1 0 0 1 922.6484 313.7672)" font-family="'Helvetica'" font-size="12.0417">O</text>
<text transform="matrix(1 0 0 1 931.5498 313.7672)" font-family="'Helvetica'" font-size="12.0417">T</text>
<text transform="matrix(1 0 0 1 938.9492 313.7672)" font-family="'Helvetica'" font-size="12.0417">T</text>
<text transform="matrix(1 0 0 1 945.7501 313.7672)" font-family="'Helvetica'" font-size="12.0417">ON, </text>
<text transform="matrix(1 0 0 1 970.5489 313.7672)" font-family="'Helvetica'" font-size="12.0417">T</text>
<text transform="matrix(1 0 0 1 977.4502 313.7672)" font-family="'Helvetica'" font-size="12.0417">OM</text>
<text transform="matrix(1 0 0 1 913.9492 341.5123)" font-family="'Helvetica'" font-size="12.0417">P</text>
<text transform="matrix(1 0 0 1 921.9482 341.5123)" font-family="'Helvetica'" font-size="12.0417">R</text>
<text transform="matrix(1 0 0 1 930.0498 341.5123)" font-family="'Helvetica'" font-size="12.0417">Y</text>
<text transform="matrix(1 0 0 1 937.0498 341.5123)" font-family="'Helvetica'" font-size="12.0417">OR, MARK</text>
</svg>
